<svg id="Capa_1" data-name="Capa 1" xmlns="http://www.w3.org/2000/svg" viewBox="0 0 40 40"><defs><style>.cls-1{fill:#921e30;}.cls-2{fill:#fefefe;}</style></defs><title>bancos_CH</title><circle id="_Trazado_" data-name="&lt;Trazado&gt;" class="cls-1" cx="20" cy="20" r="20" transform="translate(-8.28 20) rotate(-45)"/><path id="_Trazado_2" data-name="&lt;Trazado&gt;" class="cls-2" d="M25.3,11.34h0a4.1,4.1,0,0,1-.94.38,14,14,0,0,1-3.92.52A15,15,0,0,1,21,8.35a4.12,4.12,0,0,1,.38-.91,0,0,0,0,1,0,0h0a1.34,1.34,0,0,0-2.68,0h0a0,0,0,0,0,0,0,5,5,0,0,1,.36.91,14,14,0,0,1,.53,3.89,14.41,14.41,0,0,1-3.93-.52,4.46,4.46,0,0,1-.93-.38h0a1.35,1.35,0,0,0,0,2.69h0a3.79,3.79,0,0,1,.94-.39,14.55,14.55,0,0,1,3.9-.52,11.64,11.64,0,0,1-.7,3.85,1.92,1.92,0,0,1-1,1.14h0L20,33.91l2.17-15.8h0a2,2,0,0,1-1-1.14l0-.06h0a11.86,11.86,0,0,1-.67-3.79,14.68,14.68,0,0,1,3.9.52,3.78,3.78,0,0,1,.94.39h0a1.35,1.35,0,0,0,0-2.69Z"/></svg>