<svg id="Capa_1" data-name="Capa 1" xmlns="http://www.w3.org/2000/svg" viewBox="0 0 40 40"><defs><style>.cls-1{fill:#476ba2;}.cls-2{fill:#fff;fill-rule:evenodd;}</style></defs><title>bancos_CH</title><path id="_Trazado_" data-name="&lt;Trazado&gt;" class="cls-1" d="M40,20A20,20,0,1,1,20,0,20,20,0,0,1,40,20Z"/><g id="_Grupo_" data-name="&lt;Grupo&gt;"><path id="_Trazado_2" data-name="&lt;Trazado&gt;" class="cls-2" d="M15.59,27.84c.53,0,.74-.05.81.3a4.44,4.44,0,0,0,3.65,3.41,5.87,5.87,0,0,0,4.78-.94,2.88,2.88,0,0,0,1.53-2c.1-.35,0-.67.3-.67,0,0,4.42,0,4.42,0,.4,0,.5.2.37.49a10.32,10.32,0,0,1-5.32,4.28s-3.89,1-6.49.59c-3.9-.66-6.34-1.91-8.33-4.93,0,0-.39-.62.45-.49Z"/><path id="_Trazado_3" data-name="&lt;Trazado&gt;" class="cls-2" d="M9,8.06h.89V20.21A2.55,2.55,0,0,0,8.7,22.33a13.79,13.79,0,0,0,4,10.76H10.16S4.72,23.07,9,19.89C9,19.81,9,8.06,9,8.06Z"/><g id="_Grupo_2" data-name="&lt;Grupo&gt;"><path class="cls-2" d="M31.45,18.54c0-.38-.23-.38-.23-.38a3.54,3.54,0,0,1-.35-.23.6.6,0,0,0-.38-.62s-2.63-2.08-2.63-2.1a.87.87,0,0,0-.84-.36H12.28c-.7,0-.87.3-.87.81v4.58a.68.68,0,0,0,.79.75h3c.78.05.66-.82.66-1.23s.15-.25.23-.25,10.24,0,10.24,0c.72,0,.61.58.63,1s.21.54.74.57c0,0,3,0,3,0,.76,0,.74-.28.76-.64C31.45,20.4,31.43,18.57,31.45,18.54ZM26.16,18H16.05c-.21,0-.18-.15-.18-.15V16.52c0-.17.22-.12.22-.12H26.16a.82.82,0,0,1,0,1.63Z"/></g><g id="_Grupo_3" data-name="&lt;Grupo&gt;"><path class="cls-2" d="M32.83,22.39c-.08-.64-.48-.74-1-.77,0,0-20.83,0-20.83,0a.81.81,0,0,0-.91.79,11.09,11.09,0,0,0,.63,4.38.66.66,0,0,0,.71.51H31.14c.57,0,.77.1,1-.52A12.39,12.39,0,0,0,32.83,22.39ZM27,25a.82.82,0,0,1-.81.82H16.66a.82.82,0,0,1-.82-.82V23.91a.82.82,0,0,1,.82-.81h9.55a.81.81,0,0,1,.81.81Z"/></g><g id="_Grupo_4" data-name="&lt;Grupo&gt;"><path class="cls-2" d="M25.75,13.57s-3.6-2.89-3.63-2.89a1.47,1.47,0,0,0-1-.34H19c.34-.23-.25-.6-.25-.6L17,8.38a1.1,1.1,0,0,0-.82-.31H12.08a.63.63,0,0,0-.73.65v4.7a.84.84,0,0,0,.9.86H25.69C26.46,14.33,26,13.71,25.75,13.57ZM16,9.68c.15,0,.46,0,.46.35s-.31.34-.46.34Zm4.81,2.75c0,.22-.41.4-.64.4H16c-.1,0-.13-.1-.13-.1V12c0-.1.13-.11.13-.11h4.13c.23,0,.64.18.64.41Z"/></g></g></svg>