<svg id="Capa_1" data-name="Capa 1" xmlns="http://www.w3.org/2000/svg" viewBox="0 0 40 40"><defs><style>.cls-1{fill:#d33741;}.cls-2{fill:#fff;}</style></defs><title>bancos_CH</title><circle id="_Trazado_" data-name="&lt;Trazado&gt;" class="cls-1" cx="20" cy="20" r="20" transform="translate(-4.06 34.87) rotate(-76.72)"/><path id="_Trazado_2" data-name="&lt;Trazado&gt;" class="cls-2" d="M20.44,7.78c0,3.32,5.64,7,5.64,10.79a2.23,2.23,0,0,1-.16.76c5.27,1.1,9,3.68,9,6.71,0,4.07-6.65,7.42-14.89,7.44-.06,0-.11,0-.16,0-8.16,0-14.79-3.24-14.79-7.28,0-3,4.05-5.49,8.92-6.79,0,1.67,5.56,7,5.69,9.11,0,0,0,.18,0,.39a1.72,1.72,0,0,1,0,.32c1.2-.63,1.2-2.59,1.2-2.59,0-4.65-5.4-6.71-5.4-11.28a3.88,3.88,0,0,1,1.59-3.45v1.28c0,3.32,5.84,7,5.84,10v1c1.36-.53,1.36-3,1.36-3,0-4.17-5.43-6.5-5.43-11.28a3.88,3.88,0,0,1,1.59-3.44Z"/></svg>