<svg id="Capa_1" data-name="Capa 1" xmlns="http://www.w3.org/2000/svg" viewBox="0 0 40 40"><defs><style>.cls-1{fill:#a02834;fill-rule:evenodd;}</style></defs><title>bancos_CH</title><g id="_Grupo_" data-name="&lt;Grupo&gt;"><g id="_Grupo_2" data-name="&lt;Grupo&gt;"><path id="_Trazado_compuesto_" data-name="&lt;Trazado compuesto&gt;" class="cls-1" d="M20.82,27.68v3.07h10V21.53H24.66V18.46h6.13V9.23h-10v3.08h6.89v3.07H21.57V24.6h6.14v3.08ZM3.09,20A16.91,16.91,0,1,1,20,36.9,16.92,16.92,0,0,1,3.09,20ZM0,20A20,20,0,1,1,20,40,20,20,0,0,1,0,20Zm19.27-7.7V9.22h-10v9.22H15.4v3.08H9.29v9.22h10V27.67H12.36V24.6H18.5V15.37H12.36V12.3Z"/></g></g></svg>