<svg id="Capa_1" data-name="Capa 1" xmlns="http://www.w3.org/2000/svg" viewBox="0 0 40 40"><defs><style>.cls-1{fill:#004e96;}.cls-2{fill:#fff;fill-rule:evenodd;}</style></defs><title>bancos_CH</title><g id="_Grupo_" data-name="&lt;Grupo&gt;"><circle id="_Trazado_" data-name="&lt;Trazado&gt;" class="cls-1" cx="20" cy="20" r="20" transform="translate(-8.28 20) rotate(-45)"/><g id="_Grupo_2" data-name="&lt;Grupo&gt;"><path id="_Trazado_compuesto_" data-name="&lt;Trazado compuesto&gt;" class="cls-2" d="M31.66,15.52c.78,0,.9.18,1.14,1h0l2.81,8.34H33.1l-.6-2H30.82V21.4h1.26l-1.26-4.14V15.52Zm-.84,7.26h0V21.4H29.5l1.32-4.2V15.52h-.9L27,24.82h1.44l.6-2Z"/><path id="_Trazado_compuesto_2" data-name="&lt;Trazado compuesto&gt;" class="cls-2" d="M17.38,24.82H17V23.44h0a1.73,1.73,0,0,0,1.32-1.92c0-1.14-.54-1.74-1.32-1.86h0v-.12l.72-1.08h0a.89.89,0,0,0,.24-.66,1.1,1.1,0,0,0-1-1.08h0v-1.2h.54a1.81,1.81,0,0,1,1.62,3h0l-.42.66h0a3.08,3.08,0,0,1,1.86,2.52h0v.48h0a2.93,2.93,0,0,1-3.18,2.64Zm-.42,0h0V23.44h0a2.15,2.15,0,0,1-.65.12h-.67V16.72H17v-1.2H13.49v9.3Zm0-5.28-.06.06h0a.06.06,0,0,1,.06.06h0v-.12Z"/><path id="_Trazado_compuesto_3" data-name="&lt;Trazado compuesto&gt;" class="cls-2" d="M9.47,24.82H9.05V23.44h0a1.73,1.73,0,0,0,1.32-1.92c0-1.14-.48-1.74-1.32-1.86h0v-.12l.78-1.08h0a1.26,1.26,0,0,0,.24-.66,1.15,1.15,0,0,0-1-1.08h0v-1.2h.6a1.81,1.81,0,0,1,1.62,3h0l-.48.66h0a3.16,3.16,0,0,1,1.92,2.52h0v.48h0a3,3,0,0,1-3.24,2.64Zm-.42,0h0V23.44h0a2.13,2.13,0,0,1-.6.12H7.79V16.72H9.05v-1.2H5.57v9.3Zm0-5.28v.06h0v-.06Z"/><path id="_Trazado_2" data-name="&lt;Trazado&gt;" class="cls-2" d="M26.68,15.52h1.44l-2.82,9.3L23,24.76l-3-9.24h1.62c.66,0,.78.18,1.14,1.2h0l1.74,5.82,2.16-7Z"/></g></g></svg>