<svg id="Capa_1" data-name="Capa 1" xmlns="http://www.w3.org/2000/svg" viewBox="0 0 40 40"><defs><style>.cls-1{fill:#013171;}.cls-2{fill:#fff;}</style></defs><title>bancos_CH</title><circle id="_Trazado_" data-name="&lt;Trazado&gt;" class="cls-1" cx="20" cy="20" r="20" transform="translate(-4.14 34.75) rotate(-76.43)"/><g id="_Grupo_" data-name="&lt;Grupo&gt;"><path id="_Trazado_compuesto_" data-name="&lt;Trazado compuesto&gt;" class="cls-2" d="M17.68,34.4A14.28,14.28,0,0,1,6.73,25.54H20.14v-2H8.05a17.48,17.48,0,0,0,4.16-11.33A17.77,17.77,0,0,0,12,9.51l17,0a17.76,17.76,0,0,1,3,9.92,18.81,18.81,0,0,1-.46,4.13H21.93v2H33.27a13.91,13.91,0,0,1-6,6.92s0,.08,0,0a3.49,3.49,0,0,0-.62-2,2,2,0,0,0-1.54-.73A2,2,0,0,0,23.26,31a5.19,5.19,0,0,1-4.86,3.44,5.67,5.67,0,0,1-.72-.06M18.4,33a3.64,3.64,0,0,0,3.43-2.44,3.49,3.49,0,0,1,6-1.06,3,3,0,0,1,.38.55,12.3,12.3,0,0,0,2.64-2.95H9.16a12.82,12.82,0,0,0,8.74,5.87h0a2.81,2.81,0,0,0,.5,0m-4.69-20.7A18.78,18.78,0,0,1,11,22.08H30.32a17.71,17.71,0,0,0,.2-2.63A16.23,16.23,0,0,0,28.18,11L13.67,11c0,.41,0,.82,0,1.23"/><path id="_Trazado_2" data-name="&lt;Trazado&gt;" class="cls-2" d="M19,8.24c-.57,0-2.5-.41-3-1.24.86.48,2.74-.09,3.25-.35.34-.16,1.48-1.37,2.75-1.06v3c-1-.88-2.6-.38-3-.38"/><path id="_Trazado_3" data-name="&lt;Trazado&gt;" class="cls-2" d="M19.59,19.76A3.18,3.18,0,0,0,20.46,18a.61.61,0,0,0-.16-.46c-.38-.38-1.29-.08-2.18.65V15c.91.77,1.87,1.09,2.25.71a.64.64,0,0,0,.17-.46,3,3,0,0,0-.82-1.72h3.13A3.24,3.24,0,0,0,22,15.36a.6.6,0,0,0,.17.46c.37.38,1.29.08,2.18-.65V18.3c-.91-.79-1.87-1.11-2.26-.72a.63.63,0,0,0-.16.46,3.16,3.16,0,0,0,.82,1.72Z"/></g></svg>