<svg id="Capa_1" data-name="Capa 1" xmlns="http://www.w3.org/2000/svg" viewBox="0 0 40 40"><defs><style>.cls-1{fill:#b52c1e;}.cls-2{fill:#721b3a;}</style></defs><title>bancos_CH</title><g id="_Grupo_" data-name="&lt;Grupo&gt;"><g id="_Grupo_2" data-name="&lt;Grupo&gt;"><path id="_Trazado_" data-name="&lt;Trazado&gt;" class="cls-1" d="M6.94,7.5a32.46,32.46,0,0,1-1,25.26c-.05.13.12.26.31.13A34.13,34.13,0,0,0,19.14,15.37,49.73,49.73,0,0,1,7.46,7.17a.31.31,0,0,0-.52.33"/><path id="_Trazado_2" data-name="&lt;Trazado&gt;" class="cls-2" d="M33.83,20.12a50.2,50.2,0,0,1-12.9-3.89,39,39,0,0,1-9,13.37c-.2.17,0,.47.29.24a58.28,58.28,0,0,1,21.61-9.11.32.32,0,0,0,0-.61"/></g></g></svg>