<svg id="Capa_1" data-name="Capa 1" xmlns="http://www.w3.org/2000/svg" xmlns:xlink="http://www.w3.org/1999/xlink" viewBox="0 0 40 40"><defs><style>.cls-1{fill:#0081c6;}.cls-2,.cls-3,.cls-4,.cls-5{stroke:#0081c6;stroke-width:0.07px;}.cls-2{fill:url(#linear-gradient);}.cls-3{fill:url(#linear-gradient-2);}.cls-4{fill:url(#linear-gradient-3);}.cls-5{fill:url(#linear-gradient-4);}</style><linearGradient id="linear-gradient" x1="20.15" y1="15.1" x2="20.15" y2="20.11" gradientUnits="userSpaceOnUse"><stop offset="0" stop-color="#fff"/><stop offset="0.14" stop-color="#f3f7fb"/><stop offset="0.31" stop-color="#e7f0f8"/><stop offset="0.36" stop-color="#d1e6f4"/><stop offset="0.65" stop-color="#62b3dd"/><stop offset="0.85" stop-color="#1b93cf"/><stop offset="0.94" stop-color="#0087c9"/></linearGradient><linearGradient id="linear-gradient-2" x1="20.15" y1="25.13" x2="20.15" y2="20.11" xlink:href="#linear-gradient"/><linearGradient id="linear-gradient-3" x1="20.15" y1="9.16" x2="20.15" y2="20.11" gradientUnits="userSpaceOnUse"><stop offset="0" stop-color="#fff"/><stop offset="0.19" stop-color="#f7fafd"/><stop offset="0.4" stop-color="#e7f0f8"/><stop offset="0.45" stop-color="#cfe5f3"/><stop offset="0.65" stop-color="#77bde1"/><stop offset="0.82" stop-color="#37a0d4"/><stop offset="0.94" stop-color="#0f8ecc"/><stop offset="1" stop-color="#0087c9"/></linearGradient><linearGradient id="linear-gradient-4" x1="20.15" y1="3.24" x2="20.15" y2="20.11" xlink:href="#linear-gradient-3"/></defs><title>bancos_CH</title><circle id="_Trazado_" data-name="&lt;Trazado&gt;" class="cls-1" cx="20" cy="20" r="20" transform="translate(-4.14 34.75) rotate(-76.43)"/><g id="_Grupo_" data-name="&lt;Grupo&gt;"><path id="_Trazado_2" data-name="&lt;Trazado&gt;" class="cls-2" d="M25.17,20.11a5,5,0,0,0-10,0Z"/><path id="_Trazado_3" data-name="&lt;Trazado&gt;" class="cls-3" d="M25.17,20.11a5,5,0,1,1-10,0Z"/><path id="_Trazado_4" data-name="&lt;Trazado&gt;" class="cls-4" d="M31.11,20.11a11,11,0,0,0-21.91,0h5a5.92,5.92,0,0,1,11.83,0Z"/><path id="_Trazado_5" data-name="&lt;Trazado&gt;" class="cls-5" d="M37,20.11a16.88,16.88,0,0,0-33.75,0h5a11.87,11.87,0,0,1,23.73,0Z"/></g></svg>