<svg id="Capa_1" data-name="Capa 1" xmlns="http://www.w3.org/2000/svg" viewBox="0 0 40 40"><defs><style>.cls-1{fill:#002c55;}.cls-2{fill:#fff;}</style></defs><title>bancos_CH</title><g id="_Grupo_" data-name="&lt;Grupo&gt;"><path id="_Trazado_" data-name="&lt;Trazado&gt;" class="cls-1" d="M4.83,21.37H4.3v1.56h.53c.54,0,1-.14,1-.77C5.78,21.38,5.22,21.37,4.83,21.37Z"/><path id="_Trazado_2" data-name="&lt;Trazado&gt;" class="cls-1" d="M23.8,21.29c-1,0-1.19,1.22-1.19,2.06s.16,2.06,1.19,2.06S25,24.2,25,23.35,24.83,21.29,23.8,21.29Z"/><path id="_Trazado_3" data-name="&lt;Trazado&gt;" class="cls-1" d="M21.43,14.58c-1,0-1.19,1.22-1.19,2.07s.16,2.06,1.19,2.06,1.19-1.22,1.19-2.06S22.46,14.58,21.43,14.58Z"/><path id="_Trazado_4" data-name="&lt;Trazado&gt;" class="cls-1" d="M5.64,15.43c0-.73-.53-.76-.91-.76H4.3v1.54h.47C5.11,16.21,5.64,16.12,5.64,15.43Z"/><path id="_Trazado_5" data-name="&lt;Trazado&gt;" class="cls-1" d="M5.88,17.75A1,1,0,0,0,4.8,16.8H4.3v1.83h.57A.89.89,0,0,0,5.88,17.75Z"/><path id="_Trazado_compuesto_" data-name="&lt;Trazado compuesto&gt;" class="cls-1" d="M20,0A20,20,0,1,0,40,20,20,20,0,0,0,20,0ZM17.88,14a1.74,1.74,0,0,1,1.26.45l-.57.54a.71.71,0,0,0-.71-.4c-1,0-1.11,1.19-1.11,1.89,0,1.29.32,2.24,1.38,2.24a2,2,0,0,0,1-.28l.19.58a3.58,3.58,0,0,1-1.34.3c-1.14,0-2.06-.7-2.06-2.72C15.93,15.22,16.38,14,17.88,14Zm-6.21.08h.93l2,4h0v-4h.68v5.16h-.89l-2.08-4.14h0v4.14h-.67Zm-3.08,0h.92l1.77,5.16h-.8l-.57-1.81h-1l.19-.6h.65l-.66-2.07h0L7.63,19.23H6.84Zm-5,0H5a1.2,1.2,0,0,1,1.34,1.22,1.15,1.15,0,0,1-.8,1.19h0a1.2,1.2,0,0,1,1,1.32c0,1.27-1,1.42-1.65,1.42H3.55ZM5,23.53H4.3v2.4H3.55V20.77H4.79c.76,0,1.81,0,1.81,1.37S5.49,23.53,5,23.53Zm4.79,2.4-.57-1.81h-1l.19-.59H9l-.66-2.07h0L6.89,25.93H6.1l1.76-5.16h.92l1.76,5.16Zm2.36,0h-.75V21.37H10.07v-.6h3.32v.6H12.11Zm4.47,0L16,24.12H15l.19-.59h.66l-.66-2.07h0l-1.42,4.47h-.8l1.76-5.16h.92l1.76,5.16Zm4.57-.4a2.55,2.55,0,0,1-1.54.48c-1.33,0-2.17-.82-2.17-2.82,0-1.42.56-2.5,2-2.5a1.82,1.82,0,0,1,1.35.49l-.56.53a.82.82,0,0,0-.8-.42c-1,0-1.19,1-1.19,1.9s.14,2.22,1.33,2.22a1.47,1.47,0,0,0,.87-.2V23.53h-1.1v-.6h1.79Zm-1.73-8.88c0-1.4.42-2.66,2-2.66s2,1.26,2,2.66-.43,2.66-2,2.66S19.42,18,19.42,16.65ZM23.8,26c-1.59,0-2-1.27-2-2.66s.42-2.66,2-2.66,2,1.26,2,2.66S25.38,26,23.8,26Zm6.28-.08h-.89l-2.08-4.14h0v4.14h-.67V20.77h.93l2,4h0v-4h.68Zm1.54,0h-.75V20.77h.75Zm3.46-1.81h-1l.19-.59h.65l-.65-2.07h0L32.8,25.93H32l1.76-5.16h.92l1.76,5.16h-.79Z"/><path id="_Trazado_compuesto_2" data-name="&lt;Trazado compuesto&gt;" class="cls-2" d="M6.63,17.81a1.2,1.2,0,0,0-1-1.32h0a1.15,1.15,0,0,0,.8-1.19A1.2,1.2,0,0,0,5,14.07H3.55v5.16H5C5.63,19.23,6.63,19.08,6.63,17.81ZM4.3,14.67h.43c.38,0,.91,0,.91.76s-.53.78-.87.78H4.3Zm0,4V16.8h.5a1,1,0,0,1,1.08.95.89.89,0,0,1-1,.88Z"/><polygon id="_Trazado_6" data-name="&lt;Trazado&gt;" class="cls-2" points="12.34 15.09 12.36 15.09 14.44 19.23 15.33 19.23 15.33 14.07 14.65 14.07 14.65 18.11 14.64 18.11 12.61 14.07 11.67 14.07 11.67 19.23 12.34 19.23 12.34 15.09"/><path id="_Trazado_7" data-name="&lt;Trazado&gt;" class="cls-2" d="M18,19.31a3.58,3.58,0,0,0,1.34-.3l-.19-.58a2,2,0,0,1-1,.28c-1.06,0-1.38-.95-1.38-2.24,0-.7.14-1.89,1.11-1.89a.71.71,0,0,1,.71.4l.57-.54A1.74,1.74,0,0,0,17.88,14c-1.5,0-1.95,1.23-1.95,2.6C15.93,18.61,16.85,19.31,18,19.31Z"/><path id="_Trazado_compuesto_3" data-name="&lt;Trazado compuesto&gt;" class="cls-2" d="M23.44,16.65c0-1.4-.43-2.66-2-2.66s-2,1.26-2,2.66.42,2.66,2,2.66S23.44,18,23.44,16.65Zm-2,2.06c-1,0-1.19-1.22-1.19-2.06s.16-2.07,1.19-2.07,1.19,1.22,1.19,2.07S22.46,18.71,21.43,18.71Z"/><polygon id="_Trazado_8" data-name="&lt;Trazado&gt;" class="cls-2" points="9.05 14.76 9.06 14.76 9.72 16.82 9.07 16.82 8.88 17.42 9.91 17.42 10.48 19.23 11.28 19.23 9.51 14.07 8.59 14.07 6.84 19.23 7.63 19.23 9.05 14.76"/><path id="_Trazado_compuesto_4" data-name="&lt;Trazado compuesto&gt;" class="cls-2" d="M6.6,22.14c0-1.35-1-1.37-1.81-1.37H3.55v5.16H4.3v-2.4H5C5.49,23.53,6.6,23.41,6.6,22.14Zm-1.77.79H4.3V21.37h.53c.39,0,1,0,1,.79C5.78,22.79,5.37,22.93,4.83,22.93Z"/><polygon id="_Trazado_9" data-name="&lt;Trazado&gt;" class="cls-2" points="13.39 20.77 10.07 20.77 10.07 21.37 11.36 21.37 11.36 25.93 12.11 25.93 12.11 21.37 13.39 21.37 13.39 20.77"/><path id="_Trazado_compuesto_5" data-name="&lt;Trazado compuesto&gt;" class="cls-2" d="M23.8,20.69c-1.59,0-2,1.26-2,2.66s.42,2.66,2,2.66,2-1.27,2-2.66S25.38,20.69,23.8,20.69Zm0,4.72c-1,0-1.19-1.21-1.19-2.06s.16-2.06,1.19-2.06S25,22.51,25,23.35,24.83,25.41,23.8,25.41Z"/><polygon id="_Trazado_10" data-name="&lt;Trazado&gt;" class="cls-2" points="29.4 24.81 29.39 24.81 27.36 20.77 26.42 20.77 26.42 25.93 27.09 25.93 27.09 21.8 27.11 21.8 29.19 25.93 30.08 25.93 30.08 20.77 29.4 20.77 29.4 24.81"/><rect id="_Trazado_11" data-name="&lt;Trazado&gt;" class="cls-2" x="30.87" y="20.77" width="0.75" height="5.16"/><path id="_Trazado_12" data-name="&lt;Trazado&gt;" class="cls-2" d="M19.36,23.53h1.1v1.68a1.47,1.47,0,0,1-.87.2c-1.19,0-1.33-1.24-1.33-2.22s.22-1.9,1.19-1.9a.82.82,0,0,1,.8.42l.56-.53a1.82,1.82,0,0,0-1.35-.49c-1.46,0-2,1.08-2,2.5,0,2,.84,2.82,2.17,2.82a2.55,2.55,0,0,0,1.54-.48v-2.6H19.36Z"/><polygon id="_Trazado_13" data-name="&lt;Trazado&gt;" class="cls-2" points="7.86 20.77 6.1 25.93 6.89 25.93 8.31 21.46 8.33 21.46 8.99 23.53 8.33 23.53 8.14 24.12 9.18 24.12 9.75 25.93 10.54 25.93 8.78 20.77 7.86 20.77"/><polygon id="_Trazado_14" data-name="&lt;Trazado&gt;" class="cls-2" points="34.69 20.77 33.77 20.77 32.01 25.93 32.8 25.93 34.22 21.46 34.24 21.46 34.89 23.53 34.24 23.53 34.05 24.12 35.08 24.12 35.66 25.93 36.45 25.93 34.69 20.77"/><polygon id="_Trazado_15" data-name="&lt;Trazado&gt;" class="cls-2" points="14.69 20.77 12.93 25.93 13.73 25.93 15.15 21.46 15.16 21.46 15.82 23.53 15.16 23.53 14.97 24.12 16.01 24.12 16.58 25.93 17.37 25.93 15.61 20.77 14.69 20.77"/></g></svg>