<svg id="Capa_1" data-name="Capa 1" xmlns="http://www.w3.org/2000/svg" viewBox="0 0 40 40"><defs><style>.cls-1{fill:#b11f17;}.cls-2{fill:#ede143;}</style></defs><title>bancos_CH</title><g id="_Grupo_" data-name="&lt;Grupo&gt;"><path id="_Trazado_" data-name="&lt;Trazado&gt;" class="cls-1" d="M40,20A20,20,0,1,1,20,0,20,20,0,0,1,40,20Z"/><g id="_Grupo_2" data-name="&lt;Grupo&gt;"><path id="_Trazado_2" data-name="&lt;Trazado&gt;" class="cls-2" d="M28.8,11.47c-.46,0-.71-.27-1.09-.73a2.05,2.05,0,0,0-.2-.23,1.4,1.4,0,0,0-.08-.34,2.36,2.36,0,0,1-.1-.57c.28-.26.53-.52.79-.77a21.6,21.6,0,0,1,3.36-2.95l.4.1c.47.11.81.19,1.05.63a3.42,3.42,0,0,0,.06.65,1.05,1.05,0,0,1-.15.94,17.42,17.42,0,0,0-3.7,3.23,1.37,1.37,0,0,1-.34,0"/><path id="_Trazado_3" data-name="&lt;Trazado&gt;" class="cls-2" d="M23.37,26.78c-.16,0-.27-.16-.42-.39a2.3,2.3,0,0,0-.25-.34,4.36,4.36,0,0,1,.5-2.77,7.83,7.83,0,0,0,.59-1.77c.48-1.37.83-2.81,1.18-4.19s.7-2.79,1.15-4.11a1.42,1.42,0,0,1,.79-.17h.56a2.42,2.42,0,0,0,.78-.1h.08a1.36,1.36,0,0,1,.79.4,2.76,2.76,0,0,0,.39.28A2,2,0,0,1,29.45,15V15a57.59,57.59,0,0,0-2.55,10.33h0v0a.57.57,0,0,1-.47.57,6.86,6.86,0,0,1-.73.16,8,8,0,0,0-2.24.68h-.07"/><path id="_Trazado_4" data-name="&lt;Trazado&gt;" class="cls-2" d="M7.42,32l-.13,0-.35-.22C6,31.17,4.81,30.4,5,29.12a29.34,29.34,0,0,1,5.83-3.95,26,26,0,0,0,6.9-5.06l.29-.33-.42-.11a1.62,1.62,0,0,0-.49-.08,3,3,0,0,0-1,.22,2.57,2.57,0,0,1-.91.21H15l-.09,0-.08.05a6.7,6.7,0,0,1-3.24.75h-.06l-.07,0a2.75,2.75,0,0,1-1.26.33A1.65,1.65,0,0,1,9.51,21C8,19.94,7.42,18.71,7.75,17.37a15.86,15.86,0,0,1,8.71-7,6.92,6.92,0,0,0,1.3-.61,3.46,3.46,0,0,1,1.14-.49.09.09,0,0,1,.1,0l0,.06.05,0c.09.08.21.15.32.24.61.43,1.73,1.23,1.75,1.83.06,1.35-.08,1.62-.16,1.76s0,.09-.07.14a5,5,0,0,0-1.09-.12c-2.09,0-3.93,1.38-5.32,2.59l-.53.47.72,0h.16a14.14,14.14,0,0,0,1.81-.16A15.77,15.77,0,0,1,18.47,16a5.49,5.49,0,0,1,.58,0,5,5,0,0,1,1.31.9c.63.56.83,1.58.62,3.12a11.48,11.48,0,0,1-3.46,4.82,38.14,38.14,0,0,1-7.39,5.19l0,0,0,0-.37.3-.13,0a.4.4,0,0,0-.15,0h0l0,0-.26.27-.2.19,0,.06a1.47,1.47,0,0,0-.76.48l0,.05a1.48,1.48,0,0,0-.47.35c-.12.13-.17.17-.25.17"/></g></g></svg>