<svg id="Capa_1" data-name="Capa 1" xmlns="http://www.w3.org/2000/svg" viewBox="0 0 40 40"><defs><style>.cls-1{fill:#1e386d;}.cls-2{fill:#e4b838;fill-rule:evenodd;}</style></defs><title>bancos_CH</title><circle id="_Trazado_" data-name="&lt;Trazado&gt;" class="cls-1" cx="20" cy="20" r="20" transform="translate(-4.06 34.87) rotate(-76.72)"/><g id="_Grupo_" data-name="&lt;Grupo&gt;"><path id="_Trazado_2" data-name="&lt;Trazado&gt;" class="cls-2" d="M18.06,6.36c.05-1.81,3.25-1.8,3.76-.4V11c-.13,1.85-3.31,1.57-3.76.2V6.36Z"/><path id="_Trazado_3" data-name="&lt;Trazado&gt;" class="cls-2" d="M9.85,12.15C7.92,10.1,11.43,7,12.79,9.41c0,.1.08.12.1.2a10.29,10.29,0,0,0,1.32,1.32c2,.93,1.45,5-1.52,4.16a8.28,8.28,0,0,0-1.22-1.22c0-.11-.2-.07-.2-.2s-.09-.12-.1-.21A8.6,8.6,0,0,0,9.85,12.15Z"/><path id="_Trazado_4" data-name="&lt;Trazado&gt;" class="cls-2" d="M27.3,9.3c1.82-2.43,4.91,1.8,2.43,3.15-.16.15-.35.26-.4.51a5.73,5.73,0,0,0-1,1,3.69,3.69,0,0,0-.5.61c-.09.32-.48.33-.61.61-1.92.18-3.12-1.13-2.74-2.74.22-.94,1.69-1.39,1.92-2.23A4,4,0,0,0,27.3,9.3Z"/><path id="_Trazado_5" data-name="&lt;Trazado&gt;" class="cls-2" d="M5.89,19.55c-.5-1.86,4.1-2.13,5.78-1.52s1.36,3.26.1,4h-5a2,2,0,0,1-.91-1.42Z"/><path id="_Trazado_6" data-name="&lt;Trazado&gt;" class="cls-2" d="M28.41,22c-1.6-.3-1.63-3.39-.3-4a13.1,13.1,0,0,1,5.07,0c1.41.62,1.17,3.11,0,4H28.41Z"/><path id="_Trazado_7" data-name="&lt;Trazado&gt;" class="cls-2" d="M10.66,27.16c1-.66,1.35-2.28,2.64-2.43a2.24,2.24,0,0,1,2.33,2.43c-.06.79-.85,1.5-1.62,2.34-1,1-1.95,2.57-3.56,1.62A3.7,3.7,0,0,1,9.54,30a3.07,3.07,0,0,1,0-1.62A9.26,9.26,0,0,0,10.66,27.16Z"/><path id="_Trazado_8" data-name="&lt;Trazado&gt;" class="cls-2" d="M24.86,28.28a2.2,2.2,0,0,1,1.73-3.45c1.39,0,1.74,1.73,2.74,2.33a9.75,9.75,0,0,0,1.21,1.42,2.19,2.19,0,0,1-.3,2,5.35,5.35,0,0,1-1.22.92c-.37,0-.9.08-1.11-.11-.62-.53-1.06-1.24-1.73-1.72,0-.21-.27-.2-.3-.41A5.73,5.73,0,0,0,24.86,28.28Z"/><path id="_Trazado_9" data-name="&lt;Trazado&gt;" class="cls-2" d="M18.06,29c.28-1.76,3.15-1.75,3.76-.31v5.38c-.59,1.43-3.6,1.32-3.76-.4Z"/></g></svg>