<svg id="Capa_1" data-name="Capa 1" xmlns="http://www.w3.org/2000/svg" viewBox="0 0 400 400"><defs><style>.cls-1{fill:#00a3dd;}</style></defs><title>afip</title><path class="cls-1" d="M109.42,179.86,99,156.06A8.61,8.61,0,0,0,91.57,151H72.33a8.73,8.73,0,0,0-8,5.41l-37.85,83a7.07,7.07,0,0,0,.35,6.62,6.47,6.47,0,0,0,5.65,3H76.87a8,8,0,0,0,7.59-4.64l4.73-10.68,28.52,0h.41a9.8,9.8,0,0,0,7.86-4.23c2.06-2.93,2.43-6.7,1-10.64Zm9.44,43.53a1.22,1.22,0,0,1-.23.82.89.89,0,0,1-.63.38H93.24L106.39,195l8.36,18.51c2.85,6.3,3.61,8,3.85,8.5A4.2,4.2,0,0,1,118.86,223.39ZM78,236.68l-1.45,3.25H36.14L72.4,160.35H91.09l10.12,23.2.21.48h0l-.09.19C100.35,186.45,83.6,224.14,78,236.68Z"/><path class="cls-1" d="M266.68,151H230.1a8.61,8.61,0,0,0-6.23,2.84,10,10,0,0,0-2.43,6.79v62.9c0,4.71,3.38,9.76,8.42,9.76h36.35a9.29,9.29,0,0,0,8.92-9.61l0-62.78a10.09,10.09,0,0,0-2.69-7.28A8,8,0,0,0,266.68,151Zm-.52,9.89,0,62.78c0,.38-.08.49-.15.52H230.55a1.77,1.77,0,0,1-.13-.67V160.74a3.35,3.35,0,0,1,0-.48l35.67,0A3.41,3.41,0,0,1,266.17,160.86Z"/><path class="cls-1" d="M372.75,155.59a9.56,9.56,0,0,0-8-4.62h-77c-6.67,0-10.16,5.17-10.16,10.27v62.23a10.35,10.35,0,0,0,2.72,7.18,8.39,8.39,0,0,0,6.19,2.58H321.9a9.69,9.69,0,0,0,9.46-9.6v-11.9l11.9,0c2.85,0,9.84-.77,13.1-8l16.71-37.86A11.21,11.21,0,0,0,372.75,155.59Zm-7.57,5.25a3.45,3.45,0,0,1-.33,1.34L348.18,200c-1,2.16-3.21,2.61-4.93,2.61l-11.88,0,0-42.46h33.13c.44.07.54.14.52.1A1.2,1.2,0,0,1,365.18,160.84Zm-43.41,63.28h-35a2.12,2.12,0,0,1-.09-.65V161.24c0-.82.16-1.07,1.18-1.07H322.4l0,63.44C322.38,223.9,321.91,224.07,321.78,224.12Z"/><path class="cls-1" d="M211.27,151H140.34c-5.89,0-9.84,3.89-9.84,9.68v63.54c0,5.15,3.7,9.18,8.42,9.18h36.36a9.28,9.28,0,0,0,8.91-9.6V211.61h5.31a12.8,12.8,0,0,0,5.1-.68,6.84,6.84,0,0,0,3.3-3.37L204.76,192l0-.11c.07-.2.31-.69.55-1.19l0-.1c.34-.71.77-1.58,1.2-2.57.33-.74.7-1.56,1.09-2.43l1.55-3.46c.4-.9.8-1.81,1.25-2.75.22-.48.44-1,.67-1.49s.53-1.21.83-1.83l6.3-14.12a7.89,7.89,0,0,0-.52-7.35A7.69,7.69,0,0,0,211.27,151Zm-2.39,9.21-6.22,13.73a11.64,11.64,0,0,1-1.37,2.73,9.7,9.7,0,0,1-2.59.16H184.21l0-16.62ZM197.4,185.81c-1.55,3.83-4.64,11.38-6.69,15.57-.23.47-.47,1-.62,1.21-.27,0-.75,0-1.18,0h-4.7v-16.8Zm-22.18-25.62v63.57c0,.36-.07.46-.13.49H139.5s0,0,0-.06V160.65a3.19,3.19,0,0,1,0-.52,4.09,4.09,0,0,1,.8-.06l11.61,0Z"/></svg>