<svg id="Capa_1" data-name="Capa 1" xmlns="http://www.w3.org/2000/svg" viewBox="0 0 400 400"><defs><style>.cls-1{fill:#1da0db;}.cls-2{fill:#f89c60;}.cls-3{fill:#f89c61;}</style></defs><title>afjp-aportes</title><g id="_Group_" data-name="&lt;Group&gt;"><g id="_Group_2" data-name="&lt;Group&gt;"><g id="_Group_3" data-name="&lt;Group&gt;"><g id="_Group_4" data-name="&lt;Group&gt;"><path id="_Compound_Path_" data-name="&lt;Compound Path&gt;" class="cls-1" d="M308.88,148.65H90.73a19.94,19.94,0,0,0-20.08,20.08V217a19.94,19.94,0,0,0,20.08,20.08h12.36c2.32,51.74,44.79,93.05,96.91,93.05s94.59-41.31,96.91-93.05h12.36A19.94,19.94,0,0,0,329.34,217V168.73C329,157.91,320.08,148.65,308.88,148.65ZM110,197.3h-6.95a3.86,3.86,0,0,1,0-7.72H113.9A48.08,48.08,0,0,0,110,197.3Zm90,125.1a88.71,88.71,0,0,1-76.83-133.2H277.22a89,89,0,0,1,12,44.4C288.8,282.63,249,322.39,200,322.39Zm86.1-133.2h10.81a3.86,3.86,0,0,1,0,7.72H290C288.8,194.59,287.26,191.89,286.1,189.19Zm34.75,28.19a12,12,0,0,1-12,12H296.52A89.47,89.47,0,0,0,292.28,205h4.25a12,12,0,1,0,0-23.94H102.7a12,12,0,0,0,0,23.94h4.25a100.26,100.26,0,0,0-4.25,24.32H90.35a12,12,0,0,1-12-12V169.11a12,12,0,0,1,12-12H308.49a12,12,0,0,1,12,12v48.26Z"/><path id="_Path_" data-name="&lt;Path&gt;" class="cls-1" d="M226.64,301.16a69.52,69.52,0,0,1-26.64,5,72.5,72.5,0,0,1-72.59-72.59,74.64,74.64,0,0,1,6.56-30.5,4.06,4.06,0,0,0-7.34-3.47,79.16,79.16,0,0,0-7.34,34A80.91,80.91,0,0,0,200,314.29a77,77,0,0,0,29.73-5.79,4.3,4.3,0,0,0,2.32-5.41C231.27,301.16,228.57,300.39,226.64,301.16Z"/><path id="_Path_2" data-name="&lt;Path&gt;" class="cls-1" d="M268,197.68a4,4,0,0,0-1.93,5.41,70,70,0,0,1,6.56,30.5,74.07,74.07,0,0,1-30.5,59.46,3.87,3.87,0,0,0-.77,5.79,3.76,3.76,0,0,0,3.47,1.54,5.49,5.49,0,0,0,2.32-.77,81.06,81.06,0,0,0,34-66,85.27,85.27,0,0,0-7.34-34C272.2,197.3,269.88,196.52,268,197.68Z"/></g><g id="_Group_5" data-name="&lt;Group&gt;"><path id="_Path_3" data-name="&lt;Path&gt;" class="cls-2" d="M228.57,261c0,10.81-7.72,18.15-19.31,20.85a4.52,4.52,0,0,0-3.47,4.25v6.95a4.7,4.7,0,0,1-4.63,4.63h0a4.69,4.69,0,0,1-4.63-4.63v-6.56a4.2,4.2,0,0,0-3.47-4.25A43,43,0,0,1,173,273.36a4.16,4.16,0,0,1-1.16-5.41l1.54-2.7a4.52,4.52,0,0,1,6.56-1.54c6.95,5,14.67,7.72,21.24,7.72,8.88,0,13.9-3.47,13.9-8.88,0-16.6-40.15-7.34-40.15-34,0-10.42,7.34-17.76,18.53-20.08a4.52,4.52,0,0,0,3.47-4.25v-5.79a4.94,4.94,0,0,1,4.25-4.63h.39a4.69,4.69,0,0,1,4.63,4.63v5.41a4.2,4.2,0,0,0,3.47,4.25,47.15,47.15,0,0,1,14.67,5c1.93,1.16,3.09,3.86,1.93,5.79L224.71,222a4.5,4.5,0,0,1-6.18,1.93,39.12,39.12,0,0,0-17.76-4.63c-7.34,0-12.36,2.7-12.36,7.72C188.42,242.86,229,234,228.57,261Z"/></g></g><g id="_Group_6" data-name="&lt;Group&gt;"><g id="_Group_7" data-name="&lt;Group&gt;"><g id="_Group_8" data-name="&lt;Group&gt;"><path id="_Path_4" data-name="&lt;Path&gt;" class="cls-3" d="M131.27,109.65h-2.7v-2.7c0-1.54-1.16-2.7-3.09-2.7-1.54,0-2.7,1.16-2.7,3.09V110h-2.7c-1.54,0-2.7,1.16-2.7,3.09,0,1.54,1.16,2.7,3.09,2.7h2.7v2.7c0,1.54,1.16,2.7,3.09,2.7,1.54,0,2.7-1.16,2.7-3.09v-2.7h2.7c1.54,0,2.7-1.16,2.7-3.09A3.28,3.28,0,0,0,131.27,109.65Z"/></g></g><g id="_Group_9" data-name="&lt;Group&gt;"><g id="_Group_10" data-name="&lt;Group&gt;"><path id="_Path_5" data-name="&lt;Path&gt;" class="cls-3" d="M237.84,73h-2.7v-2.7c0-1.54-1.16-2.7-3.09-2.7-1.54,0-2.7,1.16-2.7,3.09v2.7h-2.7c-1.54,0-2.7,1.16-2.7,3.09,0,1.54,1.16,2.7,3.09,2.7h2.7v2.7c0,1.54,1.16,2.7,3.09,2.7,1.54,0,2.7-1.16,2.7-3.09v-2.7h2.7c1.54,0,2.7-1.16,2.7-3.09A3.28,3.28,0,0,0,237.84,73Z"/></g></g><g id="_Group_11" data-name="&lt;Group&gt;"><g id="_Group_12" data-name="&lt;Group&gt;"><path id="_Path_6" data-name="&lt;Path&gt;" class="cls-3" d="M175.29,73.36C173,73.36,171,75.68,171,78s2.32,4.25,4.63,4.25,4.25-2.32,4.25-4.63A4.94,4.94,0,0,0,175.29,73.36Z"/></g></g><g id="_Group_13" data-name="&lt;Group&gt;"><g id="_Group_14" data-name="&lt;Group&gt;"><path id="_Path_7" data-name="&lt;Path&gt;" class="cls-3" d="M195.37,114.29c-2.32,0-4.25,2.32-4.25,4.63s2.32,4.25,4.63,4.25,4.25-2.32,4.25-4.63A4.94,4.94,0,0,0,195.37,114.29Z"/></g></g><g id="_Group_15" data-name="&lt;Group&gt;"><g id="_Group_16" data-name="&lt;Group&gt;"><path id="_Path_8" data-name="&lt;Path&gt;" class="cls-3" d="M261.78,103.86c-2.32,0-4.25,2.32-4.25,4.63s2.32,4.25,4.63,4.25,4.25-2.32,4.25-4.63S264.09,103.86,261.78,103.86Z"/></g></g></g></g></g></svg>