<svg id="Capa_1" data-name="Capa 1" xmlns="http://www.w3.org/2000/svg" viewBox="0 0 400 400"><defs><style>.cls-1{fill:#f90;}.cls-2{fill:#00a3dd;}</style></defs><title>agua</title><g id="_Group_" data-name="&lt;Group&gt;"><path id="_Compound_Path_" data-name="&lt;Compound Path&gt;" class="cls-1" d="M332.76,33.06H321.31a8.16,8.16,0,0,0-8.15,8.15v8.4h-34.9a11.43,11.43,0,0,0-11.19,9.21H254.78a4.89,4.89,0,1,0,0,9.78h12.07v5.22H177.23a4.89,4.89,0,0,0-4.89,4.89V94.47h-5.26V77.21a8.64,8.64,0,0,1,8.65-8.61h57.53a4.89,4.89,0,1,0,0-9.78H175.73a18.43,18.43,0,0,0-18.43,18.4V94.47H134.61a11.43,11.43,0,0,0-11.41,11.41v16.51H104.25a8.16,8.16,0,0,0-8.15,8.15v15.38a8.16,8.16,0,0,0,8.15,8.15H230.5a8.16,8.16,0,0,0,8.15-8.15V130.54a8.16,8.16,0,0,0-8.15-8.15H211.56V105.88a11.43,11.43,0,0,0-11.41-11.41h-18V83.6h85a11.43,11.43,0,0,0,11.12,8.89h34.9V127a4.89,4.89,0,1,0,9.78,0V42.84h8.19V357.16h-8.19l0-206.07a4.89,4.89,0,1,0-9.78,0V293.2H304v-5.81a8.16,8.16,0,0,0-8.15-8.15h-17a8.16,8.16,0,0,0-8.15,8.15v43a8.16,8.16,0,0,0,8.15,8.15h17a8.16,8.16,0,0,0,8.15-8.15v-5.81h9.14v34.18a8.16,8.16,0,0,0,8.15,8.15h11.45a8.16,8.16,0,0,0,8.15-8.15V41.21A8.16,8.16,0,0,0,332.76,33.06Zm-132.62,71.2a1.65,1.65,0,0,1,1.63,1.63v16.51h-8.95a4.89,4.89,0,1,0,0,9.78h36v12.12h-123V132.17h65.42a4.89,4.89,0,1,0,0-9.78H133V105.88a1.65,1.65,0,0,1,1.63-1.63Zm113-21.54h-34.9a1.65,1.65,0,0,1-1.63-1.63V61a1.65,1.65,0,0,1,1.63-1.63h34.9ZM294.23,328.79H280.54V289h13.69Zm9.78-14V303h9.14v11.85Z"/></g><g id="_Group_2" data-name="&lt;Group&gt;"><g id="_Group_3" data-name="&lt;Group&gt;"><path id="_Path_" data-name="&lt;Path&gt;" class="cls-2" d="M112.92,238.15A4.89,4.89,0,0,0,108,243v7.83a4.89,4.89,0,0,0,9.78,0V243A4.89,4.89,0,0,0,112.92,238.15Z"/></g></g><g id="_Group_4" data-name="&lt;Group&gt;"><g id="_Group_5" data-name="&lt;Group&gt;"><path id="_Path_2" data-name="&lt;Path&gt;" class="cls-2" d="M112.92,214a4.89,4.89,0,0,0-4.89,4.89v7.83a4.89,4.89,0,1,0,9.78,0v-7.83A4.89,4.89,0,0,0,112.92,214Z"/></g></g><g id="_Group_6" data-name="&lt;Group&gt;"><g id="_Group_7" data-name="&lt;Group&gt;"><path id="_Path_3" data-name="&lt;Path&gt;" class="cls-2" d="M112.92,189.89a4.89,4.89,0,0,0-4.89,4.89v7.83a4.89,4.89,0,0,0,9.78,0v-7.83A4.89,4.89,0,0,0,112.92,189.89Z"/></g></g><g id="_Group_8" data-name="&lt;Group&gt;"><g id="_Group_9" data-name="&lt;Group&gt;"><path id="_Path_4" data-name="&lt;Path&gt;" class="cls-2" d="M112.92,165.76a4.89,4.89,0,0,0-4.89,4.89v7.83a4.89,4.89,0,0,0,9.78,0v-7.83A4.89,4.89,0,0,0,112.92,165.76Z"/></g></g><g id="_Group_10" data-name="&lt;Group&gt;"><g id="_Group_11" data-name="&lt;Group&gt;"><path id="_Path_5" data-name="&lt;Path&gt;" class="cls-2" d="M112.92,310.54a4.89,4.89,0,0,0-4.89,4.89v7.83a4.89,4.89,0,0,0,9.78,0v-7.83A4.89,4.89,0,0,0,112.92,310.54Z"/></g></g><g id="_Group_12" data-name="&lt;Group&gt;"><g id="_Group_13" data-name="&lt;Group&gt;"><path id="_Path_6" data-name="&lt;Path&gt;" class="cls-2" d="M112.92,262.28a4.89,4.89,0,0,0-4.89,4.89V275a4.89,4.89,0,0,0,9.78,0v-7.83A4.89,4.89,0,0,0,112.92,262.28Z"/></g></g><g id="_Group_14" data-name="&lt;Group&gt;"><g id="_Group_15" data-name="&lt;Group&gt;"><path id="_Path_7" data-name="&lt;Path&gt;" class="cls-2" d="M112.92,334.66a4.89,4.89,0,0,0-4.89,4.89v7.83a4.89,4.89,0,0,0,9.78,0v-7.83A4.89,4.89,0,0,0,112.92,334.66Z"/></g></g><g id="_Group_16" data-name="&lt;Group&gt;"><g id="_Group_17" data-name="&lt;Group&gt;"><path id="_Path_8" data-name="&lt;Path&gt;" class="cls-2" d="M112.92,286.41A4.89,4.89,0,0,0,108,291.3v7.83a4.89,4.89,0,0,0,9.78,0V291.3A4.89,4.89,0,0,0,112.92,286.41Z"/></g></g><g id="_Group_18" data-name="&lt;Group&gt;"><g id="_Group_19" data-name="&lt;Group&gt;"><path id="_Path_9" data-name="&lt;Path&gt;" class="cls-2" d="M140.15,262.28a4.89,4.89,0,0,0-4.89,4.89V275a4.89,4.89,0,0,0,9.78,0v-7.83A4.89,4.89,0,0,0,140.15,262.28Z"/></g></g><g id="_Group_20" data-name="&lt;Group&gt;"><g id="_Group_21" data-name="&lt;Group&gt;"><path id="_Path_10" data-name="&lt;Path&gt;" class="cls-2" d="M140.15,238.15a4.89,4.89,0,0,0-4.89,4.89v7.83a4.89,4.89,0,0,0,9.78,0V243A4.89,4.89,0,0,0,140.15,238.15Z"/></g></g><g id="_Group_22" data-name="&lt;Group&gt;"><g id="_Group_23" data-name="&lt;Group&gt;"><path id="_Path_11" data-name="&lt;Path&gt;" class="cls-2" d="M140.15,214a4.89,4.89,0,0,0-4.89,4.89v7.83a4.89,4.89,0,0,0,9.78,0v-7.83A4.89,4.89,0,0,0,140.15,214Z"/></g></g><g id="_Group_24" data-name="&lt;Group&gt;"><g id="_Group_25" data-name="&lt;Group&gt;"><path id="_Path_12" data-name="&lt;Path&gt;" class="cls-2" d="M140.15,189.89a4.89,4.89,0,0,0-4.89,4.89v7.83a4.89,4.89,0,1,0,9.78,0v-7.83A4.89,4.89,0,0,0,140.15,189.89Z"/></g></g><g id="_Group_26" data-name="&lt;Group&gt;"><g id="_Group_27" data-name="&lt;Group&gt;"><path id="_Path_13" data-name="&lt;Path&gt;" class="cls-2" d="M140.15,165.76a4.89,4.89,0,0,0-4.89,4.89v7.83a4.89,4.89,0,0,0,9.78,0v-7.83A4.89,4.89,0,0,0,140.15,165.76Z"/></g></g><g id="_Group_28" data-name="&lt;Group&gt;"><g id="_Group_29" data-name="&lt;Group&gt;"><path id="_Path_14" data-name="&lt;Path&gt;" class="cls-2" d="M140.15,286.41a4.89,4.89,0,0,0-4.89,4.89v7.83a4.89,4.89,0,0,0,9.78,0V291.3A4.89,4.89,0,0,0,140.15,286.41Z"/></g></g><g id="_Group_30" data-name="&lt;Group&gt;"><g id="_Group_31" data-name="&lt;Group&gt;"><path id="_Path_15" data-name="&lt;Path&gt;" class="cls-2" d="M140.15,334.66a4.89,4.89,0,0,0-4.89,4.89v7.83a4.89,4.89,0,0,0,9.78,0v-7.83A4.89,4.89,0,0,0,140.15,334.66Z"/></g></g><g id="_Group_32" data-name="&lt;Group&gt;"><g id="_Group_33" data-name="&lt;Group&gt;"><path id="_Path_16" data-name="&lt;Path&gt;" class="cls-2" d="M140.15,310.54a4.89,4.89,0,0,0-4.89,4.89v7.83a4.89,4.89,0,0,0,9.78,0v-7.83A4.89,4.89,0,0,0,140.15,310.54Z"/></g></g><g id="_Group_34" data-name="&lt;Group&gt;"><g id="_Group_35" data-name="&lt;Group&gt;"><path id="_Path_17" data-name="&lt;Path&gt;" class="cls-2" d="M167.38,310.54a4.89,4.89,0,0,0-4.89,4.89v7.83a4.89,4.89,0,0,0,9.78,0v-7.83A4.89,4.89,0,0,0,167.38,310.54Z"/></g></g><g id="_Group_36" data-name="&lt;Group&gt;"><g id="_Group_37" data-name="&lt;Group&gt;"><path id="_Path_18" data-name="&lt;Path&gt;" class="cls-2" d="M167.38,286.41a4.89,4.89,0,0,0-4.89,4.89v7.83a4.89,4.89,0,0,0,9.78,0V291.3A4.89,4.89,0,0,0,167.38,286.41Z"/></g></g><g id="_Group_38" data-name="&lt;Group&gt;"><g id="_Group_39" data-name="&lt;Group&gt;"><path id="_Path_19" data-name="&lt;Path&gt;" class="cls-2" d="M167.38,262.28a4.89,4.89,0,0,0-4.89,4.89V275a4.89,4.89,0,0,0,9.78,0v-7.83A4.89,4.89,0,0,0,167.38,262.28Z"/></g></g><g id="_Group_40" data-name="&lt;Group&gt;"><g id="_Group_41" data-name="&lt;Group&gt;"><path id="_Path_20" data-name="&lt;Path&gt;" class="cls-2" d="M167.38,334.66a4.89,4.89,0,0,0-4.89,4.89v7.83a4.89,4.89,0,0,0,9.78,0v-7.83A4.89,4.89,0,0,0,167.38,334.66Z"/></g></g><g id="_Group_42" data-name="&lt;Group&gt;"><g id="_Group_43" data-name="&lt;Group&gt;"><path id="_Path_21" data-name="&lt;Path&gt;" class="cls-2" d="M167.38,165.76a4.89,4.89,0,0,0-4.89,4.89v7.83a4.89,4.89,0,0,0,9.78,0v-7.83A4.89,4.89,0,0,0,167.38,165.76Z"/></g></g><g id="_Group_44" data-name="&lt;Group&gt;"><g id="_Group_45" data-name="&lt;Group&gt;"><path id="_Path_22" data-name="&lt;Path&gt;" class="cls-2" d="M167.38,189.89a4.89,4.89,0,0,0-4.89,4.89v7.83a4.89,4.89,0,0,0,9.78,0v-7.83A4.89,4.89,0,0,0,167.38,189.89Z"/></g></g><g id="_Group_46" data-name="&lt;Group&gt;"><g id="_Group_47" data-name="&lt;Group&gt;"><path id="_Path_23" data-name="&lt;Path&gt;" class="cls-2" d="M167.38,238.15a4.89,4.89,0,0,0-4.89,4.89v7.83a4.89,4.89,0,0,0,9.78,0V243A4.89,4.89,0,0,0,167.38,238.15Z"/></g></g><g id="_Group_48" data-name="&lt;Group&gt;"><g id="_Group_49" data-name="&lt;Group&gt;"><path id="_Path_24" data-name="&lt;Path&gt;" class="cls-2" d="M167.38,214a4.89,4.89,0,0,0-4.89,4.89v7.83a4.89,4.89,0,0,0,9.78,0v-7.83A4.89,4.89,0,0,0,167.38,214Z"/></g></g><g id="_Group_50" data-name="&lt;Group&gt;"><g id="_Group_51" data-name="&lt;Group&gt;"><path id="_Path_25" data-name="&lt;Path&gt;" class="cls-2" d="M194.61,189.89a4.89,4.89,0,0,0-4.89,4.89v7.83a4.89,4.89,0,0,0,9.78,0v-7.83A4.89,4.89,0,0,0,194.61,189.89Z"/></g></g><g id="_Group_52" data-name="&lt;Group&gt;"><g id="_Group_53" data-name="&lt;Group&gt;"><path id="_Path_26" data-name="&lt;Path&gt;" class="cls-2" d="M194.61,334.66a4.89,4.89,0,0,0-4.89,4.89v7.83a4.89,4.89,0,0,0,9.78,0v-7.83A4.89,4.89,0,0,0,194.61,334.66Z"/></g></g><g id="_Group_54" data-name="&lt;Group&gt;"><g id="_Group_55" data-name="&lt;Group&gt;"><path id="_Path_27" data-name="&lt;Path&gt;" class="cls-2" d="M194.61,165.76a4.89,4.89,0,0,0-4.89,4.89v7.83a4.89,4.89,0,0,0,9.78,0v-7.83A4.89,4.89,0,0,0,194.61,165.76Z"/></g></g><g id="_Group_56" data-name="&lt;Group&gt;"><g id="_Group_57" data-name="&lt;Group&gt;"><path id="_Path_28" data-name="&lt;Path&gt;" class="cls-2" d="M194.61,238.15a4.89,4.89,0,0,0-4.89,4.89v7.83a4.89,4.89,0,0,0,9.78,0V243A4.89,4.89,0,0,0,194.61,238.15Z"/></g></g><g id="_Group_58" data-name="&lt;Group&gt;"><g id="_Group_59" data-name="&lt;Group&gt;"><path id="_Path_29" data-name="&lt;Path&gt;" class="cls-2" d="M194.61,214a4.89,4.89,0,0,0-4.89,4.89v7.83a4.89,4.89,0,0,0,9.78,0v-7.83A4.89,4.89,0,0,0,194.61,214Z"/></g></g><g id="_Group_60" data-name="&lt;Group&gt;"><g id="_Group_61" data-name="&lt;Group&gt;"><path id="_Path_30" data-name="&lt;Path&gt;" class="cls-2" d="M194.61,262.28a4.89,4.89,0,0,0-4.89,4.89V275a4.89,4.89,0,0,0,9.78,0v-7.83A4.89,4.89,0,0,0,194.61,262.28Z"/></g></g><g id="_Group_62" data-name="&lt;Group&gt;"><g id="_Group_63" data-name="&lt;Group&gt;"><path id="_Path_31" data-name="&lt;Path&gt;" class="cls-2" d="M194.61,310.54a4.89,4.89,0,0,0-4.89,4.89v7.83a4.89,4.89,0,0,0,9.78,0v-7.83A4.89,4.89,0,0,0,194.61,310.54Z"/></g></g><g id="_Group_64" data-name="&lt;Group&gt;"><g id="_Group_65" data-name="&lt;Group&gt;"><path id="_Path_32" data-name="&lt;Path&gt;" class="cls-2" d="M194.61,286.41a4.89,4.89,0,0,0-4.89,4.89v7.83a4.89,4.89,0,0,0,9.78,0V291.3A4.89,4.89,0,0,0,194.61,286.41Z"/></g></g><g id="_Group_66" data-name="&lt;Group&gt;"><g id="_Group_67" data-name="&lt;Group&gt;"><path id="_Path_33" data-name="&lt;Path&gt;" class="cls-2" d="M221.84,189.89a4.89,4.89,0,0,0-4.89,4.89v7.83a4.89,4.89,0,1,0,9.78,0v-7.83A4.89,4.89,0,0,0,221.84,189.89Z"/></g></g><g id="_Group_68" data-name="&lt;Group&gt;"><g id="_Group_69" data-name="&lt;Group&gt;"><path id="_Path_34" data-name="&lt;Path&gt;" class="cls-2" d="M221.84,214a4.89,4.89,0,0,0-4.89,4.89v7.83a4.89,4.89,0,0,0,9.78,0v-7.83A4.89,4.89,0,0,0,221.84,214Z"/></g></g><g id="_Group_70" data-name="&lt;Group&gt;"><g id="_Group_71" data-name="&lt;Group&gt;"><path id="_Path_35" data-name="&lt;Path&gt;" class="cls-2" d="M221.84,165.76a4.89,4.89,0,0,0-4.89,4.89v7.83a4.89,4.89,0,0,0,9.78,0v-7.83A4.89,4.89,0,0,0,221.84,165.76Z"/></g></g><g id="_Group_72" data-name="&lt;Group&gt;"><g id="_Group_73" data-name="&lt;Group&gt;"><path id="_Path_36" data-name="&lt;Path&gt;" class="cls-2" d="M221.84,238.15a4.89,4.89,0,0,0-4.89,4.89v7.83a4.89,4.89,0,0,0,9.78,0V243A4.89,4.89,0,0,0,221.84,238.15Z"/></g></g><g id="_Group_74" data-name="&lt;Group&gt;"><g id="_Group_75" data-name="&lt;Group&gt;"><path id="_Path_37" data-name="&lt;Path&gt;" class="cls-2" d="M221.84,310.54a4.89,4.89,0,0,0-4.89,4.89v7.83a4.89,4.89,0,0,0,9.78,0v-7.83A4.89,4.89,0,0,0,221.84,310.54Z"/></g></g><g id="_Group_76" data-name="&lt;Group&gt;"><g id="_Group_77" data-name="&lt;Group&gt;"><path id="_Path_38" data-name="&lt;Path&gt;" class="cls-2" d="M221.84,262.28a4.89,4.89,0,0,0-4.89,4.89V275a4.89,4.89,0,0,0,9.78,0v-7.83A4.89,4.89,0,0,0,221.84,262.28Z"/></g></g><g id="_Group_78" data-name="&lt;Group&gt;"><g id="_Group_79" data-name="&lt;Group&gt;"><path id="_Path_39" data-name="&lt;Path&gt;" class="cls-2" d="M221.84,334.66a4.89,4.89,0,0,0-4.89,4.89v7.83a4.89,4.89,0,0,0,9.78,0v-7.83A4.89,4.89,0,0,0,221.84,334.66Z"/></g></g><g id="_Group_80" data-name="&lt;Group&gt;"><g id="_Group_81" data-name="&lt;Group&gt;"><path id="_Path_40" data-name="&lt;Path&gt;" class="cls-2" d="M221.84,286.41a4.89,4.89,0,0,0-4.89,4.89v7.83a4.89,4.89,0,0,0,9.78,0V291.3A4.89,4.89,0,0,0,221.84,286.41Z"/></g></g><g id="_Group_82" data-name="&lt;Group&gt;"><g id="_Group_83" data-name="&lt;Group&gt;"><path id="_Compound_Path_2" data-name="&lt;Compound Path&gt;" class="cls-2" d="M276.07,179c-7.73-2.43-8.55-3.26-11-11.09a6.73,6.73,0,0,0-12.87,0c-2.41,7.83-3.23,8.66-11,11.09a6.76,6.76,0,0,0,0,12.89c7.73,2.43,8.55,3.26,11,11.08a6.73,6.73,0,0,0,12.87,0c2.41-7.83,3.23-8.66,11-11.09a6.76,6.76,0,0,0,0-12.89Zm-17.39,13.67a16.46,16.46,0,0,0-7.21-7.22,16.47,16.47,0,0,0,7.21-7.22,16.45,16.45,0,0,0,7.21,7.22A16.45,16.45,0,0,0,258.67,192.67Z"/></g></g><g id="_Group_84" data-name="&lt;Group&gt;"><g id="_Group_85" data-name="&lt;Group&gt;"><path id="_Compound_Path_3" data-name="&lt;Compound Path&gt;" class="cls-2" d="M93.75,305.12c-6.39-2-6.89-2.51-8.89-9a6.46,6.46,0,0,0-12.36,0c-2,6.48-2.49,7-8.88,9a6.49,6.49,0,0,0,0,12.37c6.39,2,6.89,2.52,8.89,9a6.46,6.46,0,0,0,12.36,0c2-6.48,2.5-7,8.88-9a6.49,6.49,0,0,0,0-12.37ZM78.68,316a14,14,0,0,0-4.69-4.7,14,14,0,0,0,4.69-4.7,14,14,0,0,0,4.69,4.7A14,14,0,0,0,78.68,316Z"/></g></g></svg>