<svg id="Capa_1" data-name="Capa 1" xmlns="http://www.w3.org/2000/svg" viewBox="0 0 400 400"><defs><style>.cls-1{fill:#00a3dd;}.cls-2{fill:#f90;}</style></defs><title>barriosprivados</title><g id="_Group_" data-name="&lt;Group&gt;"><g id="_Group_2" data-name="&lt;Group&gt;"><path id="_Compound_Path_" data-name="&lt;Compound Path&gt;" class="cls-1" d="M314.38,195.86l0,0a17.52,17.52,0,0,0,9.56-31L223.11,82a26.35,26.35,0,0,0-33.44,0l-35.25,29a0,0,0,0,1,0,0V100a0,0,0,0,1,0,0h3.67a12,12,0,1,0,.31-24H102.7a12,12,0,1,0-.31,24h4a0,0,0,0,1,0,0v50.37h0L88.81,164.84a17.52,17.52,0,0,0,9.56,31l0,0V268a0,0,0,0,1,0,0h-16a0,0,0,0,0,0,0v56a0,0,0,0,0,0,0h248a0,0,0,0,0,0,0V268a0,0,0,0,0,0,0h-16a0,0,0,0,1,0,0ZM102.39,92a4,4,0,0,1-4-4.26A4.11,4.11,0,0,1,102.55,84h55.68a4.11,4.11,0,0,1,4.15,3.74,4,4,0,0,1-4,4.26Zm44,8v17.51h0l-32,26.26a0,0,0,0,1,0,0V100a0,0,0,0,1,0,0h32A0,0,0,0,1,146.39,100Zm-40,184v32a0,0,0,0,1,0,0h-16a0,0,0,0,1,0,0V276a0,0,0,0,1,0,0h16a0,0,0,0,1,0,0Zm32,32h-24a0,0,0,0,1,0,0v-8a0,0,0,0,1,0,0h24a0,0,0,0,1,0,0v8A0,0,0,0,1,138.37,316Zm0-16h-24a0,0,0,0,1,0,0v-8a0,0,0,0,1,0,0h24a0,0,0,0,1,0,0v8A0,0,0,0,1,138.37,300Zm24-12v28a0,0,0,0,1,0,0h-16a0,0,0,0,1,0,0V276a0,0,0,0,1,0,0h16a0,0,0,0,1,0,0Zm80,28h-32a0,0,0,0,1,0,0v-8a0,0,0,0,0,0,0h-8a0,0,0,0,0,0,0v8a0,0,0,0,1,0,0h-32a0,0,0,0,1,0,0V288a28,28,0,0,1,28-28h4a0,0,0,0,1,0,0v40a0,0,0,0,0,0,0h8a0,0,0,0,0,0,0V260a0,0,0,0,1,0,0h4a28,28,0,0,1,28,28v28A0,0,0,0,1,242.37,316Zm-56-61.92V220a0,0,0,0,1,0,0h40a0,0,0,0,1,0,0v34.05a0,0,0,0,1,0,0,35.74,35.74,0,0,0-12-2.09h-16a35.74,35.74,0,0,0-12,2.09A0,0,0,0,1,186.39,254.07Zm80,29.93v32a0,0,0,0,1,0,0h-16a0,0,0,0,1,0,0V276a0,0,0,0,1,0,0h16a0,0,0,0,1,0,0Zm32,32h-24a0,0,0,0,1,0,0v-8a0,0,0,0,1,0,0h24a0,0,0,0,1,0,0v8A0,0,0,0,1,298.37,316Zm0-16h-24a0,0,0,0,1,0,0v-8a0,0,0,0,1,0,0h24a0,0,0,0,1,0,0v8A0,0,0,0,1,298.37,300Zm0-32v16a0,0,0,0,1,0,0h-24a0,0,0,0,1,0,0V268a0,0,0,0,0,0,0H244.29a36.3,36.3,0,0,0-9.9-9.9V212a0,0,0,0,0,0,0h-56a0,0,0,0,0,0,0v46.07a36.3,36.3,0,0,0-9.9,9.9H138.41a0,0,0,0,0,0,0v16a0,0,0,0,1,0,0h-24a0,0,0,0,1,0,0V268a0,0,0,0,0,0,0h-8a0,0,0,0,1,0,0V195.23a17.54,17.54,0,0,0,6.33-3.3l89.15-74.29a7.23,7.23,0,0,1,9,0l80.41,67h0l5.1-6.11a0,0,0,0,0,0,0l-80.42-67a15.44,15.44,0,0,0-19.26,0l-89.15,74.29a9.6,9.6,0,0,1-6.13,2.22h-1.24a9.75,9.75,0,0,1-9.84-9.48,9.55,9.55,0,0,1,3.5-7.51L194.75,88.17a18.82,18.82,0,0,1,23.28,0L318.88,171a9.55,9.55,0,0,1,3.5,7.51,9.75,9.75,0,0,1-9.84,9.48H311.3a9.56,9.56,0,0,1-6.13-2.22l-4.2-3.5h0l-5.1,6.11a0,0,0,0,0,0,0l4.2,3.5a17.58,17.58,0,0,0,6.32,3.3V268a0,0,0,0,1,0,0h-8A0,0,0,0,0,298.39,268Zm24,8v40a0,0,0,0,1,0,0h-16a0,0,0,0,1,0,0V276a0,0,0,0,1,0,0h16A0,0,0,0,1,322.38,276Z"/><path id="_Compound_Path_2" data-name="&lt;Compound Path&gt;" class="cls-1" d="M206.39,136a24,24,0,1,0,24,24A24,24,0,0,0,206.39,136Zm-4,39.43A16,16,0,0,1,191,164h11.43Zm0-19.43H191a16,16,0,0,1,11.43-11.43Zm8,19.43V164h11.43A16,16,0,0,1,210.39,175.43Zm0-19.43V144.57A16,16,0,0,1,221.82,156Z"/><rect id="_Path_" data-name="&lt;Path&gt;" class="cls-1" x="186.39" y="280" width="8" height="8"/><rect id="_Path_2" data-name="&lt;Path&gt;" class="cls-1" x="218.39" y="280" width="8" height="8"/><rect id="_Path_3" data-name="&lt;Path&gt;" class="cls-1" x="194.39" y="236" width="8" height="8"/><path id="_Compound_Path_3" data-name="&lt;Compound Path&gt;" class="cls-1" d="M250.39,244h40V204h-40Zm24-32h8v8h-8Zm0,16h8v8h-8Zm-16-16h8v8h-8Zm0,16h8v8h-8Z"/><path id="_Compound_Path_4" data-name="&lt;Compound Path&gt;" class="cls-1" d="M122.39,244h40V204h-40Zm24-32h8v8h-8Zm0,16h8v8h-8Zm-16-16h8v8h-8Zm0,16h8v8h-8Z"/></g></g><path class="cls-2" d="M35.15,220a32,32,0,0,0-5.5,63.51V324h11V283.51A32,32,0,0,0,35.15,220Zm0,56a24,24,0,1,1,24-24A24,24,0,0,1,35.15,276Z"/><path class="cls-2" d="M396.85,270.36a24.86,24.86,0,1,0-29,24.52V324h8.19V294.87A24.9,24.9,0,0,0,396.85,270.36ZM372,287.22a16.86,16.86,0,1,1,16.86-16.86A16.88,16.88,0,0,1,372,287.22Z"/></svg>