<svg id="Capa_1" data-name="Capa 1" xmlns="http://www.w3.org/2000/svg" viewBox="0 0 400 400"><defs><style>.cls-1{fill:#00a3dd;}.cls-2{fill:#ff9800;}.cls-3{fill:#dea163;}</style></defs><title>clubesyasociaciones</title><g id="_Group_" data-name="&lt;Group&gt;"><g id="_Group_2" data-name="&lt;Group&gt;"><g id="_Group_3" data-name="&lt;Group&gt;"><path class="cls-1" d="M246.65,58.43a1.74,1.74,0,1,0-2.51,2.42,56.63,56.63,0,0,1,4.08,4.73l-4.15,15.59a4.73,4.73,0,0,0-.16,1.16l-11.49,4.46a5.21,5.21,0,0,0-1-1L206.87,68a5.22,5.22,0,0,0-1.32-.69V56a4.72,4.72,0,0,0,1-.56l13.08-9.5a55.54,55.54,0,0,1,18.81,9.75A1.74,1.74,0,0,0,240.62,53a59.45,59.45,0,0,0-96.26,46.69,59.9,59.9,0,0,0,1.11,11.48,1.74,1.74,0,1,0,3.42-.67,56.42,56.42,0,0,1-1-10.81c0-1.53.06-3.06.19-4.57l13.54-8.76a4.73,4.73,0,0,0,.89-.75l11.64,4.52a5.21,5.21,0,0,0,.25,1.5l9.36,28.81a5.22,5.22,0,0,0,.65,1.32l-8.71,11.34a4.73,4.73,0,0,0-1.15-.18l-16.14-.52a55.83,55.83,0,0,1-7.22-13.69,1.74,1.74,0,1,0-3.28,1.18,59.46,59.46,0,1,0,98.77-61.41Zm.78,23.63,3.4-12.78A55.5,55.5,0,0,1,259,90.58l-11.1-7.18a1.22,1.22,0,0,1-.47-.58h0A1.22,1.22,0,0,1,247.43,82.06ZM203.81,43.69a56.61,56.61,0,0,1,11.43,1.16l-10.71,7.78a1.22,1.22,0,0,1-.71.23h0a1.22,1.22,0,0,1-.71-.23l-10.7-7.78A56.5,56.5,0,0,1,203.81,43.69ZM160.16,82.81h0a1.22,1.22,0,0,1-.47.58l-11.1,7.18a55.32,55.32,0,0,1,8.22-21.31l3.4,12.79A1.22,1.22,0,0,1,160.16,82.81Zm15.05,4-11.49-4.46a4.72,4.72,0,0,0-.16-1.16l-4.15-15.59a56.87,56.87,0,0,1,4.83-5.49A55.67,55.67,0,0,1,188,46L201,55.45a4.73,4.73,0,0,0,1,.56V67.28a5.21,5.21,0,0,0-1.32.69l-24.5,17.8A5.21,5.21,0,0,0,175.21,86.78Zm-3.9,58.44a56.38,56.38,0,0,1-10.14-9.3l13.23.43a1.22,1.22,0,0,1,.71.25h0a1.22,1.22,0,0,1,.41.62l3.68,12.71A56.09,56.09,0,0,1,171.31,145.23Zm32.5,10.4a55.8,55.8,0,0,1-20.44-3.85l-4.49-15.51a4.73,4.73,0,0,0-.46-1.08l8.77-11.41a5.21,5.21,0,0,0,1.49.22H219a5.22,5.22,0,0,0,1.49-.22l8.77,11.41a4.72,4.72,0,0,0-.46,1.08l-4.5,15.52A55.93,55.93,0,0,1,203.81,155.63Zm39.58-16.39a56,56,0,0,1-15,10.72l3.69-12.72a1.22,1.22,0,0,1,.41-.62h0a1.22,1.22,0,0,1,.71-.25l13.21-.42Q245,137.63,243.39,139.23Zm-10.27-6.36a4.73,4.73,0,0,0-1.15.18l-8.71-11.34a5.22,5.22,0,0,0,.65-1.32l1.48-4.56a1.74,1.74,0,0,0-3.31-1.08l-1.48,4.56a1.71,1.71,0,0,1-1.64,1.19H188.67a1.72,1.72,0,0,1-1.64-1.19l-9.36-28.81a1.72,1.72,0,0,1,0-1.05v0a1.72,1.72,0,0,1,.62-.85l24.5-17.8a1.72,1.72,0,0,1,1-.33h0a1.72,1.72,0,0,1,1,.33l24.5,17.8a1.72,1.72,0,0,1,.62.85v0a1.72,1.72,0,0,1,0,1.05l-5.46,16.82a1.74,1.74,0,1,0,3.31,1.08l5.46-16.82a5.21,5.21,0,0,0,.25-1.5l11.64-4.52a4.72,4.72,0,0,0,.89.75l13.54,8.76c.12,1.51.19,3,.19,4.57a55.55,55.55,0,0,1-10.53,32.7Z"/><path class="cls-1" d="M203.81,161.61a62,62,0,0,1-58.29-40.92,4.24,4.24,0,0,1,8-2.88,53.39,53.39,0,0,0,6.19,12.08l14.87.48,6.87-8.94-.09-.26L172,92.37q-.08-.23-.14-.47l-8.93-3.46-12.48,8.08c-.06,1.06-.09,2.12-.09,3.15a53.94,53.94,0,0,0,1,10.33,4.24,4.24,0,0,1-8.33,1.63,62.39,62.39,0,0,1-1.15-12A62,62,0,0,1,242.17,51a4.25,4.25,0,0,1,1.34,4.83,4,4,0,0,1,2-.44,4.21,4.21,0,0,1,3,1.3,62,62,0,0,1-44.64,104.91Zm-18.39-11.72a53.85,53.85,0,0,0,36.78,0l4.15-14.32h0l-7-9.08H188.25l-7,9.08h0Zm48.82-11.06-1.73,6a53.69,53.69,0,0,0,7.91-6.17Zm-67-.2a54.33,54.33,0,0,0,5.57,4.57h0q1.15.82,2.34,1.58l-1.72-6Zm59-17.19,6.87,8.94,14.86-.48a53,53,0,0,0,9.36-30.24c0-1,0-2.09-.09-3.15l-12.48-8.07-8.93,3.46q-.06.24-.14.47l-5.46,16.82a4.25,4.25,0,0,1-3.67,2.92,4.25,4.25,0,0,1,1.26,4.52l-1.48,4.56Zm-37-3.42h29.16l1.31-4a4.25,4.25,0,0,1,3.67-2.92,4.25,4.25,0,0,1-1.26-4.52l5.29-16.28L203.81,73.15,180.23,90.28Zm-33.3-42.22a52.36,52.36,0,0,0-3.62,9.4l5.22-3.38Zm94.15,6,5.22,3.38a52.5,52.5,0,0,0-3.62-9.39Zm-42-16.06.29.2,24.51,17.8.16.12,8.64-3.35,3.83-14.37c-1-1.24-2.05-2.44-3.14-3.57a4.25,4.25,0,0,1-.91-4.44,4.25,4.25,0,0,1-4.52-.47,53,53,0,0,0-16.8-9l-12.06,8.76ZM166,80.52l8.64,3.35.16-.12,24.51-17.8.29-.2V57.46l-12.05-8.76A53.54,53.54,0,0,0,166,61.85a54.65,54.65,0,0,0-3.86,4.29Zm-8.2,2.19h0Zm92.07,0h0Zm-91.53-1.4h0Zm86.53-21.14h0Zm-46-13.74,5,3.64,5-3.64A54.71,54.71,0,0,0,198.8,46.42Z"/></g></g></g><path id="_Compound_Path_" data-name="&lt;Compound Path&gt;" class="cls-1" d="M57.08,214.88c1.51,18.56,10.14,36.57,24.27,50.71s32.15,22.76,50.71,24.27q2.93.24,5.79.24,3.25,0,6.41-.31c18.06,0,36.45,8.07,50.51,22.13l40.75,40.75a13.09,13.09,0,0,0,18.51,0l5.77-5.77a13.1,13.1,0,0,0,0-18.51l-40.75-40.75c-14.06-14.06-22.12-32.46-22.13-50.53a69.17,69.17,0,0,0,.06-12.19c-1.51-18.56-10.14-36.57-24.27-50.71S140.57,151.47,122,150c-18.82-1.53-35.95,4.39-48.24,16.68S55.54,196.06,57.08,214.88Zm29.4-48L99.58,180l-4.81,4.81a4.18,4.18,0,1,0,5.92,5.92l4.81-4.81,15,15L108.09,213.4l-34-34a47.59,47.59,0,0,1,12.44-12.44ZM150,255.3l-15-15,12.44-12.44,15,15Zm18.36-6.52L180,260.46a47.52,47.52,0,0,1-12.44,12.44L155.9,261.21ZM147.39,216l-15-15,12.09-12.09,15,15ZM129,234.35l-15-15,12.44-12.44,15,15Zm-5.92,5.92L111,252.35l-15-15,12.09-12.09ZM117.59,162,105.5,174.09,94.08,162.67A53.84,53.84,0,0,1,114,158.15a4.18,4.18,0,0,0,.75,1Zm5.92,5.92,15,15L126.45,195l-15-15Zm29.1,1L144.45,177l-15-15,1.61-1.61a4.19,4.19,0,0,0,.39-.45A72.77,72.77,0,0,1,152.61,168.88ZM174.42,189l-9,9-15-15,9.21-9.21A80,80,0,0,1,174.42,189Zm13.09,28.81-19.16,19.16-15-15,12.09-12.09,5.46,5.46a4.18,4.18,0,0,0,5.92-5.92l-5.46-5.46,7.81-7.81A72,72,0,0,1,187.51,217.77Zm-3.24,35.09-10-10,14.53-14.53A54.94,54.94,0,0,1,184.27,252.86ZM203.65,309l12.44-12.44,37.79,37.79a4.72,4.72,0,0,1,0,6.67l-5.77,5.77a4.72,4.72,0,0,1-6.67,0Zm-39.22-24.63a56.52,56.52,0,0,0,27-27,84.36,84.36,0,0,0,18.78,33.23l-12.58,12.58A84.38,84.38,0,0,0,164.44,284.34Zm-47.49-26.06L129,246.18l15,15-3.21,3.21a4.18,4.18,0,1,0,5.92,5.92l3.21-3.21,10,10A53.84,53.84,0,0,1,140,281.67a4.16,4.16,0,0,0-.78-1.07ZM103.22,272l7.81-7.81,16.7,16.7A71.37,71.37,0,0,1,103.22,272ZM80.88,252.45l9.2-9.2,15,15-9,9a79.82,79.82,0,0,1-15.22-14.84Zm-13.79-28.1,2-2,15,15L76,245.48A72.79,72.79,0,0,1,67.08,224.34Zm-1.81-17.47A53.83,53.83,0,0,1,69.8,187l32.37,32.37L90.08,231.41l-15-15,4.46-4.46A4.19,4.19,0,1,0,73.59,206l-4.46,4.46-2.84-2.84A4.16,4.16,0,0,0,65.28,206.87Z"/><path id="_Compound_Path_2" data-name="&lt;Compound Path&gt;" class="cls-2" d="M103.69,318.1a28.8,28.8,0,0,0,25.76,41.69A28.8,28.8,0,1,0,103.75,318l0,0ZM109,331a20.23,20.23,0,0,1,1.17-6.83h21.2a6.83,6.83,0,0,1,2.31,13.26,4.18,4.18,0,1,0,2.83,7.88,15.2,15.2,0,0,0-5.15-29.5H115.77A20.45,20.45,0,1,1,109,331Z"/><path id="_Path_" data-name="&lt;Path&gt;" class="cls-3" d="M117.92,342a4.18,4.18,0,0,0,4.18,4.18H123a4.18,4.18,0,1,0,0-8.37h-.86A4.18,4.18,0,0,0,117.92,342Z"/><path id="_Path_2" data-name="&lt;Path&gt;" class="cls-2" d="M228,319a4.18,4.18,0,0,0,0,5.92l16,16a4.18,4.18,0,0,0,5.92-5.92l-16-16A4.19,4.19,0,0,0,228,319Z"/><g id="_Group_4" data-name="&lt;Group&gt;"><g id="_Group_5" data-name="&lt;Group&gt;"><g id="_Group_6" data-name="&lt;Group&gt;"><path class="cls-1" d="M312.19,134.1c-5.72-1.68-13.91.27-23,5.49-16.57,9.46-38.72,31.59-46.6,62.79a105.18,105.18,0,0,0-2.78,33,119.41,119.41,0,0,0,6,29.78c6.16,18.11,15.87,31.5,24.73,34.1,5.72,1.68,13.91-.27,23.05-5.49,16.57-9.47,38.72-31.59,46.61-62.79a105.11,105.11,0,0,0,2.78-33,119.28,119.28,0,0,0-6-29.78C330.76,150.09,321.05,136.7,312.19,134.1ZM290.69,288.87c-7.64,4.37-14.7,6.25-18.87,5-4.61-1.35-11.44-8.43-17.21-21.09l10.3,3h0L275.59,279l10.68,3.13h0l10.3,3Q293.64,287.18,290.69,288.87Zm11.33-8-1-.3a2.92,2.92,0,0,0-2-3.48,2.66,2.66,0,0,0-3.35,1.92l-5.34-1.57a2.91,2.91,0,0,0-2-3.48,2.66,2.66,0,0,0-3.35,1.91l-5.34-1.56a2.91,2.91,0,0,0-2-3.48,2.65,2.65,0,0,0-3.35,1.91l-5.34-1.57a2.91,2.91,0,0,0-2-3.48,2.66,2.66,0,0,0-3.35,1.92l-5.34-1.56a2.91,2.91,0,0,0-2-3.48,2.66,2.66,0,0,0-3.35,1.91l-1-.3c-.33-.88-.65-1.78-1-2.71-.76-2.25-1.46-4.55-2.08-6.88l60.31,17.69C306.84,276.68,304.45,278.89,302,280.92Zm35.37-82.73a95.69,95.69,0,0,1-21,68q-1.46,1.84-3,3.6l-66-19.36a113.27,113.27,0,0,1-2.11-15.2,95.72,95.72,0,0,1,21-68q1.3-1.64,2.66-3.22l66.42,19.49A112.44,112.44,0,0,1,337.39,198.19Zm-5.67-28.3c.82,2.41,1.56,4.88,2.22,7.39l-60.8-17.84c2.29-2.36,4.66-4.57,7.08-6.62l1.34.39a2.91,2.91,0,0,0,2,3.48,2.66,2.66,0,0,0,3.35-1.91l5.34,1.57a2.91,2.91,0,0,0,2,3.48,2.66,2.66,0,0,0,3.35-1.91l5.34,1.57a2.91,2.91,0,0,0,2,3.48,2.66,2.66,0,0,0,3.35-1.91l5.34,1.57a2.92,2.92,0,0,0,2,3.48,2.66,2.66,0,0,0,3.35-1.91l5.34,1.57a2.92,2.92,0,0,0,2,3.48,2.66,2.66,0,0,0,3.35-1.92l1.34.39Q331.34,168.78,331.72,169.89Zm-3.42-8.75L317.63,158h0l-10.67-3.13h0l-10.67-3.13h0l-10.65-3.13a73.23,73.23,0,0,1,6.35-4.09c7.65-4.37,14.7-6.24,18.87-5C315.51,140.87,322.47,148.14,328.29,161.14Z"/><path class="cls-1" d="M274.85,300a15.76,15.76,0,0,1-4.44-.59c-8.9-2.61-18.64-16-24.82-34.19a119.56,119.56,0,0,1-6-29.81,105.31,105.31,0,0,1,2.79-33.07c7.9-31.24,30.08-53.4,46.67-62.88,9.17-5.24,17.39-7.19,23.16-5.5h0c8.9,2.61,18.64,16,24.82,34.19A119.4,119.4,0,0,1,343,198,105.24,105.24,0,0,1,340.24,231c-7.9,31.25-30.08,53.4-46.67,62.87C286.55,297.93,280.08,300,274.85,300Zm32.94-166.36c-5.18,0-11.59,2.07-18.57,6.06-16.55,9.45-38.66,31.54-46.54,62.7a105,105,0,0,0-2.78,33,119.3,119.3,0,0,0,6,29.74c6.15,18.07,15.82,31.43,24.63,34,5.69,1.67,13.84-.28,22.94-5.48C310,284.23,332.09,262.14,340,231a105,105,0,0,0,2.78-33,119.15,119.15,0,0,0-6-29.74c-6.15-18.07-15.82-31.42-24.63-34h0A15.51,15.51,0,0,0,307.79,133.65ZM274.66,294.4a10.29,10.29,0,0,1-2.88-.37c-4.07-1.19-11-7.46-17.3-21.17l-.13-.28,10.54,3.09.06,0,0,.07,31.89,9.36-.23.17c-2,1.38-3.94,2.65-5.89,3.76l-.07-.12.07.12C284.63,292.49,278.87,294.4,274.66,294.4ZM254.85,273c6.18,13.44,13,19.57,17,20.74s11.15-.66,18.77-5h0c1.86-1.06,3.76-2.27,5.63-3.58ZM302,281.07l-1.23-.36,0-.13a2.78,2.78,0,0,0-1.89-3.31,2.52,2.52,0,0,0-3.18,1.82l0,.14-5.61-1.65,0-.13a2.78,2.78,0,0,0-1.89-3.32,2.52,2.52,0,0,0-3.18,1.81l0,.14-5.61-1.64,0-.13a2.77,2.77,0,0,0-1.89-3.31,2.52,2.52,0,0,0-3.18,1.81l0,.14-5.61-1.65,0-.13a2.78,2.78,0,0,0-1.89-3.31,2.52,2.52,0,0,0-3.18,1.82l0,.14-5.61-1.64,0-.13a2.77,2.77,0,0,0-1.89-3.32,2.52,2.52,0,0,0-3.18,1.81l0,.14-1.24-.36,0-.07c-.35-.93-.67-1.85-1-2.71-.76-2.25-1.46-4.57-2.08-6.89l-.06-.24.24.07,60.53,17.76-.16.17c-2.31,2.36-4.71,4.58-7.15,6.61Zm-.9-.55.84.25c2.35-2,4.67-4.11,6.91-6.38L249,256.83c.6,2.23,1.28,4.46,2,6.63.28.84.6,1.73.94,2.64l.83.24a2.8,2.8,0,0,1,3.49-1.87,3.06,3.06,0,0,1,2.11,3.52l5.08,1.49A2.8,2.8,0,0,1,267,267.6a3.06,3.06,0,0,1,2.11,3.52l5.08,1.49a2.79,2.79,0,0,1,3.49-1.87,3.05,3.05,0,0,1,2.11,3.52l5.08,1.49a2.8,2.8,0,0,1,3.48-1.87,3.06,3.06,0,0,1,2.11,3.52l5.08,1.49A2.79,2.79,0,0,1,299,277,3.06,3.06,0,0,1,301.15,280.52Zm12.27-10.6-.09,0-66.08-19.39,0-.08a113.27,113.27,0,0,1-2.12-15.21,95.86,95.86,0,0,1,21.07-68.07c.86-1.09,1.76-2.17,2.67-3.22l.06-.07.09,0,66.5,19.52,0,.08a112.53,112.53,0,0,1,2,14.71h0a95.83,95.83,0,0,1-21.06,68.07c-.95,1.19-2,2.41-3,3.61Zm-65.92-19.63,65.83,19.32c1-1.17,2-2.36,2.93-3.53a95.55,95.55,0,0,0,21-67.88h0a112.38,112.38,0,0,0-2-14.59L269,164.17c-.88,1-1.76,2.08-2.6,3.15a95.58,95.58,0,0,0-21,67.88A113.08,113.08,0,0,0,247.49,250.29Zm86.65-72.8-.24-.07-61-17.91.16-.17c2.28-2.34,4.66-4.57,7.09-6.62l.06,0,1.54.45,0,.13a2.77,2.77,0,0,0,1.89,3.31,2.52,2.52,0,0,0,3.18-1.81l0-.14,5.61,1.64,0,.13a2.77,2.77,0,0,0,1.89,3.31,2.52,2.52,0,0,0,3.18-1.81l0-.14,5.6,1.65,0,.13a2.78,2.78,0,0,0,1.9,3.31,2.52,2.52,0,0,0,3.18-1.81l0-.14,5.61,1.65,0,.13a2.78,2.78,0,0,0,1.89,3.31,2.52,2.52,0,0,0,3.18-1.81l0-.14,5.6,1.65,0,.13a2.78,2.78,0,0,0,1.89,3.31,2.52,2.52,0,0,0,3.18-1.82l0-.14,1.54.45,0,.07c.28.77.53,1.48.77,2.18h0c.81,2.37,1.55,4.86,2.22,7.4Zm-60.74-18.11,60.35,17.71c-.65-2.45-1.37-4.86-2.15-7.15h0c-.23-.67-.47-1.36-.74-2.11l-1.14-.33a2.8,2.8,0,0,1-3.49,1.88,3.06,3.06,0,0,1-2.11-3.52L319,164.36a2.79,2.79,0,0,1-3.48,1.87,3.06,3.06,0,0,1-2.11-3.52l-5.08-1.49a2.79,2.79,0,0,1-3.49,1.87,3.06,3.06,0,0,1-2.12-3.52l-5.08-1.49a2.79,2.79,0,0,1-3.49,1.87,3.05,3.05,0,0,1-2.11-3.52L287,155a2.79,2.79,0,0,1-3.48,1.87,3.06,3.06,0,0,1-2.11-3.52l-1.15-.34C277.9,155,275.6,157.11,273.39,159.37Zm55.15,2-10.9-3.2-.08,0,0-.08L307,155l-.07,0,0-.07-21.55-6.32.23-.17a73.55,73.55,0,0,1,6.36-4.1c7.68-4.38,14.77-6.27,19-5s11.24,7.64,17.55,21.72Zm-10.82-3.46,10.32,3c-6.24-13.8-13.19-20.1-17.25-21.29s-11.15.66-18.76,5c-2,1.15-4.06,2.47-6.11,3.92l21,6.17.06,0,0,.06Z"/></g></g></g><g id="_Group_7" data-name="&lt;Group&gt;"><g id="_Group_8" data-name="&lt;Group&gt;"><path id="_Path_3" data-name="&lt;Path&gt;" class="cls-2" d="M299.45,184.55a2.66,2.66,0,0,0-3.35,1.92l-2.73,10.79L288,195.68a2.65,2.65,0,0,0-3.35,1.91,2.91,2.91,0,0,0,2,3.48l5.34,1.57-2.73,10.79-5.34-1.57a2.66,2.66,0,0,0-3.35,1.92,2.91,2.91,0,0,0,2,3.48l5.34,1.57-2.73,10.79-5.34-1.57A2.66,2.66,0,0,0,276.5,230a2.91,2.91,0,0,0,2,3.48l5.34,1.57-2.72,10.79a2.92,2.92,0,0,0,2,3.48,2.66,2.66,0,0,0,3.35-1.91l2.73-10.79,5.34,1.57a2.66,2.66,0,0,0,3.35-1.92,2.91,2.91,0,0,0-2-3.48l-5.34-1.57,2.73-10.79L298.6,222a2.65,2.65,0,0,0,3.35-1.91,2.91,2.91,0,0,0-2-3.48L294.62,215l2.72-10.79,5.34,1.57a2.66,2.66,0,0,0,3.35-1.91,2.91,2.91,0,0,0-2-3.48l-5.34-1.57L301.44,188A2.92,2.92,0,0,0,299.45,184.55Z"/></g></g></svg>