<svg id="Capa_1" data-name="Capa 1" xmlns="http://www.w3.org/2000/svg" viewBox="0 0 400 400"><defs><style>.cls-1{fill:#f89a62;}.cls-2{fill:#f89c60;}.cls-3{fill:#1da0db;}</style></defs><title>compras</title><g id="_Group_" data-name="&lt;Group&gt;"><g id="_Group_2" data-name="&lt;Group&gt;"><g id="_Group_3" data-name="&lt;Group&gt;"><g id="_Group_4" data-name="&lt;Group&gt;"><g id="_Group_5" data-name="&lt;Group&gt;"><g id="_Group_6" data-name="&lt;Group&gt;"><path id="_Path_" data-name="&lt;Path&gt;" class="cls-1" d="M164.51,82.75l-2.28-.38.38-2.28a2.1,2.1,0,1,0-4.17-.38L158.06,82l-2.28-.38a2.1,2.1,0,0,0-.38,4.17l2.28.38-.38,2.28a2.1,2.1,0,0,0,4.17.38l.38-2.28,2.28.38a2.13,2.13,0,0,0,2.28-1.9A1.9,1.9,0,0,0,164.51,82.75Z"/></g></g><g id="_Group_7" data-name="&lt;Group&gt;"><g id="_Group_8" data-name="&lt;Group&gt;"><path id="_Path_2" data-name="&lt;Path&gt;" class="cls-1" d="M249.14,66.06l-2.28-.38.38-2.28a2.1,2.1,0,0,0-4.17-.38l-.38,2.28-2.28-.38a2.1,2.1,0,0,0-.38,4.17l2.28.38-.38,2.28a2.1,2.1,0,1,0,4.17.38l.38-2.28,2.28.38a2.1,2.1,0,1,0,.38-4.17Z"/></g></g><g id="_Group_9" data-name="&lt;Group&gt;"><g id="_Group_10" data-name="&lt;Group&gt;"><path id="_Path_3" data-name="&lt;Path&gt;" class="cls-1" d="M201.7,59.6c-1.9-.38-3.42,1.14-3.8,3s1.14,3.42,3,3.8,3.42-1.14,3.79-3S203.6,60,201.7,59.6Z"/></g></g><g id="_Group_11" data-name="&lt;Group&gt;"><g id="_Group_12" data-name="&lt;Group&gt;"><path id="_Path_4" data-name="&lt;Path&gt;" class="cls-1" d="M212.71,93c-1.9-.38-3.42,1.14-3.8,3s1.14,3.42,3,3.8,3.42-1.14,3.8-3C215.74,94.9,214.61,93,212.71,93Z"/></g></g><g id="_Group_13" data-name="&lt;Group&gt;"><g id="_Group_14" data-name="&lt;Group&gt;"><path id="_Path_5" data-name="&lt;Path&gt;" class="cls-1" d="M263.94,91.86c-1.9-.38-3.42,1.14-3.8,3s1.14,3.42,3,3.8,3.42-1.14,3.8-3A3.21,3.21,0,0,0,263.94,91.86Z"/></g></g></g><g id="_Group_15" data-name="&lt;Group&gt;"><g id="_Group_16" data-name="&lt;Group&gt;"><g id="_Group_17" data-name="&lt;Group&gt;"><path id="_Path_6" data-name="&lt;Path&gt;" class="cls-2" d="M139.08,119.57c.76,5.69,3,27.7,0,40.61a4.23,4.23,0,0,0,3,4.93h1.14a3.7,3.7,0,0,0,3.8-3c1.9-8,2.28-18.6,1.52-27.7A80.51,80.51,0,0,1,155,160.93a3.8,3.8,0,0,0,3.8,3.8h0a3.8,3.8,0,0,0,3.8-3.8,76.32,76.32,0,0,0-8.35-32.26c15.56,12.52,15.94,31.5,15.94,32.26a3.8,3.8,0,0,0,7.59,0c0-.38-.38-33.78-33-46.68l-3.42-3.42a4,4,0,0,0-5.69,5.69Z"/><path id="_Path_7" data-name="&lt;Path&gt;" class="cls-2" d="M276.85,149.17h19.73v11.76a3.8,3.8,0,1,0,7.59,0V149.17a8,8,0,0,0-8-8H276.47a3.8,3.8,0,0,0-3.8,3.8C273.05,147.65,274.57,149.17,276.85,149.17Z"/><path id="_Path_8" data-name="&lt;Path&gt;" class="cls-2" d="M190.32,165.11a3.8,3.8,0,0,0,3.8-3.8v-27.7h47.44v27.7a3.8,3.8,0,1,0,7.59,0v-27.7h8v27.7a3.8,3.8,0,1,0,7.59,0v-27.7a8,8,0,0,0-8-8H194.11a8,8,0,0,0-8,8v27.7A4.16,4.16,0,0,0,190.32,165.11Z"/><path id="_Compound_Path_" data-name="&lt;Compound Path&gt;" class="cls-3" d="M265.08,314.63A15.94,15.94,0,1,0,281,330.57C280.64,321.84,273.81,314.63,265.08,314.63Zm0,23.91a8,8,0,1,1,8-8A8.28,8.28,0,0,1,265.08,338.54Z"/><path id="_Path_9" data-name="&lt;Path&gt;" class="cls-3" d="M276.85,299.07H166.41c-6.07,0-10.25,7.59-11.39,10.25-1.14,1.9,0,4.17,1.9,5.31a2.84,2.84,0,0,0,1.9.38,3.65,3.65,0,0,0,3.42-2.28c1.14-2.66,3.42-5.31,4.17-5.69H276.85a3.8,3.8,0,0,0,3.8-3.8A3.9,3.9,0,0,0,276.85,299.07Z"/><path id="_Path_10" data-name="&lt;Path&gt;" class="cls-3" d="M311.38,174.22a4.69,4.69,0,0,0-3-1.52H131.11a3.8,3.8,0,1,0,0,7.59H303.79c-5.69,31.12-15.94,84.63-18.6,93.36-3,8.73-11.76,9.11-12.14,9.11H150.85a15.42,15.42,0,0,1-12.14-5.31l-23.53-137v-.76c-.38-1.52-5.31-14.42-15.56-14.42H87.85c-4.93,0-11.76,3-11.76,11.76s7.21,11.76,11.76,11.76h8a3.8,3.8,0,1,0,0-7.59h-8c-1.9,0-4.17-.76-4.17-3.8a3.54,3.54,0,0,1,3.8-3.8H99.24c3.8,0,7.21,6.45,8,8.73l23.53,137.38a1.39,1.39,0,0,0,.38,1.14c.38.38,5.31,10.25,19.35,10.25h122.2A21.09,21.09,0,0,0,292,276.68c3.8-11.76,19.35-95.64,19.73-99.05C312.52,176.49,312.14,175.35,311.38,174.22Z"/><path id="_Compound_Path_2" data-name="&lt;Compound Path&gt;" class="cls-3" d="M146.67,314.63a15.94,15.94,0,1,0,15.94,15.94A16,16,0,0,0,146.67,314.63Zm0,23.91a8,8,0,1,1,8-8A8,8,0,0,1,146.67,338.54Z"/><path id="_Compound_Path_3" data-name="&lt;Compound Path&gt;" class="cls-3" d="M134.15,216.34a3.8,3.8,0,0,0,3.8,3.8h27.32l2.28,23.53H142.88a3.8,3.8,0,1,0,0,7.59h25.43l1.9,20.11a4,4,0,0,0,3.8,3.42h.38c2.28-.38,3.8-2.28,3.42-4.17l-1.9-19.36h33.4V271a3.8,3.8,0,0,0,7.59,0V251.26h33.4l-1.9,19.36a3.62,3.62,0,0,0,3.42,4.17h.38a3.74,3.74,0,0,0,3.8-3.42l1.9-20.11H277.6a3.8,3.8,0,0,0,0-7.59h-19l2.28-23.53H283.3a3.8,3.8,0,0,0,0-7.59H261.67l1.9-19.36a3.81,3.81,0,1,0-7.59-.76l-1.9,20.11H216.5V192.81a3.8,3.8,0,1,0-7.59,0v19.73H171.34l-1.9-20.11c-.38-2.28-2.28-3.8-4.17-3.42-2.28.38-3.8,2.28-3.42,4.17l1.9,19.36H137.19C135.67,212.55,134.15,214.06,134.15,216.34Zm83.49,3.8h36.43l-2.28,23.53H217.64V220.14Zm-7.59,0v23.53H175.9l-2.28-23.53Z"/><g id="_Group_18" data-name="&lt;Group&gt;"><g id="_Group_19" data-name="&lt;Group&gt;"><path id="_Path_11" data-name="&lt;Path&gt;" class="cls-2" d="M67.74,268.33h0a2.59,2.59,0,0,1,2.66-2.66h0a2.59,2.59,0,0,1,2.66,2.66h0A2.59,2.59,0,0,1,70.39,271h0A2.59,2.59,0,0,1,67.74,268.33Z"/></g></g><g id="_Group_20" data-name="&lt;Group&gt;"><g id="_Group_21" data-name="&lt;Group&gt;"><path id="_Path_12" data-name="&lt;Path&gt;" class="cls-2" d="M78.74,243.29h0a2.59,2.59,0,0,1,2.66-2.66h0a2.59,2.59,0,0,1,2.66,2.66h0a2.59,2.59,0,0,1-2.66,2.66h0C79.88,245.56,78.74,244.42,78.74,243.29Z"/></g></g><g id="_Group_22" data-name="&lt;Group&gt;"><g id="_Group_23" data-name="&lt;Group&gt;"><path id="_Path_13" data-name="&lt;Path&gt;" class="cls-2" d="M59.39,268.33h0A2.59,2.59,0,0,1,62,265.68h0a2.59,2.59,0,0,1,2.66,2.66h0A2.59,2.59,0,0,1,62,271h0A2.59,2.59,0,0,1,59.39,268.33Z"/></g></g><g id="_Group_24" data-name="&lt;Group&gt;"><g id="_Group_25" data-name="&lt;Group&gt;"><path id="_Path_14" data-name="&lt;Path&gt;" class="cls-2" d="M67.74,217.86h0a2.59,2.59,0,0,1,2.66-2.66h0a2.59,2.59,0,0,1,2.66,2.66h0a2.59,2.59,0,0,1-2.66,2.66h0A2.59,2.59,0,0,1,67.74,217.86Z"/></g></g><g id="_Group_26" data-name="&lt;Group&gt;"><g id="_Group_27" data-name="&lt;Group&gt;"><path id="_Path_15" data-name="&lt;Path&gt;" class="cls-2" d="M59.39,217.86h0A2.59,2.59,0,0,1,62,215.2h0a2.59,2.59,0,0,1,2.66,2.66h0A2.59,2.59,0,0,1,62,220.52h0A2.59,2.59,0,0,1,59.39,217.86Z"/></g></g><g id="_Group_28" data-name="&lt;Group&gt;"><g id="_Group_29" data-name="&lt;Group&gt;"><path id="_Path_16" data-name="&lt;Path&gt;" class="cls-2" d="M86,243.29h0a2.59,2.59,0,0,1,2.66-2.66h0a2.59,2.59,0,0,1,2.66,2.66h0a2.59,2.59,0,0,1-2.66,2.66h0C87.09,245.56,86,244.42,86,243.29Z"/></g></g><path id="_Path_17" data-name="&lt;Path&gt;" class="cls-2" d="M95.44,268v.38a2.45,2.45,0,0,1-2.28,2.28H78.36a2.45,2.45,0,0,1-2.28-2.28V268a2.45,2.45,0,0,1,2.28-2.28h14.8A2.19,2.19,0,0,1,95.44,268Z"/><path id="_Path_18" data-name="&lt;Path&gt;" class="cls-2" d="M95.44,217.86v.38a2.45,2.45,0,0,1-2.28,2.28H78.36a2.45,2.45,0,0,1-2.28-2.28v-.38a2.45,2.45,0,0,1,2.28-2.28h14.8C94.68,215.2,95.44,216.34,95.44,217.86Z"/><path id="_Path_19" data-name="&lt;Path&gt;" class="cls-2" d="M76.09,242.91v.38a2.45,2.45,0,0,1-2.28,2.28H59a2.45,2.45,0,0,1-2.28-2.28v-.38A2.45,2.45,0,0,1,59,240.63h14.8A2.45,2.45,0,0,1,76.09,242.91Z"/></g></g></g></g></g></g></svg>