<svg id="Capa_1" data-name="Capa 1" xmlns="http://www.w3.org/2000/svg" viewBox="0 0 400 400"><defs><style>.cls-1{fill:#00a3dd;}.cls-2{fill:#ff9800;}</style></defs><title>consorcios</title><g id="_Group_" data-name="&lt;Group&gt;"><g id="_Group_2" data-name="&lt;Group&gt;"><g id="_Group_3" data-name="&lt;Group&gt;"><path id="_Path_" data-name="&lt;Path&gt;" class="cls-1" d="M129.89,215.4h6.57a4.46,4.46,0,0,0,4.38-4.54v-6.81a4.46,4.46,0,0,0-4.38-4.54h-6.57a4.46,4.46,0,0,0-4.38,4.54v6.81A4.46,4.46,0,0,0,129.89,215.4Z"/><path id="_Path_2" data-name="&lt;Path&gt;" class="cls-1" d="M129.89,242.63h6.57a4.46,4.46,0,0,0,4.38-4.54v-6.81a4.46,4.46,0,0,0-4.38-4.54h-6.57a4.46,4.46,0,0,0-4.38,4.54v6.81A4.46,4.46,0,0,0,129.89,242.63Z"/><path id="_Path_3" data-name="&lt;Path&gt;" class="cls-1" d="M129.89,269.87h6.57a4.46,4.46,0,0,0,4.38-4.54v-6.81a4.46,4.46,0,0,0-4.38-4.54h-6.57a4.46,4.46,0,0,0-4.38,4.54v6.81A4.46,4.46,0,0,0,129.89,269.87Z"/><path id="_Path_4" data-name="&lt;Path&gt;" class="cls-1" d="M129.89,297.1h6.57a4.46,4.46,0,0,0,4.38-4.54v-6.81a4.46,4.46,0,0,0-4.38-4.54h-6.57a4.46,4.46,0,0,0-4.38,4.54v6.81A4.46,4.46,0,0,0,129.89,297.1Z"/><path id="_Path_5" data-name="&lt;Path&gt;" class="cls-1" d="M152.9,215.4h6.57a4.46,4.46,0,0,0,4.38-4.54v-6.81a4.46,4.46,0,0,0-4.38-4.54H152.9a4.46,4.46,0,0,0-4.38,4.54v6.81A4.46,4.46,0,0,0,152.9,215.4Z"/><path id="_Path_6" data-name="&lt;Path&gt;" class="cls-1" d="M152.9,242.63h6.57a4.46,4.46,0,0,0,4.38-4.54v-6.81a4.46,4.46,0,0,0-4.38-4.54H152.9a4.46,4.46,0,0,0-4.38,4.54v6.81A4.46,4.46,0,0,0,152.9,242.63Z"/><path id="_Path_7" data-name="&lt;Path&gt;" class="cls-1" d="M152.9,269.87h6.57a4.46,4.46,0,0,0,4.38-4.54v-6.81a4.46,4.46,0,0,0-4.38-4.54H152.9a4.46,4.46,0,0,0-4.38,4.54v6.81A4.46,4.46,0,0,0,152.9,269.87Z"/><path id="_Path_8" data-name="&lt;Path&gt;" class="cls-1" d="M152.9,297.1h6.57a4.46,4.46,0,0,0,4.38-4.54v-6.81a4.46,4.46,0,0,0-4.38-4.54H152.9a4.46,4.46,0,0,0-4.38,4.54v6.81A4.46,4.46,0,0,0,152.9,297.1Z"/><path id="_Path_9" data-name="&lt;Path&gt;" class="cls-1" d="M175.9,215.4h6.57a4.46,4.46,0,0,0,4.38-4.54v-6.81a4.46,4.46,0,0,0-4.38-4.54H175.9a4.46,4.46,0,0,0-4.38,4.54v6.81A4.46,4.46,0,0,0,175.9,215.4Z"/><path id="_Path_10" data-name="&lt;Path&gt;" class="cls-1" d="M175.9,242.63h6.57a4.46,4.46,0,0,0,4.38-4.54v-6.81a4.46,4.46,0,0,0-4.38-4.54H175.9a4.46,4.46,0,0,0-4.38,4.54v6.81A4.46,4.46,0,0,0,175.9,242.63Z"/><path id="_Path_11" data-name="&lt;Path&gt;" class="cls-1" d="M175.9,269.87h6.57a4.46,4.46,0,0,0,4.38-4.54v-6.81a4.46,4.46,0,0,0-4.38-4.54H175.9a4.46,4.46,0,0,0-4.38,4.54v6.81A4.46,4.46,0,0,0,175.9,269.87Z"/><path id="_Path_12" data-name="&lt;Path&gt;" class="cls-1" d="M175.9,297.1h6.57a4.46,4.46,0,0,0,4.38-4.54v-6.81a4.46,4.46,0,0,0-4.38-4.54H175.9a4.46,4.46,0,0,0-4.38,4.54v6.81A4.46,4.46,0,0,0,175.9,297.1Z"/><path id="_Path_13" data-name="&lt;Path&gt;" class="cls-1" d="M217.53,215.4h6.57a4.46,4.46,0,0,0,4.38-4.54v-6.81a4.46,4.46,0,0,0-4.38-4.54h-6.57a4.46,4.46,0,0,0-4.38,4.54v6.81A4.46,4.46,0,0,0,217.53,215.4Z"/><path id="_Path_14" data-name="&lt;Path&gt;" class="cls-1" d="M217.53,188.17h6.57a4.46,4.46,0,0,0,4.38-4.54v-6.81a4.46,4.46,0,0,0-4.38-4.54h-6.57a4.46,4.46,0,0,0-4.38,4.54v6.81A4.46,4.46,0,0,0,217.53,188.17Z"/><path id="_Path_15" data-name="&lt;Path&gt;" class="cls-1" d="M217.53,160.93h6.57a4.46,4.46,0,0,0,4.38-4.54v-6.81A4.46,4.46,0,0,0,224.1,145h-6.57a4.46,4.46,0,0,0-4.38,4.54v6.81A4.46,4.46,0,0,0,217.53,160.93Z"/><path id="_Path_16" data-name="&lt;Path&gt;" class="cls-1" d="M217.53,242.63h6.57a4.46,4.46,0,0,0,4.38-4.54v-6.81a4.46,4.46,0,0,0-4.38-4.54h-6.57a4.46,4.46,0,0,0-4.38,4.54v6.81A4.46,4.46,0,0,0,217.53,242.63Z"/><path id="_Path_17" data-name="&lt;Path&gt;" class="cls-1" d="M217.53,269.87h6.57a4.46,4.46,0,0,0,4.38-4.54v-6.81A4.46,4.46,0,0,0,224.1,254h-6.57a4.46,4.46,0,0,0-4.38,4.54v6.81A4.46,4.46,0,0,0,217.53,269.87Z"/><path id="_Path_18" data-name="&lt;Path&gt;" class="cls-1" d="M217.53,297.1h6.57a4.46,4.46,0,0,0,4.38-4.54v-6.81a4.46,4.46,0,0,0-4.38-4.54h-6.57a4.46,4.46,0,0,0-4.38,4.54v6.81A4.46,4.46,0,0,0,217.53,297.1Z"/><path id="_Path_19" data-name="&lt;Path&gt;" class="cls-1" d="M240.53,215.4h6.57a4.46,4.46,0,0,0,4.38-4.54v-6.81a4.46,4.46,0,0,0-4.38-4.54h-6.57a4.46,4.46,0,0,0-4.38,4.54v6.81A4.46,4.46,0,0,0,240.53,215.4Z"/><path id="_Path_20" data-name="&lt;Path&gt;" class="cls-1" d="M240.53,188.17h6.57a4.46,4.46,0,0,0,4.38-4.54v-6.81a4.46,4.46,0,0,0-4.38-4.54h-6.57a4.46,4.46,0,0,0-4.38,4.54v6.81A4.46,4.46,0,0,0,240.53,188.17Z"/><path id="_Path_21" data-name="&lt;Path&gt;" class="cls-1" d="M240.53,160.93h6.57a4.46,4.46,0,0,0,4.38-4.54v-6.81A4.46,4.46,0,0,0,247.1,145h-6.57a4.46,4.46,0,0,0-4.38,4.54v6.81A4.46,4.46,0,0,0,240.53,160.93Z"/><path id="_Path_22" data-name="&lt;Path&gt;" class="cls-1" d="M240.53,242.63h6.57a4.46,4.46,0,0,0,4.38-4.54v-6.81a4.46,4.46,0,0,0-4.38-4.54h-6.57a4.46,4.46,0,0,0-4.38,4.54v6.81A4.46,4.46,0,0,0,240.53,242.63Z"/><path id="_Path_23" data-name="&lt;Path&gt;" class="cls-1" d="M240.53,269.87h6.57a4.46,4.46,0,0,0,4.38-4.54v-6.81A4.46,4.46,0,0,0,247.1,254h-6.57a4.46,4.46,0,0,0-4.38,4.54v6.81A4.46,4.46,0,0,0,240.53,269.87Z"/><path id="_Path_24" data-name="&lt;Path&gt;" class="cls-1" d="M240.53,297.1h6.57a4.46,4.46,0,0,0,4.38-4.54v-6.81a4.46,4.46,0,0,0-4.38-4.54h-6.57a4.46,4.46,0,0,0-4.38,4.54v6.81A4.46,4.46,0,0,0,240.53,297.1Z"/><path id="_Path_25" data-name="&lt;Path&gt;" class="cls-1" d="M263.53,215.4h6.57a4.46,4.46,0,0,0,4.38-4.54v-6.81a4.46,4.46,0,0,0-4.38-4.54h-6.57a4.46,4.46,0,0,0-4.38,4.54v6.81A4.46,4.46,0,0,0,263.53,215.4Z"/><path id="_Path_26" data-name="&lt;Path&gt;" class="cls-1" d="M263.53,188.17h6.57a4.46,4.46,0,0,0,4.38-4.54v-6.81a4.46,4.46,0,0,0-4.38-4.54h-6.57a4.46,4.46,0,0,0-4.38,4.54v6.81A4.46,4.46,0,0,0,263.53,188.17Z"/><path id="_Path_27" data-name="&lt;Path&gt;" class="cls-1" d="M263.53,160.93h6.57a4.46,4.46,0,0,0,4.38-4.54v-6.81a4.46,4.46,0,0,0-4.38-4.54h-6.57a4.46,4.46,0,0,0-4.38,4.54v6.81A4.46,4.46,0,0,0,263.53,160.93Z"/><path id="_Path_28" data-name="&lt;Path&gt;" class="cls-1" d="M263.53,242.63h6.57a4.46,4.46,0,0,0,4.38-4.54v-6.81a4.46,4.46,0,0,0-4.38-4.54h-6.57a4.46,4.46,0,0,0-4.38,4.54v6.81A4.46,4.46,0,0,0,263.53,242.63Z"/><path id="_Path_29" data-name="&lt;Path&gt;" class="cls-1" d="M263.53,269.87h6.57a4.46,4.46,0,0,0,4.38-4.54v-6.81a4.46,4.46,0,0,0-4.38-4.54h-6.57a4.46,4.46,0,0,0-4.38,4.54v6.81A4.46,4.46,0,0,0,263.53,269.87Z"/><path id="_Path_30" data-name="&lt;Path&gt;" class="cls-1" d="M263.53,297.1h6.57a4.46,4.46,0,0,0,4.38-4.54v-6.81a4.46,4.46,0,0,0-4.38-4.54h-6.57a4.46,4.46,0,0,0-4.38,4.54v6.81A4.46,4.46,0,0,0,263.53,297.1Z"/><path id="_Path_31" data-name="&lt;Path&gt;" class="cls-1" d="M138.55,326.6a4.54,4.54,0,0,0,0,9.08h.1a4.54,4.54,0,0,0,0-9.08Z"/><path id="_Path_32" data-name="&lt;Path&gt;" class="cls-1" d="M226.19,326.6a4.54,4.54,0,0,0,0,9.08h.1a4.54,4.54,0,0,0,0-9.08Z"/><path id="_Path_33" data-name="&lt;Path&gt;" class="cls-1" d="M92.31,344.76h-.1a4.54,4.54,0,0,0,0,9.08h.1a4.54,4.54,0,0,0,0-9.08Z"/><path id="_Path_34" data-name="&lt;Path&gt;" class="cls-1" d="M307.79,344.76h-.1a4.54,4.54,0,0,0,0,9.08h.1a4.54,4.54,0,0,0,0-9.08Z"/><path id="_Compound_Path_" data-name="&lt;Compound Path&gt;" class="cls-1" d="M295.1,344.76H292V126a4.46,4.46,0,0,0-4.38-4.54H200a4.46,4.46,0,0,0-4.38,4.54v55.38H112.37A4.46,4.46,0,0,0,108,185.9V344.76H104.9a4.54,4.54,0,0,0,0,9.08H295.1a4.54,4.54,0,0,0,0-9.08Zm-117,0H160.56V326.6h17.53Zm17.53,0h-8.76V322.07a4.46,4.46,0,0,0-4.38-4.54H156.18a4.46,4.46,0,0,0-4.38,4.54v22.69H116.75v-9.08H126a4.54,4.54,0,0,0,0-9.08h-9.22V190.44h78.87Zm70.11,0H248.2V326.6h17.53Zm17.53,0h-8.76V322.07a4.46,4.46,0,0,0-4.38-4.54H243.82a4.46,4.46,0,0,0-4.38,4.54v22.69H204.38v-9.08h9.22a4.54,4.54,0,0,0,0-9.08h-9.22V130.52h78.87Z"/></g></g></g><g id="_Group_4" data-name="&lt;Group&gt;"><g id="_Group_5" data-name="&lt;Group&gt;"><g id="_Group_6" data-name="&lt;Group&gt;"><path id="_Path_35" data-name="&lt;Path&gt;" class="cls-2" d="M270.44,93.86l-2.27.82-.82-2.27A2.41,2.41,0,1,0,262.81,94l.82,2.27-2.27.82a2.41,2.41,0,0,0,1.64,4.54l2.27-.82.82,2.27a2.41,2.41,0,0,0,4.54-1.64l-.82-2.27,2.27-.82a2.41,2.41,0,1,0-1.64-4.54Z"/></g></g><g id="_Group_7" data-name="&lt;Group&gt;"><g id="_Group_8" data-name="&lt;Group&gt;"><path id="_Path_36" data-name="&lt;Path&gt;" class="cls-2" d="M162.87,50.56l-3.28,1.18-1.18-3.28a3.48,3.48,0,1,0-6.55,2.36L153,54.1l-3.28,1.18a3.48,3.48,0,1,0,2.36,6.55l3.28-1.18,1.18,3.28a3.48,3.48,0,1,0,6.55-2.36L162,58.29l3.28-1.18a3.48,3.48,0,1,0-2.36-6.55Z"/></g></g><g id="_Group_9" data-name="&lt;Group&gt;"><g id="_Group_10" data-name="&lt;Group&gt;"><path id="_Path_37" data-name="&lt;Path&gt;" class="cls-2" d="M109.94,126.27l-2.34.84-.84-2.34a2.49,2.49,0,0,0-4.68,1.69l.84,2.34-2.34.84a2.49,2.49,0,0,0,1.69,4.68l2.34-.84.84,2.34a2.49,2.49,0,0,0,4.68-1.69l-.84-2.34,2.34-.84a2.49,2.49,0,1,0-1.69-4.68Z"/></g></g><g id="_Group_11" data-name="&lt;Group&gt;"><g id="_Group_12" data-name="&lt;Group&gt;"><path id="_Path_38" data-name="&lt;Path&gt;" class="cls-2" d="M172.69,99.34a4.28,4.28,0,1,0,5.48,2.58A4.28,4.28,0,0,0,172.69,99.34Z"/></g></g><g id="_Group_13" data-name="&lt;Group&gt;"><g id="_Group_14" data-name="&lt;Group&gt;"><path id="_Path_39" data-name="&lt;Path&gt;" class="cls-2" d="M216.43,52.13a4.28,4.28,0,1,0,5.48,2.58A4.28,4.28,0,0,0,216.43,52.13Z"/></g></g></g></svg>