<svg id="Capa_1" data-name="Capa 1" xmlns="http://www.w3.org/2000/svg" viewBox="0 0 400 400"><defs><style>.cls-1{fill:#1da0db;}.cls-2{fill:#f89c60;stroke:#f89c61;stroke-miterlimit:10;stroke-width:1.16px;}.cls-3{fill:#f89c5f;}</style></defs><title>correo</title><g id="_Group_" data-name="&lt;Group&gt;"><g id="_Group_2" data-name="&lt;Group&gt;"><g id="_Group_3" data-name="&lt;Group&gt;"><g id="_Group_4" data-name="&lt;Group&gt;"><g id="_Group_5" data-name="&lt;Group&gt;"><g id="_Group_6" data-name="&lt;Group&gt;"><g id="_Group_7" data-name="&lt;Group&gt;"><path id="_Compound_Path_" data-name="&lt;Compound Path&gt;" class="cls-1" d="M163.19,259.6a12.9,12.9,0,1,0,12.9,12.9A12.8,12.8,0,0,0,163.19,259.6Zm0,17.08a4.17,4.17,0,1,1,4.17-4.17A4.21,4.21,0,0,1,163.19,276.68Z"/><path id="_Compound_Path_2" data-name="&lt;Compound Path&gt;" class="cls-1" d="M301.33,259.6a12.9,12.9,0,1,0,12.9,12.9A12.8,12.8,0,0,0,301.33,259.6Zm0,17.08a4.17,4.17,0,1,1,4.17-4.17C305.88,274.78,304,276.68,301.33,276.68Z"/><path id="_Compound_Path_3" data-name="&lt;Compound Path&gt;" class="cls-1" d="M358.63,197.75,329,164.35a13.16,13.16,0,0,0-9.87-4.17H279.7V134.37a12.8,12.8,0,0,0-12.9-12.9h-151a12.8,12.8,0,0,0-12.9,12.9V246.7a3.92,3.92,0,0,0,4.17,4.17h4.17v12.9a12.8,12.8,0,0,0,12.9,12.9h9.11a30.32,30.32,0,0,0,60,0h78.56a30.32,30.32,0,0,0,60,0h17.46a12.8,12.8,0,0,0,12.9-12.9V206.47A13.37,13.37,0,0,0,358.63,197.75ZM111.2,242.15V134a4.21,4.21,0,0,1,4.17-4.17h151a4.21,4.21,0,0,1,4.17,4.17V242.15Zm22,25.81H124.1a4.21,4.21,0,0,1-4.17-4.17v-12.9h22A32.13,32.13,0,0,0,133.21,268Zm30,26.19a21.62,21.62,0,0,1-21.63-21.63,21.38,21.38,0,0,1,21.63-21.63,21.62,21.62,0,0,1,21.63,21.63A21.87,21.87,0,0,1,163.19,294.14ZM206.45,268H193.17c-.76-6.45-4.17-12.52-8.73-17.46h22Zm38.71,0H214.8V250.88h30.36Zm26.57,0H254.27V250.88h26.57A26.34,26.34,0,0,0,271.73,268Zm29.6,26.19a21.62,21.62,0,0,1-21.63-21.63,21.38,21.38,0,0,1,21.63-21.63,21.63,21.63,0,0,1,0,43.26Zm52-30.36a4.21,4.21,0,0,1-4.17,4.17H331.69a30.25,30.25,0,0,0-30-25.81H280.08V168.52h17.46v43.26a12.8,12.8,0,0,0,12.9,12.9H353.7v39.09Zm0-47.44H310.06a4.21,4.21,0,0,1-4.17-4.17V168.9h13.28a4.64,4.64,0,0,1,3.42,1.52l29.6,33.4a4.31,4.31,0,0,1,1.14,3v9.49Z"/></g></g></g><g id="_Group_8" data-name="&lt;Group&gt;"><g id="_Group_9" data-name="&lt;Group&gt;"><path id="_Compound_Path_4" data-name="&lt;Compound Path&gt;" class="cls-2" d="M225.43,158.28H156.74a7.21,7.21,0,0,0-7.21,7.21v48.58a7.21,7.21,0,0,0,7.21,7.21h68.69a7.21,7.21,0,0,0,7.21-7.21V165.49C233,161.31,229.6,158.28,225.43,158.28Zm-.76,4.55-33,33-33.4-33ZM154.46,213.3V166.63L178,189.78Zm3.42,3.42,23.53-23.53,8.35,8a2.83,2.83,0,0,0,3.42,0l8-8,23.53,23.53Zm70.21-3.42-23.53-23.53,23.53-23.53Z"/></g></g></g><g id="_Group_10" data-name="&lt;Group&gt;"><g id="_Group_11" data-name="&lt;Group&gt;"><g id="_Group_12" data-name="&lt;Group&gt;"><path id="_Path_" data-name="&lt;Path&gt;" class="cls-3" d="M51.61,226.59h0a3,3,0,0,1,3-3h0a3,3,0,0,1,3,3h0a3,3,0,0,1-3,3h0C53.13,230,51.61,228.49,51.61,226.59Z"/></g></g><g id="_Group_13" data-name="&lt;Group&gt;"><g id="_Group_14" data-name="&lt;Group&gt;"><path id="_Path_2" data-name="&lt;Path&gt;" class="cls-3" d="M65.28,196.23h0a3,3,0,0,1,3-3h0a3,3,0,0,1,3,3h0a3,3,0,0,1-3,3h0A3.26,3.26,0,0,1,65.28,196.23Z"/></g></g><g id="_Group_15" data-name="&lt;Group&gt;"><g id="_Group_16" data-name="&lt;Group&gt;"><path id="_Path_3" data-name="&lt;Path&gt;" class="cls-3" d="M41.75,226.59h0a3,3,0,0,1,3-3h0a3,3,0,0,1,3,3h0a3,3,0,0,1-3,3h0C42.88,230,41.75,228.49,41.75,226.59Z"/></g></g><g id="_Group_17" data-name="&lt;Group&gt;"><g id="_Group_18" data-name="&lt;Group&gt;"><path id="_Path_4" data-name="&lt;Path&gt;" class="cls-3" d="M51.61,165.49h0a3,3,0,0,1,3-3h0a3,3,0,0,1,3,3h0a3,3,0,0,1-3,3h0A3.26,3.26,0,0,1,51.61,165.49Z"/></g></g><g id="_Group_19" data-name="&lt;Group&gt;"><g id="_Group_20" data-name="&lt;Group&gt;"><path id="_Path_5" data-name="&lt;Path&gt;" class="cls-3" d="M41.75,165.49h0a3,3,0,0,1,3-3h0a3,3,0,0,1,3,3h0a3,3,0,0,1-3,3h0A3,3,0,0,1,41.75,165.49Z"/></g></g><g id="_Group_21" data-name="&lt;Group&gt;"><g id="_Group_22" data-name="&lt;Group&gt;"><path id="_Path_6" data-name="&lt;Path&gt;" class="cls-3" d="M74,196.23h0a3,3,0,0,1,3-3h0a3,3,0,0,1,3,3h0a3,3,0,0,1-3,3h0A3,3,0,0,1,74,196.23Z"/></g></g><path id="_Path_7" data-name="&lt;Path&gt;" class="cls-3" d="M85.77,226.59v.76a3,3,0,0,1-3,3H64.52a3,3,0,0,1-3-3v-.76a3,3,0,0,1,3-3H82.73A3,3,0,0,1,85.77,226.59Z"/><path id="_Path_8" data-name="&lt;Path&gt;" class="cls-3" d="M85.77,165.11v.76a3,3,0,0,1-3,3H64.52a3,3,0,0,1-3-3v-.76a3,3,0,0,1,3-3H82.73A3,3,0,0,1,85.77,165.11Z"/><path id="_Path_9" data-name="&lt;Path&gt;" class="cls-3" d="M61.86,195.85v.76a3,3,0,0,1-3,3H40.61a3,3,0,0,1-3-3v-.76a3,3,0,0,1,3-3H58.82A3,3,0,0,1,61.86,195.85Z"/></g></g></g></g></svg>