<svg id="Capa_1" data-name="Capa 1" xmlns="http://www.w3.org/2000/svg" viewBox="0 0 400 400"><defs><style>.cls-1{fill:#00a3dd;}.cls-2{fill:#f90;}</style></defs><title>donaciones</title><g id="_Group_" data-name="&lt;Group&gt;"><g id="_Group_2" data-name="&lt;Group&gt;"><path id="_Compound_Path_" data-name="&lt;Compound Path&gt;" class="cls-1" d="M254.21,262.55a16.64,16.64,0,0,0-21.92-8.49l-.06,0L204.6,266.83a4.28,4.28,0,0,0,3.59,7.78l27.58-12.72a8.06,8.06,0,0,1,6.48,14.75l-56.52,25a32.71,32.71,0,0,1-27.85-.63l-20.69-10.28a41.26,41.26,0,0,0-35.11-.8l-.36.16L86.3,255.12l21.42-9.46a42.66,42.66,0,0,1,32.09-1l41.61,15.28a7.44,7.44,0,0,1-5,14l-32.18-10.88a4.28,4.28,0,0,0-2.74,8.11l32.18,10.88a16,16,0,0,0,20.28-10,16.1,16.1,0,0,0-9.63-20.21L142.77,236.6a51.18,51.18,0,0,0-38.5,1.23L82.7,247.35a10.75,10.75,0,0,0-13.33-3.93L41.83,255.59a4.28,4.28,0,0,0-2.55,3.91L39.06,334a4.28,4.28,0,0,0,6.21,3.83l53.88-27.22a10.77,10.77,0,0,0,5.92-12.66l.46-.2a32.71,32.71,0,0,1,27.85.63l20.69,10.28a41.26,41.26,0,0,0,35.11.8l56.52-25A16.64,16.64,0,0,0,254.21,262.55Zm-157.46,39a2.19,2.19,0,0,1-1.16,1.22L47.65,327l.05-18.41,12.4-6.09a4.28,4.28,0,0,0-3.77-7.69l-8.6,4.22.1-36.75,25-11a2.2,2.2,0,0,1,2.9,1.12l21,47.52A2.19,2.19,0,0,1,96.75,301.59Z"/></g></g><g id="_Group_3" data-name="&lt;Group&gt;"><g id="_Group_4" data-name="&lt;Group&gt;"><path id="_Compound_Path_2" data-name="&lt;Compound Path&gt;" class="cls-1" d="M145.79,137.45a16.64,16.64,0,0,0,21.92,8.49l.06,0,27.62-12.74a4.28,4.28,0,0,0-3.59-7.78l-27.58,12.72a8.06,8.06,0,0,1-6.48-14.75l56.52-25a32.71,32.71,0,0,1,27.85.63l20.69,10.28a41.26,41.26,0,0,0,35.11.8l.36-.16,15.42,34.92-21.42,9.46a42.66,42.66,0,0,1-32.09,1l-41.61-15.28a7.44,7.44,0,0,1,5-14l32.18,10.88a4.28,4.28,0,0,0,2.74-8.11l-32.18-10.88a16,16,0,0,0-20.28,10,16.1,16.1,0,0,0,9.63,20.21l41.61,15.28a51.18,51.18,0,0,0,38.5-1.23l21.56-9.52a10.75,10.75,0,0,0,13.33,3.93l27.54-12.16a4.28,4.28,0,0,0,2.55-3.91L360.94,66a4.28,4.28,0,0,0-6.21-3.83L300.84,89.41a10.77,10.77,0,0,0-5.92,12.66l-.46.2a32.71,32.71,0,0,1-27.85-.63L245.92,91.36a41.26,41.26,0,0,0-35.11-.8l-56.52,25A16.64,16.64,0,0,0,145.79,137.45Zm157.46-39a2.19,2.19,0,0,1,1.16-1.22L352.35,73l-.05,18.41-12.4,6.09a4.28,4.28,0,0,0,3.77,7.69l8.6-4.22-.1,36.75-25,11a2.2,2.2,0,0,1-2.9-1.12l-21-47.52A2.19,2.19,0,0,1,303.25,98.41Z"/></g></g><path id="_Path_" data-name="&lt;Path&gt;" class="cls-2" d="M211.62,172.33l-10.8,10.8L190,172.33a19.67,19.67,0,0,0-27.82,27.82L196,234a6.82,6.82,0,0,0,9.65,0l33.8-33.8a19.67,19.67,0,1,0-27.82-27.82Z"/><g id="_Group_5" data-name="&lt;Group&gt;"><g id="_Group_6" data-name="&lt;Group&gt;"><g id="_Group_7" data-name="&lt;Group&gt;"><path id="_Path_2" data-name="&lt;Path&gt;" class="cls-2" d="M140,161.29l.15.81-.81.15a.82.82,0,1,0,.31,1.61l.81-.15.15.81a.82.82,0,1,0,1.61-.31l-.15-.81.81-.15a.82.82,0,1,0-.31-1.61l-.81.15-.15-.81a.82.82,0,1,0-1.61.31Z"/></g></g><g id="_Group_8" data-name="&lt;Group&gt;"><g id="_Group_9" data-name="&lt;Group&gt;"><path id="_Path_3" data-name="&lt;Path&gt;" class="cls-2" d="M119.64,195.09l.22,1.16-1.16.22a1.18,1.18,0,0,0,.44,2.33l1.16-.22.22,1.16a1.18,1.18,0,0,0,2.33-.44l-.22-1.16,1.16-.22a1.18,1.18,0,1,0-.44-2.33l-1.16.22-.22-1.16a1.18,1.18,0,0,0-2.33.44Z"/></g></g><g id="_Group_10" data-name="&lt;Group&gt;"><g id="_Group_11" data-name="&lt;Group&gt;"><path id="_Path_4" data-name="&lt;Path&gt;" class="cls-2" d="M142.22,216.94l.16.83-.83.16a.85.85,0,1,0,.31,1.66l.83-.16.16.83a.85.85,0,1,0,1.66-.31l-.16-.83.83-.16a.85.85,0,1,0-.31-1.66l-.83.16-.16-.83a.85.85,0,0,0-1.66.31Z"/></g></g><g id="_Group_12" data-name="&lt;Group&gt;"><g id="_Group_13" data-name="&lt;Group&gt;"><path id="_Path_5" data-name="&lt;Path&gt;" class="cls-2" d="M136.55,194.42a1.46,1.46,0,1,0,1.16-1.7A1.46,1.46,0,0,0,136.55,194.42Z"/></g></g><g id="_Group_14" data-name="&lt;Group&gt;"><g id="_Group_15" data-name="&lt;Group&gt;"><path id="_Path_6" data-name="&lt;Path&gt;" class="cls-2" d="M123,177.19a1.46,1.46,0,1,0,1.16-1.7A1.46,1.46,0,0,0,123,177.19Z"/></g></g></g><g id="_Group_16" data-name="&lt;Group&gt;"><g id="_Group_17" data-name="&lt;Group&gt;"><g id="_Group_18" data-name="&lt;Group&gt;"><path id="_Path_7" data-name="&lt;Path&gt;" class="cls-2" d="M265.35,186.18l-.44.7.7.44a.82.82,0,1,1-.87,1.39l-.7-.44-.44.7a.82.82,0,0,1-1.39-.87l.44-.7L262,187a.82.82,0,0,1,.87-1.39l.7.44.44-.7a.82.82,0,0,1,1.39.87Z"/></g></g><g id="_Group_19" data-name="&lt;Group&gt;"><g id="_Group_20" data-name="&lt;Group&gt;"><path id="_Path_8" data-name="&lt;Path&gt;" class="cls-2" d="M271.93,225.08l-.63,1,1,.63a1.18,1.18,0,0,1-1.26,2l-1-.63-.63,1a1.18,1.18,0,0,1-2-1.26l.63-1-1-.63a1.18,1.18,0,1,1,1.26-2l1,.63.63-1a1.18,1.18,0,0,1,2,1.26Z"/></g></g><g id="_Group_21" data-name="&lt;Group&gt;"><g id="_Group_22" data-name="&lt;Group&gt;"><path id="_Path_9" data-name="&lt;Path&gt;" class="cls-2" d="M242.93,237.17l-.45.72.72.45a.85.85,0,1,1-.9,1.43l-.72-.45-.45.72a.85.85,0,0,1-1.43-.9l.45-.72-.72-.45a.85.85,0,0,1,.9-1.43l.72.45.45-.72a.85.85,0,1,1,1.43.9Z"/></g></g><g id="_Group_23" data-name="&lt;Group&gt;"><g id="_Group_24" data-name="&lt;Group&gt;"><path id="_Path_10" data-name="&lt;Path&gt;" class="cls-2" d="M256.43,218.27a1.46,1.46,0,1,1-.46-2A1.46,1.46,0,0,1,256.43,218.27Z"/></g></g><g id="_Group_25" data-name="&lt;Group&gt;"><g id="_Group_26" data-name="&lt;Group&gt;"><path id="_Path_11" data-name="&lt;Path&gt;" class="cls-2" d="M275.3,207.17a1.46,1.46,0,1,1-.46-2A1.46,1.46,0,0,1,275.3,207.17Z"/></g></g></g></svg>