<svg id="Capa_1" data-name="Capa 1" xmlns="http://www.w3.org/2000/svg" viewBox="0 0 400 400"><defs><style>.cls-1{fill:#f90;}.cls-2{fill:#00a3dd;}</style></defs><title>electricidad</title><g id="_Group_" data-name="&lt;Group&gt;"><path id="_Path_" data-name="&lt;Path&gt;" class="cls-1" d="M110.53,221.66a4.87,4.87,0,0,0-6.66-1.78L85.06,230.73a4.87,4.87,0,1,0,4.87,8.44l18.81-10.86A4.87,4.87,0,0,0,110.53,221.66Z"/></g><g id="_Group_2" data-name="&lt;Group&gt;"><path id="_Path_2" data-name="&lt;Path&gt;" class="cls-1" d="M313.91,232.52l-18.81-10.86a4.87,4.87,0,1,0-4.87,8.44c19.35,10.91,18.94,11.52,21.25,11.52A4.88,4.88,0,0,0,313.91,232.52Z"/></g><path id="_Compound_Path_" data-name="&lt;Compound Path&gt;" class="cls-2" d="M255.51,228.93a4.87,4.87,0,0,0-6.88.34A53.05,53.05,0,0,0,235,262.84H219.79v-85.4h10.45a19,19,0,1,0,0-38.09h-1.16a19.07,19.07,0,0,0-19,19v9.3H192v-9.3a19.07,19.07,0,0,0-19-19h-1.16a19,19,0,1,0,0,38.09h10.45v39.61a4.87,4.87,0,1,0,9.75,0V177.45h18v85.4H192v-26.3a4.87,4.87,0,1,0-9.75,0v26.3H167.06a52.48,52.48,0,0,0-17.12-37.09,76.45,76.45,0,0,1-18.75-26.51,4.87,4.87,0,0,0-9,3.79A86.27,86.27,0,0,0,143.36,233a42.67,42.67,0,0,1,14,31.37v52.3a17.23,17.23,0,0,0,13.31,16.75,30.07,30.07,0,0,0,2.91,12.24,4.87,4.87,0,1,0,8.8-4.19,20.39,20.39,0,0,1-1.95-7.6h41.21a20.67,20.67,0,0,1-28,18,4.87,4.87,0,0,0-3.47,9.11,30.43,30.43,0,0,0,41.19-27.61,17.23,17.23,0,0,0,13.31-16.75V265.1a43.44,43.44,0,0,1,11.13-29.29A4.87,4.87,0,0,0,255.51,228.93ZM219.79,158.4a9.31,9.31,0,0,1,9.3-9.3h1.16a9.3,9.3,0,1,1,0,18.59H219.79v-9.3Zm-37.51,9.3H171.83a9.3,9.3,0,1,1,0-18.59H173a9.31,9.31,0,0,1,9.3,9.3ZM235,316.62a7.47,7.47,0,0,1-7.46,7.46H174.56a7.47,7.47,0,0,1-7.46-7.46V303.31H235Zm0-23.06H167.1v-21H235Z"/><g id="_Group_3" data-name="&lt;Group&gt;"><path id="_Path_3" data-name="&lt;Path&gt;" class="cls-2" d="M286.55,168.62a85,85,0,0,0-25.07-59.19c-53.68-53.75-146-15.65-146,60.37a86.43,86.43,0,0,0,1,13.4,4.87,4.87,0,1,0,9.63-1.52,75.85,75.85,0,0,1,76-87.65c40.6.6,74.08,34.12,74.63,74.72q0,.52,0,1a75.11,75.11,0,0,1-15.21,45.54,4.87,4.87,0,0,0,7.79,5.87,84.78,84.78,0,0,0,17.17-51.41Q286.56,169.21,286.55,168.62Z"/></g><g id="_Group_4" data-name="&lt;Group&gt;"><path id="_Path_4" data-name="&lt;Path&gt;" class="cls-1" d="M201,37a4.87,4.87,0,0,0-4.87,4.87V63.61a4.87,4.87,0,1,0,9.75,0V41.88A4.87,4.87,0,0,0,201,37Z"/></g><g id="_Group_5" data-name="&lt;Group&gt;"><path id="_Path_5" data-name="&lt;Path&gt;" class="cls-1" d="M151.32,75.07,140.46,56.25A4.87,4.87,0,0,0,132,61.13l10.86,18.81a4.87,4.87,0,1,0,8.44-4.87Z"/></g><g id="_Group_6" data-name="&lt;Group&gt;"><path id="_Path_6" data-name="&lt;Path&gt;" class="cls-1" d="M109.78,112.28,91,101.42a4.87,4.87,0,0,0-4.87,8.44l18.81,10.86a4.87,4.87,0,0,0,4.87-8.44Z"/></g><g id="_Group_7" data-name="&lt;Group&gt;"><path id="_Path_7" data-name="&lt;Path&gt;" class="cls-1" d="M92.41,165.29H70.69a4.87,4.87,0,0,0,0,9.75H92.41a4.87,4.87,0,0,0,0-9.75Z"/></g><g id="_Group_8" data-name="&lt;Group&gt;"><path id="_Path_8" data-name="&lt;Path&gt;" class="cls-1" d="M329.31,167.36H307.59a4.87,4.87,0,0,0,0,9.75h21.72a4.87,4.87,0,0,0,0-9.75Z"/></g><g id="_Group_9" data-name="&lt;Group&gt;"><path id="_Path_9" data-name="&lt;Path&gt;" class="cls-1" d="M316.72,105a4.87,4.87,0,0,0-6.66-1.78l-18.81,10.86a4.87,4.87,0,0,0,4.87,8.44l18.81-10.86A4.87,4.87,0,0,0,316.72,105Z"/></g><g id="_Group_10" data-name="&lt;Group&gt;"><path id="_Path_10" data-name="&lt;Path&gt;" class="cls-1" d="M268,55.51a4.87,4.87,0,0,0-6.66,1.78L250.47,76.1A4.87,4.87,0,1,0,258.91,81l10.86-18.81A4.87,4.87,0,0,0,268,55.51Z"/></g></svg>