<svg id="Capa_1" data-name="Capa 1" xmlns="http://www.w3.org/2000/svg" viewBox="0 0 400 400"><defs><style>.cls-1{fill:#f90;}.cls-2{fill:#00a3dd;}</style></defs><title>emergencias</title><path id="_Path_" data-name="&lt;Path&gt;" class="cls-1" d="M24.48,233.78h.92a4.6,4.6,0,1,0,0-9.21h-.92a4.6,4.6,0,1,0,0,9.21Z"/><path id="_Path_2" data-name="&lt;Path&gt;" class="cls-1" d="M42.89,204.78H42A4.6,4.6,0,1,0,42,214h.92a4.6,4.6,0,1,0,0-9.21Z"/><path id="_Path_3" data-name="&lt;Path&gt;" class="cls-1" d="M42.89,243.91H42a4.6,4.6,0,0,0,0,9.21h.92a4.6,4.6,0,0,0,0-9.21Z"/><path id="_Path_4" data-name="&lt;Path&gt;" class="cls-1" d="M150.62,186.45V204a3.57,3.57,0,0,0,3.57,3.57h15.21a3.57,3.57,0,0,1,3.57,3.57v15.21a3.57,3.57,0,0,0,3.57,3.57h17.51a3.57,3.57,0,0,0,3.57-3.57V211.11a3.57,3.57,0,0,1,3.57-3.57h15.21A3.57,3.57,0,0,0,220,204V186.45a3.57,3.57,0,0,0-3.57-3.57H201.2a3.57,3.57,0,0,1-3.57-3.57V164.1a3.57,3.57,0,0,0-3.57-3.57H176.55A3.57,3.57,0,0,0,173,164.1v15.21a3.57,3.57,0,0,1-3.57,3.57H154.19A3.57,3.57,0,0,0,150.62,186.45Z"/><path id="_Compound_Path_" data-name="&lt;Compound Path&gt;" class="cls-2" d="M116.09,148.77h0v125A23,23,0,0,0,139,296.72h20.63a32.14,32.14,0,0,0,51.33,0H251a32.13,32.13,0,0,0,51.33,0h26.49a23,23,0,0,0,22.93-22.93V224.17a5.84,5.84,0,0,0-.92-3.07l-56-84.91a22.86,22.86,0,0,0-19.14-10.31h-58.3a32.64,32.64,0,0,0-64.33,0H139A23,23,0,0,0,116.09,148.77Zm90-22.89H164.54a21.5,21.5,0,0,1,41.53,0Zm129.78,92.71H298L244.29,137h31.48a11.74,11.74,0,0,1,9.83,5.29Zm-28,50.53h32.81v4.68a11.79,11.79,0,0,1-11.78,11.78h-21A32.12,32.12,0,0,0,307.82,269.12Zm-52.14,8.23a21,21,0,1,1,21,21A21,21,0,0,1,255.69,277.35Zm-39.28-8.23h29.2a32.63,32.63,0,0,0,0,16.45H216.41A32.66,32.66,0,0,0,216.4,269.12Zm-52.12,8.23a21,21,0,1,1,21,21A21,21,0,0,1,164.29,277.35Zm-37.05-3.55h0v-4.68h27a32.76,32.76,0,0,0,0,16.45H139A11.79,11.79,0,0,1,127.24,273.8Zm0-16V148.79A11.8,11.8,0,0,1,139,137h91.92l59.45,90.2a5.58,5.58,0,0,0,4.66,2.51h45.6v28.1H302.28a32.18,32.18,0,0,0-51.16,0H210.89a32.18,32.18,0,0,0-51.17,0H127.24Z"/><path id="_Path_5" data-name="&lt;Path&gt;" class="cls-1" d="M38.29,229.18a4.6,4.6,0,0,0,4.6,4.6H79.72a4.6,4.6,0,1,0,0-9.21H42.89A4.6,4.6,0,0,0,38.29,229.18Z"/><path id="_Path_6" data-name="&lt;Path&gt;" class="cls-1" d="M93.53,214a4.6,4.6,0,1,0,0-9.21H61.3a4.6,4.6,0,1,0,0,9.21Z"/><path id="_Path_7" data-name="&lt;Path&gt;" class="cls-1" d="M198.65,87.71c-.49.95.23,2.29,1.62,3s2.9.53,3.39-.42l6.2-12c.49-.95-.23-2.29-1.62-3s-2.9-.53-3.39.42Z"/><path id="_Path_8" data-name="&lt;Path&gt;" class="cls-1" d="M161.08,94c.72.79,2.23.58,3.38-.47s1.51-2.53.79-3.32l-9.08-10c-.72-.79-2.23-.58-3.38.47S151.28,83.19,152,84Z"/><path id="_Path_9" data-name="&lt;Path&gt;" class="cls-1" d="M178.18,85.37c.06,1,1.53,1.81,3.28,1.7s3.11-1,3-2.09l-.82-13.25c-.06-1-1.53-1.81-3.28-1.7s-3.11,1-3,2.09Z"/><path id="_Path_10" data-name="&lt;Path&gt;" class="cls-1" d="M93.53,253.12a4.6,4.6,0,0,0,0-9.21H61.3a4.6,4.6,0,0,0,0,9.21Z"/></svg>