<svg id="Capa_1" data-name="Capa 1" xmlns="http://www.w3.org/2000/svg" viewBox="0 0 400 400"><defs><style>.cls-1{fill:#f90;}.cls-2{fill:#00a3dd;}</style></defs><title>establecimientoseducativos</title><path id="_Path_" data-name="&lt;Path&gt;" class="cls-1" d="M119.37,248.74a4.72,4.72,0,0,0-4.72,4.72v5a4.72,4.72,0,1,0,9.45,0v-5A4.72,4.72,0,0,0,119.37,248.74Z"/><path id="_Path_2" data-name="&lt;Path&gt;" class="cls-1" d="M104.26,248.74a4.72,4.72,0,0,0-4.72,4.72v5a4.72,4.72,0,1,0,9.45,0v-5A4.72,4.72,0,0,0,104.26,248.74Z"/><path id="_Path_3" data-name="&lt;Path&gt;" class="cls-1" d="M89.14,248.74a4.72,4.72,0,0,0-4.72,4.72v5a4.72,4.72,0,1,0,9.45,0v-5A4.72,4.72,0,0,0,89.14,248.74Z"/><path id="_Path_4" data-name="&lt;Path&gt;" class="cls-1" d="M74,248.74a4.72,4.72,0,0,0-4.72,4.72v5a4.72,4.72,0,1,0,9.45,0v-5A4.72,4.72,0,0,0,74,248.74Z"/><path id="_Path_5" data-name="&lt;Path&gt;" class="cls-1" d="M119.37,218.51a4.72,4.72,0,0,0-4.72,4.72v15.12a4.72,4.72,0,1,0,9.45,0V223.23A4.72,4.72,0,0,0,119.37,218.51Z"/><path id="_Path_6" data-name="&lt;Path&gt;" class="cls-1" d="M104.26,218.51a4.72,4.72,0,0,0-4.72,4.72v15.12a4.72,4.72,0,1,0,9.45,0V223.23A4.72,4.72,0,0,0,104.26,218.51Z"/><path id="_Path_7" data-name="&lt;Path&gt;" class="cls-1" d="M89.14,218.51a4.72,4.72,0,0,0-4.72,4.72v15.12a4.72,4.72,0,1,0,9.45,0V223.23A4.72,4.72,0,0,0,89.14,218.51Z"/><path id="_Path_8" data-name="&lt;Path&gt;" class="cls-1" d="M74,218.51a4.72,4.72,0,0,0-4.72,4.72v15.12a4.72,4.72,0,1,0,9.45,0V223.23A4.72,4.72,0,0,0,74,218.51Z"/><path id="_Path_9" data-name="&lt;Path&gt;" class="cls-1" d="M326,263.23a4.72,4.72,0,0,0,4.72-4.72v-5a4.72,4.72,0,1,0-9.45,0v5A4.72,4.72,0,0,0,326,263.23Z"/><path id="_Path_10" data-name="&lt;Path&gt;" class="cls-1" d="M310.86,263.23a4.72,4.72,0,0,0,4.72-4.72v-5a4.72,4.72,0,1,0-9.45,0v5A4.72,4.72,0,0,0,310.86,263.23Z"/><path id="_Path_11" data-name="&lt;Path&gt;" class="cls-1" d="M295.74,263.23a4.72,4.72,0,0,0,4.72-4.72v-5a4.72,4.72,0,1,0-9.45,0v5A4.72,4.72,0,0,0,295.74,263.23Z"/><path id="_Path_12" data-name="&lt;Path&gt;" class="cls-1" d="M280.63,263.23a4.72,4.72,0,0,0,4.72-4.72v-5a4.72,4.72,0,1,0-9.45,0v5A4.72,4.72,0,0,0,280.63,263.23Z"/><path id="_Path_13" data-name="&lt;Path&gt;" class="cls-1" d="M326,243.08a4.72,4.72,0,0,0,4.72-4.72V223.23a4.72,4.72,0,0,0-9.45,0v15.12A4.72,4.72,0,0,0,326,243.08Z"/><path id="_Path_14" data-name="&lt;Path&gt;" class="cls-1" d="M310.86,243.08a4.72,4.72,0,0,0,4.72-4.72V223.23a4.72,4.72,0,0,0-9.45,0v15.12A4.72,4.72,0,0,0,310.86,243.08Z"/><path id="_Path_15" data-name="&lt;Path&gt;" class="cls-1" d="M295.74,243.08a4.72,4.72,0,0,0,4.72-4.72V223.23a4.72,4.72,0,0,0-9.45,0v15.12A4.72,4.72,0,0,0,295.74,243.08Z"/><path id="_Path_16" data-name="&lt;Path&gt;" class="cls-1" d="M280.63,243.08a4.72,4.72,0,0,0,4.72-4.72V223.23a4.72,4.72,0,0,0-9.45,0v15.12A4.72,4.72,0,0,0,280.63,243.08Z"/><path id="_Compound_Path_" data-name="&lt;Compound Path&gt;" class="cls-2" d="M356.21,273.94h-5.35V207.8h.31a4.72,4.72,0,1,0,0-9.45h-86v-5.67h10.39a4.72,4.72,0,0,0,2.22-8.89l-73.08-39v-7.56h25.51a4.72,4.72,0,0,0,4.23-6.84l-4-8,4-8a4.72,4.72,0,0,0-4.23-6.84H204.72v-.31a4.72,4.72,0,0,0-9.45,0v37.48l-73.08,39a4.72,4.72,0,0,0,2.22,8.89h10.39v5.67h-86a4.72,4.72,0,0,0,0,9.45h.31v66.14H43.79a4.72,4.72,0,1,0,0,9.45H356.21a4.72,4.72,0,0,0,0-9.45Zm-14.8-66.14v66.14H265.19V207.8Zm-85.66,66.14H245V192.69h10.71Zm-80.63-81.25v81.25H164.41V192.69Zm9.45,0h10.71v81.25H184.57Zm20.16,0h10.71v81.25H204.72Zm20.16,0h10.71v81.25H224.88Zm-2.29-75.59L221,120.34a4.72,4.72,0,0,0,0,4.23l1.62,3.24H204.72V117.1ZM200,153l56.69,30.23H143.31Zm-45,39.68v81.25H144.26V192.69ZM58.59,207.8h76.22v66.14H58.59Z"/><path id="_Path_17" data-name="&lt;Path&gt;" class="cls-1" d="M189.92,177.57h20.16a4.72,4.72,0,0,0,0-9.45H189.92a4.72,4.72,0,0,0,0,9.45Z"/></svg>