<svg id="Capa_1" data-name="Capa 1" xmlns="http://www.w3.org/2000/svg" viewBox="0 0 400 400"><defs><style>.cls-1{fill:#f90;}.cls-2{fill:#ff9800;}.cls-3{fill:#00a3dd;}</style></defs><title>gas</title><g id="_Group_" data-name="&lt;Group&gt;"><g id="_Group_2" data-name="&lt;Group&gt;"><g id="_Group_3" data-name="&lt;Group&gt;"><path id="_Path_" data-name="&lt;Path&gt;" class="cls-1" d="M253.78,78.59l-1.93.43-.43-1.93a2,2,0,0,0-3.86.85l.43,1.93-1.93.43a2,2,0,0,0,.85,3.86l1.93-.43.43,1.93a2,2,0,1,0,3.86-.85l-.43-1.93,1.93-.43a2,2,0,0,0-.85-3.86Z"/></g></g><g id="_Group_4" data-name="&lt;Group&gt;"><g id="_Group_5" data-name="&lt;Group&gt;"><path id="_Path_2" data-name="&lt;Path&gt;" class="cls-1" d="M171,32.09l-2.78.61-.61-2.78A2.85,2.85,0,1,0,162,31.15l.61,2.78-2.78.61a2.85,2.85,0,0,0,1.23,5.57l2.78-.61.61,2.78A2.85,2.85,0,0,0,170,41.06l-.61-2.78,2.78-.61A2.85,2.85,0,1,0,171,32.09Z"/></g></g><g id="_Group_6" data-name="&lt;Group&gt;"><g id="_Group_7" data-name="&lt;Group&gt;"><path id="_Path_3" data-name="&lt;Path&gt;" class="cls-1" d="M120,88l-2,.44-.44-2a2,2,0,0,0-4,.88l.44,2-2,.44a2,2,0,1,0,.88,4l2-.44.44,2a2,2,0,0,0,4-.88l-.44-2,2-.44a2,2,0,1,0-.88-4Z"/></g></g><g id="_Group_8" data-name="&lt;Group&gt;"><g id="_Group_9" data-name="&lt;Group&gt;"><path id="_Path_4" data-name="&lt;Path&gt;" class="cls-1" d="M173.82,72.75A3.51,3.51,0,1,0,178,75.42,3.51,3.51,0,0,0,173.82,72.75Z"/></g></g><g id="_Group_10" data-name="&lt;Group&gt;"><g id="_Group_11" data-name="&lt;Group&gt;"><path id="_Path_5" data-name="&lt;Path&gt;" class="cls-1" d="M214.31,39a3.51,3.51,0,1,0,4.18,2.67A3.51,3.51,0,0,0,214.31,39Z"/></g></g></g><path id="_Compound_Path_" data-name="&lt;Compound Path&gt;" class="cls-2" d="M143.66,344.83c0-9.05-8.73-14.63-9.1-14.87l-2.16-1.35L130.24,330c-.37.23-9.1,5.82-9.1,14.87a11.26,11.26,0,1,0,22.52,0Zm-14.41,0c0-2.52,1.68-4.74,3.15-6.2,1.47,1.45,3.15,3.67,3.15,6.2a3.15,3.15,0,0,1-6.3,0Z"/><path id="_Compound_Path_2" data-name="&lt;Compound Path&gt;" class="cls-2" d="M170.7,344.83c0-9.05-8.73-14.63-9.1-14.87l-2.16-1.35L157.28,330c-.37.23-9.1,5.82-9.1,14.87a11.26,11.26,0,1,0,22.52,0Zm-14.41,0c0-2.52,1.68-4.74,3.15-6.2,1.47,1.45,3.15,3.67,3.15,6.2a3.15,3.15,0,0,1-6.3,0Z"/><path id="_Compound_Path_3" data-name="&lt;Compound Path&gt;" class="cls-2" d="M197.74,344.83c0-9.05-8.73-14.63-9.1-14.87l-2.16-1.35L184.33,330c-.37.23-9.1,5.82-9.1,14.87a11.26,11.26,0,1,0,22.52,0Zm-14.41,0c0-2.52,1.68-4.74,3.15-6.2,1.47,1.45,3.15,3.67,3.15,6.2a3.15,3.15,0,0,1-6.3,0Z"/><path id="_Compound_Path_4" data-name="&lt;Compound Path&gt;" class="cls-2" d="M224.78,344.83c0-9.05-8.73-14.63-9.1-14.87l-2.16-1.35L211.37,330c-.37.23-9.1,5.82-9.1,14.87a11.26,11.26,0,1,0,22.52,0Zm-14.41,0c0-2.52,1.68-4.74,3.15-6.2,1.47,1.45,3.15,3.67,3.15,6.2a3.15,3.15,0,0,1-6.3,0Z"/><path id="_Compound_Path_5" data-name="&lt;Compound Path&gt;" class="cls-2" d="M251.82,344.83c0-9.05-8.73-14.63-9.1-14.87l-2.16-1.35L238.41,330c-.37.23-9.1,5.82-9.1,14.87a11.26,11.26,0,1,0,22.52,0Zm-14.41,0c0-2.52,1.68-4.74,3.15-6.2,1.47,1.45,3.15,3.67,3.15,6.2a3.15,3.15,0,0,1-6.3,0Z"/><path id="_Compound_Path_6" data-name="&lt;Compound Path&gt;" class="cls-2" d="M278.86,344.83c0-9.05-8.73-14.63-9.1-14.87l-2.16-1.35L265.44,330c-.37.23-9.1,5.82-9.1,14.87a11.26,11.26,0,1,0,22.52,0Zm-14.41,0c0-2.52,1.68-4.74,3.15-6.2,1.47,1.45,3.15,3.67,3.15,6.2a3.15,3.15,0,0,1-6.3,0Z"/><rect id="_Path_6" data-name="&lt;Path&gt;" class="cls-3" x="118.42" y="364.2" width="163.15" height="8.11" rx="4.06" ry="4.06"/><path id="_Compound_Path_7" data-name="&lt;Compound Path&gt;" class="cls-3" d="M295.47,179.63h-9.84V165.3a41.6,41.6,0,0,0-41.55-41.55H220v-4.51a20,20,0,0,0-40,0v4.51H155.92a41.6,41.6,0,0,0-41.55,41.55v14.33h-9.84a14.67,14.67,0,0,0,0,29.35h9.84v83.86a28.42,28.42,0,0,0,28.39,28.39H257.24a28.42,28.42,0,0,0,28.39-28.39V209h9.84a14.67,14.67,0,1,0,0-29.35ZM188.1,119.24a11.9,11.9,0,1,1,23.79,0v4.51H188.1v-4.51Zm-73.74,81.62h-9.84a6.56,6.56,0,0,1,0-13.13h9.84Zm163.16-21.24V292.84a20.3,20.3,0,0,1-20.28,20.28H142.76a20.3,20.3,0,0,1-20.28-20.28V171.52h25.79v-8.11H122.53c0-.32,0-.64.07-1s0-.42.05-.62c0-.4.1-.79.15-1.19,0-.15,0-.31.06-.46q.25-1.64.66-3.22c0-.14.08-.27.12-.41.1-.39.21-.77.33-1.15.06-.18.12-.35.18-.53.11-.33.22-.67.34-1s.15-.39.22-.58.24-.61.36-.92.18-.4.26-.59.26-.58.39-.87l.3-.6c.14-.28.28-.55.42-.82l.33-.59c.15-.26.3-.53.45-.79l.37-.59.48-.75.4-.57.51-.72.43-.56.54-.69.45-.54L131,143l.48-.52.6-.63.51-.5.63-.6.53-.48.65-.56.56-.46.68-.53.58-.43.7-.5.6-.41.72-.46.62-.38.75-.43.64-.35.77-.39.66-.32.79-.36.67-.29.81-.32.68-.26.84-.28.69-.23.86-.25.7-.19.89-.21.7-.16.93-.17.69-.12,1-.13.65-.08,1.12-.08.55,0q.84,0,1.69,0h88.16q.85,0,1.69,0l.55,0,1.12.08.65.08,1,.13.69.12.93.17.7.16.89.21.7.19.86.25.69.23.84.28.68.26.81.32.67.29.79.36.66.32.77.39.64.35.75.43.62.38.72.46.6.41.7.5.58.43.68.53.56.46.65.56.53.48.63.6.51.5.6.63.48.52.57.66.45.54.54.69.43.56.51.72.4.57.48.75.37.59c.16.26.3.52.45.79l.33.59c.15.27.28.55.42.82l.3.6c.14.28.26.58.39.87s.18.39.26.59.24.61.36.92.15.38.22.58.23.66.34,1c.06.18.12.35.18.53.12.38.22.76.33,1.15,0,.14.08.27.12.41q.41,1.58.66,3.22c0,.15,0,.3.06.46.05.39.11.79.15,1.19,0,.21,0,.41.05.62s.05.63.07,1H159.09v8.11H277.52v8.11Zm18,21.24h-9.84V187.74h9.84a6.56,6.56,0,0,1,0,13.13Z"/><path id="_Path_7" data-name="&lt;Path&gt;" class="cls-3" d="M269.41,288.78v-101a4.06,4.06,0,0,0-4.06-4.06h0a4.06,4.06,0,0,0-4.06,4.06v101a8.11,8.11,0,0,1-8.11,8.11h-17.5a4.06,4.06,0,0,0-4.06,4.06h0a4.06,4.06,0,0,0,4.06,4.06h17.5A16.22,16.22,0,0,0,269.41,288.78Z"/><path id="_Path_8" data-name="&lt;Path&gt;" class="cls-3" d="M259.74,151.5h0a4.06,4.06,0,0,0-.22-6.27A25.32,25.32,0,0,0,244.08,140h-8.39a4.06,4.06,0,0,0-4.06,4.06h0a4.06,4.06,0,0,0,4.06,4.06h8.39a17.2,17.2,0,0,1,10.5,3.59A4.05,4.05,0,0,0,259.74,151.5Z"/></svg>