<svg id="Capa_1" data-name="Capa 1" xmlns="http://www.w3.org/2000/svg" viewBox="0 0 400 400"><defs><style>.cls-1{fill:#ff9800;}.cls-2{fill:#00a3dd;}</style></defs><title>generico</title><g id="_Group_" data-name="&lt;Group&gt;"><g id="_Group_2" data-name="&lt;Group&gt;"><g id="_Group_3" data-name="&lt;Group&gt;"><g id="_Group_4" data-name="&lt;Group&gt;"><g id="_Group_5" data-name="&lt;Group&gt;"><path id="_Path_" data-name="&lt;Path&gt;" class="cls-1" d="M134.84,49.52l-3,.1-.1-3a3,3,0,0,0-6,.2l.1,3-3,.1a3,3,0,1,0,.2,6l3-.1.1,3a3,3,0,0,0,3.1,2.9,3.08,3.08,0,0,0,2.9-3.1l-.1-3,3-.1a3,3,0,0,0,2.9-3.1A2.89,2.89,0,0,0,134.84,49.52Z"/></g></g><g id="_Group_6" data-name="&lt;Group&gt;"><g id="_Group_7" data-name="&lt;Group&gt;"><path id="_Path_2" data-name="&lt;Path&gt;" class="cls-1" d="M250,9.72l-3,.1-.1-3a3,3,0,0,0-6,.2l.1,3-3,.1a3,3,0,1,0,.2,6l3-.1.1,3a3,3,0,1,0,6-.2l-.1-3,3-.1a3,3,0,0,0-.2-6Z"/></g></g><g id="_Group_8" data-name="&lt;Group&gt;"><g id="_Group_9" data-name="&lt;Group&gt;"><path id="_Path_3" data-name="&lt;Path&gt;" class="cls-1" d="M182.44,10.12a4.8,4.8,0,1,0,5,4.6A4.87,4.87,0,0,0,182.44,10.12Z"/></g></g><g id="_Group_10" data-name="&lt;Group&gt;"><g id="_Group_11" data-name="&lt;Group&gt;"><path id="_Path_4" data-name="&lt;Path&gt;" class="cls-1" d="M204.14,54.52a4.81,4.81,0,0,0-4.6,5,4.74,4.74,0,0,0,5,4.6,4.81,4.81,0,0,0,4.6-5A4.94,4.94,0,0,0,204.14,54.52Z"/></g></g><g id="_Group_12" data-name="&lt;Group&gt;"><g id="_Group_13" data-name="&lt;Group&gt;"><path id="_Path_5" data-name="&lt;Path&gt;" class="cls-1" d="M275.84,43a4.8,4.8,0,1,0,5,4.6A4.81,4.81,0,0,0,275.84,43Z"/></g></g></g><g id="_Group_14" data-name="&lt;Group&gt;"><g id="_Group_15" data-name="&lt;Group&gt;"><g id="_Group_16" data-name="&lt;Group&gt;"><g id="_Group_17" data-name="&lt;Group&gt;"><g id="_Group_18" data-name="&lt;Group&gt;"><path id="_Path_6" data-name="&lt;Path&gt;" class="cls-1" d="M252.44,192.72H149.14a5.2,5.2,0,1,0,0,10.4h103.3a5.16,5.16,0,0,0,5.2-5.2A5.23,5.23,0,0,0,252.44,192.72Z"/></g></g><g id="_Group_19" data-name="&lt;Group&gt;"><g id="_Group_20" data-name="&lt;Group&gt;"><path id="_Path_7" data-name="&lt;Path&gt;" class="cls-1" d="M194.84,223.42h-48.5c-1.3,0-2.4,2.3-2.4,5.2s1.1,5.2,2.4,5.2h48.5c1.3,0,2.4-2.3,2.4-5.2S196.14,223.42,194.84,223.42Z"/></g></g><g id="_Group_21" data-name="&lt;Group&gt;"><g id="_Group_22" data-name="&lt;Group&gt;"><path id="_Path_8" data-name="&lt;Path&gt;" class="cls-1" d="M194.84,252.32h-48.5c-1.3,0-2.4,2.3-2.4,5.2s1.1,5.2,2.4,5.2h48.5c1.3,0,2.4-2.3,2.4-5.2S196.14,252.32,194.84,252.32Z"/></g></g><g id="_Group_23" data-name="&lt;Group&gt;"><g id="_Group_24" data-name="&lt;Group&gt;"><path id="_Path_9" data-name="&lt;Path&gt;" class="cls-1" d="M194.84,280.32h-48.5c-1.3,0-2.4,2.3-2.4,5.2s1.1,5.2,2.4,5.2h48.5c1.3,0,2.4-2.3,2.4-5.2S196.14,280.32,194.84,280.32Z"/></g></g><g id="_Group_25" data-name="&lt;Group&gt;"><g id="_Group_26" data-name="&lt;Group&gt;"><path id="_Path_10" data-name="&lt;Path&gt;" class="cls-1" d="M252.44,160.62H149.14a5.2,5.2,0,1,0,0,10.4h103.3a5.16,5.16,0,0,0,5.2-5.2A5.29,5.29,0,0,0,252.44,160.62Z"/></g></g></g><g id="_Group_27" data-name="&lt;Group&gt;"><path id="_Path_11" data-name="&lt;Path&gt;" class="cls-1" d="M257.64,269.32c0,8-5.7,13.5-14.3,15.3a3.22,3.22,0,0,0-2.5,3.2v5.1a3.21,3.21,0,0,1-3.3,3.3h-.3a3.21,3.21,0,0,1-3.3-3.3V288a3.15,3.15,0,0,0-2.7-3.2,33,33,0,0,1-14.9-6.5,3.29,3.29,0,0,1-1-4.1l1-2.1a3.32,3.32,0,0,1,4.8-1.3c5.1,3.6,10.8,5.7,15.8,5.7,6.5,0,10.4-2.5,10.4-6.8,0-12.4-30-5.5-30-25.2,0-7.7,5.4-13,13.9-14.8a3.31,3.31,0,0,0,2.6-3.2V222a3.27,3.27,0,0,1,3.3-3.3h.3a3.21,3.21,0,0,1,3.3,3.3v4.1a3.15,3.15,0,0,0,2.7,3.2,38.15,38.15,0,0,1,10.8,3.6,3.26,3.26,0,0,1,1.4,4.3l-1.1,2.4a3.24,3.24,0,0,1-4.5,1.5,30.93,30.93,0,0,0-13.3-3.6c-5.5,0-9.1,2-9.1,5.8C227.74,255.82,257.64,249.32,257.64,269.32Z"/></g></g><path class="cls-2" d="M286.94,311.29V84.52a4.81,4.81,0,0,0-4.8-4.8h-11.6A5,5,0,0,0,267,81.2a4.36,4.36,0,0,0-1.25,3.19,6.62,6.62,0,0,1-1.88,4.85,6.86,6.86,0,0,1-9.84,0,6.63,6.63,0,0,1-1.88-4.85,4.37,4.37,0,0,0-2.15-4,5.13,5.13,0,0,0-5.14,0,4.74,4.74,0,0,0-2.31,4.08,6.81,6.81,0,0,1-6.8,6.8,6.89,6.89,0,0,1-4.92-2.08,6.63,6.63,0,0,1-1.88-4.85,4.37,4.37,0,0,0-2.15-4,5.13,5.13,0,0,0-5.14,0,4.74,4.74,0,0,0-2.31,4.08,6.81,6.81,0,0,1-6.8,6.8,6.89,6.89,0,0,1-4.92-2.08,6.63,6.63,0,0,1-1.88-4.85,4.37,4.37,0,0,0-2.15-4,5.13,5.13,0,0,0-5.14,0,4.74,4.74,0,0,0-2.31,4.08,6.81,6.81,0,0,1-6.8,6.8,6.89,6.89,0,0,1-4.92-2.08,6.62,6.62,0,0,1-1.88-4.85,4.37,4.37,0,0,0-2.15-4,5.13,5.13,0,0,0-5.14,0,4.74,4.74,0,0,0-2.31,4.08,6.81,6.81,0,0,1-6.8,6.8,6.89,6.89,0,0,1-4.92-2.08,6.62,6.62,0,0,1-1.88-4.85,4.37,4.37,0,0,0-2.15-4,5.13,5.13,0,0,0-5.14,0,4.74,4.74,0,0,0-2.31,4.08,6.79,6.79,0,0,1-11.7,4.7,6.61,6.61,0,0,1-1.9-4.84,4.35,4.35,0,0,0-1.25-3.19,5,5,0,0,0-3.55-1.48h-10.2c-3.71,0-6.2,1.93-6.2,4.8V352a4.81,4.81,0,0,0,4.8,4.8h11.6a5,5,0,0,0,3.55-1.48,4.36,4.36,0,0,0,1.25-3.19A6.62,6.62,0,0,1,138,347.3a6.85,6.85,0,0,1,9.83,0,6.62,6.62,0,0,1,1.88,4.85,4.37,4.37,0,0,0,2.15,4,5.13,5.13,0,0,0,5.14,0,4.74,4.74,0,0,0,2.31-4.08,6.79,6.79,0,0,1,11.7-4.7,6.61,6.61,0,0,1,1.9,4.83,4.37,4.37,0,0,0,2.15,4,5.13,5.13,0,0,0,5.14,0,4.74,4.74,0,0,0,2.31-4.08,6.81,6.81,0,0,1,6.8-6.8,6.89,6.89,0,0,1,4.92,2.08,6.63,6.63,0,0,1,1.88,4.85,4.37,4.37,0,0,0,2.15,4,5.13,5.13,0,0,0,5.14,0,4.74,4.74,0,0,0,2.31-4.08,6.81,6.81,0,0,1,6.8-6.8,6.88,6.88,0,0,1,4.92,2.08,6.62,6.62,0,0,1,1.88,4.85,4.37,4.37,0,0,0,2.15,4,5.13,5.13,0,0,0,5.14,0,4.74,4.74,0,0,0,2.31-4.08,6.81,6.81,0,0,1,6.8-6.8,6.89,6.89,0,0,1,4.92,2.08,6.63,6.63,0,0,1,1.88,4.85,4.37,4.37,0,0,0,2.15,4,5.13,5.13,0,0,0,5.14,0,4.74,4.74,0,0,0,2.31-4.08,6.79,6.79,0,0,1,11.7-4.7,6.61,6.61,0,0,1,1.9,4.83,4.33,4.33,0,0,0,1.26,3.16,5,5,0,0,0,3.54,1.51h4.37l-7-19.71c-2.21-1.05-6.55-1.59-9-1.59A16.08,16.08,0,0,0,248,339.76l-.66.6-.67-.59c-5.85-5.19-16.12-5.19-22,0l-.66.59-.66-.59c-5.85-5.19-16.12-5.19-22,0l-.66.59-.66-.59c-5.85-5.19-16.12-5.19-22,0l-.66.59-.66-.59c-5.85-5.19-16.12-5.19-22,0l-.67.59-.66-.6a16.3,16.3,0,0,0-10.93-4.24,16.49,16.49,0,0,0-15.46,10.94l-.24.66h-2.7V89.32h2.71l.24.67a16.41,16.41,0,0,0,15.46,10.93,16.08,16.08,0,0,0,10.93-4.24l.66-.6.67.59c5.85,5.19,16.12,5.19,22,0l.66-.59.66.59c5.85,5.19,16.12,5.19,22,0l.66-.59.66.59c5.85,5.19,16.12,5.19,22,0l.66-.59.66.59c5.85,5.19,16.12,5.19,22,0l.67-.59.66.6a16.3,16.3,0,0,0,10.93,4.24A16.49,16.49,0,0,0,274.4,90l.24-.66h2.7V307.61Z"/><path class="cls-1" d="M348.66,376l-30.83-31.7,23.09-8.67a3.6,3.6,0,0,0,0-6.66l-53-20.31-11.6-4.45-17-6.52a3.5,3.5,0,0,0-4.65,4.45l12.08,34.24,7.56,21.43,9.45,26.79A3.46,3.46,0,0,0,287,387a3.6,3.6,0,0,0,3.33-2.22l9.52-23.38,31,31.91a3.51,3.51,0,0,0,2.51,1.09,3.4,3.4,0,0,0,2.5-1l12.75-12.35A3.63,3.63,0,0,0,348.66,376Zm-15.1,9.79-32.41-33.29a3.51,3.51,0,0,0-2.51-1.09H298l-.12,0a3.87,3.87,0,0,0-2.59,2.1l-8,19.85-5.51-15.57-5.46-15.43-12.53-35.45,12.53,4.83,11.6,4.47,41.68,16.07-19.44,7.28a3.64,3.64,0,0,0-2.22,2.49,3.5,3.5,0,0,0,1,3.24l32.2,33.09Z"/></g></g></g></svg>