<svg id="Capa_1" data-name="Capa 1" xmlns="http://www.w3.org/2000/svg" viewBox="0 0 400 400"><defs><style>.cls-1{fill:#00a3dd;}.cls-2{fill:#f90;}</style></defs><title>impuestos</title><path id="_Compound_Path_" data-name="&lt;Compound Path&gt;" class="cls-1" d="M323,242.95v-24h4.73a4.73,4.73,0,0,0,4.73-4.73V124.33a23.67,23.67,0,0,0-23.65-23.65H237.84V81.76a23.67,23.67,0,0,0-23.65-23.65H176.35a23.67,23.67,0,0,0-23.65,23.65v18.92H81.76a23.67,23.67,0,0,0-23.65,23.65v89.86a4.73,4.73,0,0,0,4.73,4.73h4.73v89.86a23.67,23.67,0,0,0,23.65,23.65h162.6A56.68,56.68,0,0,0,323,242.95ZM162.16,81.76a14.21,14.21,0,0,1,14.19-14.19h37.84a14.21,14.21,0,0,1,14.19,14.19v18.92H162.16ZM72.31,209.46H67.58V124.33a14.21,14.21,0,0,1,14.19-14.19h227A14.21,14.21,0,0,1,323,124.33v85.13H214.19V176.35a4.73,4.73,0,0,0-4.73-4.73H181.08a4.73,4.73,0,0,0-4.73,4.73v33.11h-104Zm137.15,9.46h14.19v9.46H166.89v-9.46h42.56Zm-23.65-9.46V181.08h18.92v28.38ZM91.22,323A14.21,14.21,0,0,1,77,308.78V218.92h80.4v14.19a4.73,4.73,0,0,0,4.73,4.73h66.21a4.73,4.73,0,0,0,4.73-4.73V218.92h80.4v17c-.4-.23-.82-.42-1.22-.64l-.35-.19q-2.2-1.18-4.48-2.16l-.49-.21q-2.34-1-4.75-1.75l-.32-.1a56.4,56.4,0,0,0-10.78-2.21l-.82-.06q-2.21-.2-4.46-.23c-.24,0-.46,0-.7,0s-.64,0-1,0q-1.91,0-3.84.19c-.53,0-1.06.08-1.58.14s-.76.05-1.14.1c-1.21.16-2.39.39-3.57.62l-.41.07a54.87,54.87,0,0,0-10.13,3.13c-.61.25-1.19.54-1.79.81-.86.4-1.72.79-2.56,1.23s-1.72.93-2.56,1.43c-.48.28-.95.57-1.41.86-1,.64-2,1.31-3,2l-.4.3a57.12,57.12,0,0,0-12.53,12.57l-.19.26c-.73,1-1.41,2.06-2.08,3.12-.27.43-.53.86-.79,1.3-.51.87-1,1.76-1.48,2.66s-.78,1.57-1.14,2.36-.61,1.31-.89,2a54.9,54.9,0,0,0-3.1,10.06c0,.11,0,.23-.06.35-.25,1.22-.48,2.45-.64,3.71h0c0,.29,0,.58-.06.87-.13,1.15-.19,2.33-.26,3.5,0,.79-.11,1.57-.12,2.35,0,.22,0,.45,0,.69,0,1.33.11,2.63.2,3.94,0,.4,0,.81.06,1.21a56.31,56.31,0,0,0,7,22.59c.2.36.44.71.65,1.07.76,1.28,1.55,2.54,2.41,3.76.36.52.76,1,1.14,1.52.78,1,1.58,2,2.43,3,.2.23.37.49.58.72Zm193.91,9.46a47.16,47.16,0,0,1-31.73-12.33l-.79-.72a47,47,0,0,1-7.54-9.24l-.48-.78a47.37,47.37,0,0,1-4.88-11.16l0-.14a48.21,48.21,0,0,1-1.23-5.69c0-.28-.09-.56-.13-.84a48,48,0,0,1-.46-6s0-.09,0-.13a48.5,48.5,0,0,1,.35-5.89c.15-1.27.33-2.54.58-3.78,0-.06,0-.12,0-.17a46.71,46.71,0,0,1,2.65-8.55c.16-.37.33-.72.49-1.08.39-.88.81-1.75,1.26-2.6.3-.58.62-1.14.95-1.71s.68-1.14,1-1.7.88-1.38,1.36-2c.24-.34.5-.67.75-1a48.38,48.38,0,0,1,9.49-9.52c.36-.27.72-.55,1.09-.81.65-.46,1.31-.89,2-1.32s1.19-.74,1.8-1.09,1.07-.61,1.62-.9c.91-.47,1.83-.92,2.77-1.34.31-.14.61-.29.92-.42a47.06,47.06,0,0,1,8.59-2.66l.26,0c1.26-.25,2.54-.44,3.84-.59.75-.09,1.5-.13,2.25-.18s1.75-.12,2.63-.13c.69,0,1.38,0,2.07,0,1,0,1.94.06,2.89.15.56.05,1.11.14,1.66.21,1.07.14,2.14.28,3.18.49.41.08.81.19,1.21.28,1.17.26,2.33.54,3.46.89l.78.26c1.24.41,2.47.84,3.67,1.35l.4.18a47.28,47.28,0,0,1-18.73,90.69Z"/><g id="_Group_" data-name="&lt;Group&gt;"><g id="_Group_2" data-name="&lt;Group&gt;"><rect id="_Path_" data-name="&lt;Path&gt;" class="cls-2" x="251.05" y="280.38" width="68.21" height="9.46" transform="translate(-110.25 364.24) rotate(-56.31)"/></g></g><g id="_Group_3" data-name="&lt;Group&gt;"><g id="_Group_4" data-name="&lt;Group&gt;"><path id="_Compound_Path_2" data-name="&lt;Compound Path&gt;" class="cls-2" d="M308.78,285.13A14.19,14.19,0,1,0,323,299.32,14.21,14.21,0,0,0,308.78,285.13Zm0,18.92a4.73,4.73,0,1,1,4.73-4.73A4.73,4.73,0,0,1,308.78,304Z"/></g></g><g id="_Group_5" data-name="&lt;Group&gt;"><g id="_Group_6" data-name="&lt;Group&gt;"><path id="_Compound_Path_3" data-name="&lt;Compound Path&gt;" class="cls-2" d="M261.48,256.75a14.19,14.19,0,1,0,14.19,14.19A14.21,14.21,0,0,0,261.48,256.75Zm0,18.92a4.73,4.73,0,1,1,4.73-4.73A4.73,4.73,0,0,1,261.48,275.67Z"/></g></g><circle id="_Path_2" data-name="&lt;Path&gt;" class="cls-2" cx="266.21" cy="193.06" r="5.03"/><circle id="_Path_3" data-name="&lt;Path&gt;" class="cls-2" cx="285.16" cy="193.06" r="5.03"/><circle id="_Path_4" data-name="&lt;Path&gt;" class="cls-2" cx="304.05" cy="193.06" r="5.03"/></svg>