<svg id="Capa_1" data-name="Capa 1" xmlns="http://www.w3.org/2000/svg" viewBox="0 0 400 400"><defs><style>.cls-1{fill:#f90;}.cls-2{fill:#00a3dd;}</style></defs><title>operadorestv</title><g id="_Group_" data-name="&lt;Group&gt;"><g id="_Group_2" data-name="&lt;Group&gt;"><g id="_Group_3" data-name="&lt;Group&gt;"><path id="_Path_" data-name="&lt;Path&gt;" class="cls-1" d="M155.12,92.88l-2.08.06L153,90.87a2.08,2.08,0,0,0-4.16.13l.06,2.08-2.08.06a2.08,2.08,0,0,0,.13,4.16l2.08-.06.06,2.08a2.08,2.08,0,0,0,4.16-.13l-.06-2.08,2.08-.06a2.08,2.08,0,1,0-.13-4.16Z"/></g></g><g id="_Group_4" data-name="&lt;Group&gt;"><g id="_Group_5" data-name="&lt;Group&gt;"><path id="_Path_2" data-name="&lt;Path&gt;" class="cls-1" d="M234.11,65.76l-2.08.06L232,63.75a2.08,2.08,0,0,0-4.16.13l.06,2.08L225.8,66a2.08,2.08,0,1,0,.13,4.16l2.08-.06.06,2.08a2.08,2.08,0,0,0,4.16-.13L232.16,70l2.08-.06a2.08,2.08,0,0,0-.13-4.16Z"/></g></g><g id="_Group_6" data-name="&lt;Group&gt;"><g id="_Group_7" data-name="&lt;Group&gt;"><path id="_Path_3" data-name="&lt;Path&gt;" class="cls-1" d="M187.77,66a3.29,3.29,0,1,0,3.39,3.19A3.29,3.29,0,0,0,187.77,66Z"/></g></g><g id="_Group_8" data-name="&lt;Group&gt;"><g id="_Group_9" data-name="&lt;Group&gt;"><path id="_Path_4" data-name="&lt;Path&gt;" class="cls-1" d="M202.59,96.43A3.29,3.29,0,1,0,206,99.62,3.29,3.29,0,0,0,202.59,96.43Z"/></g></g><g id="_Group_10" data-name="&lt;Group&gt;"><g id="_Group_11" data-name="&lt;Group&gt;"><path id="_Path_5" data-name="&lt;Path&gt;" class="cls-1" d="M251.81,88.67a3.29,3.29,0,1,0,3.39,3.19A3.29,3.29,0,0,0,251.81,88.67Z"/></g></g></g><g id="_Group_12" data-name="&lt;Group&gt;"><g id="_Group_13" data-name="&lt;Group&gt;"><path id="_Compound_Path_" data-name="&lt;Compound Path&gt;" class="cls-2" d="M338.25,119.64H61.75a11.27,11.27,0,0,0-11.25,11.25v147.9A11.27,11.27,0,0,0,61.75,290H338.25a11.27,11.27,0,0,0,11.25-11.25V130.89A11.27,11.27,0,0,0,338.25,119.64Zm1.61,159.15a1.63,1.63,0,0,1-1.61,1.61H61.75a1.63,1.63,0,0,1-1.61-1.61V130.89a1.63,1.63,0,0,1,1.61-1.61H338.25a1.63,1.63,0,0,1,1.61,1.61Z"/></g></g><g id="_Group_14" data-name="&lt;Group&gt;"><g id="_Group_15" data-name="&lt;Group&gt;"><path id="_Path_6" data-name="&lt;Path&gt;" class="cls-2" d="M344.68,264.32H55.32a4.82,4.82,0,1,0,0,9.65H344.68a4.82,4.82,0,0,0,0-9.65Z"/></g></g><g id="_Group_16" data-name="&lt;Group&gt;"><g id="_Group_17" data-name="&lt;Group&gt;"><path id="_Path_7" data-name="&lt;Path&gt;" class="cls-2" d="M236.72,331.92l-16.08-48.23a4.82,4.82,0,1,0-9.15,3.05l14,41.88H174.54l14-41.88a4.82,4.82,0,0,0-9.15-3.05l-16.08,48.23a4.82,4.82,0,0,0,4.58,6.35h64.3a4.82,4.82,0,0,0,4.57-6.35Z"/></g></g><g id="_Group_18" data-name="&lt;Group&gt;"><g id="_Group_19" data-name="&lt;Group&gt;"><path id="_Path_8" data-name="&lt;Path&gt;" class="cls-2" d="M248.23,328.62H151.77a4.82,4.82,0,0,0,0,9.65h96.46a4.82,4.82,0,0,0,0-9.65Z"/></g></g><g id="_Group_20" data-name="&lt;Group&gt;"><g id="_Group_21" data-name="&lt;Group&gt;"><path id="_Path_9" data-name="&lt;Path&gt;" class="cls-1" d="M107,137.13a4.82,4.82,0,0,0-6.82,0L68,169.28a4.82,4.82,0,0,0,6.82,6.82L107,143.95A4.82,4.82,0,0,0,107,137.13Z"/></g></g><g id="_Group_22" data-name="&lt;Group&gt;"><g id="_Group_23" data-name="&lt;Group&gt;"><path id="_Path_10" data-name="&lt;Path&gt;" class="cls-1" d="M139.1,137.13a4.82,4.82,0,0,0-6.82,0L68,201.43a4.82,4.82,0,0,0,6.82,6.82l64.3-64.3A4.82,4.82,0,0,0,139.1,137.13Z"/></g></g></svg>