<svg id="Capa_1" data-name="Capa 1" xmlns="http://www.w3.org/2000/svg" viewBox="0 0 400 400"><defs><style>.cls-1{fill:#00a3dd;}.cls-2{fill:#ff9800;}</style></defs><title>otrosservicios</title><path id="_Compound_Path_" data-name="&lt;Compound Path&gt;" class="cls-1" d="M304.09,153a104.09,104.09,0,1,0-208.19-.26V153a44.18,44.18,0,0,0-41.64,44v5.2a44.2,44.2,0,0,0,44.24,44.24h2.34l18.48,29.41a69.6,69.6,0,0,0,59.59,33h3.64a20.82,20.82,0,1,0,0-10.41h-3.64a59.37,59.37,0,0,1-50.75-28.37l-15.09-23.68h3.64A10.44,10.44,0,0,0,127.14,236V163.15a10.44,10.44,0,0,0-10.41-10.41H106.32a93.68,93.68,0,0,1,187.37,0H283.27a10.44,10.44,0,0,0-10.41,10.41V236a10.44,10.44,0,0,0,10.41,10.41h18.22a44.2,44.2,0,0,0,44.24-44.24V197A44.18,44.18,0,0,0,304.09,153ZM202.6,293.27a10.41,10.41,0,1,1-10.41,10.41A10.44,10.44,0,0,1,202.6,293.27ZM116.73,163.15V236H98.51a33.76,33.76,0,0,1-33.83-33.83V197a33.76,33.76,0,0,1,33.83-33.83Zm218.59,39A33.76,33.76,0,0,1,301.49,236H283.27V163.15h18.22A33.76,33.76,0,0,1,335.32,197Z"/><path id="_Path_" data-name="&lt;Path&gt;" class="cls-2" d="M243.2,87.94a24,24,0,0,1-2.08-1.3,24,24,0,0,0-2.08-1.3,4.9,4.9,0,0,0-7,1.82c-1.3,2.6-.78,5.46,1.82,7a24,24,0,0,1,2.08,1.3,10.55,10.55,0,0,0,2.34,1.3,5,5,0,0,0,2.6.78,4.83,4.83,0,0,0,4.42-2.6A5.25,5.25,0,0,0,243.2,87.94Z"/><path id="_Path_2" data-name="&lt;Path&gt;" class="cls-2" d="M200,74.67A75.37,75.37,0,0,0,142.75,101a5.28,5.28,0,0,0,.52,7.29,5.48,5.48,0,0,0,3.38,1.3,4.68,4.68,0,0,0,3.9-1.82A65.65,65.65,0,0,1,200,85.08a64.6,64.6,0,0,1,14.05,1.56,5.52,5.52,0,0,0,6.25-3.9c.78-2.6-1.3-5.46-3.9-6.25A70.38,70.38,0,0,0,200,74.67Z"/><circle id="_Path_3" data-name="&lt;Path&gt;" class="cls-2" cx="270.99" cy="298.91" r="4.65"/><circle id="_Path_4" data-name="&lt;Path&gt;" class="cls-2" cx="287.84" cy="298.91" r="4.65"/><circle id="_Path_5" data-name="&lt;Path&gt;" class="cls-2" cx="303.44" cy="298.91" r="4.65"/><g id="_Group_" data-name="&lt;Group&gt;"><path class="cls-2" d="M287.22,336.64A37.74,37.74,0,1,1,325,298.91,37.78,37.78,0,0,1,287.22,336.64Zm0-68.47A30.74,30.74,0,1,0,318,298.91,30.77,30.77,0,0,0,287.22,268.17Z"/></g></svg>