<svg id="Capa_1" data-name="Capa 1" xmlns="http://www.w3.org/2000/svg" viewBox="0 0 400 400"><defs><style>.cls-1{fill:#00a3dd;}.cls-2{fill:#f90;}</style></defs><title>patentes</title><g id="_Group_" data-name="&lt;Group&gt;"><g id="_Group_2" data-name="&lt;Group&gt;"><path id="_Path_" data-name="&lt;Path&gt;" class="cls-1" d="M272.53,290.43H81.6a26.08,26.08,0,0,1-26.05-26.05V151.52A26.08,26.08,0,0,1,81.6,125.47h29.11a4.72,4.72,0,0,0,0-9.44H81.6a35.53,35.53,0,0,0-35.49,35.49V264.37A35.53,35.53,0,0,0,81.6,299.86H272.53a4.72,4.72,0,0,0,0-9.44Z"/></g></g><g id="_Group_3" data-name="&lt;Group&gt;"><g id="_Group_4" data-name="&lt;Group&gt;"><path id="_Path_2" data-name="&lt;Path&gt;" class="cls-1" d="M318.4,116H129.58a4.72,4.72,0,1,0,0,9.44H318.4a26.08,26.08,0,0,1,26.05,26.05V264.37a26.08,26.08,0,0,1-26.05,26.05h-27a4.72,4.72,0,0,0,0,9.44h27a35.53,35.53,0,0,0,35.49-35.49V151.52A35.53,35.53,0,0,0,318.4,116Z"/></g></g><g id="_Group_5" data-name="&lt;Group&gt;"><g id="_Group_6" data-name="&lt;Group&gt;"><path id="_Compound_Path_" data-name="&lt;Compound Path&gt;" class="cls-2" d="M318.4,138H81.6a13.49,13.49,0,0,0-13.47,13.47V264.37A13.49,13.49,0,0,0,81.6,277.85H318.4a13.49,13.49,0,0,0,13.47-13.47V151.52A13.49,13.49,0,0,0,318.4,138Zm4,126.33a4,4,0,0,1-4,4H81.6a4,4,0,0,1-4-4v-18H322.43v18Zm0-27.41H77.57v-58H322.43v58Zm0-67.47H77.57v-18a4,4,0,0,1,4-4H318.4a4,4,0,0,1,4,4Z"/></g></g><g id="_Group_7" data-name="&lt;Group&gt;"><g id="_Group_8" data-name="&lt;Group&gt;"><path id="_Compound_Path_2" data-name="&lt;Compound Path&gt;" class="cls-1" d="M105.17,184.69H96.53a1.47,1.47,0,0,0-1.45,1.24l-7.28,45.5a1.47,1.47,0,0,0,1.45,1.7h4a1.47,1.47,0,0,0,1.45-1.25l.94-6.28a1.47,1.47,0,0,1,1.45-1.25h6.81a1.47,1.47,0,0,1,1.45,1.25l.94,6.28a1.47,1.47,0,0,0,1.45,1.25h4.69a1.47,1.47,0,0,0,1.45-1.7l-7.28-45.5A1.47,1.47,0,0,0,105.17,184.69Zm-8.11,31.39L99,203a1.47,1.47,0,0,1,2.91,0l2,13.1a1.47,1.47,0,0,1-1.45,1.69H98.51A1.47,1.47,0,0,1,97.05,216.08Z"/></g></g><g id="_Group_9" data-name="&lt;Group&gt;"><g id="_Group_10" data-name="&lt;Group&gt;"><path id="_Compound_Path_3" data-name="&lt;Compound Path&gt;" class="cls-1" d="M141.09,209.17a2.91,2.91,0,0,1-.16-3.95c1.48-1.79,2.16-4.32,2.16-7.67v-1.73c0-7.47-3.39-11.14-11.28-11.14h-8.63a2.86,2.86,0,0,0-2.86,2.86v42.71a2.86,2.86,0,0,0,2.86,2.86h9.11c7.61,0,11.55-4,11.55-11.48v-3.94C143.85,214,143,211.12,141.09,209.17Zm-13.15-14.7a2.86,2.86,0,0,1,2.86-2.86h.81c2.7,0,3.87,1.52,3.87,5v2.7c0,3.87-1.73,5.12-4.57,5.12h-.12a2.86,2.86,0,0,1-2.86-2.86Zm8.3,27c0,3.6-1.38,4.77-3.94,4.77h-1.5a2.86,2.86,0,0,1-2.86-2.86v-9.16a2.86,2.86,0,0,1,2.86-2.86h.53c3.46,0,4.91,1.38,4.91,5.88v4.22Z"/></g></g><g id="_Group_11" data-name="&lt;Group&gt;"><g id="_Group_12" data-name="&lt;Group&gt;"><path id="_Path_3" data-name="&lt;Path&gt;" class="cls-1" d="M170,201a3.15,3.15,0,0,0,3.15-3.15v-1.56c0-7.75-3.87-12.18-11.35-12.18s-11.35,4.43-11.35,12.18V221.5c0,7.75,3.87,12.18,11.35,12.18s11.35-4.43,11.35-12.18v-3.29a3.15,3.15,0,0,0-3.15-3.15h-.9a3.15,3.15,0,0,0-3.15,3.15V222c0,3.46-1.52,4.7-3.94,4.7S158,225.44,158,222V195.83c0-3.46,1.52-4.77,3.94-4.77s3.94,1.31,3.94,4.77v2a3.15,3.15,0,0,0,3.15,3.15Z"/></g></g><g id="_Group_13" data-name="&lt;Group&gt;"><g id="_Group_14" data-name="&lt;Group&gt;"><rect id="_Path_4" data-name="&lt;Path&gt;" class="cls-1" x="193.39" y="205.45" width="13.84" height="6.92" rx="2.69" ry="2.69"/></g></g><g id="_Group_15" data-name="&lt;Group&gt;"><g id="_Group_16" data-name="&lt;Group&gt;"><path id="_Path_5" data-name="&lt;Path&gt;" class="cls-1" d="M241.48,184.69c-1,2.79-2.12,5.28-6.13,5.92a2.62,2.62,0,0,0-2.24,2.57v.39a2.6,2.6,0,0,0,2.6,2.6h.69a2.6,2.6,0,0,1,2.6,2.6v31.76a2.6,2.6,0,0,0,2.6,2.6H244a2.6,2.6,0,0,0,2.6-2.6V187.29a2.6,2.6,0,0,0-2.6-2.6h-2.52Z"/></g></g><g id="_Group_17" data-name="&lt;Group&gt;"><g id="_Group_18" data-name="&lt;Group&gt;"><path id="_Path_6" data-name="&lt;Path&gt;" class="cls-1" d="M267,226.2a1,1,0,0,1-1-1h0c0-8,15.15-13.63,15.15-28.85,0-7.75-3.87-12.18-11.35-12.18s-11.35,4.43-11.35,12.18V200a1,1,0,0,0,1,1h5.12a1,1,0,0,0,1-1v-4.15c0-3.46,1.52-4.77,3.94-4.77s3.94,1.18,3.94,5.54c0,14-15.08,16.33-15.08,30.58v4.91a1,1,0,0,0,1,1h19.93a1,1,0,0,0,1-1V226.2H267Z"/></g></g><g id="_Group_19" data-name="&lt;Group&gt;"><g id="_Group_20" data-name="&lt;Group&gt;"><path id="_Path_7" data-name="&lt;Path&gt;" class="cls-1" d="M310.74,197.56v-1.25c0-7.75-3.87-12.18-11.35-12.18S288,188.56,288,196.31v.07a2.56,2.56,0,0,0,2.56,2.56h2.08a2.56,2.56,0,0,0,2.56-2.56v-.55c0-3.46,1.52-4.77,3.94-4.77s3.94,1.18,3.94,5.54v2.7c0,3.87-1.73,5.12-4.57,5.12h-.41a2.56,2.56,0,0,0-2.56,2.56v1.8a2.56,2.56,0,0,0,2.56,2.56h0c3.46,0,5,1.66,5,6.16v3.81c0,4.29-1.52,5.47-3.94,5.47s-3.94-1.31-3.94-4.77V220a2.56,2.56,0,0,0-2.56-2.56H290.6A2.56,2.56,0,0,0,288,220v1.45c0,7.75,3.87,12.18,11.35,12.18s11.35-4.43,11.35-12.18v-3.81c0-3.54-.79-6.4-2.66-8.34a2.59,2.59,0,0,1,.06-3.63C309.91,203.92,310.74,201.22,310.74,197.56Z"/></g></g><g id="_Group_21" data-name="&lt;Group&gt;"><g id="_Group_22" data-name="&lt;Group&gt;"><circle id="_Path_8" data-name="&lt;Path&gt;" class="cls-1" cx="123.62" cy="158.57" r="5.17"/></g></g><g id="_Group_23" data-name="&lt;Group&gt;"><g id="_Group_24" data-name="&lt;Group&gt;"><circle id="_Path_9" data-name="&lt;Path&gt;" class="cls-1" cx="123.62" cy="257.43" r="5.17"/></g></g><g id="_Group_25" data-name="&lt;Group&gt;"><g id="_Group_26" data-name="&lt;Group&gt;"><circle id="_Path_10" data-name="&lt;Path&gt;" class="cls-1" cx="276.38" cy="158.57" r="5.17"/></g></g><g id="_Group_27" data-name="&lt;Group&gt;"><g id="_Group_28" data-name="&lt;Group&gt;"><circle id="_Path_11" data-name="&lt;Path&gt;" class="cls-1" cx="276.38" cy="257.43" r="5.17"/></g></g><g id="_Group_29" data-name="&lt;Group&gt;"><g id="_Group_30" data-name="&lt;Group&gt;"><g id="_Group_31" data-name="&lt;Group&gt;"><path id="_Path_12" data-name="&lt;Path&gt;" class="cls-1" d="M145.41,60.53l-2.54-.18.18-2.54a2.55,2.55,0,0,0-5.08-.36L137.79,60l-2.54-.18a2.55,2.55,0,1,0-.36,5.08l2.54.18-.18,2.54a2.55,2.55,0,1,0,5.08.36l.18-2.54,2.54.18a2.55,2.55,0,1,0,.36-5.08Z"/></g></g><g id="_Group_32" data-name="&lt;Group&gt;"><g id="_Group_33" data-name="&lt;Group&gt;"><path id="_Path_13" data-name="&lt;Path&gt;" class="cls-1" d="M245,37.28l-2.54-.18.18-2.54a2.55,2.55,0,0,0-5.08-.36l-.18,2.54-2.54-.18a2.55,2.55,0,1,0-.36,5.08l2.54.18-.18,2.54a2.55,2.55,0,1,0,5.08.36l.18-2.54,2.54.18a2.55,2.55,0,1,0,.36-5.08Z"/></g></g><g id="_Group_34" data-name="&lt;Group&gt;"><g id="_Group_35" data-name="&lt;Group&gt;"><path id="_Path_14" data-name="&lt;Path&gt;" class="cls-1" d="M188.52,31.81a4,4,0,1,0,3.74,4.31A4,4,0,0,0,188.52,31.81Z"/></g></g><g id="_Group_36" data-name="&lt;Group&gt;"><g id="_Group_37" data-name="&lt;Group&gt;"><path id="_Path_15" data-name="&lt;Path&gt;" class="cls-1" d="M202.8,70.74a4,4,0,1,0,3.74,4.31A4,4,0,0,0,202.8,70.74Z"/></g></g><g id="_Group_38" data-name="&lt;Group&gt;"><g id="_Group_39" data-name="&lt;Group&gt;"><path id="_Path_16" data-name="&lt;Path&gt;" class="cls-1" d="M263.72,67.38a4,4,0,1,0,3.74,4.31A4,4,0,0,0,263.72,67.38Z"/></g></g></g></svg>