<svg id="Capa_1" data-name="Capa 1" xmlns="http://www.w3.org/2000/svg" viewBox="0 0 400 400"><defs><style>.cls-1{fill:#6c9fd4;}.cls-2{fill:#00a3dd;stroke:#00a3dd;stroke-miterlimit:10;stroke-width:3px;}.cls-3{fill:#ff9800;}</style></defs><title>planesdeahorro</title><g id="_Group_" data-name="&lt;Group&gt;"><g id="_Group_2" data-name="&lt;Group&gt;"><path id="_Path_" data-name="&lt;Path&gt;" class="cls-1" d="M122.46,234.6a5.08,5.08,0,0,0-4.76,3.46,10.23,10.23,0,0,1-19.26,0,5.08,5.08,0,0,0-4.75-3.44h-.23a5,5,0,0,0-4.73,6.65,20.45,20.45,0,0,0,38.68,0,5,5,0,0,0-4.73-6.65Z"/></g></g><g id="_Group_3" data-name="&lt;Group&gt;"><g id="_Group_4" data-name="&lt;Group&gt;"><path id="_Compound_Path_" data-name="&lt;Compound Path&gt;" class="cls-2" d="M320.73,207.94c-12.08-26.56-38.82-47.84-73.07-58.28a2.82,2.82,0,0,1-2-2.34,45.91,45.91,0,0,0-91.15,0,2.8,2.8,0,0,1-2,2.35q-1.79.53-3.53,1.12a2.84,2.84,0,0,1-2.34-.23L124,137.48a9.45,9.45,0,0,0-14.13,9.2l2.29,21a2.84,2.84,0,0,1-1.14,2.59c-12.45,9.22-22.34,20.24-28.93,32.27A2.85,2.85,0,0,1,79.63,204H70.07A18.17,18.17,0,0,0,51.9,222.16v35.17A18.17,18.17,0,0,0,70.07,275.5h9.5A2.85,2.85,0,0,1,82.07,277c6.8,12.38,17,23.69,29.93,33a2.84,2.84,0,0,1,1.19,2.3v42.1a2.83,2.83,0,0,0,2.83,2.83h45.4a2.83,2.83,0,0,0,2.83-2.83v-18a2.83,2.83,0,0,1,3.38-2.77,168,168,0,0,0,64.76.06,2.83,2.83,0,0,1,3.37,2.77v18a2.83,2.83,0,0,0,2.83,2.83H284a2.83,2.83,0,0,0,2.83-2.83v-42a2.84,2.84,0,0,1,1.18-2.3c14.83-10.73,26-23.89,32.67-38.57a2.83,2.83,0,0,1,2.08-1.63,30.68,30.68,0,0,0,.05-60.41A2.82,2.82,0,0,1,320.73,207.94ZM200,117.15a35.75,35.75,0,0,1,25.83,60.5,2.78,2.78,0,0,1-2,.84H176.34a2.78,2.78,0,0,1-2-.84A35.75,35.75,0,0,1,200,117.15Zm117.7,143-1.58,0a2.83,2.83,0,0,0-2.59,1.81l-.56,1.46c-6,15.59-17.77,29.61-34.1,40.59l-1,.66a2.83,2.83,0,0,0-1.26,2.36v37.11a2.83,2.83,0,0,1-2.83,2.83h-25a2.83,2.83,0,0,1-2.83-2.83V323.49a2.83,2.83,0,0,0-3.55-2.74l-2.87.75a156.06,156.06,0,0,1-79.11-.06l-2.87-.75a2.83,2.83,0,0,0-3.55,2.74v20.74a2.83,2.83,0,0,1-2.83,2.83h-25a2.83,2.83,0,0,1-2.83-2.83V307a2.83,2.83,0,0,0-1.26-2.36l-1-.66c-14.59-9.85-25.69-22.26-32-35.79l-.61-1.3a2.83,2.83,0,0,0-2.56-1.63H70.07a8,8,0,0,1-7.94-7.94V222.16a8,8,0,0,1,7.94-7.94H85.89a2.83,2.83,0,0,0,2.56-1.63l.61-1.3c6.3-13.34,17.21-25.62,31.55-35.35l1.15-.79A2.83,2.83,0,0,0,123,172.5l-2.19-19.86a2.83,2.83,0,0,1,4.23-2.76l20.51,11.87a2.83,2.83,0,0,0,2.38.21l1-.36c.87-.32,1.74-.62,2.63-.91a2.83,2.83,0,0,1,3.66,2,45.67,45.67,0,0,0,4.22,11.56,2.83,2.83,0,0,1-2.51,4.14h-1.74a2.83,2.83,0,0,0-2.83,2.83v4.56a2.83,2.83,0,0,0,2.83,2.83h88a2.83,2.83,0,0,0,2.83-2.83v-4.56a2.83,2.83,0,0,0-2.83-2.83h0a2.82,2.82,0,0,1-2.51-4.13,46.08,46.08,0,0,0,4.22-11.58,2.82,2.82,0,0,1,3.66-2.05c31.27,10.49,55,30.73,64.48,55.42l.56,1.46a2.83,2.83,0,0,0,2.59,1.81l1.58,0a20.39,20.39,0,0,1,0,40.77Z"/></g></g><g id="_Group_5" data-name="&lt;Group&gt;"><g id="_Group_6" data-name="&lt;Group&gt;"><rect id="_Path_2" data-name="&lt;Path&gt;" class="cls-3" x="160.82" y="58.85" width="7.23" height="7.23" rx="3.6" ry="3.6"/></g></g><g id="_Group_7" data-name="&lt;Group&gt;"><g id="_Group_8" data-name="&lt;Group&gt;"><rect id="_Path_3" data-name="&lt;Path&gt;" class="cls-3" x="196.48" y="74.75" width="7.23" height="7.23" rx="3.6" ry="3.6"/></g></g><g id="_Group_9" data-name="&lt;Group&gt;"><g id="_Group_10" data-name="&lt;Group&gt;"><rect id="_Path_4" data-name="&lt;Path&gt;" class="cls-3" x="160.82" y="47.13" width="7.23" height="7.23" rx="3.6" ry="3.6"/></g></g><g id="_Group_11" data-name="&lt;Group&gt;"><g id="_Group_12" data-name="&lt;Group&gt;"><rect id="_Path_5" data-name="&lt;Path&gt;" class="cls-3" x="232.2" y="58.85" width="7.23" height="7.23" rx="3.6" ry="3.6"/></g></g><g id="_Group_13" data-name="&lt;Group&gt;"><g id="_Group_14" data-name="&lt;Group&gt;"><rect id="_Path_6" data-name="&lt;Path&gt;" class="cls-3" x="232.2" y="47.13" width="7.23" height="7.23" rx="3.6" ry="3.6"/></g></g><g id="_Group_15" data-name="&lt;Group&gt;"><g id="_Group_16" data-name="&lt;Group&gt;"><rect id="_Path_7" data-name="&lt;Path&gt;" class="cls-3" x="196.48" y="84.58" width="7.23" height="7.23" rx="3.6" ry="3.6"/></g></g><g id="_Group_17" data-name="&lt;Group&gt;"><path id="_Compound_Path_2" data-name="&lt;Compound Path&gt;" class="cls-3" d="M221.42,256.55c0,8-5.68,13.57-14.33,15.38a3.28,3.28,0,0,0-2.57,3.22v5.08a3.31,3.31,0,0,1-3.31,3.31h-.37a3.31,3.31,0,0,1-3.31-3.31v-4.9a3.29,3.29,0,0,0-2.71-3.25,33.93,33.93,0,0,1-14.91-6.51,3.33,3.33,0,0,1-1-4.13l1-2.09a3.29,3.29,0,0,1,4.85-1.23c5.09,3.67,10.86,5.65,15.81,5.65,6.51,0,10.4-2.46,10.4-6.75,0-12.38-30-5.48-30-25.24,0-7.73,5.4-13.1,13.91-14.84a3.28,3.28,0,0,0,2.6-3.23v-4.31a3.31,3.31,0,0,1,3.27-3.31h.37a3.31,3.31,0,0,1,3.35,3.31v4.16a3.29,3.29,0,0,0,2.72,3.25A36.14,36.14,0,0,1,218,220.41a3.3,3.3,0,0,1,1.42,4.32l-1.11,2.36a3.31,3.31,0,0,1-4.47,1.54,31.36,31.36,0,0,0-13.3-3.53c-5.48,0-9,2.06-9,5.79C191.49,243.06,221.5,236.55,221.42,256.55Z"/></g><rect id="_Rectangle_" data-name="&lt;Rectangle&gt;" class="cls-3" x="160.57" y="70.62" width="7.48" height="27.92" rx="0.72" ry="0.72"/><rect id="_Rectangle_2" data-name="&lt;Rectangle&gt;" class="cls-3" x="232.08" y="70.62" width="7.48" height="27.92" rx="0.72" ry="0.72"/><rect id="_Rectangle_3" data-name="&lt;Rectangle&gt;" class="cls-3" x="196.35" y="42.71" width="7.48" height="27.92" rx="0.72" ry="0.72"/></svg>