<svg id="Capa_1" data-name="Capa 1" xmlns="http://www.w3.org/2000/svg" viewBox="0 0 400 400"><defs><style>.cls-1{fill:#00a3dd;}.cls-2{fill:#f90;}</style></defs><title>prepaga</title><g id="_Group_" data-name="&lt;Group&gt;"><g id="_Group_2" data-name="&lt;Group&gt;"><path id="_Compound_Path_" data-name="&lt;Compound Path&gt;" class="cls-1" d="M323.61,149.47A32.69,32.69,0,0,0,319,214.53V278a72.41,72.41,0,0,1-144.83,0V266.07a88.83,88.83,0,0,0,84.1-88.55V98.15a14,14,0,0,0-14-14h-9.35V79.45a9.36,9.36,0,0,0-9.35-9.35h-9.35a9.36,9.36,0,0,0-9.35,9.35v18.7a9.36,9.36,0,0,0,9.35,9.35h9.35a9.36,9.36,0,0,0,9.35-9.35V93.48h9.35a4.7,4.7,0,0,1,4.68,4.68v79.43A79.46,79.46,0,0,1,244.69,203c-44.53,35.75-105.88,35.75-150.36,0a79.46,79.46,0,0,1-4.22-25.37V98.15a4.7,4.7,0,0,1,4.68-4.68h9.35v4.68a9.36,9.36,0,0,0,9.35,9.35h9.24a9.36,9.36,0,0,0,9.35-9.35V79.45a9.32,9.32,0,0,0-9.35-9.35h-9.35A9.36,9.36,0,0,0,104,79.45v4.68H94.73a14,14,0,0,0-14,14v79.43a88.83,88.83,0,0,0,84.1,88.55V278a81.77,81.77,0,0,0,163.53,0V214.53a32.7,32.7,0,0,0-4.73-65.06ZM225.54,98.15h-9.35V79.45h9.35ZM113.38,79.45h9.35v18.7h-9.35ZM102.49,220a127,127,0,0,0,134,0,79.22,79.22,0,0,1-134,0Zm221.18-14.43A23.38,23.38,0,1,1,347,182.2,23.41,23.41,0,0,1,323.66,205.58Z"/></g></g><g id="_Group_3" data-name="&lt;Group&gt;"><g id="_Group_4" data-name="&lt;Group&gt;"><rect id="_Path_" data-name="&lt;Path&gt;" class="cls-2" x="164.81" y="172.91" width="9.35" height="9.35" rx="4.68" ry="4.68"/></g></g><g id="_Group_5" data-name="&lt;Group&gt;"><g id="_Group_6" data-name="&lt;Group&gt;"><rect id="_Path_2" data-name="&lt;Path&gt;" class="cls-2" x="183.46" y="172.91" width="9.35" height="9.35" rx="4.68" ry="4.68"/></g></g><g id="_Group_7" data-name="&lt;Group&gt;"><g id="_Group_8" data-name="&lt;Group&gt;"><rect id="_Path_3" data-name="&lt;Path&gt;" class="cls-2" x="146.11" y="172.91" width="9.35" height="9.35" rx="4.68" ry="4.68"/></g></g><path id="_Path_4" data-name="&lt;Path&gt;" class="cls-2" d="M327.77,174.51,324.24,178l-3.53-3.53a6.43,6.43,0,0,0-9.1,9.1l11,11a2.23,2.23,0,0,0,3.16,0l11-11a6.43,6.43,0,1,0-9.1-9.1Z"/></svg>