<svg id="Capa_1" data-name="Capa 1" xmlns="http://www.w3.org/2000/svg" viewBox="0 0 400 400"><defs><style>.cls-1{fill:#f89a62;}.cls-2{fill:#1da0db;}.cls-3{fill:#f89c60;}</style></defs><title>prepagos</title><g id="_Group_" data-name="&lt;Group&gt;"><g id="_Group_2" data-name="&lt;Group&gt;"><g id="_Group_3" data-name="&lt;Group&gt;"><g id="_Group_4" data-name="&lt;Group&gt;"><path id="_Path_" data-name="&lt;Path&gt;" class="cls-1" d="M135.14,106.65l-2.33-.39.39-2.33a2.14,2.14,0,1,0-4.26-.39l-.39,2.33-2.33-.39a2.14,2.14,0,0,0-.39,4.26l2.33.39-.39,2.33a2.14,2.14,0,1,0,4.26.39l.39-2.33,2.33.39a2.17,2.17,0,0,0,2.33-1.94C137.46,108.2,136.3,107,135.14,106.65Z"/></g></g><g id="_Group_5" data-name="&lt;Group&gt;"><g id="_Group_6" data-name="&lt;Group&gt;"><path id="_Path_2" data-name="&lt;Path&gt;" class="cls-1" d="M219.64,90l-2.33-.39.39-2.33a2.14,2.14,0,1,0-4.26-.39L213,89.21l-2.33-.39a2.14,2.14,0,0,0-.39,4.26l2.33.39-.39,2.33a2.14,2.14,0,0,0,4.26.39l.39-2.33,2.33.39a2.17,2.17,0,0,0,2.33-1.94A1.78,1.78,0,0,0,219.64,90Z"/></g></g><g id="_Group_7" data-name="&lt;Group&gt;"><g id="_Group_8" data-name="&lt;Group&gt;"><path id="_Path_3" data-name="&lt;Path&gt;" class="cls-1" d="M172.35,83.78c-1.94-.39-3.49,1.16-3.88,3.1s1.16,3.49,3.1,3.88,3.49-1.16,3.88-3.1A3.77,3.77,0,0,0,172.35,83.78Z"/></g></g><g id="_Group_9" data-name="&lt;Group&gt;"><g id="_Group_10" data-name="&lt;Group&gt;"><path id="_Path_4" data-name="&lt;Path&gt;" class="cls-1" d="M183.2,117.12c-1.94-.39-3.49,1.16-3.88,3.1s1.16,3.49,3.1,3.88,3.49-1.16,3.88-3.1A3.28,3.28,0,0,0,183.2,117.12Z"/></g></g><g id="_Group_11" data-name="&lt;Group&gt;"><g id="_Group_12" data-name="&lt;Group&gt;"><path id="_Path_5" data-name="&lt;Path&gt;" class="cls-1" d="M234.75,116c-1.94-.39-3.49,1.16-3.88,3.1s1.16,3.49,3.1,3.88,3.49-1.16,3.88-3.1C237.85,117.89,236.69,116,234.75,116Z"/></g></g></g><g id="_Group_13" data-name="&lt;Group&gt;"><g id="_Group_14" data-name="&lt;Group&gt;"><g id="_Group_15" data-name="&lt;Group&gt;"><path id="_Path_6" data-name="&lt;Path&gt;" class="cls-2" d="M284.36,141.53H80.88a12.9,12.9,0,0,0-12.79,12.79V286.88a12.9,12.9,0,0,0,12.79,12.79H209.17a4.26,4.26,0,1,0,0-8.53H80.88a4.48,4.48,0,0,1-4.65-4.65V153.94a4.48,4.48,0,0,1,4.65-4.65H284.36a4.48,4.48,0,0,1,4.65,4.65V211.3a4.26,4.26,0,1,0,8.53,0V153.94C297.54,147.74,291.73,141.53,284.36,141.53Z"/></g></g><g id="_Group_16" data-name="&lt;Group&gt;"><g id="_Group_17" data-name="&lt;Group&gt;"><path id="_Path_7" data-name="&lt;Path&gt;" class="cls-3" d="M275.84,221.38a55.56,55.56,0,0,0-32.17,10.08l1.16-3.1a4,4,0,1,0-7.75-2.33l-5.43,17.05a4.77,4.77,0,0,0,.78,3.88,3.52,3.52,0,0,0,3.1,1.55h.39l17.83-1.94A4.28,4.28,0,0,0,253,238l-4.65.39a47.48,47.48,0,0,1,27.91-8.53,48.84,48.84,0,0,1,.78,97.67h-2.71a4.07,4.07,0,1,0-.39,8.14h2.33a57.48,57.48,0,0,0,57.36-57.36C332.81,247,307.23,221.38,275.84,221.38Z"/></g></g><g id="_Group_18" data-name="&lt;Group&gt;"><g id="_Group_19" data-name="&lt;Group&gt;"><path id="_Compound_Path_" data-name="&lt;Compound Path&gt;" class="cls-2" d="M138.63,172.54H103.36a8.6,8.6,0,0,0-8.53,8.53v26.36a8.6,8.6,0,0,0,8.53,8.53h35.27a8.6,8.6,0,0,0,8.53-8.53V181.07A8.6,8.6,0,0,0,138.63,172.54ZM112.27,208.2H103a.38.38,0,0,1-.39-.39V181.46a.38.38,0,0,1,.39-.39h9.3V208.2Zm26.74-.39h0l-18.22.39v-9.3h4.65a4.26,4.26,0,0,0,0-8.53H120.8v-9.3h17.83a.38.38,0,0,1,.39.39v26.36Z"/></g></g><g id="_Group_20" data-name="&lt;Group&gt;"><g id="_Group_21" data-name="&lt;Group&gt;"><path id="_Path_8" data-name="&lt;Path&gt;" class="cls-2" d="M134.36,238.82H99.09a4.26,4.26,0,1,0,0,8.53h35.27a4.26,4.26,0,1,0,0-8.53Z"/></g></g><g id="_Group_22" data-name="&lt;Group&gt;"><g id="_Group_23" data-name="&lt;Group&gt;"><path id="_Path_9" data-name="&lt;Path&gt;" class="cls-2" d="M204.91,265.57H98.7a4.26,4.26,0,0,0,0,8.53h106.2a4.26,4.26,0,0,0,0-8.53Z"/></g></g><g id="_Group_24" data-name="&lt;Group&gt;"><g id="_Group_25" data-name="&lt;Group&gt;"><path id="_Path_10" data-name="&lt;Path&gt;" class="cls-2" d="M187.08,238.82H151.81a4.26,4.26,0,1,0,0,8.53h35.27a4.26,4.26,0,0,0,0-8.53Z"/></g></g><g id="_Group_26" data-name="&lt;Group&gt;"><g id="_Group_27" data-name="&lt;Group&gt;"><path id="_Path_11" data-name="&lt;Path&gt;" class="cls-2" d="M258.78,181.07H230.1a3.49,3.49,0,0,0,0,7h28.68a3.47,3.47,0,0,0,3.49-3.49C261.88,182.62,260.33,181.07,258.78,181.07Z"/></g></g><g id="_Group_28" data-name="&lt;Group&gt;"><g id="_Group_29" data-name="&lt;Group&gt;"><path id="_Path_12" data-name="&lt;Path&gt;" class="cls-2" d="M258,191.15H223.9a3.58,3.58,0,0,0-3.88,3.49,3.82,3.82,0,0,0,3.88,3.49H258a3.51,3.51,0,1,0,0-7Z"/></g></g><g id="_Group_30" data-name="&lt;Group&gt;"><g id="_Group_31" data-name="&lt;Group&gt;"><path id="_Path_13" data-name="&lt;Path&gt;" class="cls-2" d="M213.82,238.82h-8.91a4.26,4.26,0,0,0,0,8.53h8.91a4.26,4.26,0,0,0,0-8.53Z"/></g></g><g id="_Group_32" data-name="&lt;Group&gt;"><g id="_Group_33" data-name="&lt;Group&gt;"><path id="_Path_14" data-name="&lt;Path&gt;" class="cls-3" d="M228.55,253.94a4.13,4.13,0,0,0-5.43,2.33,34,34,0,0,0-2.71,8.91c-.39,2.33.78,4.65,3.1,5h1.16a3.77,3.77,0,0,0,3.88-3.1c.78-2.71,1.55-5,2.33-7.36S230.49,254.71,228.55,253.94Z"/></g></g><g id="_Group_34" data-name="&lt;Group&gt;"><g id="_Group_35" data-name="&lt;Group&gt;"><path id="_Path_15" data-name="&lt;Path&gt;" class="cls-3" d="M228.16,290.37a26.86,26.86,0,0,1-1.16-7.75c0-2.33-2.33-3.88-4.65-3.88s-3.88,2.33-3.88,4.65a60.89,60.89,0,0,0,1.55,8.91,4.08,4.08,0,0,0,3.88,3.1h1.16A4.53,4.53,0,0,0,228.16,290.37Z"/></g></g><g id="_Group_36" data-name="&lt;Group&gt;"><g id="_Group_37" data-name="&lt;Group&gt;"><path id="_Path_16" data-name="&lt;Path&gt;" class="cls-3" d="M258.39,324.09a29.36,29.36,0,0,1-7-3.49,4.25,4.25,0,1,0-4.26,7.36,77.41,77.41,0,0,0,8.14,3.88c.39,0,1.16.39,1.55.39a4.67,4.67,0,0,0,3.88-2.71A4.49,4.49,0,0,0,258.39,324.09Z"/></g></g><g id="_Group_38" data-name="&lt;Group&gt;"><g id="_Group_39" data-name="&lt;Group&gt;"><path id="_Path_17" data-name="&lt;Path&gt;" class="cls-3" d="M239,310.91a64.71,64.71,0,0,1-4.65-6.2,4.19,4.19,0,1,0-7,4.65,51.53,51.53,0,0,0,5.43,7.36,4.78,4.78,0,0,0,3.1,1.55,3.52,3.52,0,0,0,2.71-1.16A4.36,4.36,0,0,0,239,310.91Z"/></g></g><g id="_Group_40" data-name="&lt;Group&gt;"><path id="_Path_18" data-name="&lt;Path&gt;" class="cls-3" d="M293.28,289.21c0,7-5,12-12.79,13.57a3.33,3.33,0,0,0-2.33,2.71v4.65a3.06,3.06,0,0,1-3.1,3.1h-.39a3.06,3.06,0,0,1-3.1-3.1v-4.26a2.59,2.59,0,0,0-2.33-2.71,29.25,29.25,0,0,1-13.18-5.81,2.52,2.52,0,0,1-.78-3.49l.78-1.94a2.84,2.84,0,0,1,4.26-1.16c4.65,3.1,9.69,5,14,5,5.81,0,9.3-2.33,9.3-5.81,0-10.85-26.74-5-26.74-22.48,0-7,4.65-11.63,12.4-13.18a3.32,3.32,0,0,0,2.33-2.71v-3.88a3,3,0,0,1,2.71-3.1h.39a3.06,3.06,0,0,1,3.1,3.1v3.88a2.59,2.59,0,0,0,2.33,2.71,28.39,28.39,0,0,1,9.69,3.1A2.69,2.69,0,0,1,291,261.3l-1.16,1.94a3.17,3.17,0,0,1-3.88,1.55,24.88,24.88,0,0,0-11.63-3.1c-5,0-8.14,1.94-8.14,5C266.53,277.19,293.28,271.38,293.28,289.21Z"/></g></g></g></svg>