<svg id="Capa_1" data-name="Capa 1" xmlns="http://www.w3.org/2000/svg" viewBox="0 0 400 400"><defs><style>.cls-1{fill:#6c9fd4;}.cls-2{fill:#00a3dd;}.cls-3{fill:#ff9800;}</style></defs><title>prestamos</title><g id="_Group_" data-name="&lt;Group&gt;"><g id="_Group_2" data-name="&lt;Group&gt;"><circle id="_Path_" data-name="&lt;Path&gt;" class="cls-1" cx="81.56" cy="300.42" r="5.42"/></g></g><g id="_Group_3" data-name="&lt;Group&gt;"><g id="_Group_4" data-name="&lt;Group&gt;"><path id="_Compound_Path_" data-name="&lt;Compound Path&gt;" class="cls-2" d="M310.36,262.91a21.06,21.06,0,0,0-27.74-10.75l-.08,0-35,16.12a5.42,5.42,0,0,0,4.54,9.84L287,262.06a10.2,10.2,0,0,1,8.2,18.67l-71.54,31.59a41.4,41.4,0,0,1-35.24-.8l-26.19-13a52.21,52.21,0,0,0-44.44-1l-.45.2L97.86,253.5l27.11-12a54,54,0,0,1,40.62-1.3l52.66,19.34A9.42,9.42,0,0,1,212,277.35l-40.72-13.77a5.42,5.42,0,0,0-3.47,10.27l40.72,13.77A20.26,20.26,0,0,0,234.16,275,20.38,20.38,0,0,0,222,249.4l-52.66-19.34a64.78,64.78,0,0,0-48.73,1.56L93.29,243.67a13.6,13.6,0,0,0-16.87-5L41.57,254.09A5.42,5.42,0,0,0,38.34,259l-.26,94.26a5.42,5.42,0,0,0,7.86,4.85l68.2-34.45a13.63,13.63,0,0,0,7.49-16l.58-.26a41.4,41.4,0,0,1,35.24.8l26.19,13a52.21,52.21,0,0,0,44.44,1l71.54-31.59A21.06,21.06,0,0,0,310.36,262.91Zm-199.28,49.4a2.77,2.77,0,0,1-1.47,1.54L48.93,344.49l.07-23.3,15.7-7.71a5.42,5.42,0,0,0-4.78-9.73L49,309.1l.13-46.52,31.64-14A2.79,2.79,0,0,1,84.48,250L111,310.18A2.77,2.77,0,0,1,111.08,312.31Z"/></g></g><g id="_Group_5" data-name="&lt;Group&gt;"><g id="_Group_6" data-name="&lt;Group&gt;"><g id="_Group_7" data-name="&lt;Group&gt;"><g id="_Group_8" data-name="&lt;Group&gt;"><path id="_Compound_Path_2" data-name="&lt;Compound Path&gt;" class="cls-3" d="M236.47,85.64a73.6,73.6,0,1,0,73.6,73.6A73.68,73.68,0,0,0,236.47,85.64Zm0,136.36a62.76,62.76,0,1,1,62.76-62.76A62.83,62.83,0,0,1,236.47,222Z"/></g></g><g id="_Group_9" data-name="&lt;Group&gt;"><path id="_Compound_Path_3" data-name="&lt;Compound Path&gt;" class="cls-3" d="M259.75,172c0,8.73-6.17,14.74-15.57,16.71a3.56,3.56,0,0,0-2.8,3.5v5.52a3.59,3.59,0,0,1-3.59,3.59h-.4a3.59,3.59,0,0,1-3.59-3.59v-5.32a3.57,3.57,0,0,0-2.95-3.53,36.86,36.86,0,0,1-16.2-7.07,3.62,3.62,0,0,1-1.06-4.49L214.7,175a3.58,3.58,0,0,1,5.27-1.34c5.53,4,11.8,6.14,17.18,6.14,7.07,0,11.3-2.67,11.3-7.33,0-13.46-32.6-6-32.6-27.43,0-8.4,5.86-14.23,15.12-16.12a3.57,3.57,0,0,0,2.82-3.51v-4.68a3.59,3.59,0,0,1,3.55-3.59h.4a3.59,3.59,0,0,1,3.63,3.59v4.51a3.57,3.57,0,0,0,3,3.53,39.27,39.27,0,0,1,11.71,3.9,3.58,3.58,0,0,1,1.54,4.7L256.37,140a3.6,3.6,0,0,1-4.86,1.68,34.07,34.07,0,0,0-14.45-3.83c-6,0-9.83,2.24-9.83,6.3C227.23,157.32,259.83,150.24,259.75,172Z"/></g></g><g id="_Group_10" data-name="&lt;Group&gt;"><g id="_Group_11" data-name="&lt;Group&gt;"><g id="_Group_12" data-name="&lt;Group&gt;"><g id="_Group_13" data-name="&lt;Group&gt;"><path id="_Path_2" data-name="&lt;Path&gt;" class="cls-3" d="M142.89,113.67l-1.29,1.47-1.47-1.29a2,2,0,1,0-2.59,2.94l1.47,1.29-1.29,1.47a2,2,0,1,0,2.94,2.59l1.29-1.47,1.47,1.29A2,2,0,0,0,146,119l-1.47-1.29,1.29-1.47a2,2,0,0,0-2.94-2.59Z"/></g></g><g id="_Group_14" data-name="&lt;Group&gt;"><g id="_Group_15" data-name="&lt;Group&gt;"><path id="_Path_3" data-name="&lt;Path&gt;" class="cls-3" d="M175.14,41.93l-1.29,1.47-1.47-1.29A2,2,0,0,0,169.79,45l1.47,1.29L170,47.81a2,2,0,1,0,2.94,2.59l1.29-1.47,1.47,1.29a2,2,0,0,0,2.59-2.94L176.79,46l1.29-1.47a2,2,0,1,0-2.94-2.59Z"/></g></g><g id="_Group_16" data-name="&lt;Group&gt;"><g id="_Group_17" data-name="&lt;Group&gt;"><path id="_Path_4" data-name="&lt;Path&gt;" class="cls-3" d="M145.44,73.91a3.1,3.1,0,1,0,4.38-.28A3.1,3.1,0,0,0,145.44,73.91Z"/></g></g><g id="_Group_18" data-name="&lt;Group&gt;"><g id="_Group_19" data-name="&lt;Group&gt;"><path id="_Path_5" data-name="&lt;Path&gt;" class="cls-3" d="M175.91,83.35a3.1,3.1,0,1,0,4.38-.28A3.1,3.1,0,0,0,175.91,83.35Z"/></g></g><g id="_Group_20" data-name="&lt;Group&gt;"><g id="_Group_21" data-name="&lt;Group&gt;"><path id="_Path_6" data-name="&lt;Path&gt;" class="cls-3" d="M202.28,44.53a3.1,3.1,0,1,0,4.38-.28A3.1,3.1,0,0,0,202.28,44.53Z"/></g></g></g><g id="_Group_22" data-name="&lt;Group&gt;"><g id="_Group_23" data-name="&lt;Group&gt;"><g id="_Group_24" data-name="&lt;Group&gt;"><path id="_Path_7" data-name="&lt;Path&gt;" class="cls-3" d="M342.63,155l1-1.71,1.71,1a2,2,0,1,0,1.92-3.41l-1.71-1,1-1.71a2,2,0,1,0-3.41-1.92l-1,1.71-1.71-1a2,2,0,1,0-1.92,3.41l1.71,1-1,1.71a2,2,0,0,0,3.41,1.92Z"/></g></g><g id="_Group_25" data-name="&lt;Group&gt;"><g id="_Group_26" data-name="&lt;Group&gt;"><path id="_Path_8" data-name="&lt;Path&gt;" class="cls-3" d="M342.63,221.12l1-1.71,1.71,1a2,2,0,1,0,1.92-3.41l-1.71-1,1-1.71a2,2,0,1,0-3.41-1.92l-1,1.71-1.71-1a2,2,0,1,0-1.92,3.41l1.71,1-1,1.71a2,2,0,1,0,3.41,1.92Z"/></g></g><g id="_Group_27" data-name="&lt;Group&gt;"><g id="_Group_28" data-name="&lt;Group&gt;"><path id="_Path_9" data-name="&lt;Path&gt;" class="cls-3" d="M361.53,189a3.1,3.1,0,1,0-4.22,1.18A3.1,3.1,0,0,0,361.53,189Z"/></g></g><g id="_Group_29" data-name="&lt;Group&gt;"><g id="_Group_30" data-name="&lt;Group&gt;"><path id="_Path_10" data-name="&lt;Path&gt;" class="cls-3" d="M329.77,186.14a3.1,3.1,0,1,0-4.22,1.18A3.1,3.1,0,0,0,329.77,186.14Z"/></g></g><g id="_Group_31" data-name="&lt;Group&gt;"><g id="_Group_32" data-name="&lt;Group&gt;"><path id="_Path_11" data-name="&lt;Path&gt;" class="cls-3" d="M308.14,226.5a3.1,3.1,0,1,0-4.22,1.18A3.1,3.1,0,0,0,308.14,226.5Z"/></g></g></g></g></g></svg>