<svg id="Capa_1" data-name="Capa 1" xmlns="http://www.w3.org/2000/svg" viewBox="0 0 400 400"><defs><style>.cls-1{fill:#00a3dd;}.cls-2{fill:#ff9800;}.cls-3{fill:#dfa163;}</style></defs><title>proveedoresinternet</title><path id="_Compound_Path_" data-name="&lt;Compound Path&gt;" class="cls-1" d="M315.6,253.36h-209v-120a13.34,13.34,0,0,0-26.68,0V253.8a22.27,22.27,0,0,0-17.79,21.78v26.68a22.24,22.24,0,0,0,13.34,20.35v6.33a8.9,8.9,0,0,0,8.89,8.89h17.79a8.9,8.9,0,0,0,8.89-8.89v-4.45h173.4v4.45a8.9,8.9,0,0,0,8.89,8.89h17.79a8.9,8.9,0,0,0,8.89-8.89V324a22.27,22.27,0,0,0,17.79-21.78V275.59A22.26,22.26,0,0,0,315.6,253.36ZM93.29,128.86a4.45,4.45,0,0,1,4.45,4.45v120H88.85v-120h0A4.45,4.45,0,0,1,93.29,128.86Zm8.89,200.08H84.4v-4.45h17.79Zm209,0H293.37v-4.45h17.79Zm17.79-26.68A13.36,13.36,0,0,1,315.6,315.6H84.4a13.36,13.36,0,0,1-13.34-13.34V275.59A13.36,13.36,0,0,1,84.4,262.25H315.6a13.36,13.36,0,0,1,13.34,13.34Z"/><path id="_Compound_Path_2" data-name="&lt;Compound Path&gt;" class="cls-2" d="M151.09,271.14H88.84A8.9,8.9,0,0,0,80,280v17.79a8.9,8.9,0,0,0,8.89,8.89h62.25a8.9,8.9,0,0,0,8.89-8.89V280A8.9,8.9,0,0,0,151.09,271.14ZM88.84,297.82V280h62.25v17.79Z"/><rect id="_Path_" data-name="&lt;Path&gt;" class="cls-2" x="311.16" y="284.48" width="8.89" height="8.89" rx="4.45" ry="4.45"/><rect id="_Path_2" data-name="&lt;Path&gt;" class="cls-2" x="293.37" y="284.48" width="8.89" height="8.89" rx="4.45" ry="4.45"/><rect id="_Path_3" data-name="&lt;Path&gt;" class="cls-2" x="275.59" y="284.48" width="8.89" height="8.89" rx="4.45" ry="4.45"/><rect id="_Path_4" data-name="&lt;Path&gt;" class="cls-2" x="257.8" y="284.48" width="8.89" height="8.89" rx="4.45" ry="4.45"/><path id="_Compound_Path_3" data-name="&lt;Compound Path&gt;" class="cls-2" d="M151.09,177.77a13.34,13.34,0,1,0-13.34-13.34A13.36,13.36,0,0,0,151.09,177.77Zm0-17.78a4.45,4.45,0,1,1-4.45,4.45A4.45,4.45,0,0,1,151.09,160Z"/><g id="_Group_" data-name="&lt;Group&gt;"><path class="cls-2" d="M177.77,164.43h8.89a35.61,35.61,0,0,0-35.57-35.57v8.89A26.71,26.71,0,0,1,177.77,164.43Z"/><path class="cls-3" d="M177.77,165.06h8.89a.63.63,0,0,0,.63-.62,36.72,36.72,0,0,0-36.2-36.2.63.63,0,0,0-.62.63v8.89a.64.64,0,0,0,.63.63,26.46,26.46,0,0,1,26.05,26.05.63.63,0,0,0,1.25,0,27.8,27.8,0,0,0-13.16-23.35,27.32,27.32,0,0,0-6-2.73c-2.17-.68-4.62-.52-6.72-1.19-1.56-.5-.14.92-.75-.46a7.87,7.87,0,0,1,0-2.45c0-.72-.47-4.59,0-5.08s6.83,1.1,8,1.4a34.84,34.84,0,0,1,9,3.69,35.3,35.3,0,0,1,12.54,12.54,34.87,34.87,0,0,1,4.38,12.3c-.1-.65.69,5,.9,4.7-.64.85-7.5,0-8.76,0A.63.63,0,0,0,177.77,165.06Z"/></g><g id="_Group_2" data-name="&lt;Group&gt;"><path class="cls-2" d="M200,164.43h8.89a57.87,57.87,0,0,0-57.8-57.8v8.89A49,49,0,0,1,200,164.43Z"/><path class="cls-3" d="M200,165.06h8.89a.63.63,0,0,0,.63-.62A59.17,59.17,0,0,0,151.09,106a.63.63,0,0,0-.62.63v8.89a.63.63,0,0,0,.63.63,48.91,48.91,0,0,1,48.28,48.28.63.63,0,0,0,1.25,0c-.34-24.37-18.29-45.67-42.68-49.06-1.59-.22-3.17-.3-4.77-.43s-.86.78-1.46-.47c-.51-1.08-.29-5.27,0-6.44.48-1.95-.44-.38.78-.76s3.45.17,4.84.32a56.9,56.9,0,0,1,11.08,2.34,57.69,57.69,0,0,1,32.14,25.85A57,57,0,0,1,208,158.87c0,.46.72,5,.76,4.93-.21.23-2.14,0-2.46,0H200A.63.63,0,0,0,200,165.06Z"/></g><g id="_Group_3" data-name="&lt;Group&gt;"><path class="cls-2" d="M222.23,164.43h8.89a80.12,80.12,0,0,0-80-80v8.89A71.22,71.22,0,0,1,222.23,164.43Z"/><path class="cls-2" d="M222.23,165.06h8.89a.63.63,0,0,0,.63-.62,81.63,81.63,0,0,0-80.66-80.66.63.63,0,0,0-.62.63v8.89a.63.63,0,0,0,.63.63,71.38,71.38,0,0,1,70.52,70.52.63.63,0,0,0,1.25,0c-.33-33.85-24.48-63.89-57.94-70.43q-2.75-.54-5.54-.86c-2-.23-5.17.26-6.89-.47-.73-.31-.22.93-.77.12-.2-.29,0-1.31,0-1.69,0-1.52-.33-3.46,0-5,.45-2-.52-1.51,2.18-1.09,2,.32,4.17.23,6.22.46a78.91,78.91,0,0,1,15.06,3.22,79.63,79.63,0,0,1,53.91,60.73,77.93,77.93,0,0,1,1.22,9.36c.06.87,0,1.9.14,2.78.23,1.5.62,1.79-.1,2.18-1.69.92-6.12,0-8.12,0A.63.63,0,0,0,222.23,165.06Z"/></g><g id="_Group_4" data-name="&lt;Group&gt;"><path class="cls-2" d="M244.46,164.43h8.89A102.38,102.38,0,0,0,151.09,62.17v8.89A93.47,93.47,0,0,1,244.46,164.43Z"/><path class="cls-3" d="M244.46,165.06h8.89a.63.63,0,0,0,.63-.62c-.38-56.29-46.6-102.51-102.89-102.89a.63.63,0,0,0-.62.63v8.89a.63.63,0,0,0,.63.63c50.77.38,92.37,42,92.75,92.75a.63.63,0,0,0,1.25,0c-.32-43.41-30.8-82.17-73.38-91.72a94.22,94.22,0,0,0-15-2.11c-1.08-.06-3.2.25-4.18-.15-1.82-.75,0,1.36-.78-.44-.49-1.12-.27-4.87,0-6.08.45-2-.52-1.51,2.19-1.1s5.58.26,8.32.56a100.89,100.89,0,0,1,18.44,3.78,101.94,101.94,0,0,1,69.73,75.51,100.41,100.41,0,0,1,1.74,10.62c.28,2.54,1.46,7.3.59,9.72-.67,1.86,1.35,0-.42.78-.77.34-2.55,0-3.4,0h-4.45A.63.63,0,0,0,244.46,165.06Z"/></g></svg>