<svg id="Capa_1" data-name="Capa 1" xmlns="http://www.w3.org/2000/svg" viewBox="0 0 400 400"><defs><style>.cls-1,.cls-3{fill:#00a3dd;}.cls-1{stroke:#00a3dd;stroke-miterlimit:10;stroke-width:2px;}.cls-2{fill:#f90;}</style></defs><title>recargas</title><g id="_Group_" data-name="&lt;Group&gt;"><g id="_Group_2" data-name="&lt;Group&gt;"><path id="_Compound_Path_" data-name="&lt;Compound Path&gt;" class="cls-1" d="M189.38,317.3a12.82,12.82,0,1,0,12.82,12.82A12.85,12.85,0,0,0,189.38,317.3Zm0,18.68a5.86,5.86,0,1,1,5.86-5.86A5.88,5.88,0,0,1,189.38,336Z"/></g></g><g id="_Group_3" data-name="&lt;Group&gt;"><g id="_Group_4" data-name="&lt;Group&gt;"><path id="_Compound_Path_2" data-name="&lt;Compound Path&gt;" class="cls-2" d="M240,184.87a33.8,33.8,0,1,0,33.8,33.8A33.85,33.85,0,0,0,240,184.87Zm0,60.59a26.79,26.79,0,1,1,26.79-26.79A26.8,26.8,0,0,1,240,245.47Z"/></g></g><path class="cls-3" d="M263.08,159.32a4.51,4.51,0,0,0,4.5-4.5V120.87a15.37,15.37,0,0,0-15.36-15.36H126.58a15.37,15.37,0,0,0-15.36,15.36V338a15.37,15.37,0,0,0,15.36,15.36H252.23A15.37,15.37,0,0,0,267.59,338V283.21a4.51,4.51,0,0,0-9,0V338a6.35,6.35,0,0,1-6.35,6.35H126.58a6.35,6.35,0,0,1-6.35-6.35V120.87a6.35,6.35,0,0,1,6.35-6.35H252.23a6.35,6.35,0,0,1,6.35,6.35v33.95A4.51,4.51,0,0,0,263.08,159.32Z"/><path class="cls-3" d="M248.58,159.32a4.51,4.51,0,0,0,4.5-4.5v-26.6a9,9,0,0,0-9-9H134.69a9,9,0,0,0-9,9V306.64a9,9,0,0,0,9,9H244.12a9,9,0,0,0,9-9V283.21a4.5,4.5,0,0,0-9,0v23.44H134.69V147.22H244.08v7.59A4.51,4.51,0,0,0,248.58,159.32ZM134.73,138.21v-10H244.08v10Z"/><g id="_Group_5" data-name="&lt;Group&gt;"><g id="_Group_6" data-name="&lt;Group&gt;"><path id="_Compound_Path_3" data-name="&lt;Compound Path&gt;" class="cls-2" d="M324.21,162.55H192.89V155.3a3.52,3.52,0,0,0-3.51-3.51c-1.92,0-3.51,1.58-3.51,5.43V281.62a5.69,5.69,0,0,0,3.51,1.58,3.52,3.52,0,0,0,3.51-3.51v-4.9H324.16a11.63,11.63,0,0,0,11.62-11.62v-89A11.62,11.62,0,0,0,324.21,162.55ZM192.89,181.32H304.47a28.18,28.18,0,0,0,13.92,14.07V242a28.37,28.37,0,0,0-13.92,14.07H192.89Zm135.88,81.91a4.61,4.61,0,0,1-4.61,4.61H192.89v-4.75H305a6.21,6.21,0,0,0,5.71-3.75,21,21,0,0,1,11-11.09,6.22,6.22,0,0,0,3.7-5.71V194.91a6.27,6.27,0,0,0-3.7-5.71h0a21.21,21.21,0,0,1-11-11.09,6.21,6.21,0,0,0-5.71-3.75H192.89v-4.75H324.16a4.61,4.61,0,0,1,4.61,4.61Z"/></g></g><g id="_Group_7" data-name="&lt;Group&gt;"><path id="_Path_" data-name="&lt;Path&gt;" class="cls-2" d="M252.09,225.35c0,4.56-3.22,7.68-8.11,8.69a1.85,1.85,0,0,0-1.44,1.82v2.88a1.84,1.84,0,0,1-1.87,1.87h-.19a1.84,1.84,0,0,1-1.87-1.87V236a1.81,1.81,0,0,0-1.54-1.82,19,19,0,0,1-8.45-3.7,1.94,1.94,0,0,1-.58-2.35l.58-1.2a1.91,1.91,0,0,1,2.74-.72,16,16,0,0,0,8.93,3.22c3.7,0,5.91-1.39,5.91-3.84,0-7-17-3.12-17-14.31,0-4.37,3.07-7.39,7.87-8.4a1.89,1.89,0,0,0,1.49-1.82v-2.45a1.87,1.87,0,0,1,1.87-1.87h.19a1.84,1.84,0,0,1,1.87,1.87v2.35a1.81,1.81,0,0,0,1.54,1.82,22.21,22.21,0,0,1,6.1,2,1.88,1.88,0,0,1,.82,2.45l-.62,1.34a1.86,1.86,0,0,1-2.54.86,17.9,17.9,0,0,0-7.54-2c-3.12,0-5.14,1.15-5.14,3.26C235.14,217.72,252.14,214,252.09,225.35Z"/></g><g id="_Group_8" data-name="&lt;Group&gt;"><g id="_Group_9" data-name="&lt;Group&gt;"><g id="_Group_10" data-name="&lt;Group&gt;"><path id="_Path_2" data-name="&lt;Path&gt;" class="cls-2" d="M130.9,62l-2.56.08-.08-2.56a2.56,2.56,0,0,0-5.11.16l.08,2.56-2.56.08a2.56,2.56,0,1,0,.16,5.11l2.56-.08.08,2.56a2.56,2.56,0,0,0,5.11-.16l-.08-2.56,2.56-.08A2.56,2.56,0,1,0,130.9,62Z"/></g></g><g id="_Group_11" data-name="&lt;Group&gt;"><g id="_Group_12" data-name="&lt;Group&gt;"><path id="_Path_3" data-name="&lt;Path&gt;" class="cls-2" d="M228,28.61l-2.56.08-.08-2.56a2.56,2.56,0,0,0-5.11.16l.08,2.56-2.56.08A2.56,2.56,0,0,0,218,34l2.56-.08.08,2.56a2.56,2.56,0,1,0,5.11-.16l-.08-2.56,2.56-.08a2.56,2.56,0,1,0-.16-5.11Z"/></g></g><g id="_Group_13" data-name="&lt;Group&gt;"><g id="_Group_14" data-name="&lt;Group&gt;"><path id="_Path_4" data-name="&lt;Path&gt;" class="cls-2" d="M171.06,28.88a4,4,0,1,0,4.17,3.92A4.05,4.05,0,0,0,171.06,28.88Z"/></g></g><g id="_Group_15" data-name="&lt;Group&gt;"><g id="_Group_16" data-name="&lt;Group&gt;"><path id="_Path_5" data-name="&lt;Path&gt;" class="cls-2" d="M189.29,66.33a4,4,0,1,0,4.17,3.92A4.05,4.05,0,0,0,189.29,66.33Z"/></g></g><g id="_Group_17" data-name="&lt;Group&gt;"><g id="_Group_18" data-name="&lt;Group&gt;"><path id="_Path_6" data-name="&lt;Path&gt;" class="cls-2" d="M249.82,56.78A4,4,0,1,0,254,60.7,4.05,4.05,0,0,0,249.82,56.78Z"/></g></g></g></svg>