<svg id="Capa_1" data-name="Capa 1" xmlns="http://www.w3.org/2000/svg" viewBox="0 0 400 400"><defs><style>.cls-1{fill:#1da0db;}.cls-2{fill:#f89c61;}</style></defs><title>registros</title><g id="_Group_" data-name="&lt;Group&gt;"><g id="_Group_2" data-name="&lt;Group&gt;"><g id="_Group_3" data-name="&lt;Group&gt;"><g id="_Group_4" data-name="&lt;Group&gt;"><g id="_Group_5" data-name="&lt;Group&gt;"><g id="_Group_6" data-name="&lt;Group&gt;"><path id="_Compound_Path_" data-name="&lt;Compound Path&gt;" class="cls-1" d="M259.2,121.46H104.74a3.8,3.8,0,0,0-3.8,3.8V137H89.18a3.8,3.8,0,0,0-3.8,3.8V318.43a19.44,19.44,0,0,0,19.35,19.35h138.9a3.8,3.8,0,0,0,3.8-3.8V322.22H259.2a3.8,3.8,0,0,0,3.8-3.8V125.26A4.08,4.08,0,0,0,259.2,121.46Zm-19.36,197v11.76H104.74A11.82,11.82,0,0,1,93,318.43V144.61H209.11v26.95a3.8,3.8,0,0,0,3.8,3.8h26.94ZM216.7,167.76V149.93l17.84,17.84Zm38.71,146.87h-7.59V171.18a1.39,1.39,0,0,0-.38-1.14v-.38c0-.38-.38-.76-.76-1.14h0l-30.74-30.74h0c-.38-.38-.76-.38-1.14-.76h-.38a1.39,1.39,0,0,1-1.14-.38H108.54v-7.59H255.41V314.63Z"/></g></g><g id="_Group_7" data-name="&lt;Group&gt;"><g id="_Group_8" data-name="&lt;Group&gt;"><path id="_Compound_Path_2" data-name="&lt;Compound Path&gt;" class="cls-1" d="M124.1,203.82a15.63,15.63,0,0,0-15.56,15.56,15.39,15.39,0,0,0,15.56,15.56,15.56,15.56,0,0,0,0-31.12Zm0,23.15a7.59,7.59,0,1,1,7.59-7.59A7.61,7.61,0,0,1,124.1,227Z"/></g></g><g id="_Group_9" data-name="&lt;Group&gt;"><g id="_Group_10" data-name="&lt;Group&gt;"><path id="_Compound_Path_3" data-name="&lt;Compound Path&gt;" class="cls-2" d="M301.71,125.26a15.63,15.63,0,0,0-15.56,15.56v170a3.42,3.42,0,0,0,.38,1.9l11.76,23.15a4.36,4.36,0,0,0,3.42,2.28,3.65,3.65,0,0,0,3.42-2.28l11.76-23.15a2.84,2.84,0,0,0,.38-1.9v-170C316.89,132.47,310.06,125.26,301.71,125.26Zm0,200-5.31-10.63H307ZM309.3,307H293.74V175.73H309.3Zm0-139.28H293.74v-7.59H309.3Zm0-15.18H293.74V140.82a7.59,7.59,0,0,1,15.18,0v11.76Z"/></g></g><g id="_Group_11" data-name="&lt;Group&gt;"><g id="_Group_12" data-name="&lt;Group&gt;"><g id="_Group_13" data-name="&lt;Group&gt;"><path id="_Path_" data-name="&lt;Path&gt;" class="cls-1" d="M216.32,210.27H148.77c-1.9,0-3,1.52-3,3.42a3.35,3.35,0,0,0,3,3.42h67.55c1.9,0,3-1.52,3-3.42A2.9,2.9,0,0,0,216.32,210.27Z"/></g></g><g id="_Group_14" data-name="&lt;Group&gt;"><g id="_Group_15" data-name="&lt;Group&gt;"><path id="_Path_2" data-name="&lt;Path&gt;" class="cls-1" d="M216.32,221.27H148.77c-1.9,0-3,1.52-3,3.42a3.35,3.35,0,0,0,3,3.42h67.55c1.9,0,3-1.52,3-3.42A2.9,2.9,0,0,0,216.32,221.27Z"/></g></g></g><g id="_Group_16" data-name="&lt;Group&gt;"><g id="_Group_17" data-name="&lt;Group&gt;"><path id="_Compound_Path_4" data-name="&lt;Compound Path&gt;" class="cls-1" d="M124.1,253.53a15.63,15.63,0,0,0-15.56,15.56,15.39,15.39,0,0,0,15.56,15.56,15.56,15.56,0,1,0,0-31.12Zm0,23.15a7.59,7.59,0,1,1,7.59-7.59A7.61,7.61,0,0,1,124.1,276.68Z"/></g></g><g id="_Group_18" data-name="&lt;Group&gt;"><g id="_Group_19" data-name="&lt;Group&gt;"><g id="_Group_20" data-name="&lt;Group&gt;"><path id="_Path_3" data-name="&lt;Path&gt;" class="cls-1" d="M216.32,260H148.77c-1.9,0-3,1.52-3,3.42a3.35,3.35,0,0,0,3,3.42h67.55c1.9,0,3-1.52,3-3.42A2.9,2.9,0,0,0,216.32,260Z"/></g></g><g id="_Group_21" data-name="&lt;Group&gt;"><g id="_Group_22" data-name="&lt;Group&gt;"><path id="_Path_4" data-name="&lt;Path&gt;" class="cls-1" d="M216.32,271H148.77c-1.9,0-3,1.52-3,3.42a3.35,3.35,0,0,0,3,3.42h67.55c1.9,0,3-1.52,3-3.42A2.9,2.9,0,0,0,216.32,271Z"/></g></g></g></g><g id="_Group_23" data-name="&lt;Group&gt;"><g id="_Group_24" data-name="&lt;Group&gt;"><g id="_Group_25" data-name="&lt;Group&gt;"><path id="_Path_5" data-name="&lt;Path&gt;" class="cls-2" d="M138.14,91.1h-2.28V88.83a2.28,2.28,0,0,0-4.55,0V91.1H129a2.28,2.28,0,0,0,0,4.55h2.28v2.28a2.28,2.28,0,0,0,4.55,0V95.66h2.28a2.28,2.28,0,0,0,0-4.55Z"/></g></g><g id="_Group_26" data-name="&lt;Group&gt;"><g id="_Group_27" data-name="&lt;Group&gt;"><path id="_Path_6" data-name="&lt;Path&gt;" class="cls-2" d="M228.84,62.26h-2.28V60A2.28,2.28,0,0,0,222,60v2.28h-2.28a2.28,2.28,0,0,0,0,4.55H222v2.28a2.28,2.28,0,1,0,4.55,0V66.82h2.28a2.45,2.45,0,0,0,2.28-2.28C231.5,63.4,230.36,62.26,228.84,62.26Z"/></g></g><g id="_Group_28" data-name="&lt;Group&gt;"><g id="_Group_29" data-name="&lt;Group&gt;"><path id="_Path_7" data-name="&lt;Path&gt;" class="cls-2" d="M176.09,61.12a3.8,3.8,0,1,0,3.8,3.8A4.08,4.08,0,0,0,176.09,61.12Z"/></g></g><g id="_Group_30" data-name="&lt;Group&gt;"><g id="_Group_31" data-name="&lt;Group&gt;"><path id="_Path_8" data-name="&lt;Path&gt;" class="cls-2" d="M192,96.42a3.8,3.8,0,1,0,3.8,3.8A3.59,3.59,0,0,0,192,96.42Z"/></g></g><g id="_Group_32" data-name="&lt;Group&gt;"><g id="_Group_33" data-name="&lt;Group&gt;"><path id="_Path_9" data-name="&lt;Path&gt;" class="cls-2" d="M248.58,88.83a3.8,3.8,0,1,0,3.8,3.8A3.8,3.8,0,0,0,248.58,88.83Z"/></g></g></g></g></g></g></svg>