<svg id="Capa_1" data-name="Capa 1" xmlns="http://www.w3.org/2000/svg" viewBox="0 0 400 400"><defs><style>.cls-1,.cls-4{fill:#ff9800;}.cls-2{fill:#fff;}.cls-3{fill:#6c9fd4;stroke:#6c9ed3;stroke-width:3px;}.cls-3,.cls-4{stroke-miterlimit:10;}.cls-4{stroke:#ff9800;stroke-width:0.28px;}</style></defs><title>segurosderetiro</title><g id="_Group_" data-name="&lt;Group&gt;"><g id="_Group_2" data-name="&lt;Group&gt;"><g id="_Group_3" data-name="&lt;Group&gt;"><g id="_Group_4" data-name="&lt;Group&gt;"><path class="cls-1" d="M218.13,196.9l-24.94-7.56-2.71-5.43a3.81,3.81,0,0,0-4.53-1.93V181a44.37,44.37,0,0,0,18.33-32.68,12.67,12.67,0,0,0,7.79-18.87,15,15,0,0,0,1-26.12,12.82,12.82,0,0,0-17.26-14.91A39.49,39.49,0,0,0,169,78.14H151a39.62,39.62,0,0,0-26.75,10.32A12.82,12.82,0,0,0,107,103.37a15,15,0,0,0,1,26.11,12.69,12.69,0,0,0,7.8,18.87A44.36,44.36,0,0,0,134.07,181v1a3.81,3.81,0,0,0-4.49,1.95l-2.71,5.42L101,197.1a17.22,17.22,0,0,0-12.35,16.6v93.6a3.81,3.81,0,1,0,7.62,0V213.7c0-.28,0-.56,0-.83l15.22,15.22a14.13,14.13,0,0,1,4.16,10.05V307.3a3.81,3.81,0,1,0,7.62,0V238.15a21.69,21.69,0,0,0-6.4-15.44l-16.77-16.77a9.78,9.78,0,0,1,3-1.54l17.16-5.15a101.66,101.66,0,0,0,37.6,47.23,3.81,3.81,0,0,0,4.23,0c27.16-18.11,36.85-44.87,37.64-47.19l16.13,4.89a3.81,3.81,0,0,0,2.21-7.29Zm-31-2.75-12.87,16.09a.66.66,0,0,1-.56.26.68.68,0,0,1-.55-.28l-7.29-9.72,19.55-9.78Zm-27.05.72-18.35-9.17v-.26a44.33,44.33,0,0,0,36.65,0v.26Zm40.56-99.73a5.2,5.2,0,0,1,4.34,8.07,3.81,3.81,0,0,0,2.15,5.77,7.46,7.46,0,1,1-7.45,2.12,3.81,3.81,0,0,0-1.21-6,5.19,5.19,0,0,1,2.16-9.92Zm-93.09,21A7.46,7.46,0,0,1,113,109a3.81,3.81,0,0,0,2.15-5.77,5.21,5.21,0,1,1,6.5,1.85,3.81,3.81,0,0,0-1.21,6,7.44,7.44,0,1,1-12.92,5Zm15.77,28.93a3.81,3.81,0,0,0-3.81-3.81,5.52,5.52,0,0,1-5.61-4.3,5.18,5.18,0,0,1,4-6,3.82,3.82,0,0,0,.43-.13A15.1,15.1,0,0,0,130,116.13a14.9,14.9,0,0,0-1.58-6.67,12.76,12.76,0,0,0,1.76-16.09A32,32,0,0,1,151,85.76h18a31.94,31.94,0,0,1,20.8,7.6,12.76,12.76,0,0,0,1.75,16.09,14.89,14.89,0,0,0-1.58,6.67,15.1,15.1,0,0,0,12.19,14.79l.36.13a5.2,5.2,0,0,1,3.64,5.89,5.52,5.52,0,0,1-5.61,4.3,3.81,3.81,0,0,0-3.81,3.81,36.75,36.75,0,1,1-73.51,0Zm10.21,48.09,1.21-2.41,19.55,9.78L147,210.22a.68.68,0,0,1-.55.28.64.64,0,0,1-.56-.26l-12.77-16A3.83,3.83,0,0,0,133.48,193.14ZM160,238.69A95.46,95.46,0,0,1,129.9,202.5l10,12.5a8.26,8.26,0,0,0,6.49,3.12h.13a8.26,8.26,0,0,0,6.52-3.33l3.17-4.23v15.62a3.81,3.81,0,0,0,7.62,0V210.56l3.17,4.23a8.26,8.26,0,0,0,6.52,3.33h.13a8.26,8.26,0,0,0,6.49-3.12l10-12.54A95.08,95.08,0,0,1,160,238.69Z"/><path class="cls-1" d="M119.47,311.26a4,4,0,0,1-4-4V238.15a14,14,0,0,0-4.12-9.95l-15-15c0,.17,0,.33,0,.49v93.6a4,4,0,1,1-7.92,0V213.7A17.37,17.37,0,0,1,100.92,197l25.84-7.75,2.68-5.36a4,4,0,0,1,4.47-2.07v-.69a44.45,44.45,0,0,1-18.28-32.61,12.83,12.83,0,0,1-7.86-18.93,15.17,15.17,0,0,1-.94-26.24,13,13,0,0,1,17.4-15A39.9,39.9,0,0,1,151,78h18a39.85,39.85,0,0,1,26.78,10.29,13,13,0,0,1,17.4,15,15.17,15.17,0,0,1-.95,26.24,12.82,12.82,0,0,1-7.85,18.92,44.45,44.45,0,0,1-18.32,32.64v.67a3.94,3.94,0,0,1,4.51,2.06l2.68,5.37,24.88,7.54a4,4,0,0,1,2.64,4.94,4,4,0,0,1-4.94,2.64l-16-4.85c-1.24,3.54-11,29.35-37.66,47.13a4,4,0,0,1-4.39,0c-26.18-17.45-36.32-43.61-37.61-47.17l-17,5.11a9.63,9.63,0,0,0-2.86,1.41L117,222.6a21.85,21.85,0,0,1,6.44,15.55V307.3A4,4,0,0,1,119.47,311.26ZM96.15,212.54,111.6,228a14.28,14.28,0,0,1,4.21,10.16V307.3a3.66,3.66,0,0,0,7.32,0V238.15a21.55,21.55,0,0,0-6.35-15.33l-16.9-16.9.14-.1a9.94,9.94,0,0,1,3.1-1.56l17.3-5.19,0,.13c1.06,3,11.09,29.52,37.54,47.16a3.71,3.71,0,0,0,4.06,0c27-18,36.58-44.18,37.59-47.11l0-.14L216,204a3.66,3.66,0,0,0,2.12-7l-25-7.58L190.34,184a3.64,3.64,0,0,0-4.35-1.86l-.19.06V181l.06,0a44.14,44.14,0,0,0,18.27-32.57v-.11l.1,0a12.52,12.52,0,0,0,7.7-18.65l-.08-.14.14-.07a14.87,14.87,0,0,0,1-25.86l-.09-.06,0-.11A12.67,12.67,0,0,0,195.85,88.6l-.09,0-.07-.06A39.55,39.55,0,0,0,169,78.29H151a39.6,39.6,0,0,0-26.65,10.28l-.07.06-.09,0a12.67,12.67,0,0,0-17.06,14.74l0,.11-.09.06a14.87,14.87,0,0,0,1,25.85l.14.07-.08.14a12.54,12.54,0,0,0,7.71,18.65l.1,0v.11a44.15,44.15,0,0,0,18.23,32.54l.06,0v1.24l-.19-.06a3.65,3.65,0,0,0-4.31,1.87L127,189.46l-.06,0L101,197.24A17.08,17.08,0,0,0,88.77,213.7v93.6a3.66,3.66,0,0,0,7.32,0V213.7c0-.28,0-.55,0-.84ZM160,238.88l-.09-.06a95.54,95.54,0,0,1-30.18-36.25l-.55-1.17L140,214.9a8.12,8.12,0,0,0,6.37,3.06h.13a8.11,8.11,0,0,0,6.4-3.26l3.44-4.59v16.07a3.66,3.66,0,0,0,7.32,0V210.11l3.44,4.59a8.11,8.11,0,0,0,6.4,3.26h.13A8.12,8.12,0,0,0,180,214.9l10.83-13.54-.55,1.16a95.13,95.13,0,0,1-30.21,36.29Zm-29.41-35.24A95.15,95.15,0,0,0,160,238.51a94.78,94.78,0,0,0,29.45-34.92l-9.2,11.5a8.42,8.42,0,0,1-6.61,3.18h-.13a8.41,8.41,0,0,1-6.64-3.39L164,211v15.17a4,4,0,1,1-7.92,0V211l-2.9,3.87a8.41,8.41,0,0,1-6.64,3.39h-.14a8.42,8.42,0,0,1-6.61-3.18Zm15.74,7a.79.79,0,0,1-.62-.32l-12.83-16,0-.09a3.68,3.68,0,0,0,.39-1.1v0l1.27-2.55.13.07,19.71,9.86-7.4,9.87a.82.82,0,0,1-.66.34Zm-13.1-16.39L146,210.15a.49.49,0,0,0,.43.21.53.53,0,0,0,.44-.22l7.18-9.58-19.26-9.63-1.13,2.26A4,4,0,0,1,133.26,194.26Zm40.42,16.39h0a.82.82,0,0,1-.66-.34l-7.4-9.87.16-.08,19.69-9.84,1.82,3.65-12.93,16.16A.82.82,0,0,1,173.67,210.65ZM166,200.55l7.18,9.58a.53.53,0,0,0,.43.22h0a.51.51,0,0,0,.42-.21l12.81-16-1.6-3.21ZM160,195l-.07,0-18.43-9.21v-.58l.21.1a44.18,44.18,0,0,0,36.52,0l.21-.1v.58l-.08,0Zm-17.13-8.9L160,194.71l17.14-8.57a44.49,44.49,0,0,1-34.27,0ZM160,182a37,37,0,0,1-36.9-36.9,3.66,3.66,0,0,0-3.66-3.66A5.67,5.67,0,0,1,113.7,137a5.33,5.33,0,0,1,4.09-6.15l.41-.12a15,15,0,0,0,11.68-14.57,14.83,14.83,0,0,0-1.56-6.6l0-.1.08-.08a12.61,12.61,0,0,0,1.74-15.9l-.07-.11.1-.08A32.37,32.37,0,0,1,151,85.61h18a31.91,31.91,0,0,1,20.9,7.64l.1.08-.07.11a12.61,12.61,0,0,0-2.05,6.9,12.74,12.74,0,0,0,3.79,9l.08.08,0,.1a14.88,14.88,0,0,0,10.5,21.25l.37.13a5.35,5.35,0,0,1,3.74,6.06,5.67,5.67,0,0,1-5.76,4.43,3.66,3.66,0,0,0-3.66,3.66A37,37,0,0,1,160,182Zm-31.39-72.46a15.13,15.13,0,0,1,1.54,6.63A15.33,15.33,0,0,1,118.29,131l-.43.13a5,5,0,0,0-3.86,5.81,5.37,5.37,0,0,0,5.47,4.18,4,4,0,0,1,4,4,36.6,36.6,0,0,0,73.21,0,4,4,0,0,1,4-4,5.37,5.37,0,0,0,5.47-4.18,5.05,5.05,0,0,0-3.53-5.72l-.37-.13a15.18,15.18,0,0,1-10.73-21.57,13,13,0,0,1-3.8-9.14,12.91,12.91,0,0,1,2-7A31.6,31.6,0,0,0,169,85.91H151a32.08,32.08,0,0,0-20.6,7.49,12.91,12.91,0,0,1-1.77,16.09Zm76.46,14.24A7.57,7.57,0,0,1,199.52,111a3.66,3.66,0,0,0-1.16-5.8,5.35,5.35,0,1,1,6.69-1.9,3.66,3.66,0,0,0,2.07,5.54,7.58,7.58,0,0,1-2,14.89ZM200.59,95.3a5,5,0,0,0-2.1,9.63,4,4,0,0,1,1.25,6.27,7.31,7.31,0,1,0,7.3-2.07,4,4,0,0,1-2.24-6,5,5,0,0,0-4.21-7.83ZM115,123.73a7.62,7.62,0,0,1-7.61-7.61h0a7.61,7.61,0,0,1,5.58-7.28A3.66,3.66,0,0,0,115,103.3a5.36,5.36,0,1,1,6.69,1.9,3.66,3.66,0,0,0-1.16,5.8A7.57,7.57,0,0,1,115,123.73Zm-7.46-7.61h.15a7.31,7.31,0,1,0,12.66-4.92,4,4,0,0,1,1.25-6.27,5,5,0,1,0-6.32-1.8,4,4,0,0,1-2.24,6,7.31,7.31,0,0,0-5.36,7Z"/></g></g></g><g id="_Group_5" data-name="&lt;Group&gt;"><g id="_Group_6" data-name="&lt;Group&gt;"><g id="_Group_7" data-name="&lt;Group&gt;"><path class="cls-1" d="M171.44,155.61a3.81,3.81,0,0,0-5.36.56,7.47,7.47,0,0,1-12.11,0,3.81,3.81,0,1,0-5.92,4.8A15.07,15.07,0,0,0,172,161,3.81,3.81,0,0,0,171.44,155.61Z"/><path class="cls-1" d="M160,167a15.62,15.62,0,0,1-12.09-6,4,4,0,0,1,6.15-5,7.32,7.32,0,0,0,11.88,0,4,4,0,0,1,5.57-.58h0a4,4,0,0,1,.58,5.57A15.62,15.62,0,0,1,160,167Zm-9-12.12a3.66,3.66,0,0,0-2.84,6,14.92,14.92,0,0,0,23.71,0,3.66,3.66,0,0,0-.54-5.15h0a3.66,3.66,0,0,0-5.15.54,7.62,7.62,0,0,1-12.34,0A3.65,3.65,0,0,0,151,154.91Z"/></g></g></g><g id="_Group_8" data-name="&lt;Group&gt;"><g id="_Group_9" data-name="&lt;Group&gt;"><g id="_Group_10" data-name="&lt;Group&gt;"><path class="cls-1" d="M142,132.23a3.81,3.81,0,0,0-3.81,3.81v4.51a3.81,3.81,0,1,0,7.62,0V136A3.81,3.81,0,0,0,142,132.23Z"/><path class="cls-1" d="M142,144.5a4,4,0,0,1-4-4V136a4,4,0,1,1,7.92,0v4.51A4,4,0,0,1,142,144.5Zm0-12.12a3.66,3.66,0,0,0-3.66,3.66v4.51a3.66,3.66,0,0,0,7.32,0V136A3.66,3.66,0,0,0,142,132.38Z"/></g></g></g><g id="_Group_11" data-name="&lt;Group&gt;"><g id="_Group_12" data-name="&lt;Group&gt;"><g id="_Group_13" data-name="&lt;Group&gt;"><path class="cls-1" d="M178.06,132.23a3.81,3.81,0,0,0-3.81,3.81v4.51a3.81,3.81,0,1,0,7.62,0V136A3.81,3.81,0,0,0,178.06,132.23Z"/><path class="cls-1" d="M178.06,144.5a4,4,0,0,1-4-4V136a4,4,0,1,1,7.92,0v4.51A4,4,0,0,1,178.06,144.5Zm0-12.12A3.66,3.66,0,0,0,174.4,136v4.51a3.66,3.66,0,0,0,7.32,0V136A3.66,3.66,0,0,0,178.06,132.38Z"/></g></g></g><g id="_Group_14" data-name="&lt;Group&gt;"><g id="_Group_15" data-name="&lt;Group&gt;"><g id="_Group_16" data-name="&lt;Group&gt;"><path class="cls-1" d="M216.8,214.47a3.81,3.81,0,0,0-5.39,0l-8.24,8.24a21.69,21.69,0,0,0-6.4,15.44V307.3a3.81,3.81,0,1,0,7.62,0V238.15a14.13,14.13,0,0,1,4.16-10.05l8.24-8.24A3.81,3.81,0,0,0,216.8,214.47Z"/><path class="cls-1" d="M200.59,311.26a4,4,0,0,1-4-4V238.15a21.84,21.84,0,0,1,6.44-15.55l8.24-8.24a4,4,0,0,1,5.6,0h0a4,4,0,0,1,0,5.6l-8.24,8.24a14,14,0,0,0-4.12,9.95V307.3A4,4,0,0,1,200.59,311.26Zm13.52-97.76a3.63,3.63,0,0,0-2.59,1.07l-8.24,8.24a21.54,21.54,0,0,0-6.35,15.33V307.3a3.66,3.66,0,0,0,7.32,0V238.15A14.27,14.27,0,0,1,208.46,228l8.24-8.24a3.66,3.66,0,0,0-2.59-6.25Z"/></g></g></g><g id="_Group_17" data-name="&lt;Group&gt;"><g id="_Group_18" data-name="&lt;Group&gt;"><g id="_Group_19" data-name="&lt;Group&gt;"><path class="cls-1" d="M265,222.31a15.44,15.44,0,0,0-8,0,3.08,3.08,0,1,0,1.6,5.95,9.26,9.26,0,0,1,4.78,0,3.08,3.08,0,0,0,1.6-5.95Z"/><path class="cls-1" d="M264.18,228.52a3.23,3.23,0,0,1-.84-.11,9.08,9.08,0,0,0-4.7,0,3.23,3.23,0,1,1-1.68-6.24,15.5,15.5,0,0,1,8,0,3.23,3.23,0,0,1-.83,6.35Zm-3.19-.72a9.34,9.34,0,0,1,2.43.32,2.93,2.93,0,0,0,1.52-5.66h0a15.24,15.24,0,0,0-7.89,0,2.93,2.93,0,1,0,1.52,5.66A9.32,9.32,0,0,1,261,227.79Z"/></g><g id="_Group_20" data-name="&lt;Group&gt;"><path class="cls-1" d="M295.76,222.31a15.43,15.43,0,0,0-8,0,3.08,3.08,0,1,0,1.6,5.95,9.26,9.26,0,0,1,4.78,0,3.08,3.08,0,0,0,1.6-5.95Z"/><path class="cls-1" d="M295,228.52a3.26,3.26,0,0,1-.84-.11,9.08,9.08,0,0,0-4.7,0,3.23,3.23,0,1,1-1.68-6.24,15.5,15.5,0,0,1,8,0,3.23,3.23,0,0,1-.84,6.35Zm-3.19-.72a9.33,9.33,0,0,1,2.43.32,3,3,0,0,0,.76.1,2.93,2.93,0,0,0,.76-5.76h0a15.24,15.24,0,0,0-7.89,0,2.93,2.93,0,0,0,1.52,5.66A9.33,9.33,0,0,1,291.78,227.79Z"/></g><g id="_Group_21" data-name="&lt;Group&gt;"><path class="cls-1" d="M281,244.88a9.23,9.23,0,0,1-9.23,0,3.08,3.08,0,1,0-3.08,5.33,15.39,15.39,0,0,0,15.39,0,3.08,3.08,0,1,0-3.08-5.33Z"/><path class="cls-1" d="M276.38,252.42a15.55,15.55,0,0,1-7.77-2.08,3.23,3.23,0,1,1,3.23-5.59,9.08,9.08,0,0,0,9.08,0h0a3.23,3.23,0,1,1,3.23,5.59A15.55,15.55,0,0,1,276.38,252.42Zm-6.15-7.81a3,3,0,0,0-.76.1,2.93,2.93,0,0,0-.71,5.36,15.24,15.24,0,0,0,15.24,0,2.93,2.93,0,1,0-2.93-5.07h0a9.37,9.37,0,0,1-9.38,0A2.91,2.91,0,0,0,270.23,244.61Z"/></g><g id="_Group_22" data-name="&lt;Group&gt;"><path class="cls-1" d="M235.13,196.71a28.25,28.25,0,0,1,3.25-9.59,3.08,3.08,0,1,0-5.38-3,34.36,34.36,0,0,0-4,11.67,3.08,3.08,0,1,0,6.09.9Z"/><path class="cls-1" d="M232.09,199.49a3.26,3.26,0,0,1-.48,0,3.23,3.23,0,0,1-2.72-3.67,34.54,34.54,0,0,1,4-11.73,3.23,3.23,0,0,1,5.65,3.13,28.08,28.08,0,0,0-3.24,9.54h0A3.25,3.25,0,0,1,232.09,199.49Zm3.61-16.79a2.93,2.93,0,0,0-2.57,1.51,34.21,34.21,0,0,0-3.94,11.62,2.93,2.93,0,0,0,2.9,3.36,2.94,2.94,0,0,0,2.89-2.5h0a28.41,28.41,0,0,1,3.27-9.64,2.93,2.93,0,0,0-2.56-4.35Z"/></g><g id="_Group_23" data-name="&lt;Group&gt;"><path class="cls-1" d="M240.91,181.77a3.07,3.07,0,0,0,2.16-.89l.06-.06a3.08,3.08,0,1,0-4.38-4.33h0a3.08,3.08,0,0,0,2.16,5.27Z"/><path class="cls-1" d="M240.91,181.92a3.27,3.27,0,1,1,2.33-1l-.07.06A3.21,3.21,0,0,1,240.91,181.92Zm0-6.2a2.95,2.95,0,1,0,2,5l.06-.06a2.93,2.93,0,0,0-2.08-5Z"/></g><g id="_Group_24" data-name="&lt;Group&gt;"><path class="cls-1" d="M200.73,305.52h-.07a3.08,3.08,0,1,0,0,6.16h.07a3.08,3.08,0,0,0,0-6.16Z"/><path class="cls-1" d="M200.73,311.83h-.07a3.23,3.23,0,0,1,0-6.46h.07a3.23,3.23,0,0,1,0,6.46Zm-.07-6.16a2.93,2.93,0,0,0,0,5.86h.07a2.93,2.93,0,1,0,0-5.86Z"/></g><g id="_Group_25" data-name="&lt;Group&gt;"><path class="cls-1" d="M352.11,305.52H352a3.08,3.08,0,0,0,0,6.16h.07a3.08,3.08,0,0,0,0-6.16Z"/><path class="cls-1" d="M352.11,311.83H352a3.23,3.23,0,0,1,0-6.46h.07a3.23,3.23,0,0,1,0,6.46Zm-.07-6.16a2.93,2.93,0,1,0,0,5.86h.07a2.93,2.93,0,0,0,0-5.86Z"/></g><g id="_Group_26" data-name="&lt;Group&gt;"><path class="cls-1" d="M343.2,305.52H341a64.62,64.62,0,0,0-31.3-52.28,40.12,40.12,0,0,0,2.36-4,17,17,0,1,0,19.05-28.16c6.41-27.07-4.49-41.13-11.72-47.18-8.51-7.12-18.37-9-24.5-7.46a46.81,46.81,0,0,0-73.75,55,17,17,0,1,0,19.64,27.8,40,40,0,0,0,2.36,4,64.62,64.62,0,0,0-31.3,52.29h-2.24a3.08,3.08,0,0,0,0,6.16H343.2a3.08,3.08,0,0,0,0-6.16Zm-113,0H218a58.24,58.24,0,0,1,12.23-32.75Zm3-88.43a3.07,3.07,0,0,0,3.18.71V231a39.86,39.86,0,0,0,1.89,12.16,10.88,10.88,0,1,1-11.86-17.57,3.06,3.06,0,0,0,1.16-.79h0l.19-.22h0l.16-.23v0l.13-.24v0c0-.08.08-.17.11-.25v0c0-.09.06-.17.08-.26v0q0-.13.06-.27v0c0-.09,0-.17,0-.26v0c0-.08,0-.16,0-.24s0,0,0-.06,0-.14,0-.22v-.1c0-.06,0-.12,0-.19l0-.13,0-.16,0-.14,0-.06,0-.08-.06-.14-.08-.15,0-.07a40.65,40.65,0,0,1,64-49.07l0,0,.14.12.1.08.13.09.13.09.11.07.16.08.1,0,.17.07.1,0,.18.05.12,0,.17,0,.14,0,.15,0h.59l.16,0,.15,0,.14,0,.17,0,.11,0,.18-.07.06,0c3.49-1.64,12.38-.51,20,5.88,6.32,5.28,15.9,17.94,9.1,43.32a3.06,3.06,0,0,0-.1.62s0,.06,0,.09,0,.14,0,.21,0,.1,0,.16,0,.09,0,.14,0,.12,0,.18l0,.11,0,.17,0,.11.06.15,0,.12.06.12.07.14.06.1.1.16.06.07.13.16.06.07.14.15.09.08.14.12.14.1.1.07.24.14h0l.29.13a10.88,10.88,0,1,1-11.87,17.57A39.87,39.87,0,0,0,316.4,231V215.26l.26.31a3.08,3.08,0,0,0,4.8-3.86,24,24,0,0,0-6.65-5.76h0c-1.24-.74-2.46-1.34-3.62-1.91-5.18-2.55-9.65-4.76-14.17-18.21a3.08,3.08,0,0,0-5.75-.22c-6.69,15.74-15.42,15.84-26.48,16-9.79.11-20.89.24-31.62,11.17A3.08,3.08,0,0,0,233.19,217.09Zm40.12,88.43H236.36V266a59.17,59.17,0,0,1,9.64-7.34l9.2,25.71a3.08,3.08,0,0,0,4.88,1.32l13.22-11.13Zm-18.64-40.9a39.79,39.79,0,0,0,14.14,5.7l-9.3,7.83Zm-4.38-12,0-.06-.07-.11-.1-.14-.09-.1-.11-.12-.08-.09a33.85,33.85,0,0,1-5.11-9,3.12,3.12,0,0,0-.15-.41,33.7,33.7,0,0,1-2-11.5V212.86c7.3-5,14.64-5,22.32-5.13,10.27-.12,20.86-.24,28.88-13.41,4.73,10.31,10,12.91,14.73,15.24.62.3,1.21.6,1.8.91V231a33.71,33.71,0,0,1-2,11.49,3.08,3.08,0,0,0-.16.43,33.86,33.86,0,0,1-5.1,9l-.12.12-.05.06-.14.17-.05.07-.12.18,0,0a33.82,33.82,0,0,1-52.18,0Zm47.81,12-4.84,13.53-9.3-7.83A39.77,39.77,0,0,0,298.1,264.62Zm18.3,40.9H279.46V274.58l13.22,11.13a3.08,3.08,0,0,0,4.88-1.32l9.2-25.71A59.2,59.2,0,0,1,316.4,266Zm6.16,0V272.77a58.24,58.24,0,0,1,12.23,32.75Z"/><path class="cls-1" d="M343.19,311.83H209.57a3.23,3.23,0,0,1,0-6.46h2.1a64.74,64.74,0,0,1,31.23-52.18,40.36,40.36,0,0,1-2.2-3.73,17.19,17.19,0,1,1-19.78-28.08,47,47,0,0,1,42.25-67.46,46.77,46.77,0,0,1,31.74,12.35c6-1.5,15.86.24,24.55,7.51,7.15,6,18.18,20.07,11.79,47.22a17.19,17.19,0,1,1-19.17,28.46,40.37,40.37,0,0,1-2.2,3.73,64.74,64.74,0,0,1,31.23,52.18h2.1a3.23,3.23,0,0,1,0,6.46Zm-133.62-6.16a2.93,2.93,0,1,0,0,5.86H343.19a2.93,2.93,0,1,0,0-5.86h-2.38v-.14a64.44,64.44,0,0,0-31.23-52.16l-.13-.08.09-.13a40.15,40.15,0,0,0,2.35-4L312,249l.14.11A16.89,16.89,0,1,0,331,221.2l-.1-.06,0-.11c6.41-27.07-4.56-41.08-11.67-47-8.65-7.24-18.47-8.95-24.36-7.43l-.08,0-.06-.06a46.66,46.66,0,0,0-78.26,34.33,47,47,0,0,0,4.74,20.49l.06.12-.11.07a17.09,17.09,0,0,0-7.81,14.23,16.89,16.89,0,0,0,27.28,13.32l.14-.11.08.16a40.13,40.13,0,0,0,2.35,4l.09.13-.13.08A64.44,64.44,0,0,0,212,305.53v.14Zm125.38,0H322.41V272.33l.27.34a58.17,58.17,0,0,1,12.26,32.84Zm-12.24-.3h11.92a57.85,57.85,0,0,0-11.92-32.16Zm-6.16.3H279.31V274.26l13.47,11.34a3,3,0,0,0,2.65.59,2.93,2.93,0,0,0,2-1.84l9.26-25.88.16.1a59.44,59.44,0,0,1,9.66,7.36l0,0Zm-36.94-.3h36.64V266.08a59.1,59.1,0,0,0-9.41-7.18l-9.14,25.54a3.23,3.23,0,0,1-5.12,1.38l-13-10.92Zm-6.16.3H236.21V266l0,0a59.44,59.44,0,0,1,9.66-7.36l.16-.1.06.17,9.2,25.71A2.93,2.93,0,0,0,260,285.6l13.47-11.34Zm-36.94-.3h36.64V274.9l-13,10.93a3.23,3.23,0,0,1-5.12-1.38l-9.14-25.54a59.1,59.1,0,0,0-9.41,7.18Zm-6.16.3H217.81v-.16a58.16,58.16,0,0,1,12.27-32.84l.27-.34Zm-12.23-.3h11.93V273.2A57.86,57.86,0,0,0,218.13,305.37Zm41.31-27-5.06-14.15.37.24a39.48,39.48,0,0,0,14.09,5.68l.31.06ZM255,265l4.62,12.91,8.9-7.49A39.75,39.75,0,0,1,255,265Zm38.37,13.42-.17-.14-9.54-8,.31-.06A39.47,39.47,0,0,0,298,264.5l.37-.24Zm-9-8,8.89,7.49L297.81,265A39.75,39.75,0,0,1,284.3,270.41ZM276.38,265a33.93,33.93,0,0,1-26.21-12.36l-.05-.07-.06-.1-.1-.14-.08-.1-.1-.11-.08-.08a33.94,33.94,0,0,1-5.15-9.1,3.15,3.15,0,0,0-.15-.4,33.83,33.83,0,0,1-2-11.56V212.78l.07,0c7.33-5,14.66-5.07,22.4-5.16,10.22-.12,20.77-.24,28.75-13.34l.15-.24.12.26c4.71,10.27,10,12.87,14.66,15.17.62.31,1.22.6,1.8.91l.08,0V231a33.82,33.82,0,0,1-2,11.54,3,3,0,0,0-.15.42A34,34,0,0,1,303.1,252l-.13.13,0,0-.14.17-.05.07-.11.17-.15,0,.13.08A33.94,33.94,0,0,1,276.38,265Zm-26-12.55a33.67,33.67,0,0,0,51.95,0l.14-.2.06-.08.15-.18.05-.06.13-.13a33.69,33.69,0,0,0,5.06-9,3,3,0,0,1,.16-.43,33.52,33.52,0,0,0,2-11.43V210.55l-1.72-.86c-4.67-2.3-10-4.91-14.68-15.06-8,13-18.62,13.13-28.85,13.25-7.68.09-14.94.17-22.18,5.06V231a33.53,33.53,0,0,0,2,11.45,3.19,3.19,0,0,1,.15.41,33.65,33.65,0,0,0,5.08,9l.08.07.11.12.09.11.11.15.08.11Zm-20.14-5.67a11,11,0,0,1-3.94-21.34,2.91,2.91,0,0,0,1.07-.71h0l0,0,.18-.21.16-.23.14-.25c0-.1.08-.18.11-.26s.06-.18.09-.27,0-.19.06-.27,0-.19,0-.27,0-.19,0-.27v-.06c0-.06,0-.13,0-.2v-.09c0-.05,0-.11,0-.17l0-.12,0-.15,0-.14.12-.12-.14.05,0-.08-.06-.13-.07-.14,0,0A40.8,40.8,0,0,1,292,172l0,0,.13.12.1.08.12.09.13.08.1.06.15.08.09,0,.17.07.1,0,.17.05.11,0,.16,0,.13,0h.7l.15,0,.14,0,.13,0,.16,0,.11,0,.17-.07.12.11-.06-.14c3.52-1.66,12.49-.53,20.17,5.9,6.34,5.31,16,18,9.15,43.48a2.88,2.88,0,0,0-.1.59v.09c0,.08,0,.14,0,.19s0,.07,0,.1v.1s0,.05,0,.08,0,.09,0,.14l0,.14,0,.12,0,.09,0,.06,0,.1.07.17,0,.08,0,.08,0,.09.06.09.09.15.05.07.12.15.06.06.14.14,0,0,.07.06.1.09.12.09,0,0,.06,0,.23.13.3.14a11,11,0,1,1-12,17.81l-.06-.06,0-.08A39.72,39.72,0,0,0,316.25,231V214.85l.36.43.16.2a2.93,2.93,0,1,0,4.56-3.67,23.85,23.85,0,0,0-6.61-5.72c-1.27-.76-2.52-1.37-3.63-1.92-5.21-2.57-9.71-4.79-14.24-18.29a3,3,0,0,0-2.66-2h-.12a2.94,2.94,0,0,0-2.69,1.78c-6.73,15.83-15.5,15.93-26.61,16.06-9.76.11-20.83.24-31.52,11.12a2.93,2.93,0,0,0,0,4.14h0a2.93,2.93,0,0,0,3,.67l.2-.07V231a39.71,39.71,0,0,0,1.88,12.12l0,.08-.06.06A11.06,11.06,0,0,1,230.27,246.82Zm-2.6-21.91,0,0a3.19,3.19,0,0,1-1.22.83,10.73,10.73,0,1,0,11.64,17.39A40,40,0,0,1,236.21,231V218a3.22,3.22,0,0,1-3.13-.8h0a3.23,3.23,0,0,1,0-4.57c10.78-11,21.91-11.1,31.73-11.21,11-.13,19.69-.23,26.34-15.88a3.24,3.24,0,0,1,3-2h.13a3.24,3.24,0,0,1,2.93,2.2c4.5,13.39,8.94,15.58,14.09,18.12,1.11.55,2.36,1.17,3.63,1.92a24.16,24.16,0,0,1,6.71,5.81,3.23,3.23,0,0,1-5,4.05V231a40,40,0,0,1-1.87,12.12,10.73,10.73,0,1,0,11.64-17.39l-.31-.13-.28-.16-.08-.05,0,0-.15-.1-.12-.1h0l-.06-.05-.06-.05-.15-.16-.07-.07-.13-.16-.06-.08-.09-.14-.08-.12-.06-.11,0-.08,0-.1,0-.09,0-.09,0-.11,0-.08,0-.08,0-.14,0-.08v0c0-.08,0-.13,0-.19s0-.07,0-.1V223s0-.08,0-.12,0-.12,0-.19l.15-.06h-.15s0,0,0-.07a3.2,3.2,0,0,1,.11-.65c6.78-25.3-2.76-37.91-9.05-43.17-7.58-6.35-16.4-7.48-19.85-5.86l0,0-.2.08-.12,0-.17.05-.14,0-.15,0-.17,0h-.62l-.15,0-.14,0-.17,0-.12,0-.19-.06-.11,0-.18-.08-.1,0-.17-.09-.12-.07-.14-.09-.13-.1-.11-.09-.14-.13-.05,0a40.5,40.5,0,0,0-63.72,48.89l0,0,.1.19.06.15,0,0,0,.05,0,0,0,.15.05.18,0,.13c0,.06,0,.13,0,.19v.1c0,.08,0,.15,0,.23v.07c0,.08,0,.17,0,.25v0c0,.09,0,.18,0,.27s0,.21-.07.3-.06.2-.09.29-.08.2-.12.29l-.15.27-.18.26Z"/></g><g id="_Group_27" data-name="&lt;Group&gt;"><path class="cls-1" d="M287.42,289.47h-.07a3.08,3.08,0,1,0,0,6.16h.07a3.08,3.08,0,1,0,0-6.16Z"/><path class="cls-1" d="M287.42,295.77h-.07a3.23,3.23,0,0,1,0-6.46h.07a3.23,3.23,0,0,1,0,6.46Zm-.07-6.16a2.93,2.93,0,1,0,0,5.86h.07a2.93,2.93,0,1,0,0-5.86Z"/></g></g></g></g><g id="_Group_28" data-name="&lt;Group&gt;"><g id="_Group_29" data-name="&lt;Group&gt;"><g id="_Group_30" data-name="&lt;Group&gt;"><path id="_Path_" data-name="&lt;Path&gt;" class="cls-1" d="M35.4,131.6l-.87,1.3-1.3-.87a1.56,1.56,0,0,0-1.75,2.59l1.3.87-.87,1.3a1.56,1.56,0,1,0,2.59,1.75l.87-1.3,1.3.87a1.56,1.56,0,0,0,1.75-2.59l-1.3-.87.87-1.3a1.56,1.56,0,1,0-2.59-1.75Z"/></g></g><g id="_Group_31" data-name="&lt;Group&gt;"><g id="_Group_32" data-name="&lt;Group&gt;"><path id="_Path_2" data-name="&lt;Path&gt;" class="cls-1" d="M53.56,71.46l-.87,1.3-1.3-.87a1.56,1.56,0,0,0-1.75,2.59l1.3.87-.87,1.3a1.56,1.56,0,0,0,2.59,1.75l.87-1.3,1.3.87a1.56,1.56,0,1,0,1.75-2.59l-1.3-.87.87-1.3a1.56,1.56,0,1,0-2.59-1.75Z"/></g></g><g id="_Group_33" data-name="&lt;Group&gt;"><g id="_Group_34" data-name="&lt;Group&gt;"><path id="_Path_3" data-name="&lt;Path&gt;" class="cls-1" d="M33.33,99.85a2.48,2.48,0,1,0,3.44-.67A2.48,2.48,0,0,0,33.33,99.85Z"/></g></g><g id="_Group_35" data-name="&lt;Group&gt;"><g id="_Group_36" data-name="&lt;Group&gt;"><path id="_Path_4" data-name="&lt;Path&gt;" class="cls-1" d="M58.43,104.18a2.48,2.48,0,1,0,3.44-.67A2.48,2.48,0,0,0,58.43,104.18Z"/></g></g><g id="_Group_37" data-name="&lt;Group&gt;"><g id="_Group_38" data-name="&lt;Group&gt;"><path id="_Path_5" data-name="&lt;Path&gt;" class="cls-1" d="M75.32,70.72a2.48,2.48,0,1,0,3.44-.67A2.48,2.48,0,0,0,75.32,70.72Z"/></g></g></g><circle class="cls-2" cx="114.76" cy="273.69" r="39.15"/><g id="_Group_39" data-name="&lt;Group&gt;"><g id="_Group_40" data-name="&lt;Group&gt;"><path id="_Path_6" data-name="&lt;Path&gt;" class="cls-3" d="M146,243a44.39,44.39,0,0,0-74.83,22.27,2.73,2.73,0,1,0,5.34,1.12,38.91,38.91,0,1,1,.11,16.5,2.73,2.73,0,0,0-5.33,1.19A44.39,44.39,0,1,0,146,243Z"/></g></g><g id="_Group_41" data-name="&lt;Group&gt;"><path id="_Compound_Path_" data-name="&lt;Compound Path&gt;" class="cls-4" d="M129.39,282.18c0,5.36-3.79,9.05-9.56,10.26a2.19,2.19,0,0,0-1.72,2.15V298a2.21,2.21,0,0,1-2.21,2.21h-.25a2.21,2.21,0,0,1-2.21-2.21v-3.27a2.19,2.19,0,0,0-1.81-2.17,22.63,22.63,0,0,1-9.95-4.34,2.22,2.22,0,0,1-.65-2.76l.7-1.39a2.2,2.2,0,0,1,3.23-.82A18.73,18.73,0,0,0,115.51,287c4.34,0,6.94-1.64,6.94-4.5,0-8.26-20-3.65-20-16.84,0-5.16,3.6-8.74,9.28-9.9a2.19,2.19,0,0,0,1.73-2.15v-2.87a2.21,2.21,0,0,1,2.18-2.21h.25a2.21,2.21,0,0,1,2.23,2.21v2.77a2.19,2.19,0,0,0,1.81,2.17,24.11,24.11,0,0,1,7.19,2.4,2.2,2.2,0,0,1,.95,2.89l-.74,1.58a2.21,2.21,0,0,1-3,1,20.92,20.92,0,0,0-8.87-2.35c-3.65,0-6,1.38-6,3.87C109.42,273.18,129.44,268.84,129.39,282.18Z"/></g></svg>