<svg id="Capa_1" data-name="Capa 1" xmlns="http://www.w3.org/2000/svg" viewBox="0 0 400 400"><defs><style>.cls-1,.cls-2{fill:#ff9800;}.cls-2{stroke:#dea264;stroke-miterlimit:10;stroke-width:0.5px;}.cls-3{fill:#fff;}.cls-4{fill:#00a3dd;}</style></defs><title>seguros</title><g id="_Group_" data-name="&lt;Group&gt;"><g id="_Group_2" data-name="&lt;Group&gt;"><g id="_Group_3" data-name="&lt;Group&gt;"><path id="_Path_" data-name="&lt;Path&gt;" class="cls-1" d="M260.59,324.2l2.82.2-.2,2.82a2.83,2.83,0,1,0,5.64.4l.2-2.82,2.82.2a2.83,2.83,0,1,0,.4-5.64l-2.82-.2.2-2.82a2.83,2.83,0,1,0-5.64-.4l-.2,2.82-2.82-.2a2.83,2.83,0,1,0-.4,5.64Z"/></g></g><g id="_Group_4" data-name="&lt;Group&gt;"><g id="_Group_5" data-name="&lt;Group&gt;"><path id="_Path_2" data-name="&lt;Path&gt;" class="cls-1" d="M150,350l2.82.2-.2,2.82a2.83,2.83,0,0,0,5.64.4l.2-2.82,2.82.2a2.83,2.83,0,1,0,.4-5.64l-2.82-.2.2-2.82a2.83,2.83,0,0,0-5.64-.4l-.2,2.82-2.82-.2A2.83,2.83,0,1,0,150,350Z"/></g></g><g id="_Group_6" data-name="&lt;Group&gt;"><g id="_Group_7" data-name="&lt;Group&gt;"><path id="_Path_3" data-name="&lt;Path&gt;" class="cls-1" d="M212.74,356.07a4.47,4.47,0,1,0-4.15-4.78A4.48,4.48,0,0,0,212.74,356.07Z"/></g></g><g id="_Group_8" data-name="&lt;Group&gt;"><g id="_Group_9" data-name="&lt;Group&gt;"><path id="_Path_4" data-name="&lt;Path&gt;" class="cls-1" d="M196.89,312.86a4.47,4.47,0,1,0-4.15-4.78A4.48,4.48,0,0,0,196.89,312.86Z"/></g></g><g id="_Group_10" data-name="&lt;Group&gt;"><g id="_Group_11" data-name="&lt;Group&gt;"><path id="_Path_5" data-name="&lt;Path&gt;" class="cls-1" d="M129.27,316.59a4.47,4.47,0,1,0-4.15-4.78A4.48,4.48,0,0,0,129.27,316.59Z"/></g></g></g><g id="_Group_12" data-name="&lt;Group&gt;"><g id="_Group_13" data-name="&lt;Group&gt;"><g id="_Group_14" data-name="&lt;Group&gt;"><path id="_Compound_Path_" data-name="&lt;Compound Path&gt;" class="cls-2" d="M163.09,133.48H140.6a5.45,5.45,0,0,0-5.45,5.45v28.73a5.45,5.45,0,0,0,5.45,5.45h22.49a5.45,5.45,0,0,0,5.45-5.45V138.93A5.45,5.45,0,0,0,163.09,133.48Zm-1.37,32.81H142v-26h19.75Z"/></g></g><g id="_Group_15" data-name="&lt;Group&gt;"><g id="_Group_16" data-name="&lt;Group&gt;"><path id="_Compound_Path_2" data-name="&lt;Compound Path&gt;" class="cls-2" d="M211.24,133.48H188.75a5.45,5.45,0,0,0-5.45,5.45v28.73a5.45,5.45,0,0,0,5.45,5.45h22.49a5.45,5.45,0,0,0,5.45-5.45V138.93A5.45,5.45,0,0,0,211.24,133.48Zm-1.37,32.81H190.12v-26h19.75Z"/></g></g><g id="_Group_17" data-name="&lt;Group&gt;"><g id="_Group_18" data-name="&lt;Group&gt;"><path id="_Compound_Path_3" data-name="&lt;Compound Path&gt;" class="cls-2" d="M259.4,133.48H236.91a5.45,5.45,0,0,0-5.45,5.45v28.73a5.46,5.46,0,0,0,5.45,5.45H259.4a5.45,5.45,0,0,0,5.45-5.45V138.93A5.45,5.45,0,0,0,259.4,133.48ZM258,166.29H238.28v-26H258Z"/></g></g><g id="_Group_19" data-name="&lt;Group&gt;"><g id="_Group_20" data-name="&lt;Group&gt;"><path id="_Compound_Path_4" data-name="&lt;Compound Path&gt;" class="cls-2" d="M163.09,212.91H140.6a5.45,5.45,0,0,0-5.45,5.45v28.73a5.45,5.45,0,0,0,5.45,5.45h22.49a5.45,5.45,0,0,0,5.45-5.45V218.36A5.45,5.45,0,0,0,163.09,212.91Zm-1.37,32.81H142v-26h19.75Z"/></g></g><g id="_Group_21" data-name="&lt;Group&gt;"><g id="_Group_22" data-name="&lt;Group&gt;"><path id="_Compound_Path_5" data-name="&lt;Compound Path&gt;" class="cls-2" d="M259.4,212.91H236.91a5.45,5.45,0,0,0-5.45,5.45v28.73a5.45,5.45,0,0,0,5.45,5.45H259.4a5.45,5.45,0,0,0,5.45-5.45V218.36A5.45,5.45,0,0,0,259.4,212.91ZM258,245.72H238.28v-26H258Z"/></g></g><g id="_Group_23" data-name="&lt;Group&gt;"><g id="_Group_24" data-name="&lt;Group&gt;"><path id="_Compound_Path_6" data-name="&lt;Compound Path&gt;" class="cls-2" d="M299.5,264.94A21.29,21.29,0,0,0,282,245.69V118.94h6.76a3.41,3.41,0,0,0,3.41-3.41h0V104.45a3.42,3.42,0,0,0,0-.38V104c0-.1,0-.19-.05-.28v0L278.28,46.52A3.41,3.41,0,0,0,275,43.92H248.7a3.41,3.41,0,0,0,0,6.82h23.58L284.44,101H221.12V76a21.12,21.12,0,1,0-42.24,0v25H115.55l12.16-50.3h99.71a3.41,3.41,0,0,0,0-6.82H125a3.41,3.41,0,0,0-3.32,2.61l-13.81,57.12v0c0,.09,0,.19-.05.28v.1a3.42,3.42,0,0,0,0,.38v11.08h0a3.41,3.41,0,0,0,3.41,3.41H118v84.62a3.41,3.41,0,0,0,6.82,0V118.94H275.19V245.59l-.38.07-.44.08-.76.16-.38.08-1,.28-.1,0c-.37.11-.73.23-1.09.36l-.34.13-.73.29-.4.18-.66.31-.4.2-.64.35-.37.21-.71.44-.26.17q-.47.32-.93.66l-.22.18-.68.54-.32.28-.55.5-.32.31-.51.52-.3.32-.52.59-.25.29c-.25.3-.49.61-.72.93-.4.08-.78.18-1.17.29l-.37.11-.77.25-.42.16-.69.29-.42.19-.66.33-.39.21-.68.41-.33.2q-.45.3-.89.63l-.07.05c-.31.24-.62.49-.91.75l-.26.24c-.2.19-.4.37-.6.57l-.3.31-.51.55-.29.35-.46.58-.27.36c-.15.21-.3.43-.44.65l-.22.34c-.18.29-.34.58-.5.88l-.09.15q-.28.53-.51,1.08l-.13.32c-.09.21-.18.41-.25.63h-25.8V213.53a6.16,6.16,0,0,0-6.15-6.15H183.36a6.16,6.16,0,0,0-6.15,6.15v51.39h-25.8c-.08-.21-.17-.42-.25-.63L151,264q-.24-.55-.51-1.08l-.09-.15c-.16-.3-.33-.59-.5-.88l-.22-.34c-.14-.22-.29-.44-.44-.65l-.27-.36-.46-.58-.29-.35-.51-.55-.3-.31c-.19-.19-.4-.38-.6-.57l-.26-.24c-.3-.26-.6-.51-.91-.75l-.07-.05q-.43-.33-.89-.63l-.33-.2-.68-.41-.39-.21-.66-.33-.42-.19-.69-.29-.42-.16-.77-.25-.37-.11c-.39-.11-.77-.21-1.17-.29-.23-.32-.47-.62-.72-.93l-.25-.29-.52-.59-.3-.32-.51-.52-.32-.31-.55-.5-.32-.28-.68-.54-.22-.18q-.46-.34-.93-.66l-.26-.17-.71-.44-.37-.21-.64-.35-.4-.2-.66-.31-.4-.18-.73-.29-.34-.13c-.36-.13-.72-.25-1.09-.36l-.1,0-1-.28-.38-.08-.76-.16-.44-.08-.38-.07V224.74a3.41,3.41,0,0,0-6.82,0v20.95a21.28,21.28,0,0,0-17.49,19.24,9.32,9.32,0,0,0,.31,18.63H299.2a9.32,9.32,0,0,0,.31-18.63ZM203.41,62.16A14.32,14.32,0,0,1,214.29,76v2.88H203.41Zm0,23.59h10.89V101H203.41ZM185.7,76a14.32,14.32,0,0,1,10.89-13.88V78.93H185.7Zm0,9.7h10.89V101H185.7Zm-71.07,26.36v-4.26H285.36v4.26ZM256.55,264.46l0-.06c.14-.17.28-.34.43-.5l.12-.13c.16-.18.33-.35.51-.51l0,0c.16-.15.34-.3.51-.44l.14-.11c.19-.15.38-.29.58-.43l0,0,.59-.36.16-.09c.21-.12.43-.23.65-.33h0l.66-.27.17-.06c.23-.08.46-.16.7-.23h0c.24-.07.48-.12.72-.17l.18,0c.25,0,.49-.08.74-.11a3.41,3.41,0,0,0,2.53-1.58q.25-.4.52-.78a14.35,14.35,0,0,1,11.71-6h.26a14.45,14.45,0,0,1,14.08,12.73H256.22C256.33,264.77,256.43,264.61,256.55,264.46ZM184,214.21H216v50.71H184Zm-62.61,38h.25A14.36,14.36,0,0,1,133.91,259a3.41,3.41,0,0,0,2.53,1.58c.25,0,.5.07.74.11l.18,0c.24,0,.48.1.71.17h0c.24.07.47.14.7.23l.17.06.66.27h0c.22.1.44.21.65.33l.16.09.59.36,0,0c.2.13.39.28.58.43l.14.11c.17.14.34.29.51.44l0,0c.18.16.34.33.51.51l.12.13c.15.16.29.33.43.5l0,.06c.12.15.22.3.33.46H107.34A14.45,14.45,0,0,1,121.42,252.19Zm177.77,24.55H100.8a2.5,2.5,0,1,1,0-5H299.19a2.5,2.5,0,0,1,0,5Z"/></g></g><circle id="_Path_6" data-name="&lt;Path&gt;" class="cls-2" cx="208.85" cy="239.56" r="2.57"/></g><path class="cls-3" d="M301.63,199.57a3.86,3.86,0,0,0-3.94-3.73h-.77c-24.44,0-39.13-8.78-44.31-12.56a4.06,4.06,0,0,0-5.33,0c-5.18,3.78-19.88,12.56-44.32,12.56h-.79a3.92,3.92,0,0,0-3.91,3.73c-.14,2.91-2.8,71.73,49.21,103.39l.43.26a3.92,3.92,0,0,0,4.1,0l.42-.26C304.43,271.3,301.77,202.49,301.63,199.57ZM249.94,270h0V191h0Zm-43.88-66.35c1.21,0,2.39-.1,3.55-.17C208.44,203.55,207.25,203.61,206.06,203.64Zm43.88,71.84v19.8h0v-19.8Zm40.34-72c1.16.07,2.34.14,3.54.17C292.63,203.61,291.45,203.55,290.28,203.46ZM249.94,191h0Zm0,104.3h0Z"/><path class="cls-4" d="M249.94,303.81a3.91,3.91,0,0,1-2-.58l-.43-.26c-52-31.66-49.35-100.48-49.21-103.39a3.92,3.92,0,0,1,3.91-3.73H203c24.44,0,39.13-8.78,44.32-12.56a4.06,4.06,0,0,1,5.33,0c5.18,3.78,19.88,12.56,44.31,12.56h.77a3.86,3.86,0,0,1,3.94,3.73c.14,2.92,2.8,71.73-49.22,103.4l-.42.26A3.93,3.93,0,0,1,249.94,303.81ZM206.06,203.64c.24,14.24,3.94,66,43.88,91.64,39.94-25.61,43.64-77.39,43.88-91.64-22.44-.65-37.12-8.21-43.88-12.67C243.17,195.43,228.5,203,206.06,203.64Z"/><path class="cls-4" d="M247.14,276.65a3.91,3.91,0,0,1-2.75-1.13c-10.31-10.16-17.93-23.41-22.66-39.38a3.92,3.92,0,0,1,7.51-2.23c4.35,14.69,11.3,26.81,20.65,36a3.92,3.92,0,0,1-2.75,6.71Z"/></svg>