<svg id="Capa_1" data-name="Capa 1" xmlns="http://www.w3.org/2000/svg" viewBox="0 0 400 400"><defs><style>.cls-1,.cls-2{fill:#ff9800;}.cls-1{stroke:#ff9800;stroke-miterlimit:10;stroke-width:0.3px;}.cls-3{fill:#fff;}.cls-4{fill:#00a3dd;}</style></defs><title>segurodevida</title><g id="_Group_" data-name="&lt;Group&gt;"><g id="_Group_2" data-name="&lt;Group&gt;"><g id="_Group_3" data-name="&lt;Group&gt;"><path id="_Compound_Path_" data-name="&lt;Compound Path&gt;" class="cls-1" d="M252.08,231.22l-25.73-11.44a5,5,0,0,1-3-4.6v-7.07a37.5,37.5,0,0,0,14.2-29.38v-9.95a9.18,9.18,0,0,0,4.73-8v-1a37.6,37.6,0,0,0-37.56-37.56h-9.47a37.6,37.6,0,0,0-37.56,37.56v8.76a9.29,9.29,0,0,0,3.53,7.44,8.64,8.64,0,0,0,1.2.78v2a37.5,37.5,0,0,0,14.2,29.38v7.07a5,5,0,0,1-3,4.6l-25.73,11.44A23.38,23.38,0,0,0,134,252.57v58.69a4.43,4.43,0,0,0,8.86,0V252.57A14.48,14.48,0,0,1,143,251l11.86,11.86a9.71,9.71,0,0,1,2.86,6.91v41.45a4.43,4.43,0,0,0,8.86,0V269.81a18.5,18.5,0,0,0-5.46-13.17L147,242.5a14.46,14.46,0,0,1,4.54-3.19l25.3-11.24,18.76,18.76v64.42a4.43,4.43,0,0,0,8.86,0V246.83l18.76-18.76,25.3,11.24A14.46,14.46,0,0,1,253,242.5l-14.13,14.13a18.5,18.5,0,0,0-5.46,13.17v41.45a4.43,4.43,0,0,0,8.86,0V269.81a9.71,9.71,0,0,1,2.86-6.91L257,251a14.46,14.46,0,0,1,.09,1.52v58.69a4.43,4.43,0,0,0,8.86,0V252.57A23.38,23.38,0,0,0,252.08,231.22ZM200,238.73l-16.46-16.46a13.87,13.87,0,0,0,2-7.09v-1.8a37.53,37.53,0,0,0,29,0v1.8a13.87,13.87,0,0,0,2,7.09Zm0-31.3a28.73,28.73,0,0,1-28.7-28.7v-2a26.18,26.18,0,0,0,8-5.22,4.43,4.43,0,0,0-6-6.51,15.9,15.9,0,0,1-6.58,3.93l-.12,0a.9.9,0,0,1-.07-.4v-8.76a28.73,28.73,0,0,1,28.7-28.7h9.47a28.73,28.73,0,0,1,28.7,28.7v1a.28.28,0,0,1-.2.29c-26.52,5.24-39.81-4.63-44.3-9.12a4.43,4.43,0,1,0-6.26,6.26c13.75,13.75,33.82,14,46,12.53v8A28.73,28.73,0,0,1,200,207.44Z"/></g></g><g id="_Group_4" data-name="&lt;Group&gt;"><g id="_Group_5" data-name="&lt;Group&gt;"><path id="_Compound_Path_2" data-name="&lt;Compound Path&gt;" class="cls-1" d="M128.7,207.14v-9.47a32.82,32.82,0,0,0-15-27.57,18.63,18.63,0,1,0-35.55,0,32.82,32.82,0,0,0-15,27.57v9.47a32.81,32.81,0,0,0,14.2,27v9.74a5,5,0,0,1-2.78,4.51L59.15,256a18.53,18.53,0,0,0-10.3,16.66v38.55a4.43,4.43,0,1,0,8.86,0V274.62l7.21,7.21a9.71,9.71,0,0,1,2.86,6.91v22.51a4.43,4.43,0,1,0,8.86,0V288.74a18.51,18.51,0,0,0-5.46-13.17l-10-10-.15-.14A9.87,9.87,0,0,1,63.11,264l15.32-7.66a14.1,14.1,0,0,0,2.2-1.37l10.83,10.83v45.49a4.43,4.43,0,1,0,8.86,0V265.76l10.83-10.83a14,14,0,0,0,2.2,1.37l4.22,2.11a4.43,4.43,0,1,0,4-7.92l-4.22-2.11a5,5,0,0,1-2.78-4.51v-9.74A32.81,32.81,0,0,0,128.7,207.14ZM95.88,154.77a9.78,9.78,0,0,1,9.77,9.77,9.92,9.92,0,0,1-.15,1.74,32.82,32.82,0,0,0-19.22,0,9.71,9.71,0,0,1,9.6-11.51Zm0,18.93a24,24,0,0,1,24,24v1.6c-18.44,5.64-29.42-8.38-29.89-9a4.43,4.43,0,0,0-6.67-.47,29,29,0,0,1-11.36,7.25A24,24,0,0,1,95.88,173.7Zm0,84L85.65,247.43a14,14,0,0,0,.46-3.55v-5.41a32.88,32.88,0,0,0,19.54,0v5.41a14,14,0,0,0,.46,3.55Zm0-26.56a24,24,0,0,1-24-24v-.92a35.5,35.5,0,0,0,14.23-7.09,40,40,0,0,0,8.21,6,35.22,35.22,0,0,0,16.92,4.37,37.1,37.1,0,0,0,8.54-1A24,24,0,0,1,95.88,231.1Z"/></g></g><g id="_Group_6" data-name="&lt;Group&gt;"><g id="_Group_7" data-name="&lt;Group&gt;"><path id="_Compound_Path_3" data-name="&lt;Compound Path&gt;" class="cls-1" d="M340.85,246.58l-24.78-12.39a5,5,0,0,1-2.78-4.51v-6.28a28,28,0,0,0,9.47-21v-5h.3a4.43,4.43,0,0,0,4.43-4.43v-9.47a28.12,28.12,0,0,0-28.09-28.09h-9.47a28.12,28.12,0,0,0-28.09,28.09v9.47a4.43,4.43,0,0,0,4.43,4.43h.3v5a28,28,0,0,0,9.47,21v6.28a5,5,0,0,1-2.78,4.51,4.43,4.43,0,1,0,4,7.92,14.1,14.1,0,0,0,2.2-1.37l10.83,10.83v59.69a4.43,4.43,0,1,0,8.86,0V251.56l10.83-10.83a14,14,0,0,0,2.2,1.37l24,12-7.27,7.27a18.51,18.51,0,0,0-5.46,13.17v36.71a4.43,4.43,0,1,0,8.86,0V274.54a9.71,9.71,0,0,1,2.86-6.91l6.89-6.89a9.87,9.87,0,0,1,.32,2.49v48a4.43,4.43,0,1,0,8.86,0v-48A18.52,18.52,0,0,0,340.85,246.58Zm-70.16-59v-4.13h0a19.26,19.26,0,0,1,19.24-19.24h9.47a19.26,19.26,0,0,1,19.24,19.24v4.92c-19.25-1-30.87-8.53-31-8.6a4.43,4.43,0,0,0-5.59.55A29,29,0,0,1,270.69,187.6Zm24,55.87-10.23-10.23a14,14,0,0,0,.46-3.55v-.94a28.07,28.07,0,0,0,19.54,0v.94a14,14,0,0,0,.46,3.55Zm0-21.83a19.26,19.26,0,0,1-19.24-19.24v-7.14h0a37.47,37.47,0,0,0,10.39-6.34,78.67,78.67,0,0,0,28.08,8v5.5A19.26,19.26,0,0,1,294.66,221.64Z"/></g></g></g><g id="_Group_8" data-name="&lt;Group&gt;"><g id="_Group_9" data-name="&lt;Group&gt;"><g id="_Group_10" data-name="&lt;Group&gt;"><path id="_Path_" data-name="&lt;Path&gt;" class="cls-2" d="M268.31,72.17l3.18.22-.22,3.18a3.19,3.19,0,0,0,6.36.45l.22-3.18,3.18.22a3.19,3.19,0,1,0,.45-6.36l-3.18-.22.22-3.18a3.19,3.19,0,0,0-6.36-.45L271.94,66l-3.18-.22a3.19,3.19,0,1,0-.45,6.36Z"/></g></g><g id="_Group_11" data-name="&lt;Group&gt;"><g id="_Group_12" data-name="&lt;Group&gt;"><path id="_Path_2" data-name="&lt;Path&gt;" class="cls-2" d="M143.69,101.25l3.18.22-.22,3.18a3.19,3.19,0,0,0,6.36.45l.22-3.18,3.18.22a3.19,3.19,0,0,0,.45-6.36l-3.18-.22.22-3.18a3.19,3.19,0,0,0-6.36-.45l-.22,3.18-3.18-.22a3.19,3.19,0,1,0-.45,6.36Z"/></g></g><g id="_Group_13" data-name="&lt;Group&gt;"><g id="_Group_14" data-name="&lt;Group&gt;"><path id="_Path_3" data-name="&lt;Path&gt;" class="cls-2" d="M214.36,108.1a5,5,0,1,0-4.68-5.39A5,5,0,0,0,214.36,108.1Z"/></g></g><g id="_Group_15" data-name="&lt;Group&gt;"><g id="_Group_16" data-name="&lt;Group&gt;"><path id="_Path_4" data-name="&lt;Path&gt;" class="cls-2" d="M196.5,59.38A5,5,0,1,0,191.82,54,5,5,0,0,0,196.5,59.38Z"/></g></g><g id="_Group_17" data-name="&lt;Group&gt;"><g id="_Group_18" data-name="&lt;Group&gt;"><path id="_Path_5" data-name="&lt;Path&gt;" class="cls-2" d="M120.26,63.59a5,5,0,1,0-4.68-5.39A5,5,0,0,0,120.26,63.59Z"/></g></g></g><path class="cls-3" d="M305.35,246.19a3.87,3.87,0,0,0-4-3.74h-.77c-24.5,0-39.23-8.8-44.43-12.59a4.07,4.07,0,0,0-5.35,0c-5.2,3.79-19.93,12.59-44.43,12.59h-.8a3.93,3.93,0,0,0-3.92,3.74c-.14,2.92-2.81,71.91,49.34,103.66l.43.26a3.93,3.93,0,0,0,4.11,0l.42-.26C308.16,318.11,305.49,249.12,305.35,246.19Zm-51.82,70.6h0V237.57h0Zm-44-66.52c1.21,0,2.39-.1,3.56-.17C211.92,250.18,210.73,250.24,209.54,250.27Zm44,72v19.85h0V322.29ZM294,250.09c1.16.07,2.34.14,3.55.17C296.33,250.24,295.14,250.18,294,250.09Zm-40.44-12.53h0Zm0,104.57h0Z"/><path class="cls-4" d="M253.53,350.7a3.92,3.92,0,0,1-2.05-.58l-.43-.26c-52.15-31.74-49.48-100.73-49.34-103.66a3.93,3.93,0,0,1,3.92-3.74h.8c24.5,0,39.23-8.81,44.43-12.59a4.07,4.07,0,0,1,5.35,0c5.2,3.79,19.93,12.59,44.43,12.59h.77a3.87,3.87,0,0,1,4,3.74c.14,2.92,2.81,71.91-49.35,103.66l-.42.26A3.94,3.94,0,0,1,253.53,350.7Zm-44-100.43c.24,14.28,4,66.2,44,91.87,40-25.68,43.75-77.59,44-91.87-22.5-.65-37.21-8.23-44-12.7C246.74,242,232,249.62,209.53,250.27Z"/><path class="cls-4" d="M250.73,323.46a3.92,3.92,0,0,1-2.76-1.13c-10.33-10.18-18-23.47-22.72-39.48a3.93,3.93,0,0,1,7.53-2.23c4.36,14.72,11.33,26.87,20.71,36.12a3.93,3.93,0,0,1-2.76,6.73Z"/></svg>