<svg id="Capa_1" data-name="Capa 1" xmlns="http://www.w3.org/2000/svg" viewBox="0 0 400 400"><defs><style>.cls-1{fill:#ff9800;}.cls-2{fill:#00a3dd;}</style></defs><title>seguridad</title><g id="_Group_" data-name="&lt;Group&gt;"><g id="_Group_2" data-name="&lt;Group&gt;"><path id="_Path_" data-name="&lt;Path&gt;" class="cls-1" d="M151.9,139.44l24.8,14.32a5.93,5.93,0,1,0,5.93-10.27l-24.8-14.32a5.93,5.93,0,1,0-5.93,10.27Z"/></g></g><g id="_Group_3" data-name="&lt;Group&gt;"><g id="_Group_4" data-name="&lt;Group&gt;"><path id="_Path_2" data-name="&lt;Path&gt;" class="cls-1" d="M191.65,162.39l.24.14a5.93,5.93,0,1,0,5.91-10.29l-.24-.14a5.93,5.93,0,1,0-5.91,10.29Z"/></g></g><g id="_Group_5" data-name="&lt;Group&gt;"><g id="_Group_6" data-name="&lt;Group&gt;"><path id="_Path_3" data-name="&lt;Path&gt;" class="cls-1" d="M163.76,118.89l24.8,14.32a5.93,5.93,0,0,0,5.93-10.27l-24.8-14.32a5.93,5.93,0,0,0-5.93,10.27Z"/></g></g><path class="cls-2" d="M58.76,164.41v166.1a5.93,5.93,0,0,0,5.93,5.93H76.55a17.82,17.82,0,0,0,17.8-17.8V265.25H137.6a29.65,29.65,0,0,0,51-29.45l9.26-16,75.87,43.8a5.93,5.93,0,0,0,8.1-2.17l8.9-15.41,15.41,8.9a5.93,5.93,0,0,0,8.1-2.17L338,211.64a5.93,5.93,0,0,0-2.17-8.1l-8.15-4.71,18.55-5h0a5.77,5.77,0,0,0,.63-.21l.21-.09.42-.2.23-.13.4-.26.18-.12a6.25,6.25,0,0,0,.49-.43l.18-.19.31-.35.16-.2a5.91,5.91,0,0,0,.36-.54l0,0v0l11.85-20.53a5.93,5.93,0,0,0-2.17-8.1L195.11,67.52A29.71,29.71,0,0,0,154.6,78.37L119,140a5.93,5.93,0,0,0,2.17,8.1l15.41,8.9-8.9,15.41a5.93,5.93,0,0,0,2.17,8.1L167,202l-9.26,16a29.66,29.66,0,0,0-20.16,11.64H94.35V176.27a17.82,17.82,0,0,0-17.8-17.8H64.69A5.93,5.93,0,0,0,58.76,164.41Zm252,26.66h0l-62.45,16.73L147.66,149.72h0l-15.4-8.89L164.87,84.3a17.9,17.9,0,0,1,15.48-8.88,17.68,17.68,0,0,1,8.83,2.36l159.26,91.95L342.51,180l-19.67-11.36a5.93,5.93,0,0,0-5.93,10.27l12.4,7.16Zm-14.1,44.66,17.79-30.82,10.28,5.93-17.8,30.82Zm-155.71-62.5L146.86,163l97.61,56.35a6.1,6.1,0,0,0,.63.31l.19.08.49.17.2.06a6,6,0,0,0,.68.13h0a5.75,5.75,0,0,0,.69,0h.2l.51,0,.21,0a5.56,5.56,0,0,0,.69-.14l51-13.66-8.21,14.23-8.35,14.47h0l-8.9,15.41Zm40,52a29.67,29.67,0,0,0-10.27-5.94l6.59-11.41,10.27,5.93Zm-37.45,22.18c0-.36,0-.71,0-1.07,0-.1,0-.19,0-.29,0-.27,0-.54.08-.8l0-.29c0-.31.09-.62.15-.92l0-.13c.07-.35.15-.7.24-1l.07-.26c.07-.24.14-.49.22-.73l.13-.39c.07-.19.14-.38.21-.57s.11-.29.17-.43.2-.45.3-.67.23-.48.36-.72l.14-.26a17.79,17.79,0,1,1,0,17.1l-.09-.17a17.57,17.57,0,0,1-.88-1.93c-.06-.17-.13-.33-.19-.5l-.14-.43q-.11-.34-.21-.68c0-.1-.06-.2-.08-.3q-.13-.51-.24-1l0-.15q-.09-.45-.15-.9l0-.3c0-.27-.06-.53-.08-.8,0-.1,0-.2,0-.3C143.53,248.17,143.51,247.82,143.51,247.46Zm-49.16-5.93h37.9a29.69,29.69,0,0,0-.56,4.43q0,.75,0,1.5t0,1.5a29.54,29.54,0,0,0,.56,4.43H94.35ZM70.62,170.34h5.93a5.94,5.94,0,0,1,5.93,5.93V318.64a5.94,5.94,0,0,1-5.93,5.93H70.62Z"/><g id="_Group_7" data-name="&lt;Group&gt;"><g id="_Group_8" data-name="&lt;Group&gt;"><path id="_Path_4" data-name="&lt;Path&gt;" class="cls-1" d="M300,170.17l.24.14A5.93,5.93,0,0,0,306.21,160l-.24-.14A5.93,5.93,0,1,0,300,170.17Z"/></g></g><g id="_Group_9" data-name="&lt;Group&gt;"><g id="_Group_10" data-name="&lt;Group&gt;"><path id="_Path_5" data-name="&lt;Path&gt;" class="cls-1" d="M153,250.46l7.4,4.27a5.93,5.93,0,1,0,5.93-10.27l-7.4-4.27A5.93,5.93,0,1,0,153,250.46Z"/></g></g></svg>