<svg id="Capa_1" data-name="Capa 1" xmlns="http://www.w3.org/2000/svg" viewBox="0 0 400 400"><defs><style>.cls-1{fill:#00a3dd;}.cls-2{fill:#ff9800;}.cls-3{fill:none;stroke:#ff9800;stroke-miterlimit:10;stroke-width:4px;}</style></defs><title>serviciosweb</title><path id="_Compound_Path_" data-name="&lt;Compound Path&gt;" class="cls-1" d="M325.15,115.12H74.85a24.07,24.07,0,0,0-24.07,24.07V302.84a24.07,24.07,0,0,0,24.07,24.07h77a4.81,4.81,0,0,1,4.81,4.81v14.44a4.81,4.81,0,0,1-4.81,4.81H127.8a4.81,4.81,0,0,0-4.81,4.81h0a4.81,4.81,0,0,0,4.81,4.81H272.2a4.81,4.81,0,0,0,4.81-4.81h0A4.81,4.81,0,0,0,272.2,351H248.13a4.81,4.81,0,0,1-4.81-4.81V331.72a4.81,4.81,0,0,1,4.81-4.81h77a24.07,24.07,0,0,0,24.07-24.07V139.19A24.07,24.07,0,0,0,325.15,115.12ZM228.88,351H171.12a4.81,4.81,0,0,1-4.81-4.81V331.72a4.81,4.81,0,0,1,4.81-4.81h57.76a4.81,4.81,0,0,1,4.81,4.81v14.44A4.81,4.81,0,0,1,228.88,351Zm110.71-48.13a14.44,14.44,0,0,1-14.44,14.44H74.85a14.44,14.44,0,0,1-14.44-14.44V139.19a14.44,14.44,0,0,1,14.44-14.44h250.3a14.44,14.44,0,0,1,14.44,14.44Z"/><path id="_Compound_Path_2" data-name="&lt;Compound Path&gt;" class="cls-1" d="M79.39,307.66H320.61a9.35,9.35,0,0,0,9.35-9.35V143.72a9.35,9.35,0,0,0-9.35-9.35H79.39A9.35,9.35,0,0,0,70,143.72V298.31A9.35,9.35,0,0,0,79.39,307.66ZM89,144H311a9.35,9.35,0,0,1,9.35,9.35V288.68A9.35,9.35,0,0,1,311,298H89a9.35,9.35,0,0,1-9.35-9.35V153.35A9.35,9.35,0,0,1,89,144Z"/><circle id="_Path_" data-name="&lt;Path&gt;" class="cls-2" cx="97.55" cy="161.18" r="2.97"/><circle id="_Path_2" data-name="&lt;Path&gt;" class="cls-2" cx="108.04" cy="161.18" r="2.97"/><circle id="_Path_3" data-name="&lt;Path&gt;" class="cls-2" cx="119.32" cy="161.18" r="2.97"/><g id="_Group_" data-name="&lt;Group&gt;"><path id="_Compound_Path_3" data-name="&lt;Compound Path&gt;" class="cls-1" d="M120.17,223.09l-4.49-16.65-4.55,16.65q-.53,1.89-.84,2.72a3.61,3.61,0,0,1-1.09,1.48,3.1,3.1,0,0,1-2.07.65,3.39,3.39,0,0,1-1.71-.39,3,3,0,0,1-1.09-1.1,6.88,6.88,0,0,1-.68-1.69q-.27-1-.47-1.81l-4.62-18.7a10.93,10.93,0,0,1-.42-2.48,2.44,2.44,0,0,1,.76-1.82,2.58,2.58,0,0,1,1.88-.74,2.13,2.13,0,0,1,2.07,1,11.13,11.13,0,0,1,.93,2.86l3.64,16.22,4.07-15.17a24.31,24.31,0,0,1,.81-2.65,3.82,3.82,0,0,1,1.17-1.57,3.41,3.41,0,0,1,2.22-.66,3.23,3.23,0,0,1,2.21.69,3.78,3.78,0,0,1,1.09,1.51q.3.81.81,2.69l4.11,15.17,3.64-16.22a19.29,19.29,0,0,1,.5-2,3.19,3.19,0,0,1,.81-1.29,2.29,2.29,0,0,1,1.68-.57,2.61,2.61,0,0,1,1.87.73,2.42,2.42,0,0,1,.77,1.83,11.85,11.85,0,0,1-.42,2.48L128.12,223q-.47,1.89-.79,2.78a3.69,3.69,0,0,1-1.06,1.54,3.08,3.08,0,0,1-2.11.66,3.13,3.13,0,0,1-2.07-.64,3.48,3.48,0,0,1-1.08-1.45Q120.72,225,120.17,223.09Z"/><path id="_Compound_Path_4" data-name="&lt;Compound Path&gt;" class="cls-1" d="M156.56,223.09l-4.49-16.65-4.55,16.65q-.53,1.89-.84,2.72a3.61,3.61,0,0,1-1.09,1.48,3.1,3.1,0,0,1-2.07.65,3.39,3.39,0,0,1-1.71-.39,3,3,0,0,1-1.09-1.1,6.88,6.88,0,0,1-.68-1.69q-.27-1-.47-1.81l-4.62-18.7a10.93,10.93,0,0,1-.42-2.48,2.44,2.44,0,0,1,.76-1.82,2.58,2.58,0,0,1,1.88-.74,2.13,2.13,0,0,1,2.07,1,11.13,11.13,0,0,1,.93,2.86l3.64,16.22,4.07-15.17a24.31,24.31,0,0,1,.81-2.65,3.82,3.82,0,0,1,1.17-1.57,3.41,3.41,0,0,1,2.22-.66,3.23,3.23,0,0,1,2.21.69,3.78,3.78,0,0,1,1.09,1.51q.3.81.81,2.69l4.11,15.17,3.64-16.22a19.29,19.29,0,0,1,.5-2,3.19,3.19,0,0,1,.81-1.29,2.29,2.29,0,0,1,1.68-.57,2.61,2.61,0,0,1,1.87.73,2.42,2.42,0,0,1,.77,1.83,11.85,11.85,0,0,1-.42,2.48L164.52,223q-.47,1.89-.79,2.78a3.69,3.69,0,0,1-1.06,1.54,3.08,3.08,0,0,1-2.11.66,3.13,3.13,0,0,1-2.07-.64,3.48,3.48,0,0,1-1.08-1.45Q157.11,225,156.56,223.09Z"/><path id="_Compound_Path_5" data-name="&lt;Compound Path&gt;" class="cls-1" d="M193,223.09l-4.49-16.65-4.55,16.65q-.53,1.89-.84,2.72a3.61,3.61,0,0,1-1.09,1.48,3.1,3.1,0,0,1-2.07.65,3.39,3.39,0,0,1-1.71-.39,3,3,0,0,1-1.09-1.1,6.88,6.88,0,0,1-.68-1.69q-.27-1-.47-1.81l-4.62-18.7a10.93,10.93,0,0,1-.42-2.48,2.44,2.44,0,0,1,.76-1.82,2.58,2.58,0,0,1,1.88-.74,2.13,2.13,0,0,1,2.07,1,11.13,11.13,0,0,1,.93,2.86l3.64,16.22,4.07-15.17a24.31,24.31,0,0,1,.81-2.65,3.82,3.82,0,0,1,1.17-1.57,3.41,3.41,0,0,1,2.22-.66,3.23,3.23,0,0,1,2.21.69,3.78,3.78,0,0,1,1.09,1.51q.3.81.81,2.69l4.11,15.17,3.64-16.22a19.46,19.46,0,0,1,.5-2,3.19,3.19,0,0,1,.82-1.29,2.29,2.29,0,0,1,1.68-.57,2.61,2.61,0,0,1,1.87.73,2.42,2.42,0,0,1,.77,1.83,11.83,11.83,0,0,1-.42,2.48L200.91,223q-.47,1.89-.79,2.78a3.69,3.69,0,0,1-1.06,1.54,3.08,3.08,0,0,1-2.11.66,3.13,3.13,0,0,1-2.07-.64,3.48,3.48,0,0,1-1.08-1.45Q193.5,225,193,223.09Z"/></g><rect id="_Rectangle_" data-name="&lt;Rectangle&gt;" class="cls-3" x="248.13" y="181.42" width="62.57" height="45.99" rx="1.32" ry="1.32"/><rect id="_Rectangle_2" data-name="&lt;Rectangle&gt;" class="cls-2" x="155.91" y="158.21" width="154.8" height="4.26" rx="0.45" ry="0.45"/><rect id="_Rectangle_3" data-name="&lt;Rectangle&gt;" class="cls-2" x="90.12" y="245.13" width="131.57" height="4.66" rx="0.44" ry="0.44"/><rect id="_Rectangle_4" data-name="&lt;Rectangle&gt;" class="cls-2" x="248.13" y="248.19" width="62.57" height="4.66" rx="0.48" ry="0.48"/><rect id="_Rectangle_5" data-name="&lt;Rectangle&gt;" class="cls-2" x="248.13" y="262.25" width="62.57" height="4.66" rx="0.48" ry="0.48"/><rect id="_Rectangle_6" data-name="&lt;Rectangle&gt;" class="cls-2" x="248.13" y="276.44" width="62.57" height="4.66" rx="0.48" ry="0.48"/><rect id="_Rectangle_7" data-name="&lt;Rectangle&gt;" class="cls-2" x="94.59" y="262.25" width="131.57" height="4.66" rx="0.44" ry="0.44"/><rect id="_Rectangle_8" data-name="&lt;Rectangle&gt;" class="cls-2" x="94.59" y="276.44" width="131.57" height="4.66" rx="0.44" ry="0.44"/><g id="_Group_2" data-name="&lt;Group&gt;"><g id="_Group_3" data-name="&lt;Group&gt;"><g id="_Group_4" data-name="&lt;Group&gt;"><path id="_Path_4" data-name="&lt;Path&gt;" class="cls-2" d="M146.33,66.75l-2.42-.17.17-2.42a2.42,2.42,0,0,0-4.84-.34l-.17,2.42-2.42-.17a2.42,2.42,0,0,0-.34,4.84l2.42.17-.17,2.42a2.42,2.42,0,0,0,4.84.34l.17-2.42,2.42.17a2.42,2.42,0,0,0,.34-4.84Z"/></g></g><g id="_Group_5" data-name="&lt;Group&gt;"><g id="_Group_6" data-name="&lt;Group&gt;"><path id="_Path_5" data-name="&lt;Path&gt;" class="cls-2" d="M241.18,44.62l-2.42-.17.17-2.42a2.42,2.42,0,0,0-4.84-.34l-.17,2.42-2.42-.17a2.42,2.42,0,0,0-.34,4.84l2.42.17-.17,2.42a2.42,2.42,0,0,0,4.84.34l.17-2.42,2.42.17a2.42,2.42,0,0,0,.34-4.84Z"/></g></g><g id="_Group_7" data-name="&lt;Group&gt;"><g id="_Group_8" data-name="&lt;Group&gt;"><path id="_Path_6" data-name="&lt;Path&gt;" class="cls-2" d="M187.39,39.4a3.84,3.84,0,1,0,3.56,4.1A3.84,3.84,0,0,0,187.39,39.4Z"/></g></g><g id="_Group_9" data-name="&lt;Group&gt;"><g id="_Group_10" data-name="&lt;Group&gt;"><path id="_Path_7" data-name="&lt;Path&gt;" class="cls-2" d="M201,76.48a3.84,3.84,0,1,0,3.56,4.1A3.84,3.84,0,0,0,201,76.48Z"/></g></g><g id="_Group_11" data-name="&lt;Group&gt;"><g id="_Group_12" data-name="&lt;Group&gt;"><path id="_Path_8" data-name="&lt;Path&gt;" class="cls-2" d="M259,73.29a3.84,3.84,0,1,0,3.56,4.1A3.84,3.84,0,0,0,259,73.29Z"/></g></g></g></svg>