<svg id="Capa_1" data-name="Capa 1" xmlns="http://www.w3.org/2000/svg" viewBox="0 0 400 400"><defs><style>.cls-1{fill:#ff9800;}.cls-2{fill:#00a3dd;}</style></defs><title>solicituddeinformes</title><g id="_Group_" data-name="&lt;Group&gt;"><g id="_Group_2" data-name="&lt;Group&gt;"><g id="_Group_3" data-name="&lt;Group&gt;"><path id="_Compound_Path_" data-name="&lt;Compound Path&gt;" class="cls-1" d="M65.17,65.7v98.78A9.55,9.55,0,0,0,74.72,174H179.9a9.55,9.55,0,0,1,4.27,1l11.55,5.78a9.55,9.55,0,0,0,8.54,0L215.82,175a9.55,9.55,0,0,1,4.27-1H325.28a9.55,9.55,0,0,0,9.55-9.55V65.7a9.55,9.55,0,0,0-9.55-9.55H74.72A9.55,9.55,0,0,0,65.17,65.7ZM317,165.76H218.14a9.55,9.55,0,0,0-4.27,1l-9.6,4.8a9.55,9.55,0,0,1-8.55,0l-9.6-4.8a9.55,9.55,0,0,0-4.27-1H83a9.55,9.55,0,0,1-9.55-9.55V74A9.55,9.55,0,0,1,83,64.42H317A9.55,9.55,0,0,1,326.56,74v82.24A9.55,9.55,0,0,1,317,165.76Z"/></g></g><g id="_Group_4" data-name="&lt;Group&gt;"><g id="_Group_5" data-name="&lt;Group&gt;"><g id="_Group_6" data-name="&lt;Group&gt;"><path id="_Compound_Path_2" data-name="&lt;Compound Path&gt;" class="cls-1" d="M103.19,98.15H145a4.3,4.3,0,0,0,4.3-4.3V77.3A4.3,4.3,0,0,0,145,73H103.19a4.3,4.3,0,0,0-4.3,4.3V93.85A4.3,4.3,0,0,0,103.19,98.15Zm8.27-16.86h25.3a4.3,4.3,0,0,1,4.3,4.3h0a4.3,4.3,0,0,1-4.3,4.3h-25.3a4.3,4.3,0,0,1-4.3-4.3h0A4.3,4.3,0,0,1,111.46,81.28Z"/></g></g><g id="_Group_7" data-name="&lt;Group&gt;"><g id="_Group_8" data-name="&lt;Group&gt;"><path id="_Compound_Path_3" data-name="&lt;Compound Path&gt;" class="cls-1" d="M98.89,106.82v16.55a4.3,4.3,0,0,0,4.3,4.3h67.14a4.3,4.3,0,0,0,4.3-4.3V106.82a4.3,4.3,0,0,0-4.3-4.3H103.19A4.3,4.3,0,0,0,98.89,106.82Zm63.16,12.57H111.46a4.3,4.3,0,0,1-4.3-4.3h0a4.3,4.3,0,0,1,4.3-4.3h50.59a4.3,4.3,0,0,1,4.3,4.3h0A4.3,4.3,0,0,1,162.06,119.38Z"/></g></g><g id="_Group_9" data-name="&lt;Group&gt;"><g id="_Group_10" data-name="&lt;Group&gt;"><path id="_Compound_Path_4" data-name="&lt;Compound Path&gt;" class="cls-1" d="M98.89,136.33v16.55a4.3,4.3,0,0,0,4.3,4.3h25a4.3,4.3,0,0,0,4.3-4.3V136.33a4.3,4.3,0,0,0-4.3-4.3h-25A4.3,4.3,0,0,0,98.89,136.33Zm21,12.57h-8.43a4.3,4.3,0,0,1-4.3-4.3h0a4.3,4.3,0,0,1,4.3-4.3h8.43a4.3,4.3,0,0,1,4.3,4.3h0A4.3,4.3,0,0,1,119.9,148.9Z"/></g></g><g id="_Group_11" data-name="&lt;Group&gt;"><g id="_Group_12" data-name="&lt;Group&gt;"><path id="_Compound_Path_5" data-name="&lt;Compound Path&gt;" class="cls-1" d="M294.47,149.05l-8.58-8.57A39.94,39.94,0,0,0,229.43,84l-6.64-6.64H187.33v8.27h32L224,90.29a39.94,39.94,0,0,0,55.56,55.58L291,157.32h27v-8.27H294.47ZM230,96.27l9.22,9.23,5.85-5.85-9.79-9.8a31.58,31.58,0,0,1,18.78-8.43V111H225.28A31.48,31.48,0,0,1,230,96.27ZM270.37,125l-5.85,5.85,9.09,9.09a31.68,31.68,0,0,1-47.77-20.64h36.49V81.75A31.67,31.67,0,0,1,280,134.63Z"/></g></g><g id="_Group_13" data-name="&lt;Group&gt;"><g id="_Group_14" data-name="&lt;Group&gt;"><rect id="_Path_" data-name="&lt;Path&gt;" class="cls-1" x="301.49" y="136.37" width="16.55" height="8.27" rx="4.14" ry="4.14"/></g></g><g id="_Group_15" data-name="&lt;Group&gt;"><g id="_Group_16" data-name="&lt;Group&gt;"><rect id="_Path_2" data-name="&lt;Path&gt;" class="cls-1" x="309.76" y="124.23" width="8.27" height="8.27" rx="4.14" ry="4.14"/></g></g><g id="_Group_17" data-name="&lt;Group&gt;"><g id="_Group_18" data-name="&lt;Group&gt;"><rect id="_Path_3" data-name="&lt;Path&gt;" class="cls-1" x="187.33" y="90.04" width="21.51" height="8.27" rx="4.14" ry="4.14"/></g></g><g id="_Group_19" data-name="&lt;Group&gt;"><g id="_Group_20" data-name="&lt;Group&gt;"><rect id="_Path_4" data-name="&lt;Path&gt;" class="cls-1" x="187.33" y="102.17" width="8.82" height="8.27" rx="4.14" ry="4.14"/></g></g></g></g><g id="_Group_21" data-name="&lt;Group&gt;"><g id="_Group_22" data-name="&lt;Group&gt;"><g id="_Group_23" data-name="&lt;Group&gt;"><path id="_Compound_Path_6" data-name="&lt;Compound Path&gt;" class="cls-2" d="M220.86,209.1h-66.7a4.67,4.67,0,0,0-4.67,4.67V339.18a4.67,4.67,0,0,0,4.67,4.67h91.68a4.67,4.67,0,0,0,4.67-4.67V238.76a4.67,4.67,0,0,0-1.37-3.3l-25-25A4.67,4.67,0,0,0,220.86,209.1Zm11.95,21.71h0a4.67,4.67,0,0,1-3.3,8h0a4.67,4.67,0,0,1-4.67-4.67h0A4.67,4.67,0,0,1,232.81,230.82Zm4.76,104.77H162.43a4.67,4.67,0,0,1-4.67-4.67V222a4.67,4.67,0,0,1,4.67-4.67h49.45a4.67,4.67,0,0,1,4.67,4.67v20.34a4.67,4.67,0,0,0,4.67,4.67h16.34a4.67,4.67,0,0,1,4.67,4.67v79.17A4.67,4.67,0,0,1,237.57,335.58Z"/></g></g><g id="_Group_24" data-name="&lt;Group&gt;"><g id="_Group_25" data-name="&lt;Group&gt;"><rect id="_Path_5" data-name="&lt;Path&gt;" class="cls-2" x="170.78" y="230.52" width="38.05" height="8.27" rx="4.14" ry="4.14"/></g></g><g id="_Group_26" data-name="&lt;Group&gt;"><g id="_Group_27" data-name="&lt;Group&gt;"><rect id="_Path_6" data-name="&lt;Path&gt;" class="cls-2" x="170.78" y="247.07" width="41.91" height="8.27" rx="4.14" ry="4.14"/></g></g><g id="_Group_28" data-name="&lt;Group&gt;"><g id="_Group_29" data-name="&lt;Group&gt;"><rect id="_Path_7" data-name="&lt;Path&gt;" class="cls-2" x="170.78" y="263.61" width="58.46" height="8.27" rx="4.14" ry="4.14"/></g></g><g id="_Group_30" data-name="&lt;Group&gt;"><g id="_Group_31" data-name="&lt;Group&gt;"><rect id="_Path_8" data-name="&lt;Path&gt;" class="cls-2" x="170.78" y="281.26" width="58.46" height="8.27" rx="4.14" ry="4.14"/></g></g><g id="_Group_32" data-name="&lt;Group&gt;"><g id="_Group_33" data-name="&lt;Group&gt;"><rect id="_Path_9" data-name="&lt;Path&gt;" class="cls-2" x="170.78" y="297.81" width="58.46" height="8.27" rx="4.14" ry="4.14"/></g></g><g id="_Group_34" data-name="&lt;Group&gt;"><g id="_Group_35" data-name="&lt;Group&gt;"><rect id="_Path_10" data-name="&lt;Path&gt;" class="cls-2" x="170.78" y="314.9" width="58.46" height="8.27" rx="4.14" ry="4.14"/></g></g></g><g id="_Group_36" data-name="&lt;Group&gt;"><g id="_Group_37" data-name="&lt;Group&gt;"><g id="_Group_38" data-name="&lt;Group&gt;"><path id="_Path_11" data-name="&lt;Path&gt;" class="cls-1" d="M268.23,199.22a4,4,0,0,0-5.66-.22l-11.09,10.25a4,4,0,1,0,5.44,5.89L268,204.88A4,4,0,0,0,268.23,199.22Z"/></g></g><g id="_Group_39" data-name="&lt;Group&gt;"><g id="_Group_40" data-name="&lt;Group&gt;"><path id="_Path_12" data-name="&lt;Path&gt;" class="cls-1" d="M244.83,206.91l.6-15.09a4,4,0,1,0-8-.32l-.6,15.09a4,4,0,0,0,8,.32Z"/></g></g><g id="_Group_41" data-name="&lt;Group&gt;"><g id="_Group_42" data-name="&lt;Group&gt;"><path id="_Path_13" data-name="&lt;Path&gt;" class="cls-1" d="M277.64,226.7a4,4,0,0,0-3.85-4.16l-15.09-.6a4,4,0,1,0-.32,8l15.09.6A4,4,0,0,0,277.64,226.7Z"/></g></g></g></svg>