<svg id="Capa_1" data-name="Capa 1" xmlns="http://www.w3.org/2000/svg" viewBox="0 0 400 400"><defs><style>.cls-1{fill:#00a3dd;}.cls-2{fill:#ff9800;}</style></defs><title>tarjetasdecredito</title><g id="_Group_" data-name="&lt;Group&gt;"><path id="_Compound_Path_" data-name="&lt;Compound Path&gt;" class="cls-1" d="M340.72,174.54H310.24l-15.41-60.43a14.23,14.23,0,0,0-17.28-10.26l-35.13,9a4.43,4.43,0,1,0,2.19,8.58l35.13-9a5.36,5.36,0,0,1,6.51,3.87L288,123,55.8,182.19l-1.71-6.69A5.35,5.35,0,0,1,58,169l159.69-40.72a4.43,4.43,0,1,0-2.19-8.58L55.77,160.4a14.23,14.23,0,0,0-10.26,17.28L78.25,306.1a14.2,14.2,0,0,0,17.28,10.26l2.1-.53v5.45a14.23,14.23,0,0,0,14.21,14.21H340.72a14.23,14.23,0,0,0,14.21-14.21V188.75A14.23,14.23,0,0,0,340.72,174.54ZM97.63,306.69l-4.28,1.09a5.36,5.36,0,0,1-6.51-3.87l-20-78.61,30.84-7.86Zm0-117.94v19.56l-33,8.42-6.62-26,42.78-10.91A14.14,14.14,0,0,0,97.63,188.75ZM301.1,174.54h-35.2l33-8.43Zm-11-43,6.62,26-66.7,17H121.65Zm50.58,195.06H111.84a5.36,5.36,0,0,1-5.36-5.35V188.75a5.36,5.36,0,0,1,5.36-5.35H340.72a5.36,5.36,0,0,1,5.35,5.35V321.28h0A5.36,5.36,0,0,1,340.72,326.63Z"/></g><g id="_Group_2" data-name="&lt;Group&gt;"><g id="_Group_3" data-name="&lt;Group&gt;"><path id="_Path_" data-name="&lt;Path&gt;" class="cls-2" d="M221.39,283.54H124.91a4.43,4.43,0,0,0,0,8.86h96.48a4.43,4.43,0,1,0,0-8.86Z"/></g></g><g id="_Group_4" data-name="&lt;Group&gt;"><g id="_Group_5" data-name="&lt;Group&gt;"><path id="_Compound_Path_2" data-name="&lt;Compound Path&gt;" class="cls-2" d="M295.17,205.68a29,29,0,0,0-17,5.52,29.15,29.15,0,1,0,0,47.25,29.14,29.14,0,1,0,17-52.78Zm-29.11,30.53c0,.11,0,.23,0,.34q0,.56.08,1.11l0,.26a28.73,28.73,0,0,0,5.51,14.2,20.29,20.29,0,1,1,0-34.57,28.74,28.74,0,0,0-5.51,14.2l0,.26q-.05.55-.08,1.11c0,.11,0,.23,0,.34,0,.46,0,.92,0,1.38S266,235.75,266.06,236.21Zm29.11,18.91a20.22,20.22,0,0,1-14.23-5.85l-.22-.23-.5-.52-.13-.15c-.19-.21-.38-.43-.56-.65h0a20.26,20.26,0,0,1,0-25.8h0c.18-.22.37-.44.56-.65l.13-.15.5-.52.22-.22a20.29,20.29,0,1,1,14.23,34.74Z"/></g></g><g id="_Group_6" data-name="&lt;Group&gt;"><g id="_Group_7" data-name="&lt;Group&gt;"><path id="_Compound_Path_3" data-name="&lt;Compound Path&gt;" class="cls-2" d="M156.47,208.56H137a16.58,16.58,0,0,0-16.56,16.56v19.42A16.58,16.58,0,0,0,137,261.1h19.42A16.58,16.58,0,0,0,173,244.54V225.12A16.58,16.58,0,0,0,156.47,208.56Zm7.7,28.65h-9.45a4.43,4.43,0,0,0,0,8.86H164a7.72,7.72,0,0,1-7.55,6.18H137a7.72,7.72,0,0,1-7.55-6.18h9.29a4.43,4.43,0,0,0,0-8.86h-9.45v-3.84h9.45a4.43,4.43,0,0,0,0-8.86h-9.42a7.71,7.71,0,0,1,7.68-7.1h19.42a7.71,7.71,0,0,1,7.68,7.1h-9.42a4.43,4.43,0,0,0,0,8.86h9.45Z"/></g></g><g id="_Group_8" data-name="&lt;Group&gt;"><g id="_Group_9" data-name="&lt;Group&gt;"><path id="_Path_2" data-name="&lt;Path&gt;" class="cls-2" d="M325.35,303H171.18a4.43,4.43,0,0,0,0,8.86H325.35a4.43,4.43,0,1,0,0-8.86Z"/></g></g><g id="_Group_10" data-name="&lt;Group&gt;"><g id="_Group_11" data-name="&lt;Group&gt;"><path id="_Path_3" data-name="&lt;Path&gt;" class="cls-2" d="M143,303h-18a4.43,4.43,0,0,0,0,8.86h18a4.43,4.43,0,0,0,0-8.86Z"/></g></g><g id="_Group_12" data-name="&lt;Group&gt;"><g id="_Group_13" data-name="&lt;Group&gt;"><path id="_Path_4" data-name="&lt;Path&gt;" class="cls-2" d="M301.81,64.73a4.54,4.54,0,0,0-5.71,2.93l-5.23,16.28a4.54,4.54,0,1,0,8.64,2.78l5.23-16.28A4.54,4.54,0,0,0,301.81,64.73Z"/></g></g><g id="_Group_14" data-name="&lt;Group&gt;"><g id="_Group_15" data-name="&lt;Group&gt;"><path id="_Path_5" data-name="&lt;Path&gt;" class="cls-2" d="M283,85.35l-7.81-15.21a4.54,4.54,0,1,0-8.07,4.15l7.81,15.21A4.54,4.54,0,0,0,283,85.35Z"/></g></g><g id="_Group_16" data-name="&lt;Group&gt;"><g id="_Group_17" data-name="&lt;Group&gt;"><path id="_Path_6" data-name="&lt;Path&gt;" class="cls-2" d="M326.4,86.59a4.54,4.54,0,0,0-6.11-2l-15.21,7.81a4.54,4.54,0,1,0,4.15,8.07l15.21-7.81A4.54,4.54,0,0,0,326.4,86.59Z"/></g></g></svg>