<svg id="Capa_1" data-name="Capa 1" xmlns="http://www.w3.org/2000/svg" viewBox="0 0 400 400"><defs><style>.cls-1{fill:#00a3dd;stroke:#00a3dd;stroke-miterlimit:10;stroke-width:3px;}.cls-2{fill:#ff9800;}</style></defs><title>telefonia</title><path id="_Compound_Path_" data-name="&lt;Compound Path&gt;" class="cls-1" d="M101.5,333.84h-.7a38.68,38.68,0,0,1-38.63-38.63V112A38.68,38.68,0,0,1,100.8,73.38h.7a38.69,38.69,0,0,1,35.24,22.81h132a38.14,38.14,0,0,1,38.09,38.09V270.6A40.47,40.47,0,0,1,266.38,311H136.74A38.69,38.69,0,0,1,101.5,333.84Zm-.7-252.45A30.66,30.66,0,0,0,70.18,112v183.2a30.66,30.66,0,0,0,30.62,30.62h.7a30.66,30.66,0,0,0,30.63-30.62V112A30.66,30.66,0,0,0,101.5,81.39ZM140.13,303H266.39A32.46,32.46,0,0,0,298.8,270.6V134.28a30.12,30.12,0,0,0-30.08-30.08H140.13Z"/><g id="_Group_" data-name="&lt;Group&gt;"><g id="_Group_2" data-name="&lt;Group&gt;"><path id="_Compound_Path_2" data-name="&lt;Compound Path&gt;" class="cls-2" d="M174.7,178.26a12.67,12.67,0,1,0,12.67,12.67A12.69,12.69,0,0,0,174.7,178.26Zm0,16.9a4.22,4.22,0,1,1,4.22-4.22A4.23,4.23,0,0,1,174.7,195.16Z"/></g></g><g id="_Group_3" data-name="&lt;Group&gt;"><g id="_Group_4" data-name="&lt;Group&gt;"><path id="_Compound_Path_3" data-name="&lt;Compound Path&gt;" class="cls-2" d="M219.47,178.26a12.67,12.67,0,1,0,12.67,12.67A12.69,12.69,0,0,0,219.47,178.26Zm0,16.9a4.22,4.22,0,1,1,4.22-4.22A4.23,4.23,0,0,1,219.47,195.16Z"/></g></g><g id="_Group_5" data-name="&lt;Group&gt;"><g id="_Group_6" data-name="&lt;Group&gt;"><path id="_Compound_Path_4" data-name="&lt;Compound Path&gt;" class="cls-2" d="M264.24,178.26a12.67,12.67,0,1,0,12.67,12.67A12.69,12.69,0,0,0,264.24,178.26Zm0,16.9a4.22,4.22,0,1,1,4.22-4.22A4.23,4.23,0,0,1,264.24,195.16Z"/></g></g><g id="_Group_7" data-name="&lt;Group&gt;"><g id="_Group_8" data-name="&lt;Group&gt;"><path id="_Compound_Path_5" data-name="&lt;Compound Path&gt;" class="cls-2" d="M174.7,212.05a12.67,12.67,0,1,0,12.67,12.67A12.69,12.69,0,0,0,174.7,212.05Zm0,16.9a4.22,4.22,0,1,1,4.22-4.23A4.23,4.23,0,0,1,174.7,228.95Z"/></g></g><g id="_Group_9" data-name="&lt;Group&gt;"><g id="_Group_10" data-name="&lt;Group&gt;"><path id="_Compound_Path_6" data-name="&lt;Compound Path&gt;" class="cls-2" d="M219.47,212.05a12.67,12.67,0,1,0,12.67,12.67A12.69,12.69,0,0,0,219.47,212.05Zm0,16.9a4.22,4.22,0,1,1,4.22-4.23A4.23,4.23,0,0,1,219.47,228.95Z"/></g></g><g id="_Group_11" data-name="&lt;Group&gt;"><g id="_Group_12" data-name="&lt;Group&gt;"><path id="_Compound_Path_7" data-name="&lt;Compound Path&gt;" class="cls-2" d="M264.24,212.05a12.67,12.67,0,1,0,12.67,12.67A12.69,12.69,0,0,0,264.24,212.05Zm0,16.9a4.22,4.22,0,1,1,4.22-4.23A4.23,4.23,0,0,1,264.24,228.95Z"/></g></g><g id="_Group_13" data-name="&lt;Group&gt;"><g id="_Group_14" data-name="&lt;Group&gt;"><path id="_Compound_Path_8" data-name="&lt;Compound Path&gt;" class="cls-2" d="M174.7,245.84a12.67,12.67,0,1,0,12.67,12.67A12.69,12.69,0,0,0,174.7,245.84Zm0,16.89a4.22,4.22,0,1,1,4.22-4.22A4.23,4.23,0,0,1,174.7,262.73Z"/></g></g><g id="_Group_15" data-name="&lt;Group&gt;"><g id="_Group_16" data-name="&lt;Group&gt;"><path id="_Compound_Path_9" data-name="&lt;Compound Path&gt;" class="cls-2" d="M219.47,245.84a12.67,12.67,0,1,0,12.67,12.67A12.68,12.68,0,0,0,219.47,245.84Zm0,16.89a4.22,4.22,0,1,1,4.22-4.22A4.23,4.23,0,0,1,219.47,262.73Z"/></g></g><g id="_Group_17" data-name="&lt;Group&gt;"><g id="_Group_18" data-name="&lt;Group&gt;"><path id="_Compound_Path_10" data-name="&lt;Compound Path&gt;" class="cls-2" d="M264.24,245.84a12.67,12.67,0,1,0,12.67,12.67A12.69,12.69,0,0,0,264.24,245.84Zm0,16.89a4.22,4.22,0,1,1,4.22-4.22A4.23,4.23,0,0,1,264.24,262.73Z"/></g></g><g id="_Group_19" data-name="&lt;Group&gt;"><path class="cls-2" d="M273.46,161H168.32a7.45,7.45,0,0,1-7.45-7.43v-22a7.45,7.45,0,0,1,7.45-7.43h93a19.56,19.56,0,0,1,19.58,19.51v9.89A7.45,7.45,0,0,1,273.46,161Zm-104.59-8h104v-9.32a11.56,11.56,0,0,0-11.58-11.51H168.88Z"/></g><g id="_Group_20" data-name="&lt;Group&gt;"><g id="_Group_21" data-name="&lt;Group&gt;"><path id="_Path_" data-name="&lt;Path&gt;" class="cls-2" d="M327.74,78.55a4.3,4.3,0,0,0-6.07-.24l-11.89,11a4.3,4.3,0,1,0,5.83,6.31l11.89-11A4.3,4.3,0,0,0,327.74,78.55Z"/></g></g><g id="_Group_22" data-name="&lt;Group&gt;"><g id="_Group_23" data-name="&lt;Group&gt;"><path id="_Path_2" data-name="&lt;Path&gt;" class="cls-2" d="M302.66,86.79l.64-16.17a4.3,4.3,0,1,0-8.58-.34l-.64,16.17a4.3,4.3,0,0,0,8.58.34Z"/></g></g><g id="_Group_24" data-name="&lt;Group&gt;"><g id="_Group_25" data-name="&lt;Group&gt;"><path id="_Path_3" data-name="&lt;Path&gt;" class="cls-2" d="M337.83,108a4.3,4.3,0,0,0-4.12-4.46l-16.17-.64a4.3,4.3,0,1,0-.34,8.58l16.17.64A4.3,4.3,0,0,0,337.83,108Z"/></g></g><g id="_Group_26" data-name="&lt;Group&gt;"><g id="_Group_27" data-name="&lt;Group&gt;"><path id="_Path_4" data-name="&lt;Path&gt;" class="cls-2" d="M90.42,279.19A4.79,4.79,0,0,0,85.63,284v16a4.79,4.79,0,0,0,9.58,0V284A4.79,4.79,0,0,0,90.42,279.19Z"/></g></g><g id="_Group_28" data-name="&lt;Group&gt;"><g id="_Group_29" data-name="&lt;Group&gt;"><path id="_Path_5" data-name="&lt;Path&gt;" class="cls-2" d="M90.42,265a4.79,4.79,0,0,0-4.79,4.79v.23a4.79,4.79,0,0,0,9.58,0v-.23A4.79,4.79,0,0,0,90.42,265Z"/></g></g></svg>