<svg id="Capa_1" data-name="Capa 1" xmlns="http://www.w3.org/2000/svg" viewBox="0 0 400 400"><defs><style>.cls-1{fill:#f89a62;}.cls-2{fill:#1da0db;}.cls-3{fill:#f89c5d;}</style></defs><title>tickets</title><g id="_Group_" data-name="&lt;Group&gt;"><g id="_Group_2" data-name="&lt;Group&gt;"><g id="_Group_3" data-name="&lt;Group&gt;"><g id="_Group_4" data-name="&lt;Group&gt;"><g id="_Group_5" data-name="&lt;Group&gt;"><path id="_Path_" data-name="&lt;Path&gt;" class="cls-1" d="M63.83,138.88l-1.16.77-.77-1.16A1.39,1.39,0,0,0,59.57,140l.77,1.16-1.16.77a1.35,1.35,0,0,0-.39,1.93c.39.39,1.55.77,1.93.39l1.16-.77.77,1.16A1.39,1.39,0,0,0,65,143.13L64.22,142l1.16-.77a1.35,1.35,0,0,0,.39-1.93C65.38,138.49,64.6,138.1,63.83,138.88Z"/></g></g><g id="_Group_6" data-name="&lt;Group&gt;"><g id="_Group_7" data-name="&lt;Group&gt;"><path id="_Path_2" data-name="&lt;Path&gt;" class="cls-1" d="M96.32,90.52l-1.16.77-.77-1.16a1.39,1.39,0,1,0-2.32,1.55l.77,1.16-1.16.77a1.39,1.39,0,0,0,1.55,2.32l1.16-.77.77,1.16a1.39,1.39,0,1,0,2.32-1.55l-.77-1.16,1.16-.77a1.35,1.35,0,0,0,.39-1.93C97.87,90.52,96.71,89.75,96.32,90.52Z"/></g></g><g id="_Group_8" data-name="&lt;Group&gt;"><g id="_Group_9" data-name="&lt;Group&gt;"><path id="_Path_3" data-name="&lt;Path&gt;" class="cls-1" d="M70.79,110.25a2,2,0,0,0-.39,3.09c.77.77,2.32,1.16,3.09.39a2,2,0,0,0,.39-3.09C73.11,109.86,71.57,109.09,70.79,110.25Z"/></g></g><g id="_Group_10" data-name="&lt;Group&gt;"><g id="_Group_11" data-name="&lt;Group&gt;"><path id="_Path_4" data-name="&lt;Path&gt;" class="cls-1" d="M91.68,120.7a2.21,2.21,0,1,0,3.09.39C94,119.92,92.84,119.92,91.68,120.7Z"/></g></g><g id="_Group_12" data-name="&lt;Group&gt;"><g id="_Group_13" data-name="&lt;Group&gt;"><path id="_Path_5" data-name="&lt;Path&gt;" class="cls-1" d="M115.67,95.55a2.21,2.21,0,1,0,3.09.39A2.34,2.34,0,0,0,115.67,95.55Z"/></g></g></g><g id="_Group_14" data-name="&lt;Group&gt;"><g id="_Group_15" data-name="&lt;Group&gt;"><g id="_Group_16" data-name="&lt;Group&gt;"><path id="_Path_6" data-name="&lt;Path&gt;" class="cls-1" d="M328.43,287.81l1.16-.77.77,1.16a1.47,1.47,0,1,0,2.71-1.16l-.77-1.16,1.16-.77a1.47,1.47,0,0,0-1.16-2.71l-1.16.77-.77-1.16a1.47,1.47,0,1,0-2.71,1.16l.77,1.16-1.16.77a1.47,1.47,0,1,0,1.16,2.71Z"/></g></g><g id="_Group_17" data-name="&lt;Group&gt;"><g id="_Group_18" data-name="&lt;Group&gt;"><path id="_Path_7" data-name="&lt;Path&gt;" class="cls-1" d="M298.65,328l1.16-.77.77,1.16a1.47,1.47,0,0,0,2.71-1.16l-.77-1.16,1.16-.77a1.47,1.47,0,0,0-1.16-2.71l-1.16.77-.77-1.16a1.47,1.47,0,0,0-2.71,1.16l.77,1.16-1.16.77a1.41,1.41,0,0,0-.77,1.93C297.1,328,297.87,328,298.65,328Z"/></g></g><g id="_Group_19" data-name="&lt;Group&gt;"><g id="_Group_20" data-name="&lt;Group&gt;"><path id="_Path_8" data-name="&lt;Path&gt;" class="cls-1" d="M324.56,316.83c1.16-.39,1.55-1.93,1.16-3.09s-1.93-1.55-3.09-1.16-1.55,1.93-1.16,3.09A2.14,2.14,0,0,0,324.56,316.83Z"/></g></g><g id="_Group_21" data-name="&lt;Group&gt;"><g id="_Group_22" data-name="&lt;Group&gt;"><path id="_Path_9" data-name="&lt;Path&gt;" class="cls-1" d="M306.77,301c1.16-.39,1.55-1.93,1.16-3.09s-1.93-1.55-3.09-1.16-1.55,1.93-1.16,3.09S305.61,301.35,306.77,301Z"/></g></g><g id="_Group_23" data-name="&lt;Group&gt;"><g id="_Group_24" data-name="&lt;Group&gt;"><path id="_Path_10" data-name="&lt;Path&gt;" class="cls-1" d="M275.44,315.67c1.16-.39,1.55-1.93,1.16-3.09s-1.93-1.55-3.09-1.16-1.55,1.93-1.16,3.09S274.27,316.05,275.44,315.67Z"/></g></g></g><g id="_Group_25" data-name="&lt;Group&gt;"><g id="_Group_26" data-name="&lt;Group&gt;"><g id="_Group_27" data-name="&lt;Group&gt;"><path id="_Compound_Path_" data-name="&lt;Compound Path&gt;" class="cls-2" d="M287.81,159.38H92.46A5.29,5.29,0,0,0,87,164.8V273.11a5.29,5.29,0,0,0,5.42,5.42H287.81a5.29,5.29,0,0,0,5.42-5.42V164.8C293.23,161.32,291.3,159.38,287.81,159.38ZM282.4,267.7H97.87V170.21h65v81.24a5.42,5.42,0,1,0,10.83,0V170.21H282l.39,97.49Z"/></g></g><g id="_Group_28" data-name="&lt;Group&gt;"><g id="_Group_29" data-name="&lt;Group&gt;"><path id="_Path_11" data-name="&lt;Path&gt;" class="cls-3" d="M266.15,212H190.33a5.42,5.42,0,0,0,0,10.83h75.82a5.29,5.29,0,0,0,5.42-5.42A5.07,5.07,0,0,0,266.15,212Z"/></g></g><g id="_Group_30" data-name="&lt;Group&gt;"><g id="_Group_31" data-name="&lt;Group&gt;"><path id="_Path_12" data-name="&lt;Path&gt;" class="cls-3" d="M266.15,190.33H190.33a5.42,5.42,0,0,0,0,10.83h75.82a5.29,5.29,0,0,0,5.42-5.42A5.07,5.07,0,0,0,266.15,190.33Z"/></g></g><g id="_Group_32" data-name="&lt;Group&gt;"><g id="_Group_33" data-name="&lt;Group&gt;"><path id="_Path_13" data-name="&lt;Path&gt;" class="cls-3" d="M239.07,233.66H190.33a5.42,5.42,0,0,0,0,10.83h48.74a5.29,5.29,0,0,0,5.42-5.42A5.07,5.07,0,0,0,239.07,233.66Z"/></g></g><g id="_Group_34" data-name="&lt;Group&gt;"><g id="_Group_35" data-name="&lt;Group&gt;"><path id="_Path_14" data-name="&lt;Path&gt;" class="cls-2" d="M299.42,107.93c-.39-3.09-3.09-5-6.58-4.26l-142,35.2c-2.71.39-5,3.87-3.87,6.58.39,2.71,3.87,5,6.58,3.87l20.5-5.42,1.16,3.87c.39,2.71,2.71,4.26,5.42,4.26h1.16c2.71-.39,5-3.87,3.87-6.58l-.39-3.09,105.22-25.92,24,94.78-7.74,1.16c-2.71.39-5,3.87-3.87,6.58.39,2.71,2.71,4.26,5.42,4.26h1.16l13.15-3.09a3.75,3.75,0,0,0,3.09-2.71,13.16,13.16,0,0,0,.39-3.87Z"/></g></g><g id="_Group_36" data-name="&lt;Group&gt;"><g id="_Group_37" data-name="&lt;Group&gt;"><g id="_Group_38" data-name="&lt;Group&gt;"><circle id="_Path_15" data-name="&lt;Path&gt;" class="cls-3" cx="125.73" cy="224.37" r="3.87"/></g></g><g id="_Group_39" data-name="&lt;Group&gt;"><g id="_Group_40" data-name="&lt;Group&gt;"><circle id="_Path_16" data-name="&lt;Path&gt;" class="cls-3" cx="125.73" cy="241.39" r="3.87"/></g></g><g id="_Group_41" data-name="&lt;Group&gt;"><g id="_Group_42" data-name="&lt;Group&gt;"><path id="_Path_17" data-name="&lt;Path&gt;" class="cls-3" d="M133.46,206.19l-2.71-4.64,2.32-4.64c.39-.39-.39-1.16-.77-1.16l-5,1.16L123.79,193c-.39-.39-.39-.39-.77-.39s-.39.39-.39.77l-.77,5.42-4.64,2.32c-.39.39-.39.39-.39.77s.39.39.39.77l4.64,2.32.77,5.42c0,.39,0,.39.39.39a.38.38,0,0,0,.39.39s.77,0,.77-.39l3.48-3.87,5,.77c.39,0,.39,0,.77-.39Z"/></g></g></g></g></g></g></svg>