<?xml version="1.0" encoding="utf-8"?>
<!-- Generator: Adobe Illustrator 21.1.0, SVG Export Plug-In . SVG Version: 6.00 Build 0)  -->
<svg version="1.1" id="Capa_1" xmlns="http://www.w3.org/2000/svg" xmlns:xlink="http://www.w3.org/1999/xlink" x="0px" y="0px"
	 viewBox="0 0 400 400" style="enable-background:new 0 0 400 400;" xml:space="preserve">
<style type="text/css">
	.st0{fill:#1DA0DB;}
</style>
<title>prepagos</title>
<g>
	<path class="st0" d="M311.5,141.2H89.2c-10,0-18.2,8.1-18.2,18.2v122.3c0,10,8.1,18.2,18.2,18.2h222.3c10,0,18.2-8.1,18.2-18.2
		V159.4C329.7,149.4,321.5,141.2,311.5,141.2L311.5,141.2z M321,205.9v75.9c0,5.3-4.3,9.6-9.6,9.6H89.2c-5.3,0-9.6-4.3-9.6-9.6
		v-75.9 M79.6,162.8v-3.4c0-5.3,4.3-9.6,9.6-9.6h222.3c5.3,0,9.6,4.3,9.6,9.6v3.4 M79.6,162.8"/>
	<path class="st0" d="M308.1,184.4"/>
</g>
</svg>
