<svg id="Capa_1" data-name="Capa 1" xmlns="http://www.w3.org/2000/svg" viewBox="0 0 400 400"><defs><style>.cls-1{fill:#00a3dd;}.cls-2{fill:#ff9800;}</style></defs><title>viajesyturismo</title><path id="_Compound_Path_" data-name="&lt;Compound Path&gt;" class="cls-1" d="M310.74,183.59v-5.74a13.3,13.3,0,0,0-13.29-13.29H257.58a13.3,13.3,0,0,0-13.29,13.29v4.78a31,31,0,0,0-26.58,30.65v88.59a13.27,13.27,0,0,0,8.86,12.47v5.24a13.29,13.29,0,0,0,26.58,0v-4.43h44.29v4.43a13.29,13.29,0,0,0,26.58,0v-5.24a13.27,13.27,0,0,0,8.86-12.47V213.29A31,31,0,0,0,310.74,183.59Zm-57.58-5.74a4.43,4.43,0,0,1,4.43-4.43h39.86a4.43,4.43,0,0,1,4.43,4.43v4.43H253.15Zm-8.86,141.74a4.43,4.43,0,1,1-8.86,0v-4.43h8.86Zm70.87,0a4.43,4.43,0,1,1-8.86,0v-4.43h8.86ZM324,301.88a4.43,4.43,0,0,1-4.43,4.43H231a4.43,4.43,0,0,1-4.43-4.43V213.29a22.17,22.17,0,0,1,22.15-22.15h53.15A22.17,22.17,0,0,1,324,213.29Z"/><path id="_Path_" data-name="&lt;Path&gt;" class="cls-2" d="M244.29,208.86a4.43,4.43,0,0,0-4.43,4.43v75.3a4.43,4.43,0,1,0,8.86,0v-75.3A4.43,4.43,0,0,0,244.29,208.86Z"/><path id="_Path_2" data-name="&lt;Path&gt;" class="cls-2" d="M275.3,208.86a4.43,4.43,0,0,0-4.43,4.43v75.3a4.43,4.43,0,1,0,8.86,0v-75.3A4.43,4.43,0,0,0,275.3,208.86Z"/><path id="_Path_3" data-name="&lt;Path&gt;" class="cls-2" d="M306.31,208.86a4.43,4.43,0,0,0-4.43,4.43v75.3a4.43,4.43,0,1,0,8.86,0v-75.3A4.43,4.43,0,0,0,306.31,208.86Z"/><path id="_Compound_Path_2" data-name="&lt;Compound Path&gt;" class="cls-1" d="M208.86,164.56H204a22.18,22.18,0,0,0-21.7-17.72h-8.86V107h8.86a4.43,4.43,0,0,0,4.43-4.43V93.69a13.3,13.3,0,0,0-13.29-13.29H155.71a13.3,13.3,0,0,0-13.29-13.29h-8.86a13.3,13.3,0,0,0-13.29,13.29H102.55A13.3,13.3,0,0,0,89.26,93.69v8.86A4.43,4.43,0,0,0,93.69,107h8.86v39.86H89.26A22.17,22.17,0,0,0,67.12,169V293a22.19,22.19,0,0,0,17.72,21.7v4.88a13.29,13.29,0,0,0,26.58,0v-4.43h48.72v4.43a13.29,13.29,0,0,0,26.58,0v-4.88A22.18,22.18,0,0,0,204.43,293V173.42h4.43a4.43,4.43,0,0,0,0-8.86ZM133.56,76h8.86a4.43,4.43,0,0,1,4.43,4.43H129.13A4.43,4.43,0,0,1,133.56,76ZM98.12,98.12V93.69a4.43,4.43,0,0,1,4.43-4.43h70.87a4.43,4.43,0,0,1,4.43,4.43v4.43H98.12ZM164.56,107v39.86h-4.43V107Zm-13.29,0v39.86H124.7V107Zm-35.44,0v39.86h-4.43V107Zm-13.29,75.3a4.43,4.43,0,0,0,4.43-4.43v-2.6l4.43,4.43v33.6H93.69v-33.6l4.43-4.43v2.6A4.43,4.43,0,0,0,102.55,182.28Zm0,137.31a4.43,4.43,0,1,1-8.86,0v-4.43h8.86Zm75.3,0a4.43,4.43,0,1,1-8.86,0v-4.43h8.86ZM195.57,293a13.3,13.3,0,0,1-13.29,13.29h-93A13.3,13.3,0,0,1,76,293V169a13.3,13.3,0,0,1,13.29-13.29h8.86v8.86a4.42,4.42,0,0,0-3.13,1.3l-8.86,8.86a4.41,4.41,0,0,0-1.3,3.13v39.86a4.43,4.43,0,0,0,4.43,4.43h26.58a4.43,4.43,0,0,0,4.43-4.43V177.85a4.41,4.41,0,0,0-1.3-3.13l-8.86-8.86a4.42,4.42,0,0,0-3.13-1.3v-8.86h75.3A13.3,13.3,0,0,1,195.57,169Z"/><path id="_Path_4" data-name="&lt;Path&gt;" class="cls-2" d="M182.28,173.42h-31a4.43,4.43,0,0,0,0,8.86h31a4.43,4.43,0,1,0,0-8.86Z"/><path id="_Path_5" data-name="&lt;Path&gt;" class="cls-2" d="M142.42,200h13.29a4.43,4.43,0,0,0,0-8.86H142.42a4.43,4.43,0,1,0,0,8.86Z"/><path id="_Path_6" data-name="&lt;Path&gt;" class="cls-2" d="M182.28,191.14h-8.86a4.43,4.43,0,1,0,0,8.86h8.86a4.43,4.43,0,1,0,0-8.86Z"/><path id="_Compound_Path_3" data-name="&lt;Compound Path&gt;" class="cls-2" d="M160.14,262H124.7a13.3,13.3,0,0,0-13.29,13.29V293a4.43,4.43,0,0,0,4.43,4.43h35.44a13.3,13.3,0,0,0,13.29-13.29V266.44A4.43,4.43,0,0,0,160.14,262ZM138,288.59H120.27V275.3a4.43,4.43,0,0,1,4.43-4.43H138Zm17.72-4.43a4.43,4.43,0,0,1-4.43,4.43h-4.43V270.87h8.86Z"/><g id="_Group_" data-name="&lt;Group&gt;"><g id="_Group_2" data-name="&lt;Group&gt;"><g id="_Group_3" data-name="&lt;Group&gt;"><path id="_Path_7" data-name="&lt;Path&gt;" class="cls-2" d="M239.76,104.5l-1.87-.95.95-1.87a2.09,2.09,0,0,0-3.73-1.89l-.95,1.87-1.87-.95a2.09,2.09,0,1,0-1.89,3.73l1.87.95-.95,1.87a2.09,2.09,0,1,0,3.73,1.89l.95-1.87,1.87.95a2.09,2.09,0,0,0,1.89-3.73Z"/></g></g><g id="_Group_4" data-name="&lt;Group&gt;"><g id="_Group_5" data-name="&lt;Group&gt;"><path id="_Path_8" data-name="&lt;Path&gt;" class="cls-2" d="M322.6,118.69l-1.87-.95.95-1.87A2.09,2.09,0,1,0,318,114l-.95,1.87-1.87-.95a2.09,2.09,0,0,0-1.89,3.73l1.87.95-.95,1.87a2.09,2.09,0,1,0,3.73,1.89l.95-1.87,1.87.95a2.09,2.09,0,0,0,1.89-3.73Z"/></g></g><g id="_Group_6" data-name="&lt;Group&gt;"><g id="_Group_7" data-name="&lt;Group&gt;"><path id="_Path_9" data-name="&lt;Path&gt;" class="cls-2" d="M281.58,96.51A3.31,3.31,0,1,0,283,101,3.32,3.32,0,0,0,281.58,96.51Z"/></g></g><g id="_Group_8" data-name="&lt;Group&gt;"><g id="_Group_9" data-name="&lt;Group&gt;"><path id="_Path_10" data-name="&lt;Path&gt;" class="cls-2" d="M280,130.55a3.31,3.31,0,1,0,1.46,4.46A3.32,3.32,0,0,0,280,130.55Z"/></g></g><g id="_Group_10" data-name="&lt;Group&gt;"><g id="_Group_11" data-name="&lt;Group&gt;"><path id="_Path_11" data-name="&lt;Path&gt;" class="cls-2" d="M327.17,147.46a3.31,3.31,0,1,0,1.46,4.46A3.32,3.32,0,0,0,327.17,147.46Z"/></g></g></g></svg>