<?xml version="1.0" encoding="utf-8"?>
<!-- Generator: Adobe Illustrator 21.1.0, SVG Export Plug-In . SVG Version: 6.00 Build 0)  -->
<svg version="1.1" id="Capa_1" xmlns="http://www.w3.org/2000/svg" xmlns:xlink="http://www.w3.org/1999/xlink" x="0px" y="0px"
	 viewBox="0 0 250 300" style="enable-background:new 0 0 250 300;" xml:space="preserve">
<style type="text/css">
	.st0{fill:url(#SVGID_1_);}
	.st1{fill:#FFFFFF;}
	.st2{fill:#5998C9;}
	.st3{fill:#6FA4CF;}
	.st4{fill:#83B1D7;}
</style>
<title>amex</title>
<radialGradient id="SVGID_1_" cx="63.54" cy="213.25" r="222.26" gradientTransform="matrix(1 0 0 -1 0 302)" gradientUnits="userSpaceOnUse">
	<stop  offset="0" style="stop-color:#AACCE6"/>
	<stop  offset="7.000000e-02" style="stop-color:#A4C8E4"/>
	<stop  offset="0.17" style="stop-color:#93BDDE"/>
	<stop  offset="0.27" style="stop-color:#78ACD4"/>
	<stop  offset="0.37" style="stop-color:#5998C9"/>
	<stop  offset="0.42" style="stop-color:#5591C3"/>
	<stop  offset="0.6" style="stop-color:#4A7FB4"/>
	<stop  offset="0.79" style="stop-color:#4474AB"/>
	<stop  offset="1" style="stop-color:#4270A8"/>
</radialGradient>
<path class="st0" d="M218.7,56.5H32.2v187.1h186.4v-61.8c0.8-1.2,1.2-2.7,1.1-4.1c0.1-1.4-0.3-2.9-1.1-4.1V56.5z"/>
<path class="st1" d="M32.2,151.2h9l2-4.9h4.5l2,4.9h17.6v-3.7l1.6,3.7h9.1l1.6-3.8v3.8h43.8v-8h0.8c0.6,0,0.8,0.1,0.8,1.1v6.9h22.6
	v-1.9c2.6,1.3,5.5,1.9,8.4,1.9h9.5l2-4.9h4.5l2,4.9h18.3v-4.6l2.8,4.6H210v-30.6h-14.6v3.6l-2-3.6h-15v3.6l-1.9-3.6h-20.2
	c-3-0.1-6,0.5-8.8,1.8v-1.8h-13.9v1.8c-1.7-1.3-3.8-1.9-5.9-1.8H77l-3.4,7.9l-3.6-7.9H54v3.6l-1.8-3.6H38.6l-6.3,14.5L32.2,151.2z
	 M205.3,146.9h-7.4l-9.9-16.4v16.4h-10.7l-2-4.9h-10.9l-2,4.9h-6.1c-2.6,0-5.8-0.6-7.6-2.4s-2.8-4.4-2.8-8.4c0-3.3,0.6-6.2,2.8-8.6
	c1.7-1.8,4.4-2.6,8-2.6h5.1v4.7h-4.9c-1.9,0-3,0.3-4.1,1.3c-1.1,1.4-1.6,3.2-1.5,5c0,2.4,0.5,4,1.4,5.1c1,0.8,2.3,1.2,3.6,1.1h2.4
	l7.3-17.3h7.9l8.9,20.7v-20.7h8l9.2,15.3v-15.3h5.4L205.3,146.9z M143.3,146.9h-5.4v-21.9h5.4V146.9z M134.9,130.9
	c0.1,2.5-1.4,4.8-3.7,5.8c1,0.4,1.9,1,2.6,1.9c0.7,1.1,0.9,2.1,0.9,4v4.3h-5.3v-2.8c0-1.3,0.1-3.2-0.8-4.2c-0.8-0.8-1.9-0.9-3.8-0.9
	h-5.6v8h-5.2v-22h12.1c2.7,0,4.6,0.1,6.3,1.1C134,127,135.1,128.9,134.9,130.9L134.9,130.9z M110.2,146.9H92.7v-21.9h17.5v4.6H98
	v3.9h11.9v4.5H98v4.4h12.2L110.2,146.9z M88.8,146.9h-5.4v-17.1l-7.6,17.1h-4.6l-7.6-17.2v17.2H52.9l-2-4.9H40l-2,4.9h-5.7l9.4-21.9
	h7.8l8.9,20.8v-20.8h8.6l6.8,14.9l6.3-14.9h8.7L88.8,146.9z M173.5,137.4l-3.6-8.7l-3.6,8.7H173.5z M128,134
	c-0.8,0.4-1.7,0.5-2.6,0.4H119v-4.9h6.4c0.9-0.1,1.7,0.1,2.5,0.4c0.7,0.4,1.2,1.1,1.1,1.9C129.1,132.7,128.7,133.5,128,134z
	 M49,137.4l-3.6-8.7l-3.6,8.7H49z"/>
<path class="st1" d="M133.8,169.9c0,6.1-4.5,7.4-9.1,7.4h-6.5v7.4H108l-6.5-7.2l-6.7,7.2H74.1v-21.9h21.1l6.4,7.2l6.7-7.2H125
	C129.1,162.7,133.8,163.8,133.8,169.9z M92.1,180H79.3v-4.4h11.5v-4.5H79.3v-4h13.1l5.7,6.4L92.1,180z M112.9,182.6l-8-8.9l8-8.6
	V182.6z M124.9,172.8h-6.8v-5.6h6.9c1.9,0,3.2,0.8,3.2,2.7S126.9,172.8,124.9,172.8L124.9,172.8z M160.2,162.6h17.5v4.6h-12.3v4h12
	v4.5h-12v4.3h12.3v4.6h-17.5V162.6z M153.6,174.4c1,0.4,1.9,1,2.6,1.8c0.7,1.1,0.9,2.1,0.9,4v4.3h-5.3v-2.8c0-1.3,0.1-3.3-0.9-4.3
	c-0.8-0.8-1.9-1-3.8-1h-5.6v8h-5.3v-21.9h12.1c2.7,0,4.6,0.1,6.3,1.1c1.8,1,2.8,2.9,2.7,4.9C157.4,171.1,155.9,173.4,153.6,174.4
	L153.6,174.4z M150.5,171.7c-0.8,0.4-1.7,0.5-2.6,0.4h-6.4v-4.9h6.5c0.8-0.1,1.7,0.1,2.5,0.4c0.7,0.4,1.1,1.2,1.1,2
	C151.6,170.4,151.2,171.2,150.5,171.7L150.5,171.7z M197.7,173c1.2,1.3,1.7,2.9,1.6,4.6c0,4.7-3,6.9-8.2,6.9h-10.2v-4.7H191
	c0.8,0.1,1.5-0.1,2.1-0.6c0.4-0.4,0.6-0.9,0.6-1.4c0-0.6-0.2-1.1-0.6-1.4c-0.5-0.4-1.2-0.6-1.9-0.5c-4.9-0.2-11,0.1-11-6.8
	c0-3.2,2-6.5,7.5-6.5h10.5v4.7h-9.6c-0.7-0.1-1.5,0.1-2.1,0.4c-0.5,0.3-0.8,1-0.8,1.6c0,0.7,0.5,1.4,1.1,1.6c0.6,0.2,1.3,0.3,2,0.2
	l2.8,0.1C194.6,171.4,196.5,171.8,197.7,173z M218.7,181.8c-1.3,1.9-3.8,2.8-7.1,2.8h-10.1v-4.7h10.1c0.8,0.1,1.5-0.1,2.1-0.6
	c0.4-0.4,0.6-0.9,0.6-1.4c0-0.6-0.2-1.1-0.6-1.4c-0.5-0.4-1.2-0.6-1.9-0.5c-4.9-0.2-11.1,0.1-11.1-6.8c0-3.2,2-6.5,7.5-6.5h10.5
	v-4.4H209c-2.3-0.1-4.6,0.5-6.6,1.8v-1.8H188c-2.3,0-5,0.6-6.2,1.8v-1.8h-25.6v1.8c-2-1.5-5.5-1.8-7.1-1.8h-16.9v1.8
	c-1.6-1.6-5.2-1.8-7.4-1.8h-18.9l-4.3,4.7l-4-4.7H69.3v30.6H97l4.5-4.8l4.2,4.8h17.1v-7.2h1.7c2.5,0.2,5-0.2,7.3-1.1v8.2h14.1v-8
	h0.7c0.9,0,1,0,1,0.9v7.1h42.8c2.7,0,5.5-0.7,7.1-2v2H211c2.6,0.1,5.3-0.4,7.7-1.4L218.7,181.8z M218.7,167.3h-9.6
	c-0.7-0.1-1.5,0.1-2.1,0.4c-0.5,0.4-0.8,1-0.8,1.6c0,0.7,0.5,1.4,1.2,1.6c0.6,0.2,1.3,0.3,2,0.2l2.8,0.1c2.9,0.1,4.8,0.6,6,1.8
	c0.2,0.2,0.3,0.4,0.5,0.6L218.7,167.3z"/>
<path class="st2" d="M134.9,130.9c0.1,2.5-1.4,4.8-3.7,5.8c1,0.4,1.9,1,2.6,1.9c0.7,1.1,0.9,2.1,0.9,4v4.3h-5.3v-2.8
	c0-1.3,0.1-3.2-0.8-4.2c-0.8-0.8-1.9-0.9-3.8-0.9h-5.6v8h-5.2v-22h12.1c2.7,0,4.6,0.1,6.3,1.1C134,127,135.1,128.9,134.9,130.9z"/>
<polygon class="st3" points="110.2,146.9 92.7,146.9 92.7,124.9 110.2,124.9 110.2,129.5 98,129.5 98,133.5 109.9,133.5 109.9,138 
	98,137.9 98,142.3 110.2,142.3 "/>
<polygon class="st4" points="88.8,146.9 83.4,146.9 83.4,129.7 75.8,146.9 71.2,146.9 63.6,129.7 63.6,146.9 52.9,146.9 50.9,142 
	40,142 38,146.9 32.3,146.9 41.7,124.9 49.5,124.9 58.4,145.7 58.4,124.9 66.9,124.9 73.8,139.8 80.1,124.9 88.8,124.9 "/>
<path class="st1" d="M128,134c-0.8,0.4-1.7,0.5-2.6,0.4H119v-4.9h6.5c0.8-0.1,1.7,0.1,2.5,0.4c0.7,0.4,1.2,1.1,1.1,1.9
	C129.1,132.7,128.7,133.6,128,134z"/>
<polygon class="st1" points="49.1,137.4 45.5,128.7 41.9,137.4 "/>
</svg>
