<svg id="Capa_1" data-name="Capa 1" xmlns="http://www.w3.org/2000/svg" viewBox="0 0 400 300"><defs><style>.cls-1{fill:#fff;}.cls-1,.cls-2{fill-rule:evenodd;}.cls-2{fill:#00427f;}</style></defs><title>cabal</title><polygon class="cls-1" points="304 251.12 304 48.88 304 45.99 301.1 45.99 98.89 45.99 96 45.99 96 48.88 96 251.12 96 254 98.89 254 301.1 254 304 254 304 251.12 304 251.12"/><polygon class="cls-2" points="296.29 246.28 296.29 53.72 103.71 53.72 103.71 246.28 296.29 246.28 296.29 246.28"/><polygon class="cls-1" points="228.82 131.41 202.56 157.7 202.56 181.91 253.07 131.38 202.56 80.86 202.56 105.14 228.82 131.41 228.82 131.41"/><polygon class="cls-1" points="171 131.41 197.31 105.14 197.31 80.83 146.76 131.38 197.31 181.93 197.31 157.71 171 131.41 171 131.41"/><path class="cls-1" d="M158.75,190.9h.82l-2.19,9.4h-.82a8.88,8.88,0,0,0-1.91-5.73,5.87,5.87,0,0,0-4.53-1.86,9.08,9.08,0,0,0-6,2.55,19.73,19.73,0,0,0-5.07,7.89,23.3,23.3,0,0,0-1.67,8.48,8,8,0,0,0,1.85,5.73,6.45,6.45,0,0,0,5,2,9.85,9.85,0,0,0,4.76-1.13,15.25,15.25,0,0,0,4.33-3.67h1a18.7,18.7,0,0,1-5.46,5.69,13.09,13.09,0,0,1-6.76,1.63,11.64,11.64,0,0,1-8.6-3.25,11.32,11.32,0,0,1-3.29-8.44,18.42,18.42,0,0,1,2.6-9.33,21.16,21.16,0,0,1,17.2-9.92,16.75,16.75,0,0,1,4.53.79,8.19,8.19,0,0,0,1.95.39,3.06,3.06,0,0,0,2.19-1.18Z"/><path class="cls-1" d="M175.85,200.2l-.56,9.65H167.6l8.25-9.65Zm-1.37,18.6a2.85,2.85,0,0,1-1.1,1.24,10.26,10.26,0,0,1-2.2.32l-.26.82h12.82l.22-.82a2.75,2.75,0,0,1-2-.78,3.22,3.22,0,0,1-.63-2.18c0-.23,0-1,.09-2.26l1-24.24h-1l-21,25a21.51,21.51,0,0,1-3.53,3.59,5,5,0,0,1-2.08.84l-.22.82h8.81v-.82a3.4,3.4,0,0,1-1.85-.51,1.32,1.32,0,0,1-.52-1,2.33,2.33,0,0,1,.2-1,8.29,8.29,0,0,1,.9-1.46l2.07-2.52,1.86-2.26h9.17l-.18,3.77a9.51,9.51,0,0,1-.63,3.4Z"/><path class="cls-1" d="M205.12,193.15a3.61,3.61,0,0,1,2.86,1,3.76,3.76,0,0,1,1.06,2.77,8.33,8.33,0,0,1-1,3.84,6.62,6.62,0,0,1-2.73,2.95,10.6,10.6,0,0,1-4.7.92l3.34-11.48Zm-8.65-.17a1.5,1.5,0,0,1,.62,1.26,15.54,15.54,0,0,1-.8,3.7l-5.23,18.2a12,12,0,0,1-1.15,2.88,2.63,2.63,0,0,1-1.24,1,7,7,0,0,1-2.55.33l-.28.82h12.31c4.58,0,7.75-.37,9.52-1a9.21,9.21,0,0,0,4.15-3.2,7.59,7.59,0,0,0,1.57-4.44,6.16,6.16,0,0,0-1.57-4.21c-1.09-1.22-3-2.2-5.74-3a22.64,22.64,0,0,0,5.86-2,7,7,0,0,0,2.86-2.69,6.13,6.13,0,0,0,1-3.22,5.51,5.51,0,0,0-1.19-3.44,6.13,6.13,0,0,0-3.43-2,26.8,26.8,0,0,0-5.58-.43h-11.7l-.22.82a5.37,5.37,0,0,1,2.81.59l7.5,13.76a4,4,0,0,1,1.9,1.59,4.85,4.85,0,0,1,.7,2.64,9.91,9.91,0,0,1-1.89,5.8c-1.29,1.8-3.54,2.73-6.75,2.73-.39,0-.93,0-1.64-.07l3.76-13.16a12.2,12.2,0,0,1,3.92.47L196.47,193Z"/><path class="cls-1" d="M235.44,200.2l-.55,9.65h-7.66l8.21-9.65Zm-1.37,18.6A2.92,2.92,0,0,1,233,220a9.78,9.78,0,0,1-2.21.32l-.2.82h12.77l.24-.82a2.83,2.83,0,0,1-2-.78,3.29,3.29,0,0,1-.57-2.18c0-.23,0-1,0-2.26l1-24.24h-1l-21,25a21,21,0,0,1-3.48,3.59,5.23,5.23,0,0,1-2.11.84l-.23.82h8.86v-.82a3.19,3.19,0,0,1-1.85-.51,1.24,1.24,0,0,1-.57-1,2.38,2.38,0,0,1,.23-1,6.64,6.64,0,0,1,.88-1.46l2.11-2.52,1.85-2.26h9.15l-.21,3.77a9.38,9.38,0,0,1-.61,3.4Z"/><path class="cls-1" d="M272.47,212.86l-3.28,8.32H245.56l.22-.82a4.65,4.65,0,0,0,3.09-.82,7.56,7.56,0,0,0,1.82-3.68l5.49-19a8.7,8.7,0,0,0,.45-2.45A1.52,1.52,0,0,0,256,193a4.53,4.53,0,0,0-2.55-.62l.27-.82h14.19l-.25.82a4.6,4.6,0,0,0-3.06.93,7.52,7.52,0,0,0-1.8,3.54l-5,17.39a24.75,24.75,0,0,0-1,4,1.07,1.07,0,0,0,.48.81,2.84,2.84,0,0,0,1.6.4,15.83,15.83,0,0,0,7-1.68,14.8,14.8,0,0,0,5.69-5Z"/></svg>