<svg id="Capa_1" data-name="Capa 1" xmlns="http://www.w3.org/2000/svg" viewBox="0 0 400 300"><defs><style>.cls-1{fill:#004c94;}.cls-2{fill:#fff;}</style></defs><title>diners</title><path class="cls-1" d="M98.29,192.72c23.36.12,44.68-19,44.68-42.35,0-25.49-21.32-43.1-44.68-43.09H78.19c-23.64,0-43.1,17.61-43.1,43.09,0,23.31,19.46,42.47,43.1,42.35Z"/><path class="cls-2" d="M87.15,173.07V126.78a24.78,24.78,0,0,1,0,46.29M53.49,149.92a24.83,24.83,0,0,1,15.92-23.13v46.27a24.84,24.84,0,0,1-15.92-23.14m24.79-39.11a39.11,39.11,0,1,0,39.12,39.11,39.1,39.1,0,0,0-39.12-39.11"/><path class="cls-1" d="M161.07,146.74c0,3.46,2.48,3.86,4.68,3.86,9.71,0,12.89-7.32,12.89-14,0-8.4-5.39-14.47-14.06-14.47-1.85,0-2.7.13-3.51.18Zm-4.4-21.08c0-4-2.11-3.78-4.13-3.82v-1.17c1.75.09,3.55.09,5.3.09s4.45-.09,7.78-.09c11.63,0,18,7.77,18,15.73,0,4.45-2.61,15.64-18.52,15.64-2.28,0-4.4-.09-6.51-.09s-4,.05-6,.09v-1.17c2.69-.27,4-.36,4.13-3.41Z"/><path class="cls-1" d="M190,124.58a2.21,2.21,0,0,1,0-4.41,2.21,2.21,0,0,1,2.21,2.17,2.25,2.25,0,0,1-2.21,2.24m-4.8,26.29H186c1.25,0,2.15,0,2.15-1.48V137.21c0-2-.67-2.25-2.33-3.14v-.72c2.11-.64,4.63-1.49,4.81-1.62a1.57,1.57,0,0,1,.81-.23c.22,0,.31.27.31.63v17.26c0,1.48,1,1.48,2.25,1.48h.76V152c-1.53,0-3.1-.09-4.72-.09s-3.23.05-4.89.09Z"/><path class="cls-1" d="M199.05,137.48c0-1.66-.5-2.11-2.6-3v-.85a59.77,59.77,0,0,0,5.93-2.16c.13,0,.26.09.26.45v2.92c2.57-1.84,4.77-3.37,7.79-3.37,3.81,0,5.16,2.79,5.16,6.29v11.6c0,1.48,1,1.48,2.25,1.48h.81V152c-1.58,0-3.15-.09-4.77-.09s-3.24.05-4.85.09v-1.17h.81c1.26,0,2.15,0,2.15-1.48V137.75c0-2.56-1.56-3.82-4.13-3.82-1.44,0-3.73,1.17-5.22,2.16v13.3c0,1.48,1,1.48,2.25,1.48h.81V152c-1.57,0-3.14-.09-4.76-.09s-3.24.05-4.86.09v-1.17h.82c1.25,0,2.15,0,2.15-1.48Z"/><path class="cls-1" d="M230,138.2c1.12,0,1.25-.59,1.25-1.12a3.81,3.81,0,0,0-3.91-4.14c-2.74,0-4.62,2-5.16,5.26Zm-8,1.44a11.33,11.33,0,0,0,0,2.61c.27,4.26,3,7.77,6.61,7.77,2.47,0,4.41-1.35,6.07-3l.62.63c-2.06,2.74-4.63,5.08-8.31,5.08-7.15,0-8.58-6.93-8.58-9.8,0-8.81,5.93-11.42,9.07-11.42,3.64,0,7.56,2.29,7.6,7.06a5.49,5.49,0,0,1,0,.81l-.41.27Z"/><path class="cls-1" d="M236.17,150.87h1.22c1.25,0,2.15,0,2.15-1.48V136.76c0-1.39-1.66-1.66-2.34-2v-.67c3.29-1.4,5.08-2.57,5.49-2.57s.4.14.4.59v4h.1c1.12-1.75,3-4.63,5.75-4.63a2.45,2.45,0,0,1,2.56,2.38,2.18,2.18,0,0,1-2.11,2.3c-1.4,0-1.4-1.08-3-1.08a3.79,3.79,0,0,0-3.28,3.73v10.56c0,1.48.89,1.48,2.15,1.48h2.52V152c-2.47,0-4.35-.09-6.29-.09s-3.73.05-5.35.09Z"/><path class="cls-1" d="M253.48,145.79c.58,3,2.38,5.49,5.66,5.49,2.65,0,3.64-1.62,3.64-3.19,0-5.31-9.8-3.6-9.8-10.83,0-2.52,2-5.76,7-5.76a11.83,11.83,0,0,1,5.12,1.31l.31,4.58h-1c-.45-2.83-2-4.45-4.9-4.45-1.8,0-3.5,1-3.5,3,0,5.26,10.42,3.64,10.42,10.69,0,3-2.38,6.12-7.73,6.12a11.79,11.79,0,0,1-5.48-1.53l-.5-5.17Z"/><path class="cls-1" d="M307,128.8h-1.12c-.85-5.25-4.59-7.36-9.62-7.36s-12.67,3.45-12.67,14.24c0,9.08,6.47,15.6,13.39,15.6a9.15,9.15,0,0,0,9-7.78l1,.27-1,6.56c-1.89,1.17-7,2.39-9.94,2.39-10.51,0-17.16-6.79-17.16-16.9,0-9.22,8.22-15.83,17-15.83,3.64,0,7.14,1.18,10.6,2.39Z"/><path class="cls-1" d="M308.57,150.87h.85c1.26,0,2.16,0,2.16-1.48v-25c0-2.92-.67-3-2.38-3.51v-.72a28.17,28.17,0,0,0,4.63-1.93,4.52,4.52,0,0,1,1-.5c.27,0,.36.28.36.64v31c0,1.48,1,1.48,2.25,1.48h.76V152c-1.53,0-3.1-.09-4.72-.09s-3.23.05-4.9.09Z"/><path class="cls-1" d="M337.43,149.57c0,.81.49.85,1.25.85.54,0,1.22,0,1.8,0v.94a45.59,45.59,0,0,0-6.47,1.4l-.23-.14v-3.64c-2.69,2.2-4.76,3.78-7.95,3.78-2.43,0-4.95-1.58-4.95-5.35V135.86c0-1.17-.17-2.29-2.69-2.51v-.86c1.62,0,5.21-.31,5.8-.31s.49.31.49,1.3v11.59c0,1.35,0,5.22,3.91,5.22,1.53,0,3.55-1.17,5.44-2.74v-12.1c0-.89-2.16-1.38-3.77-1.83v-.81c4-.27,6.56-.63,7-.63s.37.31.37.81Z"/><path class="cls-1" d="M346.37,147a4.84,4.84,0,0,0,4.63,4.59c4.81,0,6.83-4.72,6.83-8.72,0-4.86-3.68-8.9-7.19-8.9-1.67,0-3.06,1.08-4.27,2.11Zm0-12.22c1.79-1.53,4.22-3.24,6.7-3.24,5.21,0,8.35,4.54,8.35,9.44,0,5.89-4.31,11.78-10.74,11.78a13.31,13.31,0,0,1-6.25-1.58l-1.34,1-.94-.49a53,53,0,0,0,.62-8V124.36c0-2.92-.67-3-2.38-3.51v-.72A28.17,28.17,0,0,0,345,118.2a4.52,4.52,0,0,1,1-.5c.27,0,.36.28.36.64Z"/><path class="cls-1" d="M152.49,178.17h.34c.88,0,1.81-.12,1.81-1.39V164c0-1.28-.93-1.4-1.81-1.4h-.34v-.73c.95,0,2.42.09,3.62.09s2.69-.09,3.84-.09v.73h-.35c-.87,0-1.81.12-1.81,1.4v12.81c0,1.27.94,1.39,1.81,1.39H160v.74c-1.18,0-2.65-.1-3.87-.1s-2.64.1-3.59.1Z"/><path class="cls-1" d="M159.84,178.8v-.52h-.24c-.87,0-1.91-.15-1.91-1.5V164c0-1.35,1-1.51,1.91-1.51h.24v-.52c-1.13,0-2.54.1-3.73.1s-2.57-.09-3.51-.1v.52h.23c.87,0,1.91.16,1.91,1.51v12.81c0,1.35-1,1.5-1.91,1.5h-.23v.52c.94,0,2.32-.1,3.48-.1s2.61.09,3.76.1m.11.21c-1.19,0-2.65-.1-3.87-.1s-2.63.1-3.59.1h-.11v-.95h.45c.89,0,1.69-.09,1.7-1.28V164c0-1.2-.81-1.28-1.7-1.29h-.45v-1h.11c1,0,2.42.1,3.62.1s2.68-.1,3.84-.1h.1v1h-.45c-.88,0-1.69.09-1.7,1.29v12.81c0,1.19.82,1.26,1.7,1.28h.45V179Z"/><path class="cls-1" d="M176.75,174.09l0-.05v-9.17a2,2,0,0,0-2.12-2.3h-.54v-.73c1.15,0,2.27.09,3.42.09,1,0,2-.09,3-.09v.73h-.37c-1,0-2.17.2-2.17,3.11V176.8a16.27,16.27,0,0,0,.14,2.47h-.93l-12.59-14v10.08c0,2.13.41,2.86,2.3,2.86h.41v.74c-1,0-2.1-.1-3.15-.1s-2.22.1-3.33.1v-.74h.35c1.68,0,2.2-1.15,2.2-3.1v-10.3a2.2,2.2,0,0,0-2.23-2.2h-.32v-.73c.93,0,1.89.09,2.81.09.74,0,1.45-.09,2.18-.09Z"/><path class="cls-1" d="M176.69,174h0l0,0Zm.06.05.07-.07Zm.48,5.07H178a16.23,16.23,0,0,1-.13-2.36V165.68c0-2.94,1.23-3.22,2.28-3.22h.26v-.52c-1,0-1.93.1-2.9.1-1.12,0-2.21-.09-3.31-.1v.52h.44a2.14,2.14,0,0,1,2.23,2.41l0,9.24-.05,0-.08.08-10.88-12.3c-.72,0-1.43.1-2.18.1s-1.81-.09-2.7-.1v.52h.21a2.31,2.31,0,0,1,2.33,2.31v10.3c0,2-.55,3.2-2.3,3.21H161v.53c1.06,0,2.15-.1,3.22-.1s2,.09,3.05.1v-.52h-.31c-1.93,0-2.4-.84-2.41-3V165Zm.93.22-1,0-12.41-13.83v9.8c0,2.13.36,2.73,2.2,2.75h.52V179h-.11c-1.06,0-2.11-.1-3.15-.1s-2.22.1-3.33.1h-.1v-.95h.45c1.61,0,2.07-1,2.09-3v-10.3a2.09,2.09,0,0,0-2.12-2.09h-.42v-1h.1c.94,0,1.89.1,2.81.1.73,0,1.44-.1,2.26-.06l10.75,12.1v-9c0-1.94-1.31-2.18-2-2.19H174v-1h.11c1.15,0,2.28.1,3.42.1s2-.1,3-.1h.11v1h-.48c-1,0-2,.11-2.07,3V176.8a17.21,17.21,0,0,0,.14,2.45l0,.13Z"/><path class="cls-1" d="M184.22,163.06c-1.84,0-1.9.44-2.27,2.22h-.73c.09-.68.21-1.36.29-2.08a14.11,14.11,0,0,0,.15-2.07h.58c.2.73.81.71,1.47.71h12.62c.66,0,1.27,0,1.32-.76l.58.1c-.09.66-.19,1.32-.26,2s-.05,1.32-.05,2l-.73.27c-.06-.9-.18-2.35-1.81-2.35h-4v13c0,1.88.85,2.1,2,2.1h.47v.74c-1,0-2.67-.1-4-.1s-3.18.1-4.13.1v-.74h.46c1.35,0,2-.12,2-2V163.06Z"/><path class="cls-1" d="M193.86,179c-1,0-2.67-.1-4-.1s-3.17.1-4.13.1h-.1v-.95h.56c1.35,0,1.89,0,1.92-1.94v-13h-3.9V163h4.12v13.17c0,2-.79,2.16-2.14,2.16h-.36v.52c1,0,2.61-.1,4-.1s2.91.09,3.88.1v-.52h-.36c-1.18,0-2.13-.29-2.13-2.21V163h4.12c1.64,0,1.85,1.4,1.9,2.31l.53-.2c0-.63,0-1.27.05-1.92s.16-1.25.25-1.87l-.37-.07c-.11.71-.8.75-1.42.74H183.59c-.58,0-1.21,0-1.43-.71h-.4a13,13,0,0,1-.15,2c-.07.67-.18,1.31-.27,2h.52c.33-1.7.54-2.26,2.36-2.23v.21c-1.81,0-1.77.34-2.17,2.15l0,.08h-.94l0-.12c.1-.69.22-1.37.29-2.08a14.07,14.07,0,0,0,.15-2.06V161h.78v.08c.17.62.62.62,1.25.63h12.73c.69,0,1.18,0,1.22-.66V161l.11,0,.69.11v.1c-.1.66-.2,1.32-.27,2s0,1.32,0,2v.07l-.07,0-.86.32v-.15c-.06-.91-.16-2.25-1.7-2.25h-3.91v12.91c0,1.84.76,2,1.92,2H194V179Z"/><path class="cls-1" d="M199,178.17h.35c.88,0,1.81-.12,1.81-1.39V164c0-1.28-.93-1.4-1.81-1.4H199v-.73c1.49,0,4,.09,6.09.09s4.6-.09,6.26-.09c0,1,0,2.66,0,3.74l-.73.19c-.12-1.58-.41-2.85-3-2.85h-3.4v6.4h2.91c1.46,0,1.78-.83,1.93-2.15h.73c-.05,1-.07,1.91-.07,2.86s0,1.86.07,2.79l-.73.14c-.15-1.46-.22-2.42-1.91-2.42H204.3v5.7c0,1.59,1.41,1.59,3,1.59,2.93,0,4.23-.2,5-3l.69.17c-.32,1.3-.61,2.59-.83,3.89-1.57,0-4.38-.1-6.58-.1s-5.11.1-6.51.1Z"/><path class="cls-1" d="M212,178.8c.21-1.24.49-2.47.79-3.7l-.48-.13c-.74,2.74-2.15,3-5,3-1.54,0-3.08,0-3.09-1.7v-5.8h3c1.71,0,1.88,1,2,2.4l.53-.11c0-.9-.07-1.8-.07-2.7s0-1.84.07-2.76h-.53c-.13,1.28-.53,2.17-2,2.16h-3V162.8h3.51c2.54,0,3,1.3,3.07,2.84l.53-.14c0-.69-.07-1.58-.07-2.4,0-.41,0-.81,0-1.16-1.66,0-4.14.1-6.15.1s-4.48-.09-6-.1v.52h.24c.87,0,1.91.16,1.91,1.51v12.81c0,1.35-1,1.49-1.91,1.5h-.24v.52c1.43,0,4.25-.1,6.4-.1s4.91.09,6.49.1m.09.21c-1.57,0-4.38-.1-6.58-.1s-5.11.1-6.51.1h-.1v-.95h.45c.88,0,1.69-.09,1.7-1.28V164c0-1.2-.82-1.28-1.7-1.29h-.45v-1h.1c1.5,0,4,.1,6.09.1s4.59-.1,6.26-.1h.11v.11c0,.37,0,.8,0,1.26,0,.85,0,1.77.07,2.47v.09l-.08,0-.86.23v-.13c-.14-1.59-.36-2.74-2.87-2.76h-3.3v6.19h2.81c1.4,0,1.66-.73,1.82-2.05v-.1H210v.11c0,1-.08,1.91-.08,2.86s0,1.85.08,2.78v.09l-.09,0-.85.17V173c-.17-1.5-.18-2.32-1.8-2.33H204.4v5.6c0,1.48,1.29,1.48,2.88,1.48,2.94,0,4.12-.16,4.86-2.9l0-.1.1,0,.78.2,0,.1c-.32,1.3-.61,2.59-.83,3.89l0,.08Z"/><path class="cls-1" d="M219.36,170.1h1.19c2.45,0,3.77-.93,3.77-3.81a3.33,3.33,0,0,0-3.57-3.57,10.55,10.55,0,0,0-1.39.1Zm-3.13-5.67c0-1.79-1-1.86-1.74-1.86h-.44v-.73c.78,0,2.3.09,3.79.09s2.64-.09,3.94-.09c3.08,0,5.82.83,5.82,4.3,0,2.2-1.47,3.55-3.4,4.31l4.18,6.25a2.7,2.7,0,0,0,2.37,1.47v.74c-.81,0-1.59-.1-2.39-.1s-1.55.1-2.3.1A68.41,68.41,0,0,1,221,171h-1.61v5.24c0,1.88.88,1.95,2,1.95h.44v.74c-1.39,0-2.81-.1-4.2-.1-1.18,0-2.33.1-3.55.1v-.74h.44c.91,0,1.74-.41,1.74-1.32Z"/><path class="cls-1" d="M220.55,170c2.43,0,3.64-.87,3.67-3.71a3.24,3.24,0,0,0-3.47-3.47,10,10,0,0,0-1.29.09V170Zm-1.19.21h-.11v-7.49h.09a10.94,10.94,0,0,1,1.41-.1,3.46,3.46,0,0,1,3.68,3.68c0,2.92-1.41,3.91-3.88,3.92Zm0,.67H221l0,.05a75,75,0,0,0,5,7.87c.74,0,1.53-.1,2.29-.1s1.53.09,2.3.1v-.54a2.79,2.79,0,0,1-2.36-1.5L224,170.4l.12-.05c1.91-.76,3.33-2.06,3.33-4.21,0-3.4-2.64-4.18-5.71-4.2-1.29,0-2.47.1-3.94.1s-2.89-.09-3.69-.1v.52h.34c.76,0,1.84.13,1.84,2v12.42c0,1-.92,1.43-1.84,1.43h-.34v.52c1.18,0,2.3-.1,3.44-.1,1.37,0,2.75.09,4.1.1v-.52h-.33c-1.12,0-2.11-.14-2.11-2.07v-5.33ZM230.75,179c-.82,0-1.6-.1-2.4-.1s-1.53.1-2.38.06a69.29,69.29,0,0,1-5.06-7.88h-1.45v5.12c0,1.84.77,1.83,1.9,1.85h.55V179h-.11c-1.4,0-2.82-.1-4.21-.1-1.16,0-2.31.1-3.54.1h-.11v-.95h.55c.88,0,1.62-.38,1.63-1.21V164.43c0-1.74-.87-1.73-1.63-1.75h-.55v-1h.11c.79,0,2.3.1,3.79.1s2.63-.1,3.94-.1c3.08,0,5.92.86,5.93,4.41,0,2.21-1.46,3.58-3.35,4.35l4.11,6.15a2.6,2.6,0,0,0,2.3,1.42l.09,0V179Z"/><path class="cls-1" d="M247.35,174.09l.05-.05v-9.17a2,2,0,0,0-2.13-2.3h-.53v-.73c1.15,0,2.27.09,3.42.09,1,0,2-.09,3-.09v.73h-.37c-1,0-2.17.2-2.17,3.11V176.8a16.27,16.27,0,0,0,.14,2.47h-.93l-12.59-14v10.08c0,2.13.42,2.86,2.3,2.86H238v.74c-1.05,0-2.1-.1-3.15-.1s-2.23.1-3.33.1v-.74h.34c1.69,0,2.21-1.15,2.21-3.1v-10.3a2.2,2.2,0,0,0-2.23-2.2h-.32v-.73c.93,0,1.89.09,2.82.09.72,0,1.44-.09,2.17-.09Z"/><path class="cls-1" d="M247.29,174h0v0Zm.06.05.08-.07Zm.49,5.07h.81a16.23,16.23,0,0,1-.13-2.36V165.68c0-2.94,1.23-3.21,2.28-3.22h.26v-.52c-1,0-1.93.1-2.9.1-1.12,0-2.21-.09-3.32-.1v.52h.43a2.15,2.15,0,0,1,2.24,2.41l0,9.24,0,0-.08.08-10.88-12.3c-.73,0-1.43.1-2.17.1-.91,0-1.82-.09-2.71-.1v.52h.21a2.31,2.31,0,0,1,2.33,2.31v10.29c0,2-.55,3.21-2.31,3.22h-.23v.52c1,0,2.14-.1,3.22-.1s2,.09,3.05.1v-.52h-.31c-1.93,0-2.41-.84-2.41-3V165Zm.93.22-1,0-12.42-13.83v9.8c0,2.13.35,2.73,2.2,2.75h.52V179H238c-1.06,0-2.11-.1-3.15-.1s-2.23.1-3.32.1h-.12v-.95h.45c1.62,0,2.08-1,2.1-3V164.77a2.09,2.09,0,0,0-2.12-2.09h-.43v-1h.12c.93,0,1.88.1,2.81.1.71,0,1.42-.1,2.24-.07l10.75,12.11v-9c0-1.94-1.31-2.18-2-2.19h-.64v-1h.1c1.16,0,2.29.1,3.43.1s2-.1,3-.1h.1v1h-.47c-1,0-2.05.11-2.07,3V176.8a14.85,14.85,0,0,0,.15,2.46v.12Z"/><path class="cls-1" d="M258.67,164.58h-.05l-2.27,6.92h4.57Zm-3.57,10.83a10.25,10.25,0,0,0-.54,1.91c0,.73,1,.85,1.83.85h.28v.74c-1-.06-2-.1-3-.1s-1.75,0-2.63.1v-.74h.14a2.21,2.21,0,0,0,2.13-1.59l3.91-11.22a20.64,20.64,0,0,0,.91-3,12.24,12.24,0,0,0,2.22-1,.51.51,0,0,1,.2-.06.16.16,0,0,1,.17.08c.07.19.14.42.22.61l4.5,12.79c.29.86.59,1.76.9,2.5a1.56,1.56,0,0,0,1.62,1h.15v.74c-1.11-.06-2.21-.1-3.38-.1s-2.42,0-3.67.1v-.74h.27c.56,0,1.52-.1,1.52-.71a7.71,7.71,0,0,0-.5-1.76l-.95-2.84h-5.55Z"/><path class="cls-1" d="M258.57,164.61l.05,0Zm-2.08,6.78h4.28l-2.13-6.55Zm-.29.21,2.34-7.13h.13v.11h0v-.11h.07l2.33,7.13Zm5,7.19c1.21,0,2.39-.09,3.56-.09s2.2.05,3.27.09v-.51h0a1.66,1.66,0,0,1-1.72-1c-.31-.74-.61-1.65-.9-2.51l-4.5-12.79c-.08-.19-.15-.41-.21-.59l0,0h0a.89.89,0,0,0-.14,0,9,9,0,0,1-2.18,1,19.72,19.72,0,0,1-.91,3l-3.91,11.23a2.34,2.34,0,0,1-2.23,1.66h0v.51c.84,0,1.69-.09,2.54-.09s1.91.05,2.84.09v-.51h-.16c-.79,0-1.9-.1-1.93-1a9.31,9.31,0,0,1,.54-1.94l.1,0-.1,0,.8-2.62h5.7l1,2.91a7.42,7.42,0,0,1,.49,1.79c0,.75-1.07.81-1.62.82h-.16Zm6.93.22c-1.1,0-2.2-.1-3.37-.1s-2.41.05-3.66.1H261v-1h.38c.57,0,1.41-.13,1.41-.6a7.68,7.68,0,0,0-.49-1.73l-.93-2.76H256l-.76,2.47a10.16,10.16,0,0,0-.54,1.88c0,.59.92.74,1.73.74h.38v1h-.11c-1,0-2-.1-3-.1s-1.76.05-2.64.1H251v-1h.25a2.09,2.09,0,0,0,2-1.51l3.92-11.23a27.31,27.31,0,0,0,1-3.1,12.18,12.18,0,0,0,2.22-1.05.78.78,0,0,1,.24,0,.3.3,0,0,1,.27.14l.22.62,4.5,12.79c.29.85.58,1.76.9,2.48a1.43,1.43,0,0,0,1.52.91h.25v1Z"/><path class="cls-1" d="M269.21,163.06c-1.83,0-1.91.44-2.27,2.22h-.74c.1-.68.22-1.36.3-2.08a15.64,15.64,0,0,0,.14-2.07h.59c.19.73.81.71,1.47.71h12.62c.65,0,1.26,0,1.31-.76l.59.1c-.09.66-.19,1.32-.27,2s-.05,1.32-.05,2l-.73.27c-.05-.9-.17-2.35-1.81-2.35h-4v13c0,1.88.86,2.1,2,2.1h.47v.74c-1,0-2.67-.1-4-.1-1.47,0-3.18.1-4.13.1v-.74h.46c1.35,0,2-.12,2-2V163.06Z"/><path class="cls-1" d="M278.85,179c-1,0-2.68-.1-4-.1-1.46,0-3.18.1-4.13.1h-.11v-.95h.57c1.35,0,1.89,0,1.92-1.94v-13h-3.9V163h4.11v13.17c0,2-.79,2.15-2.13,2.16h-.36v.52c1,0,2.61-.1,4-.1s2.91.09,3.88.1v-.52h-.36c-1.18,0-2.13-.29-2.14-2.21V163h4.12c1.64,0,1.86,1.4,1.9,2.31l.54-.2c0-.63,0-1.27.05-1.91s.16-1.26.25-1.88l-.37-.07c-.11.71-.81.75-1.41.74H268.57c-.58,0-1.2,0-1.42-.71h-.4a14.45,14.45,0,0,1-.15,2c-.07.67-.19,1.32-.28,2h.53c.32-1.7.53-2.26,2.36-2.23v.21c-1.81,0-1.77.34-2.17,2.15l0,.08h-.94v-.12c.1-.69.22-1.37.3-2.08a14.07,14.07,0,0,0,.14-2.06V161h.78l0,.08c.17.62.62.62,1.24.63h12.75c.67,0,1.16,0,1.21-.66V161l.12,0,.69.11,0,.1c-.1.66-.19,1.32-.26,2s-.05,1.32-.05,2v.07l-.07,0-.87.32v-.15c-.07-.91-.16-2.25-1.71-2.25h-3.9v12.91c0,1.84.75,2,1.92,2H279V179Z"/><path class="cls-1" d="M284.12,178.17h.34c.89,0,1.81-.12,1.81-1.39V164c0-1.28-.92-1.4-1.81-1.4h-.34v-.73c1,0,2.42.09,3.62.09s2.69-.09,3.84-.09v.73h-.34c-.88,0-1.81.12-1.81,1.4v12.81c0,1.27.93,1.39,1.81,1.39h.34v.74c-1.17,0-2.64-.1-3.86-.1s-2.64.1-3.6.1Z"/><path class="cls-1" d="M291.47,178.8v-.52h-.23c-.88,0-1.92-.15-1.92-1.5V164c0-1.35,1-1.51,1.92-1.51h.23v-.52c-1.13,0-2.54.1-3.73.1s-2.56-.09-3.51-.1v.52h.23c.87,0,1.92.16,1.92,1.51v12.81c0,1.35-1.05,1.5-1.92,1.5h-.23v.52c.94,0,2.33-.1,3.49-.1s2.6.09,3.75.1m.11.21c-1.18,0-2.64-.1-3.86-.1s-2.64.1-3.6.1H284v-.95h.45c.89,0,1.7-.09,1.7-1.28V164c0-1.2-.81-1.28-1.7-1.29H284v-1h.11c1,0,2.43.1,3.62.1s2.68-.1,3.84-.1h.1v1h-.44c-.9,0-1.7.09-1.71,1.29v12.81c0,1.19.81,1.27,1.71,1.28h.44V179Z"/><path class="cls-1" d="M301.7,178.2c4.75,0,5.57-4.19,5.57-7.75s-1.92-7.9-6-7.9c-4.28,0-5.55,3.81-5.55,7.09,0,4.37,2,8.56,6,8.56m-.37-16.73c5.22,0,9.37,3.23,9.37,8.44a9,9,0,0,1-9.24,9.36c-5.19,0-9.15-3.52-9.15-8.78a8.9,8.9,0,0,1,9-9"/><path class="cls-1" d="M295.63,169.64c0-3.3,1.29-7.2,5.66-7.2,4.15,0,6.08,4.41,6.09,8s-.84,7.85-5.68,7.85v-.21c4.65,0,5.46-4.08,5.47-7.64s-1.91-7.79-5.88-7.8c-4.2,0-5.44,3.73-5.45,7,0,4.35,2,8.44,5.86,8.45v.21c-4.06,0-6.06-4.26-6.07-8.66m-3.43.85a9,9,0,0,1,9.13-9.13v.22a8.79,8.79,0,0,0-8.92,8.91c0,5.2,3.91,8.67,9,8.67a8.87,8.87,0,0,0,9.14-9.26c0-5.14-4.1-8.32-9.27-8.32v-.22c5.25,0,9.47,3.27,9.48,8.54a9.1,9.1,0,0,1-9.35,9.48c-5.23,0-9.25-3.57-9.26-8.89"/><path class="cls-1" d="M327.18,174.09l.05-.05v-9.17a2,2,0,0,0-2.13-2.3h-.53v-.73c1.14,0,2.27.09,3.41.09s2-.09,3-.09v.73h-.37c-1,0-2.18.2-2.18,3.11V176.8a15,15,0,0,0,.15,2.47h-.93l-12.6-14v10.08c0,2.13.42,2.86,2.3,2.86h.42v.74c-1.05,0-2.1-.1-3.15-.1s-2.23.1-3.33.1v-.74h.34c1.69,0,2.2-1.15,2.2-3.1v-10.3a2.19,2.19,0,0,0-2.22-2.2h-.32v-.73c.93,0,1.88.09,2.81.09.73,0,1.44-.09,2.18-.09Z"/><path class="cls-1" d="M327.12,174h0l0,0Zm.06.05.08-.07Zm.49,5.07h.8a17.83,17.83,0,0,1-.12-2.36V165.68c0-2.94,1.23-3.21,2.28-3.22h.26v-.52c-1,0-1.93.1-2.91.1s-2.2-.09-3.31-.1v.52h.43a2.15,2.15,0,0,1,2.23,2.41l0,9.24,0,0-.08.08-10.88-12.3c-.73,0-1.44.1-2.18.1-.9,0-1.82-.09-2.71-.1v.52h.22a2.32,2.32,0,0,1,2.33,2.31v10.3c0,2-.55,3.2-2.31,3.21h-.24v.52c1.06,0,2.15-.1,3.23-.1s2,.09,3,.1v-.52h-.31c-1.92,0-2.4-.84-2.4-3V165Zm.93.22-1,0-12.41-13.83v9.8c0,2.13.35,2.73,2.19,2.75h.53V179h-.11c-1.06,0-2.11-.1-3.15-.1s-2.22.1-3.33.1h-.11v-.95h.45c1.61,0,2.08-1,2.1-3v-10.3a2.09,2.09,0,0,0-2.12-2.09h-.43v-1h.11c.93,0,1.89.1,2.81.1.72,0,1.43-.1,2.26-.06l10.74,12.1v-9c0-1.94-1.31-2.18-2-2.19h-.65v-1h.12c1.15,0,2.27.1,3.41.1s2-.1,3-.1h.1v1h-.47c-1,0-2.05.11-2.07,3V176.8a16.06,16.06,0,0,0,.14,2.46l0,.12Z"/><path class="cls-1" d="M338.5,164.58h-.05l-2.28,6.92h4.58Zm-3.57,10.83a10.25,10.25,0,0,0-.54,1.91c0,.73,1,.85,1.83.85h.27v.74c-1-.06-2-.1-3-.1s-1.76,0-2.63.1v-.74H331a2.21,2.21,0,0,0,2.12-1.59l3.92-11.22a19.44,19.44,0,0,0,.9-3,12.37,12.37,0,0,0,2.23-1,.47.47,0,0,1,.2-.06c.07,0,.12,0,.16.08s.15.42.23.61l4.49,12.79c.3.86.59,1.76.91,2.5a1.56,1.56,0,0,0,1.61,1H348v.74c-1.1-.06-2.2-.1-3.38-.1s-2.41,0-3.66.1v-.74h.27c.56,0,1.52-.1,1.52-.71a8.29,8.29,0,0,0-.5-1.76l-.95-2.84h-5.55Z"/><path class="cls-1" d="M338.4,164.61l.05,0Zm-2.08,6.78h4.28l-2.13-6.55Zm-.29.21,2.34-7.13h.13v.11h0v-.11h.08l2.31,7.13Zm5,7.19c1.21,0,2.4-.09,3.56-.09s2.21.05,3.27.09v-.51h0a1.67,1.67,0,0,1-1.71-1c-.32-.74-.61-1.65-.9-2.51l-4.5-12.79c-.08-.19-.15-.41-.21-.58s0,0,0,0h-.05a.79.79,0,0,0-.13,0,9.59,9.59,0,0,1-2.18,1,20.89,20.89,0,0,1-.91,3l-3.92,11.23a2.32,2.32,0,0,1-2.23,1.66h0v.51c.84,0,1.68-.09,2.53-.09s1.92.05,2.86.09v-.51h-.17c-.79,0-1.91-.1-1.94-1a10.5,10.5,0,0,1,.55-1.93l.1,0-.1,0,.8-2.62h5.7l1,2.91a7.57,7.57,0,0,1,.5,1.79c0,.75-1.07.81-1.63.82H341ZM348,179c-1.1,0-2.2-.1-3.37-.1s-2.41.06-3.66.1h-.11v-1h.37c.57,0,1.42-.13,1.42-.6a8.45,8.45,0,0,0-.49-1.73l-.93-2.76h-5.4l-.75,2.47a9.53,9.53,0,0,0-.53,1.87c0,.6.91.75,1.72.75h.37v1h-.11c-1,0-2-.1-3-.1s-1.75.06-2.63.1h-.11v-1H331a2.11,2.11,0,0,0,2-1.51L337,165.32c.31-.9.75-2.12,1-3.09a12.85,12.85,0,0,0,2.22-1.06.78.78,0,0,1,.23,0,.28.28,0,0,1,.27.14c.08.2.15.42.23.62l4.5,12.79c.29.85.58,1.76.9,2.48a1.43,1.43,0,0,0,1.51.91h.25v1Z"/><path class="cls-1" d="M354.13,176.51c0,1,.67,1.27,1.46,1.37a18.52,18.52,0,0,0,3.23,0,3.5,3.5,0,0,0,2.34-1.32,5.59,5.59,0,0,0,.76-1.76h.71c-.27,1.39-.61,2.76-.91,4.16-2.14,0-4.3-.1-6.45-.1s-4.3.1-6.45.1v-.74h.33c.89,0,1.84-.12,1.84-1.64V164c0-1.28-.95-1.4-1.84-1.4h-.33v-.73c1.29,0,2.56.09,3.86.09s2.47-.09,3.72-.09v.73h-.62c-.92,0-1.65,0-1.65,1.32Z"/><path class="cls-1" d="M361.64,178.8c.28-1.33.6-2.63.86-4H362a5.6,5.6,0,0,1-.75,1.72,3.63,3.63,0,0,1-2.43,1.37c-.64.06-1.27.1-1.87.1s-.93,0-1.38-.06c-.79-.09-1.56-.42-1.56-1.47V163.89c0-1.36.86-1.43,1.77-1.43h.51v-.52c-1.21,0-2.39.1-3.61.1s-2.51-.09-3.76-.1v.52h.23c.88,0,1.94.16,1.94,1.5v12.57c0,1.59-1.06,1.75-1.94,1.75h-.23v.52c2.11,0,4.23-.1,6.35-.1s4.25.09,6.37.1m.09.21c-2.16,0-4.31-.1-6.46-.1s-4.3.1-6.46.1h-.1v-.95h.44c.89,0,1.73-.08,1.74-1.53V164c0-1.19-.85-1.27-1.74-1.28h-.44v-1h.1c1.3,0,2.58.1,3.87.1s2.46-.1,3.72-.1h.1v1h-.72c-.95,0-1.54,0-1.56,1.21v12.62c0,.91.61,1.16,1.37,1.26.43,0,.89,0,1.36,0a16.77,16.77,0,0,0,1.85-.1,3.39,3.39,0,0,0,2.28-1.27,5.65,5.65,0,0,0,.74-1.73l0-.08h.92l0,.13c-.28,1.4-.62,2.76-.91,4.16l0,.08Z"/><path class="cls-1" d="M361.92,163.73h.3c.33,0,.49-.26.49-.66s-.24-.56-.5-.56h-.29Zm-.87,1.35V165c.32-.05.37,0,.37-.24v-1.9c0-.27,0-.36-.36-.35v-.13h1.32c.45,0,.87.22.87.69a.8.8,0,0,1-.61.77l.42.59a2.65,2.65,0,0,0,.57.61v.08h-.5c-.24,0-.45-.5-.93-1.18h-.28v.85c0,.17.06.16.38.21v.12Zm1.28.73a2.1,2.1,0,1,0-2-2.08,2.08,2.08,0,0,0,2,2.08m0-4.67a2.58,2.58,0,1,1-2.57,2.59,2.53,2.53,0,0,1,2.57-2.59"/><path class="cls-1" d="M98.29,192.72c23.36.12,44.68-19,44.68-42.35,0-25.49-21.32-43.1-44.68-43.09H78.19c-23.64,0-43.1,17.61-43.1,43.09,0,23.31,19.46,42.47,43.1,42.35Z"/><path class="cls-2" d="M87.15,173.07V126.78a24.78,24.78,0,0,1,0,46.29M53.49,149.92a24.83,24.83,0,0,1,15.92-23.13v46.27a24.84,24.84,0,0,1-15.92-23.14m24.79-39.11a39.11,39.11,0,1,0,39.12,39.11,39.1,39.1,0,0,0-39.12-39.11"/><path class="cls-1" d="M161.07,146.74c0,3.46,2.48,3.86,4.68,3.86,9.71,0,12.89-7.32,12.89-14,0-8.4-5.39-14.47-14.06-14.47-1.85,0-2.7.13-3.51.18Zm-4.4-21.08c0-4-2.11-3.78-4.13-3.82v-1.17c1.75.09,3.55.09,5.3.09s4.45-.09,7.78-.09c11.63,0,18,7.77,18,15.73,0,4.45-2.61,15.64-18.52,15.64-2.28,0-4.4-.09-6.51-.09s-4,.05-6,.09v-1.17c2.69-.27,4-.36,4.13-3.41Z"/><path class="cls-1" d="M190,124.58a2.21,2.21,0,0,1,0-4.41,2.21,2.21,0,0,1,2.21,2.17,2.25,2.25,0,0,1-2.21,2.24m-4.8,26.29H186c1.25,0,2.15,0,2.15-1.48V137.21c0-2-.67-2.25-2.33-3.14v-.72c2.11-.64,4.63-1.49,4.81-1.62a1.57,1.57,0,0,1,.81-.23c.22,0,.31.27.31.63v17.26c0,1.48,1,1.48,2.25,1.48h.76V152c-1.53,0-3.1-.09-4.72-.09s-3.23.05-4.89.09Z"/><path class="cls-1" d="M199.05,137.48c0-1.66-.5-2.11-2.6-3v-.85a59.77,59.77,0,0,0,5.93-2.16c.13,0,.26.09.26.45v2.92c2.57-1.84,4.77-3.37,7.79-3.37,3.81,0,5.16,2.79,5.16,6.29v11.6c0,1.48,1,1.48,2.25,1.48h.81V152c-1.58,0-3.15-.09-4.77-.09s-3.24.05-4.85.09v-1.17h.81c1.26,0,2.15,0,2.15-1.48V137.75c0-2.56-1.56-3.82-4.13-3.82-1.44,0-3.73,1.17-5.22,2.16v13.3c0,1.48,1,1.48,2.25,1.48h.81V152c-1.57,0-3.14-.09-4.76-.09s-3.24.05-4.86.09v-1.17h.82c1.25,0,2.15,0,2.15-1.48Z"/><path class="cls-1" d="M230,138.2c1.12,0,1.25-.59,1.25-1.12a3.81,3.81,0,0,0-3.91-4.14c-2.74,0-4.62,2-5.16,5.26Zm-8,1.44a11.33,11.33,0,0,0,0,2.61c.27,4.26,3,7.77,6.61,7.77,2.47,0,4.41-1.35,6.07-3l.62.63c-2.06,2.74-4.63,5.08-8.31,5.08-7.15,0-8.58-6.93-8.58-9.8,0-8.81,5.93-11.42,9.07-11.42,3.64,0,7.56,2.29,7.6,7.06a5.49,5.49,0,0,1,0,.81l-.41.27Z"/><path class="cls-1" d="M236.17,150.87h1.22c1.25,0,2.15,0,2.15-1.48V136.76c0-1.39-1.66-1.66-2.34-2v-.67c3.29-1.4,5.08-2.57,5.49-2.57s.4.14.4.59v4h.1c1.12-1.75,3-4.63,5.75-4.63a2.45,2.45,0,0,1,2.56,2.38,2.18,2.18,0,0,1-2.11,2.3c-1.4,0-1.4-1.08-3-1.08a3.79,3.79,0,0,0-3.28,3.73v10.56c0,1.48.89,1.48,2.15,1.48h2.52V152c-2.47,0-4.35-.09-6.29-.09s-3.73.05-5.35.09Z"/><path class="cls-1" d="M253.48,145.79c.58,3,2.38,5.49,5.66,5.49,2.65,0,3.64-1.62,3.64-3.19,0-5.31-9.8-3.6-9.8-10.83,0-2.52,2-5.76,7-5.76a11.83,11.83,0,0,1,5.12,1.31l.31,4.58h-1c-.45-2.83-2-4.45-4.9-4.45-1.8,0-3.5,1-3.5,3,0,5.26,10.42,3.64,10.42,10.69,0,3-2.38,6.12-7.73,6.12a11.79,11.79,0,0,1-5.48-1.53l-.5-5.17Z"/><path class="cls-1" d="M307,128.8h-1.12c-.85-5.25-4.59-7.36-9.62-7.36s-12.67,3.45-12.67,14.24c0,9.08,6.47,15.6,13.39,15.6a9.15,9.15,0,0,0,9-7.78l1,.27-1,6.56c-1.89,1.17-7,2.39-9.94,2.39-10.51,0-17.16-6.79-17.16-16.9,0-9.22,8.22-15.83,17-15.83,3.64,0,7.14,1.18,10.6,2.39Z"/><path class="cls-1" d="M308.57,150.87h.85c1.26,0,2.16,0,2.16-1.48v-25c0-2.92-.67-3-2.38-3.51v-.72a28.17,28.17,0,0,0,4.63-1.93,4.52,4.52,0,0,1,1-.5c.27,0,.36.28.36.64v31c0,1.48,1,1.48,2.25,1.48h.76V152c-1.53,0-3.1-.09-4.72-.09s-3.23.05-4.9.09Z"/><path class="cls-1" d="M337.43,149.57c0,.81.49.85,1.25.85.54,0,1.22,0,1.8,0v.94a45.59,45.59,0,0,0-6.47,1.4l-.23-.14v-3.64c-2.69,2.2-4.76,3.78-7.95,3.78-2.43,0-4.95-1.58-4.95-5.35V135.86c0-1.17-.17-2.29-2.69-2.51v-.86c1.62,0,5.21-.31,5.8-.31s.49.31.49,1.3v11.59c0,1.35,0,5.22,3.91,5.22,1.53,0,3.55-1.17,5.44-2.74v-12.1c0-.89-2.16-1.38-3.77-1.83v-.81c4-.27,6.56-.63,7-.63s.37.31.37.81Z"/><path class="cls-1" d="M346.37,147a4.84,4.84,0,0,0,4.63,4.59c4.81,0,6.83-4.72,6.83-8.72,0-4.86-3.68-8.9-7.19-8.9-1.67,0-3.06,1.08-4.27,2.11Zm0-12.22c1.79-1.53,4.22-3.24,6.7-3.24,5.21,0,8.35,4.54,8.35,9.44,0,5.89-4.31,11.78-10.74,11.78a13.31,13.31,0,0,1-6.25-1.58l-1.34,1-.94-.49a53,53,0,0,0,.62-8V124.36c0-2.92-.67-3-2.38-3.51v-.72A28.17,28.17,0,0,0,345,118.2a4.52,4.52,0,0,1,1-.5c.27,0,.36.28.36.64Z"/><path class="cls-1" d="M152.49,178.17h.34c.88,0,1.81-.12,1.81-1.39V164c0-1.28-.93-1.4-1.81-1.4h-.34v-.73c.95,0,2.42.09,3.62.09s2.69-.09,3.84-.09v.73h-.35c-.87,0-1.81.12-1.81,1.4v12.81c0,1.27.94,1.39,1.81,1.39H160v.74c-1.18,0-2.65-.1-3.87-.1s-2.64.1-3.59.1Z"/><path class="cls-1" d="M159.84,178.8v-.52h-.24c-.87,0-1.91-.15-1.91-1.5V164c0-1.35,1-1.51,1.91-1.51h.24v-.52c-1.13,0-2.54.1-3.73.1s-2.57-.09-3.51-.1v.52h.23c.87,0,1.91.16,1.91,1.51v12.81c0,1.35-1,1.5-1.91,1.5h-.23v.52c.94,0,2.32-.1,3.48-.1s2.61.09,3.76.1m.11.21c-1.19,0-2.65-.1-3.87-.1s-2.63.1-3.59.1h-.11v-.95h.45c.89,0,1.69-.09,1.7-1.28V164c0-1.2-.81-1.28-1.7-1.29h-.45v-1h.11c1,0,2.42.1,3.62.1s2.68-.1,3.84-.1h.1v1h-.45c-.88,0-1.69.09-1.7,1.29v12.81c0,1.19.82,1.26,1.7,1.28h.45V179Z"/><path class="cls-1" d="M176.75,174.09l0-.05v-9.17a2,2,0,0,0-2.12-2.3h-.54v-.73c1.15,0,2.27.09,3.42.09,1,0,2-.09,3-.09v.73h-.37c-1,0-2.17.2-2.17,3.11V176.8a16.27,16.27,0,0,0,.14,2.47h-.93l-12.59-14v10.08c0,2.13.41,2.86,2.3,2.86h.41v.74c-1,0-2.1-.1-3.15-.1s-2.22.1-3.33.1v-.74h.35c1.68,0,2.2-1.15,2.2-3.1v-10.3a2.2,2.2,0,0,0-2.23-2.2h-.32v-.73c.93,0,1.89.09,2.81.09.74,0,1.45-.09,2.18-.09Z"/><path class="cls-1" d="M176.69,174h0l0,0Zm.06.05.07-.07Zm.48,5.07H178a16.23,16.23,0,0,1-.13-2.36V165.68c0-2.94,1.23-3.22,2.28-3.22h.26v-.52c-1,0-1.93.1-2.9.1-1.12,0-2.21-.09-3.31-.1v.52h.44a2.14,2.14,0,0,1,2.23,2.41l0,9.24-.05,0-.08.08-10.88-12.3c-.72,0-1.43.1-2.18.1s-1.81-.09-2.7-.1v.52h.21a2.31,2.31,0,0,1,2.33,2.31v10.3c0,2-.55,3.2-2.3,3.21H161v.53c1.06,0,2.15-.1,3.22-.1s2,.09,3.05.1v-.52h-.31c-1.93,0-2.4-.84-2.41-3V165Zm.93.22-1,0-12.41-13.83v9.8c0,2.13.36,2.73,2.2,2.75h.52V179h-.11c-1.06,0-2.11-.1-3.15-.1s-2.22.1-3.33.1h-.1v-.95h.45c1.61,0,2.07-1,2.09-3v-10.3a2.09,2.09,0,0,0-2.12-2.09h-.42v-1h.1c.94,0,1.89.1,2.81.1.73,0,1.44-.1,2.26-.06l10.75,12.1v-9c0-1.94-1.31-2.18-2-2.19H174v-1h.11c1.15,0,2.28.1,3.42.1s2-.1,3-.1h.11v1h-.48c-1,0-2,.11-2.07,3V176.8a17.21,17.21,0,0,0,.14,2.45l0,.13Z"/><path class="cls-1" d="M184.22,163.06c-1.84,0-1.9.44-2.27,2.22h-.73c.09-.68.21-1.36.29-2.08a14.11,14.11,0,0,0,.15-2.07h.58c.2.73.81.71,1.47.71h12.62c.66,0,1.27,0,1.32-.76l.58.1c-.09.66-.19,1.32-.26,2s-.05,1.32-.05,2l-.73.27c-.06-.9-.18-2.35-1.81-2.35h-4v13c0,1.88.85,2.1,2,2.1h.47v.74c-1,0-2.67-.1-4-.1s-3.18.1-4.13.1v-.74h.46c1.35,0,2-.12,2-2V163.06Z"/><path class="cls-1" d="M193.86,179c-1,0-2.67-.1-4-.1s-3.17.1-4.13.1h-.1v-.95h.56c1.35,0,1.89,0,1.92-1.94v-13h-3.9V163h4.12v13.17c0,2-.79,2.16-2.14,2.16h-.36v.52c1,0,2.61-.1,4-.1s2.91.09,3.88.1v-.52h-.36c-1.18,0-2.13-.29-2.13-2.21V163h4.12c1.64,0,1.85,1.4,1.9,2.31l.53-.2c0-.63,0-1.27.05-1.92s.16-1.25.25-1.87l-.37-.07c-.11.71-.8.75-1.42.74H183.59c-.58,0-1.21,0-1.43-.71h-.4a13,13,0,0,1-.15,2c-.07.67-.18,1.31-.27,2h.52c.33-1.7.54-2.26,2.36-2.23v.21c-1.81,0-1.77.34-2.17,2.15l0,.08h-.94l0-.12c.1-.69.22-1.37.29-2.08a14.07,14.07,0,0,0,.15-2.06V161h.78v.08c.17.62.62.62,1.25.63h12.73c.69,0,1.18,0,1.22-.66V161l.11,0,.69.11v.1c-.1.66-.2,1.32-.27,2s0,1.32,0,2v.07l-.07,0-.86.32v-.15c-.06-.91-.16-2.25-1.7-2.25h-3.91v12.91c0,1.84.76,2,1.92,2H194V179Z"/><path class="cls-1" d="M199,178.17h.35c.88,0,1.81-.12,1.81-1.39V164c0-1.28-.93-1.4-1.81-1.4H199v-.73c1.49,0,4,.09,6.09.09s4.6-.09,6.26-.09c0,1,0,2.66,0,3.74l-.73.19c-.12-1.58-.41-2.85-3-2.85h-3.4v6.4h2.91c1.46,0,1.78-.83,1.93-2.15h.73c-.05,1-.07,1.91-.07,2.86s0,1.86.07,2.79l-.73.14c-.15-1.46-.22-2.42-1.91-2.42H204.3v5.7c0,1.59,1.41,1.59,3,1.59,2.93,0,4.23-.2,5-3l.69.17c-.32,1.3-.61,2.59-.83,3.89-1.57,0-4.38-.1-6.58-.1s-5.11.1-6.51.1Z"/><path class="cls-1" d="M212,178.8c.21-1.24.49-2.47.79-3.7l-.48-.13c-.74,2.74-2.15,3-5,3-1.54,0-3.08,0-3.09-1.7v-5.8h3c1.71,0,1.88,1,2,2.4l.53-.11c0-.9-.07-1.8-.07-2.7s0-1.84.07-2.76h-.53c-.13,1.28-.53,2.17-2,2.16h-3V162.8h3.51c2.54,0,3,1.3,3.07,2.84l.53-.14c0-.69-.07-1.58-.07-2.4,0-.41,0-.81,0-1.16-1.66,0-4.14.1-6.15.1s-4.48-.09-6-.1v.52h.24c.87,0,1.91.16,1.91,1.51v12.81c0,1.35-1,1.49-1.91,1.5h-.24v.52c1.43,0,4.25-.1,6.4-.1s4.91.09,6.49.1m.09.21c-1.57,0-4.38-.1-6.58-.1s-5.11.1-6.51.1h-.1v-.95h.45c.88,0,1.69-.09,1.7-1.28V164c0-1.2-.82-1.28-1.7-1.29h-.45v-1h.1c1.5,0,4,.1,6.09.1s4.59-.1,6.26-.1h.11v.11c0,.37,0,.8,0,1.26,0,.85,0,1.77.07,2.47v.09l-.08,0-.86.23v-.13c-.14-1.59-.36-2.74-2.87-2.76h-3.3v6.19h2.81c1.4,0,1.66-.73,1.82-2.05v-.1H210v.11c0,1-.08,1.91-.08,2.86s0,1.85.08,2.78v.09l-.09,0-.85.17V173c-.17-1.5-.18-2.32-1.8-2.33H204.4v5.6c0,1.48,1.29,1.48,2.88,1.48,2.94,0,4.12-.16,4.86-2.9l0-.1.1,0,.78.2,0,.1c-.32,1.3-.61,2.59-.83,3.89l0,.08Z"/><path class="cls-1" d="M219.36,170.1h1.19c2.45,0,3.77-.93,3.77-3.81a3.33,3.33,0,0,0-3.57-3.57,10.55,10.55,0,0,0-1.39.1Zm-3.13-5.67c0-1.79-1-1.86-1.74-1.86h-.44v-.73c.78,0,2.3.09,3.79.09s2.64-.09,3.94-.09c3.08,0,5.82.83,5.82,4.3,0,2.2-1.47,3.55-3.4,4.31l4.18,6.25a2.7,2.7,0,0,0,2.37,1.47v.74c-.81,0-1.59-.1-2.39-.1s-1.55.1-2.3.1A68.41,68.41,0,0,1,221,171h-1.61v5.24c0,1.88.88,1.95,2,1.95h.44v.74c-1.39,0-2.81-.1-4.2-.1-1.18,0-2.33.1-3.55.1v-.74h.44c.91,0,1.74-.41,1.74-1.32Z"/><path class="cls-1" d="M220.55,170c2.43,0,3.64-.87,3.67-3.71a3.24,3.24,0,0,0-3.47-3.47,10,10,0,0,0-1.29.09V170Zm-1.19.21h-.11v-7.49h.09a10.94,10.94,0,0,1,1.41-.1,3.46,3.46,0,0,1,3.68,3.68c0,2.92-1.41,3.91-3.88,3.92Zm0,.67H221l0,.05a75,75,0,0,0,5,7.87c.74,0,1.53-.1,2.29-.1s1.53.09,2.3.1v-.54a2.79,2.79,0,0,1-2.36-1.5L224,170.4l.12-.05c1.91-.76,3.33-2.06,3.33-4.21,0-3.4-2.64-4.18-5.71-4.2-1.29,0-2.47.1-3.94.1s-2.89-.09-3.69-.1v.52h.34c.76,0,1.84.13,1.84,2v12.42c0,1-.92,1.43-1.84,1.43h-.34v.52c1.18,0,2.3-.1,3.44-.1,1.37,0,2.75.09,4.1.1v-.52h-.33c-1.12,0-2.11-.14-2.11-2.07v-5.33ZM230.75,179c-.82,0-1.6-.1-2.4-.1s-1.53.1-2.38.06a69.29,69.29,0,0,1-5.06-7.88h-1.45v5.12c0,1.84.77,1.83,1.9,1.85h.55V179h-.11c-1.4,0-2.82-.1-4.21-.1-1.16,0-2.31.1-3.54.1h-.11v-.95h.55c.88,0,1.62-.38,1.63-1.21V164.43c0-1.74-.87-1.73-1.63-1.75h-.55v-1h.11c.79,0,2.3.1,3.79.1s2.63-.1,3.94-.1c3.08,0,5.92.86,5.93,4.41,0,2.21-1.46,3.58-3.35,4.35l4.11,6.15a2.6,2.6,0,0,0,2.3,1.42l.09,0V179Z"/><path class="cls-1" d="M247.35,174.09l.05-.05v-9.17a2,2,0,0,0-2.13-2.3h-.53v-.73c1.15,0,2.27.09,3.42.09,1,0,2-.09,3-.09v.73h-.37c-1,0-2.17.2-2.17,3.11V176.8a16.27,16.27,0,0,0,.14,2.47h-.93l-12.59-14v10.08c0,2.13.42,2.86,2.3,2.86H238v.74c-1.05,0-2.1-.1-3.15-.1s-2.23.1-3.33.1v-.74h.34c1.69,0,2.21-1.15,2.21-3.1v-10.3a2.2,2.2,0,0,0-2.23-2.2h-.32v-.73c.93,0,1.89.09,2.82.09.72,0,1.44-.09,2.17-.09Z"/><path class="cls-1" d="M247.29,174h0v0Zm.06.05.08-.07Zm.49,5.07h.81a16.23,16.23,0,0,1-.13-2.36V165.68c0-2.94,1.23-3.21,2.28-3.22h.26v-.52c-1,0-1.93.1-2.9.1-1.12,0-2.21-.09-3.32-.1v.52h.43a2.15,2.15,0,0,1,2.24,2.41l0,9.24,0,0-.08.08-10.88-12.3c-.73,0-1.43.1-2.17.1-.91,0-1.82-.09-2.71-.1v.52h.21a2.31,2.31,0,0,1,2.33,2.31v10.29c0,2-.55,3.21-2.31,3.22h-.23v.52c1,0,2.14-.1,3.22-.1s2,.09,3.05.1v-.52h-.31c-1.93,0-2.41-.84-2.41-3V165Zm.93.22-1,0-12.42-13.83v9.8c0,2.13.35,2.73,2.2,2.75h.52V179H238c-1.06,0-2.11-.1-3.15-.1s-2.23.1-3.32.1h-.12v-.95h.45c1.62,0,2.08-1,2.1-3V164.77a2.09,2.09,0,0,0-2.12-2.09h-.43v-1h.12c.93,0,1.88.1,2.81.1.71,0,1.42-.1,2.24-.07l10.75,12.11v-9c0-1.94-1.31-2.18-2-2.19h-.64v-1h.1c1.16,0,2.29.1,3.43.1s2-.1,3-.1h.1v1h-.47c-1,0-2.05.11-2.07,3V176.8a14.85,14.85,0,0,0,.15,2.46v.12Z"/><path class="cls-1" d="M258.67,164.58h-.05l-2.27,6.92h4.57Zm-3.57,10.83a10.25,10.25,0,0,0-.54,1.91c0,.73,1,.85,1.83.85h.28v.74c-1-.06-2-.1-3-.1s-1.75,0-2.63.1v-.74h.14a2.21,2.21,0,0,0,2.13-1.59l3.91-11.22a20.64,20.64,0,0,0,.91-3,12.24,12.24,0,0,0,2.22-1,.51.51,0,0,1,.2-.06.16.16,0,0,1,.17.08c.07.19.14.42.22.61l4.5,12.79c.29.86.59,1.76.9,2.5a1.56,1.56,0,0,0,1.62,1h.15v.74c-1.11-.06-2.21-.1-3.38-.1s-2.42,0-3.67.1v-.74h.27c.56,0,1.52-.1,1.52-.71a7.71,7.71,0,0,0-.5-1.76l-.95-2.84h-5.55Z"/><path class="cls-1" d="M258.57,164.61l.05,0Zm-2.08,6.78h4.28l-2.13-6.55Zm-.29.21,2.34-7.13h.13v.11h0v-.11h.07l2.33,7.13Zm5,7.19c1.21,0,2.39-.09,3.56-.09s2.2.05,3.27.09v-.51h0a1.66,1.66,0,0,1-1.72-1c-.31-.74-.61-1.65-.9-2.51l-4.5-12.79c-.08-.19-.15-.41-.21-.59l0,0h0a.89.89,0,0,0-.14,0,9,9,0,0,1-2.18,1,19.72,19.72,0,0,1-.91,3l-3.91,11.23a2.34,2.34,0,0,1-2.23,1.66h0v.51c.84,0,1.69-.09,2.54-.09s1.91.05,2.84.09v-.51h-.16c-.79,0-1.9-.1-1.93-1a9.31,9.31,0,0,1,.54-1.94l.1,0-.1,0,.8-2.62h5.7l1,2.91a7.42,7.42,0,0,1,.49,1.79c0,.75-1.07.81-1.62.82h-.16Zm6.93.22c-1.1,0-2.2-.1-3.37-.1s-2.41.05-3.66.1H261v-1h.38c.57,0,1.41-.13,1.41-.6a7.68,7.68,0,0,0-.49-1.73l-.93-2.76H256l-.76,2.47a10.16,10.16,0,0,0-.54,1.88c0,.59.92.74,1.73.74h.38v1h-.11c-1,0-2-.1-3-.1s-1.76.05-2.64.1H251v-1h.25a2.09,2.09,0,0,0,2-1.51l3.92-11.23a27.31,27.31,0,0,0,1-3.1,12.18,12.18,0,0,0,2.22-1.05.78.78,0,0,1,.24,0,.3.3,0,0,1,.27.14l.22.62,4.5,12.79c.29.85.58,1.76.9,2.48a1.43,1.43,0,0,0,1.52.91h.25v1Z"/><path class="cls-1" d="M269.21,163.06c-1.83,0-1.91.44-2.27,2.22h-.74c.1-.68.22-1.36.3-2.08a15.64,15.64,0,0,0,.14-2.07h.59c.19.73.81.71,1.47.71h12.62c.65,0,1.26,0,1.31-.76l.59.1c-.09.66-.19,1.32-.27,2s-.05,1.32-.05,2l-.73.27c-.05-.9-.17-2.35-1.81-2.35h-4v13c0,1.88.86,2.1,2,2.1h.47v.74c-1,0-2.67-.1-4-.1-1.47,0-3.18.1-4.13.1v-.74h.46c1.35,0,2-.12,2-2V163.06Z"/><path class="cls-1" d="M278.85,179c-1,0-2.68-.1-4-.1-1.46,0-3.18.1-4.13.1h-.11v-.95h.57c1.35,0,1.89,0,1.92-1.94v-13h-3.9V163h4.11v13.17c0,2-.79,2.15-2.13,2.16h-.36v.52c1,0,2.61-.1,4-.1s2.91.09,3.88.1v-.52h-.36c-1.18,0-2.13-.29-2.14-2.21V163h4.12c1.64,0,1.86,1.4,1.9,2.31l.54-.2c0-.63,0-1.27.05-1.91s.16-1.26.25-1.88l-.37-.07c-.11.71-.81.75-1.41.74H268.57c-.58,0-1.2,0-1.42-.71h-.4a14.45,14.45,0,0,1-.15,2c-.07.67-.19,1.32-.28,2h.53c.32-1.7.53-2.26,2.36-2.23v.21c-1.81,0-1.77.34-2.17,2.15l0,.08h-.94v-.12c.1-.69.22-1.37.3-2.08a14.07,14.07,0,0,0,.14-2.06V161h.78l0,.08c.17.62.62.62,1.24.63h12.75c.67,0,1.16,0,1.21-.66V161l.12,0,.69.11,0,.1c-.1.66-.19,1.32-.26,2s-.05,1.32-.05,2v.07l-.07,0-.87.32v-.15c-.07-.91-.16-2.25-1.71-2.25h-3.9v12.91c0,1.84.75,2,1.92,2H279V179Z"/><path class="cls-1" d="M284.12,178.17h.34c.89,0,1.81-.12,1.81-1.39V164c0-1.28-.92-1.4-1.81-1.4h-.34v-.73c1,0,2.42.09,3.62.09s2.69-.09,3.84-.09v.73h-.34c-.88,0-1.81.12-1.81,1.4v12.81c0,1.27.93,1.39,1.81,1.39h.34v.74c-1.17,0-2.64-.1-3.86-.1s-2.64.1-3.6.1Z"/><path class="cls-1" d="M291.47,178.8v-.52h-.23c-.88,0-1.92-.15-1.92-1.5V164c0-1.35,1-1.51,1.92-1.51h.23v-.52c-1.13,0-2.54.1-3.73.1s-2.56-.09-3.51-.1v.52h.23c.87,0,1.92.16,1.92,1.51v12.81c0,1.35-1.05,1.5-1.92,1.5h-.23v.52c.94,0,2.33-.1,3.49-.1s2.6.09,3.75.1m.11.21c-1.18,0-2.64-.1-3.86-.1s-2.64.1-3.6.1H284v-.95h.45c.89,0,1.7-.09,1.7-1.28V164c0-1.2-.81-1.28-1.7-1.29H284v-1h.11c1,0,2.43.1,3.62.1s2.68-.1,3.84-.1h.1v1h-.44c-.9,0-1.7.09-1.71,1.29v12.81c0,1.19.81,1.27,1.71,1.28h.44V179Z"/><path class="cls-1" d="M301.7,178.2c4.75,0,5.57-4.19,5.57-7.75s-1.92-7.9-6-7.9c-4.28,0-5.55,3.81-5.55,7.09,0,4.37,2,8.56,6,8.56m-.37-16.73c5.22,0,9.37,3.23,9.37,8.44a9,9,0,0,1-9.24,9.36c-5.19,0-9.15-3.52-9.15-8.78a8.9,8.9,0,0,1,9-9"/><path class="cls-1" d="M295.63,169.64c0-3.3,1.29-7.2,5.66-7.2,4.15,0,6.08,4.41,6.09,8s-.84,7.85-5.68,7.85v-.21c4.65,0,5.46-4.08,5.47-7.64s-1.91-7.79-5.88-7.8c-4.2,0-5.44,3.73-5.45,7,0,4.35,2,8.44,5.86,8.45v.21c-4.06,0-6.06-4.26-6.07-8.66m-3.43.85a9,9,0,0,1,9.13-9.13v.22a8.79,8.79,0,0,0-8.92,8.91c0,5.2,3.91,8.67,9,8.67a8.87,8.87,0,0,0,9.14-9.26c0-5.14-4.1-8.32-9.27-8.32v-.22c5.25,0,9.47,3.27,9.48,8.54a9.1,9.1,0,0,1-9.35,9.48c-5.23,0-9.25-3.57-9.26-8.89"/><path class="cls-1" d="M327.18,174.09l.05-.05v-9.17a2,2,0,0,0-2.13-2.3h-.53v-.73c1.14,0,2.27.09,3.41.09s2-.09,3-.09v.73h-.37c-1,0-2.18.2-2.18,3.11V176.8a15,15,0,0,0,.15,2.47h-.93l-12.6-14v10.08c0,2.13.42,2.86,2.3,2.86h.42v.74c-1.05,0-2.1-.1-3.15-.1s-2.23.1-3.33.1v-.74h.34c1.69,0,2.2-1.15,2.2-3.1v-10.3a2.19,2.19,0,0,0-2.22-2.2h-.32v-.73c.93,0,1.88.09,2.81.09.73,0,1.44-.09,2.18-.09Z"/><path class="cls-1" d="M327.12,174h0l0,0Zm.06.05.08-.07Zm.49,5.07h.8a17.83,17.83,0,0,1-.12-2.36V165.68c0-2.94,1.23-3.21,2.28-3.22h.26v-.52c-1,0-1.93.1-2.91.1s-2.2-.09-3.31-.1v.52h.43a2.15,2.15,0,0,1,2.23,2.41l0,9.24,0,0-.08.08-10.88-12.3c-.73,0-1.44.1-2.18.1-.9,0-1.82-.09-2.71-.1v.52h.22a2.32,2.32,0,0,1,2.33,2.31v10.3c0,2-.55,3.2-2.31,3.21h-.24v.52c1.06,0,2.15-.1,3.23-.1s2,.09,3,.1v-.52h-.31c-1.92,0-2.4-.84-2.4-3V165Zm.93.22-1,0-12.41-13.83v9.8c0,2.13.35,2.73,2.19,2.75h.53V179h-.11c-1.06,0-2.11-.1-3.15-.1s-2.22.1-3.33.1h-.11v-.95h.45c1.61,0,2.08-1,2.1-3v-10.3a2.09,2.09,0,0,0-2.12-2.09h-.43v-1h.11c.93,0,1.89.1,2.81.1.72,0,1.43-.1,2.26-.06l10.74,12.1v-9c0-1.94-1.31-2.18-2-2.19h-.65v-1h.12c1.15,0,2.27.1,3.41.1s2-.1,3-.1h.1v1h-.47c-1,0-2.05.11-2.07,3V176.8a16.06,16.06,0,0,0,.14,2.46l0,.12Z"/><path class="cls-1" d="M338.5,164.58h-.05l-2.28,6.92h4.58Zm-3.57,10.83a10.25,10.25,0,0,0-.54,1.91c0,.73,1,.85,1.83.85h.27v.74c-1-.06-2-.1-3-.1s-1.76,0-2.63.1v-.74H331a2.21,2.21,0,0,0,2.12-1.59l3.92-11.22a19.44,19.44,0,0,0,.9-3,12.37,12.37,0,0,0,2.23-1,.47.47,0,0,1,.2-.06c.07,0,.12,0,.16.08s.15.42.23.61l4.49,12.79c.3.86.59,1.76.91,2.5a1.56,1.56,0,0,0,1.61,1H348v.74c-1.1-.06-2.2-.1-3.38-.1s-2.41,0-3.66.1v-.74h.27c.56,0,1.52-.1,1.52-.71a8.29,8.29,0,0,0-.5-1.76l-.95-2.84h-5.55Z"/><path class="cls-1" d="M338.4,164.61l.05,0Zm-2.08,6.78h4.28l-2.13-6.55Zm-.29.21,2.34-7.13h.13v.11h0v-.11h.08l2.31,7.13Zm5,7.19c1.21,0,2.4-.09,3.56-.09s2.21.05,3.27.09v-.51h0a1.67,1.67,0,0,1-1.71-1c-.32-.74-.61-1.65-.9-2.51l-4.5-12.79c-.08-.19-.15-.41-.21-.58s0,0,0,0h-.05a.79.79,0,0,0-.13,0,9.59,9.59,0,0,1-2.18,1,20.89,20.89,0,0,1-.91,3l-3.92,11.23a2.32,2.32,0,0,1-2.23,1.66h0v.51c.84,0,1.68-.09,2.53-.09s1.92.05,2.86.09v-.51h-.17c-.79,0-1.91-.1-1.94-1a10.5,10.5,0,0,1,.55-1.93l.1,0-.1,0,.8-2.62h5.7l1,2.91a7.57,7.57,0,0,1,.5,1.79c0,.75-1.07.81-1.63.82H341ZM348,179c-1.1,0-2.2-.1-3.37-.1s-2.41.06-3.66.1h-.11v-1h.37c.57,0,1.42-.13,1.42-.6a8.45,8.45,0,0,0-.49-1.73l-.93-2.76h-5.4l-.75,2.47a9.53,9.53,0,0,0-.53,1.87c0,.6.91.75,1.72.75h.37v1h-.11c-1,0-2-.1-3-.1s-1.75.06-2.63.1h-.11v-1H331a2.11,2.11,0,0,0,2-1.51L337,165.32c.31-.9.75-2.12,1-3.09a12.85,12.85,0,0,0,2.22-1.06.78.78,0,0,1,.23,0,.28.28,0,0,1,.27.14c.08.2.15.42.23.62l4.5,12.79c.29.85.58,1.76.9,2.48a1.43,1.43,0,0,0,1.51.91h.25v1Z"/><path class="cls-1" d="M354.13,176.51c0,1,.67,1.27,1.46,1.37a18.52,18.52,0,0,0,3.23,0,3.5,3.5,0,0,0,2.34-1.32,5.59,5.59,0,0,0,.76-1.76h.71c-.27,1.39-.61,2.76-.91,4.16-2.14,0-4.3-.1-6.45-.1s-4.3.1-6.45.1v-.74h.33c.89,0,1.84-.12,1.84-1.64V164c0-1.28-.95-1.4-1.84-1.4h-.33v-.73c1.29,0,2.56.09,3.86.09s2.47-.09,3.72-.09v.73h-.62c-.92,0-1.65,0-1.65,1.32Z"/><path class="cls-1" d="M361.64,178.8c.28-1.33.6-2.63.86-4H362a5.6,5.6,0,0,1-.75,1.72,3.63,3.63,0,0,1-2.43,1.37c-.64.06-1.27.1-1.87.1s-.93,0-1.38-.06c-.79-.09-1.56-.42-1.56-1.47V163.89c0-1.36.86-1.43,1.77-1.43h.51v-.52c-1.21,0-2.39.1-3.61.1s-2.51-.09-3.76-.1v.52h.23c.88,0,1.94.16,1.94,1.5v12.57c0,1.59-1.06,1.75-1.94,1.75h-.23v.52c2.11,0,4.23-.1,6.35-.1s4.25.09,6.37.1m.09.21c-2.16,0-4.31-.1-6.46-.1s-4.3.1-6.46.1h-.1v-.95h.44c.89,0,1.73-.08,1.74-1.53V164c0-1.19-.85-1.27-1.74-1.28h-.44v-1h.1c1.3,0,2.58.1,3.87.1s2.46-.1,3.72-.1h.1v1h-.72c-.95,0-1.54,0-1.56,1.21v12.62c0,.91.61,1.16,1.37,1.26.43,0,.89,0,1.36,0a16.77,16.77,0,0,0,1.85-.1,3.39,3.39,0,0,0,2.28-1.27,5.65,5.65,0,0,0,.74-1.73l0-.08h.92l0,.13c-.28,1.4-.62,2.76-.91,4.16l0,.08Z"/><path class="cls-1" d="M361.92,163.73h.3c.33,0,.49-.26.49-.66s-.24-.56-.5-.56h-.29Zm-.87,1.35V165c.32-.05.37,0,.37-.24v-1.9c0-.27,0-.36-.36-.35v-.13h1.32c.45,0,.87.22.87.69a.8.8,0,0,1-.61.77l.42.59a2.65,2.65,0,0,0,.57.61v.08h-.5c-.24,0-.45-.5-.93-1.18h-.28v.85c0,.17.06.16.38.21v.12Zm1.28.73a2.1,2.1,0,1,0-2-2.08,2.08,2.08,0,0,0,2,2.08m0-4.67a2.58,2.58,0,1,1-2.57,2.59,2.53,2.53,0,0,1,2.57-2.59"/></svg>