<?xml version="1.0" encoding="utf-8"?>
<!-- Generator: Adobe Illustrator 21.1.0, SVG Export Plug-In . SVG Version: 6.00 Build 0)  -->
<svg version="1.1" id="svg3966" xmlns:svg="http://www.w3.org/2000/svg"
	 xmlns="http://www.w3.org/2000/svg" xmlns:xlink="http://www.w3.org/1999/xlink" x="0px" y="0px" viewBox="0 0 400 300"
	 style="enable-background:new 0 0 400 300;" xml:space="preserve">
<style type="text/css">
	.st0{fill:#009CDC;}
	.st1{fill:none;stroke:#009CDC;stroke-width:3.083984e-02;}
	.st2{fill:#ED2233;}
	.st3{fill:#003873;}
	.st4{fill:#FFFFFF;}
</style>
<g id="layer1" transform="translate(112.2687,-199.5575)">
	<g id="g4014" transform="translate(35.433071,35.434149)">
		<g id="g2903" transform="matrix(22.681031,0,0,-22.681031,419.26126,753.24683)">
			<path id="path2905" class="st0" d="M-16.2,16.2c0.9,0.8,1.4,1.9,1.4,3.2c0,1.3-0.5,2.4-1.4,3.2c-0.8,0.7-1.8,1.1-2.9,1.1
				c-2.4,0-4.3-1.9-4.3-4.3c0-2.4,1.9-4.3,4.3-4.3C-18,15-16.9,15.5-16.2,16.2"/>
		</g>
		<g id="g2907" transform="matrix(22.681031,0,0,-22.681031,419.26126,753.24683)">
			<path id="path2909" class="st0" d="M-16.2,16.2c0.9,0.8,1.4,1.9,1.4,3.2c0,1.3-0.5,2.4-1.4,3.2"/>
		</g>
		<g id="g2911" transform="matrix(22.681031,0,0,-22.681031,419.26126,753.24683)">
			<path id="path2913" class="st1" d="M-16.2,16.2c0.9,0.8,1.4,1.9,1.4,3.2c0,1.3-0.5,2.4-1.4,3.2"/>
		</g>
		<g id="g2915" transform="matrix(22.681031,0,0,-22.681031,632.7127,199.5575)">
			<path id="path2917" class="st2" d="M-22.7-0.7c-1.1,0-2.1-0.4-2.9-1.1C-25.7-2-25.9-2.1-26-2.3h0.9c0.1-0.1,0.2-0.3,0.3-0.5h-1.5
				c-0.1-0.1-0.2-0.3-0.2-0.5h2c0.1-0.1,0.1-0.3,0.2-0.5h-2.4c0-0.1-0.1-0.3-0.1-0.5h2.6c0.1-0.3,0.1-0.6,0.1-0.9
				c0-0.5-0.1-0.9-0.2-1.4h-2.4c0.1-0.2,0.1-0.3,0.2-0.5h2c-0.1-0.2-0.2-0.3-0.2-0.5h-1.5c0.1-0.2,0.2-0.3,0.3-0.5h0.9
				c-0.1-0.2-0.3-0.3-0.4-0.5c0.8-0.7,1.8-1.1,2.9-1.1c2.4,0,4.3,1.9,4.3,4.3C-18.4-2.7-20.3-0.7-22.7-0.7"/>
		</g>
		<g id="g2919" transform="matrix(22.681031,0,0,-22.681031,917.2686,694.23106)">
			<path id="path2921" class="st2" d="M-31.4,14.4L-31.4,14.4C-31.3,14.4-31.3,14.4-31.4,14.4C-31.3,14.4-31.3,14.4-31.4,14.4
				C-31.3,14.4-31.3,14.4-31.4,14.4C-31.3,14.4-31.3,14.4-31.4,14.4L-31.4,14.4L-31.4,14.4z M-31.4,14.3L-31.4,14.3l0,0.1h0.1
				c0,0,0,0,0,0C-31.3,14.4-31.3,14.4-31.4,14.3C-31.3,14.4-31.3,14.3-31.4,14.3L-31.4,14.3L-31.4,14.3L-31.4,14.3L-31.4,14.3
				L-31.4,14.3z M-31.3,14.2c0.1,0,0.1,0,0.1,0.1s0,0.1-0.1,0.1c-0.1,0-0.1,0-0.1-0.1S-31.4,14.2-31.3,14.2z M-31.5,14.3
				c0,0.1,0.1,0.1,0.1,0.1s0.1-0.1,0.1-0.1c0-0.1-0.1-0.1-0.1-0.1S-31.5,14.3-31.5,14.3"/>
		</g>
		<g id="g2923" transform="matrix(22.681031,0,0,-22.681031,156.11618,606.0472)">
			<path id="path2925" class="st3" d="M-8.2,11.7h-0.5l0.3,1.7l-0.7-1.7h-0.5l-0.1,1.7l-0.4-1.7h-0.5l0.4,2.2h0.9l0-1.4l0.6,1.4h0.9
				L-8.2,11.7"/>
		</g>
		<g id="g2927" transform="matrix(22.681031,0,0,-22.681031,598.3509,604.41417)">
			<path id="path2929" class="st3" d="M-21.6,11.6c-0.1,0-0.3-0.1-0.4-0.1c-0.3,0-0.4,0.1-0.4,0.4c0,0,0,0.1,0,0.2l0,0.2l0,0.1
				l0.2,1.4h0.5l-0.1-0.4h0.3l-0.1-0.4h-0.3l-0.1-0.7c0,0,0-0.1,0-0.1c0-0.1,0.1-0.1,0.2-0.1c0.1,0,0.1,0,0.1,0L-21.6,11.6"/>
		</g>
		<g id="g2931" transform="matrix(22.681031,0,0,-22.681031,441.21649,516.34372)">
			<path id="path2933" class="st3" d="M-16.8,8.9c0-0.2,0.1-0.4,0.4-0.5c0.2-0.1,0.3-0.1,0.3-0.2c0-0.1-0.1-0.2-0.3-0.2
				c-0.2,0-0.3,0-0.5,0.1l-0.1-0.4l0,0l0.1,0c0,0,0.1,0,0.1,0c0.1,0,0.2,0,0.3,0c0.6,0,0.8,0.2,0.8,0.6c0,0.2-0.1,0.4-0.4,0.5
				c-0.2,0.1-0.3,0.1-0.3,0.2c0,0.1,0.1,0.1,0.3,0.1c0.1,0,0.3,0,0.4,0l0.1,0.4c-0.1,0-0.4,0-0.5,0C-16.6,9.5-16.9,9.3-16.8,8.9"/>
		</g>
		<g id="g2935" transform="matrix(22.681031,0,0,-22.681031,257.47746,547.62087)">
			<path id="path2937" class="st3" d="M-11.2,9.9c-0.1,0-0.1,0-0.1,0c-0.3,0-0.5-0.1-0.5-0.3c0-0.1,0.1-0.2,0.2-0.2
				C-11.4,9.4-11.3,9.6-11.2,9.9z M-10.9,9.1h-0.4l0,0.2c-0.1-0.1-0.3-0.2-0.6-0.2c-0.3,0-0.5,0.2-0.5,0.5c0,0.4,0.3,0.7,0.9,0.7
				c0.1,0,0.1,0,0.2,0c0,0.1,0,0.1,0,0.1c0,0.1-0.1,0.2-0.3,0.2c-0.2,0-0.3,0-0.4,0l-0.1,0l0,0l0.1,0.4c0.3,0.1,0.4,0.1,0.6,0.1
				c0.5,0,0.7-0.2,0.7-0.5c0-0.1,0-0.2,0-0.4C-10.8,9.7-10.8,9.4-10.9,9.1"/>
		</g>
		<g id="g2939" transform="matrix(22.681031,0,0,-22.681031,395.08327,525.18932)">
			<path id="path2941" class="st3" d="M-15.4,9.2C-15.4,9.2-15.4,9.3-15.4,9.2c0,0.2-0.1,0.3-0.3,0.3c-0.2,0-0.3-0.1-0.3-0.3
				L-15.4,9.2z M-15.2,8.1c-0.2,0-0.4-0.1-0.6-0.1c-0.6,0-0.9,0.3-0.9,0.8c0,0.6,0.4,1.1,0.9,1.1c0.4,0,0.7-0.3,0.7-0.6
				c0-0.1,0-0.3-0.1-0.4h-1.1c0,0,0,0,0-0.1c0-0.2,0.2-0.3,0.5-0.3c0.2,0,0.4,0,0.6,0.1L-15.2,8.1"/>
		</g>
		<g id="g2943" transform="matrix(22.681031,0,0,-22.681031,796.5604,530.90493)">
			<path id="path2945" class="st3" d="M-27.7,9.4c0,0.2-0.1,0.4-0.3,0.4c-0.3,0-0.4-0.3-0.4-0.6c0-0.2,0.1-0.4,0.3-0.4
				c0.1,0,0.4,0.2,0.4,0.4C-27.7,9.2-27.7,9.3-27.7,9.4z M-27.1,9.2c-0.1-0.6-0.5-0.9-1-0.9c-0.6,0-0.9,0.4-0.9,0.8
				c0,0.6,0.4,1.1,1.1,1.1c0.6,0,0.9-0.4,0.9-0.8C-27.1,9.3-27.1,9.3-27.1,9.2"/>
		</g>
		<g id="g2947" transform="matrix(22.681031,0,0,-22.681031,849.9969,585.86108)">
			<path id="path2949" class="st4" d="M-29.3,11.1L-29.3,11.1C-29.3,11.1-29.3,11.1-29.3,11.1C-29.3,11.1-29.3,11.1-29.3,11.1
				C-29.3,11.1-29.3,11.1-29.3,11.1C-29.3,11.1-29.3,11.1-29.3,11.1L-29.3,11.1L-29.3,11.1z M-29.3,11L-29.3,11l0,0.1h0.1
				c0,0,0,0,0,0C-29.2,11.1-29.2,11.1-29.3,11C-29.2,11.1-29.3,11-29.3,11L-29.3,11L-29.3,11L-29.3,11L-29.3,11L-29.3,11z
				 M-29.3,10.9c0.1,0,0.1,0,0.1,0.1s0,0.1-0.1,0.1s-0.1,0-0.1-0.1S-29.4,10.9-29.3,10.9z M-29.4,11c0,0.1,0.1,0.1,0.1,0.1
				c0.1,0,0.1-0.1,0.1-0.1c0-0.1-0.1-0.1-0.1-0.1C-29.4,10.9-29.4,11-29.4,11"/>
		</g>
		<g id="g2951" transform="matrix(22.681031,0,0,-22.681031,166.02754,596.77041)">
			<path id="path2953" class="st4" d="M-8.5,11.4H-9l0.3,1.7l-0.7-1.7h-0.5l-0.1,1.7l-0.3-1.7h-0.5l0.4,2.2h0.8l0-1.4l0.6,1.4H-8
				L-8.5,11.4"/>
		</g>
		<g id="g2955" transform="matrix(22.681031,0,0,-22.681031,608.353,595.13763)">
			<path id="path2957" class="st4" d="M-21.9,11.3c-0.1,0-0.3-0.1-0.4-0.1c-0.3,0-0.4,0.1-0.4,0.4c0,0.1,0,0.1,0,0.2l0,0.2l0,0.1
				l0.2,1.4h0.5l-0.1-0.4h0.3l-0.1-0.4h-0.3l-0.1-0.7c0,0,0-0.1,0-0.1c0-0.1,0.1-0.1,0.2-0.1c0.1,0,0.1,0,0.1,0L-21.9,11.3"/>
		</g>
		<g id="g2959" transform="matrix(22.681031,0,0,-22.681031,710.0774,503.27941)">
			<path id="path2961" class="st3" d="M-25,8.5L-25,8.5l0.1,0.3c0,0,0,0,0,0c0,0,0,0,0,0c0,0,0,0-0.1,0c-0.2,0-0.3-0.1-0.5-0.3
				l0.1,0.3h-0.6l-0.3-1.8h0.5c0.1,0.4,0.1,0.6,0.1,0.8c0.1,0.3,0.3,0.5,0.5,0.4c0,0,0,0,0.1,0l0,0L-25,8.5"/>
		</g>
		<g id="g2963" transform="matrix(22.681031,0,0,-22.681031,723.9582,466.71761)">
			<path id="path2965" class="st4" d="M-25.5,7.4C-25.5,7.4-25.5,7.4-25.5,7.4c-0.1,0-0.1,0-0.1,0c0,0,0,0-0.1,0
				c-0.2,0-0.3-0.1-0.5-0.3l0,0.3h-0.5l-0.3-1.8h0.5c0.2,1.1,0.3,1.3,0.5,1.3c0,0,0,0,0.1,0l0.1,0L-25.5,7.4"/>
		</g>
		<g id="g2967" transform="matrix(22.681031,0,0,-22.681031,451.44562,507.06743)">
			<path id="path2969" class="st4" d="M-17.2,8.6c0-0.2,0.1-0.4,0.4-0.5c0.2-0.1,0.3-0.1,0.3-0.2c0-0.1-0.1-0.2-0.3-0.2
				c-0.2,0-0.3,0-0.5,0.1l-0.1-0.4l0,0l0.1,0c0,0,0.1,0,0.1,0c0.1,0,0.2,0,0.3,0c0.6,0,0.8,0.2,0.8,0.6c0,0.2-0.1,0.4-0.4,0.5
				c-0.2,0.1-0.3,0.1-0.3,0.2c0,0.1,0.1,0.1,0.3,0.1c0.1,0,0.3,0,0.4,0l0.1,0.4c-0.1,0-0.4,0-0.5,0C-17,9.3-17.2,9-17.2,8.6"/>
		</g>
		<g id="g2971" transform="matrix(22.681031,0,0,-22.681031,265.82407,538.34433)">
			<path id="path2973" class="st4" d="M-11.5,9.6c-0.1,0-0.1,0-0.1,0c-0.3,0-0.5-0.1-0.5-0.3c0-0.1,0.1-0.2,0.2-0.2
				C-11.7,9.2-11.5,9.3-11.5,9.6z M-11.1,8.8h-0.4l0,0.2c-0.1-0.1-0.3-0.2-0.6-0.2c-0.3,0-0.5,0.2-0.5,0.5c0,0.4,0.3,0.7,0.9,0.7
				c0.1,0,0.1,0,0.2,0c0,0.1,0,0.1,0,0.1c0,0.1-0.1,0.2-0.3,0.2c-0.2,0-0.3,0-0.4,0l-0.1,0l0,0l0.1,0.4c0.3,0.1,0.4,0.1,0.6,0.1
				c0.5,0,0.7-0.2,0.7-0.5c0-0.1,0-0.2,0-0.4C-11,9.4-11.1,9.1-11.1,8.8"/>
		</g>
		<g id="g2975" transform="matrix(22.681031,0,0,-22.681031,403.47525,515.91278)">
			<path id="path2977" class="st4" d="M-15.7,8.9C-15.7,9-15.7,9-15.7,8.9c0,0.2-0.1,0.3-0.3,0.3c-0.2,0-0.3-0.1-0.3-0.3L-15.7,8.9z
				 M-15.4,7.9c-0.2,0-0.4-0.1-0.6-0.1c-0.6,0-0.9,0.3-0.9,0.8c0,0.6,0.4,1.1,0.9,1.1c0.4,0,0.7-0.3,0.7-0.6c0-0.1,0-0.3-0.1-0.4
				h-1.1c0,0,0,0,0-0.1c0-0.2,0.2-0.3,0.5-0.3c0.2,0,0.4,0,0.6,0.1L-15.4,7.9"/>
		</g>
		<g id="g2979" transform="matrix(22.681031,0,0,-22.681031,806.2452,520.53972)">
			<path id="path2981" class="st4" d="M-28,9.1c0,0.2-0.1,0.4-0.3,0.4c-0.3,0-0.4-0.3-0.4-0.6c0-0.2,0.1-0.4,0.3-0.4
				c0.1,0,0.4,0.2,0.4,0.4C-28,8.9-28,9-28,9.1z M-27.4,8.8c-0.1-0.6-0.5-0.9-1-0.9c-0.6,0-0.9,0.4-0.9,0.8c0,0.6,0.4,1.1,1.1,1.1
				c0.6,0,0.9-0.4,0.9-0.8C-27.4,8.9-27.4,8.9-27.4,8.8"/>
		</g>
	</g>
</g>
</svg>
