<?xml version="1.0" encoding="utf-8"?>
<!-- Generator: Adobe Illustrator 21.1.0, SVG Export Plug-In . SVG Version: 6.00 Build 0)  -->
<svg version="1.1" id="Capa_1" xmlns="http://www.w3.org/2000/svg" xmlns:xlink="http://www.w3.org/1999/xlink" x="0px" y="0px"
	 viewBox="0 0 300 300" style="enable-background:new 0 0 300 300;" xml:space="preserve">
<style type="text/css">
	.st0{fill:#231F20;}
	.st1{fill:#F79410;}
	.st2{fill:#FF5F00;}
	.st3{fill:#EB001B;}
	.st4{fill:#F79E1B;}
</style>
<title>master</title>
<path class="st0" d="M269.6,244.4v0.5h0.5c0.1,0,0.2,0,0.2-0.1c0.1,0,0.1-0.1,0.1-0.2c0-0.1,0-0.1-0.1-0.2c-0.1-0.1-0.2-0.1-0.2-0.1
	H269.6z M270.1,244c0.2,0,0.4,0,0.6,0.2c0.1,0.1,0.2,0.3,0.2,0.4c0,0.1-0.1,0.3-0.2,0.4c-0.1,0.1-0.3,0.2-0.5,0.2l0.6,0.7h-0.5
	l-0.6-0.7h-0.2v0.7h-0.4V244L270.1,244z M270,246.6c0.2,0,0.4,0,0.6-0.1c0.2-0.1,0.4-0.2,0.5-0.3c0.1-0.1,0.3-0.3,0.3-0.5
	c0.1-0.2,0.1-0.4,0.1-0.6c0-0.2,0-0.4-0.1-0.6c-0.1-0.2-0.2-0.4-0.3-0.5c-0.1-0.1-0.3-0.3-0.5-0.3c-0.2-0.1-0.4-0.1-0.6-0.1
	c-0.2,0-0.4,0-0.6,0.1c-0.2,0.1-0.4,0.2-0.5,0.3c-0.1,0.1-0.3,0.3-0.3,0.5c-0.1,0.2-0.1,0.4-0.1,0.6c0,0.2,0,0.4,0.1,0.6
	c0.1,0.2,0.2,0.4,0.3,0.5c0.1,0.1,0.3,0.3,0.5,0.3C269.5,246.5,269.7,246.6,270,246.6 M270,243c0.3,0,0.6,0.1,0.8,0.2
	c0.2,0.1,0.5,0.3,0.6,0.4c0.2,0.2,0.3,0.4,0.5,0.6c0.1,0.3,0.2,0.5,0.2,0.8c0,0.3-0.1,0.5-0.2,0.8c-0.1,0.2-0.3,0.5-0.5,0.6
	c-0.2,0.2-0.4,0.3-0.6,0.4c-0.5,0.2-1.1,0.2-1.6,0c-0.2-0.1-0.5-0.3-0.7-0.4c-0.2-0.2-0.3-0.4-0.4-0.6c-0.1-0.2-0.2-0.5-0.2-0.8
	c0-0.5,0.2-1.1,0.6-1.4c0.2-0.2,0.4-0.3,0.7-0.4C269.4,243,269.7,243,270,243 M79,235.7c0-3.6,2.4-6.6,6.2-6.6
	c3.7,0,6.2,2.8,6.2,6.6s-2.5,6.6-6.2,6.6C81.4,242.3,79,239.3,79,235.7 M95.6,235.7v-10.3h-4.4v2.5c-1.5-2-3.9-3.1-6.5-3
	c-5.7,0-10.2,4.5-10.2,10.8s4.5,10.8,10.2,10.8c2.5,0.1,4.9-1,6.5-3v2.5h4.4V235.7z M246,235.7c0-3.6,2.4-6.6,6.2-6.6
	c3.7,0,6.2,2.8,6.2,6.6s-2.5,6.6-6.2,6.6C248.3,242.3,246,239.3,246,235.7 M262.6,235.7v-18.5h-4.5v10.7c-1.5-2-3.9-3.1-6.5-3
	c-5.8,0-10.2,4.5-10.2,10.8s4.5,10.8,10.2,10.8c2.5,0.1,4.9-1,6.5-3v2.5h4.5V235.7z M150.8,229c2.9,0,4.7,1.8,5.2,5h-10.7
	C145.8,231,147.6,229,150.8,229 M150.9,225c-6,0-10.2,4.4-10.2,10.8s4.4,10.8,10.5,10.8c3.1,0.1,6-0.9,8.4-2.9l-2.2-3.3
	c-1.7,1.4-3.8,2.1-5.9,2.1c-2.9,0-5.5-1.3-6.1-5h15.2c0.1-0.6,0.1-1.1,0.1-1.7C160.6,229.3,156.6,225,150.9,225 M204.6,235.7
	c0-3.6,2.4-6.6,6.2-6.6c3.7,0,6.2,2.8,6.2,6.6s-2.5,6.6-6.2,6.6C207,242.3,204.6,239.3,204.6,235.7 M221.2,235.7v-10.3h-4.5v2.5
	c-1.5-2-3.9-3.1-6.5-3c-5.7,0-10.2,4.5-10.2,10.8s4.5,10.8,10.2,10.8c2.5,0.1,4.9-1,6.5-3v2.5h4.5V235.7z M179.5,235.7
	c0,6.2,4.3,10.8,10.9,10.8c2.7,0.1,5.3-0.7,7.4-2.4l-2.1-3.6c-1.5,1.2-3.4,1.8-5.4,1.8c-3.6,0-6.2-2.6-6.2-6.6s2.6-6.5,6.2-6.6
	c1.9,0,3.8,0.7,5.4,1.9l2.1-3.6c-2.1-1.7-4.7-2.6-7.4-2.4C183.8,225,179.5,229.5,179.5,235.7 M236.9,225c-2.2-0.1-4.3,1.1-5.4,3
	v-2.5h-4.4v20.5h4.5v-11.5c0-3.4,1.5-5.3,4.4-5.3c1,0,1.9,0.2,2.8,0.5l1.4-4.2C239,225.1,238,224.9,236.9,225 M117.6,227.1
	c-2.5-1.5-5.4-2.2-8.4-2.1c-5.2,0-8.5,2.5-8.5,6.6c0,3.3,2.5,5.4,7.1,6l2.1,0.3c2.4,0.3,3.6,1,3.6,2.1c0,1.6-1.6,2.5-4.7,2.5
	c-2.4,0.1-4.8-0.7-6.8-2.1l-2.1,3.5c2.6,1.8,5.7,2.7,8.9,2.7c5.9,0,9.3-2.8,9.3-6.7c0-3.6-2.7-5.5-7.1-6.1l-2.1-0.3
	c-1.9-0.2-3.5-0.6-3.5-2s1.5-2.4,3.9-2.4c2.2,0,4.4,0.6,6.4,1.8L117.6,227.1z M175,224.9c-2.2-0.1-4.3,1.1-5.4,3v-2.5h-4.4v20.5h4.4
	v-11.5c0-3.4,1.4-5.3,4.4-5.3c1,0,1.9,0.2,2.8,0.5l1.4-4.2C177.2,225.1,176.1,224.9,175,224.9 M137,225.4h-7.3v-6.2h-4.5v6.2h-4.1
	v4.1h4.1v9.3c0,4.8,1.9,7.6,7.1,7.6c2,0,3.9-0.5,5.6-1.6l-1.3-3.9c-1.2,0.7-2.5,1.1-3.9,1.2c-2.2,0-3-1.4-3-3.4v-9.2h7.3L137,225.4z
	 M70.4,245.9v-12.8c0-4.8-3.1-8.1-8.1-8.1c-2.9-0.2-5.6,1.2-7.2,3.6c-1.4-2.4-4-3.8-6.8-3.6c-2.4-0.1-4.7,1-6,3v-2.5H38v20.5h4.5
	v-11.3c0-3.6,2-5.4,5-5.4s4.4,1.9,4.4,5.4v11.4h4.5v-11.3c0-3.6,2.1-5.4,5-5.4s4.5,1.9,4.5,5.4v11.4L70.4,245.9z"/>
<path class="st1" d="M272.4,177.8v-3h-0.8l-0.9,2.1l-0.9-2.1H269v3h0.6v-2.2l0.8,1.9h0.6l0.9-2v2.3L272.4,177.8z M267.4,177.8v-2.5
	h1v-0.5h-2.5v0.5h1v2.5H267.4z"/>
<path class="st2" d="M183.7,190.7h-67.5V69.5h67.5L183.7,190.7z"/>
<path class="st3" d="M120.6,130.1c0-23.7,10.8-46,29.4-60.6C116.5,43.1,68.1,49,41.7,82.4s-20.5,81.9,13,108.3c28,22,67.3,22,95.3,0
	C131.4,176.1,120.5,153.7,120.6,130.1"/>
<path class="st4" d="M274.7,130.1c0,42.6-34.6,77.1-77.2,77.1c-17.2,0-34-5.8-47.6-16.4c33.5-26.3,39.3-74.8,12.9-108.3
	c-3.8-4.8-8.1-9.2-12.9-12.9c33.5-26.3,81.9-20.5,108.3,13C268.9,96,274.8,112.8,274.7,130.1"/>
</svg>
