<?xml version="1.0" encoding="utf-8"?>
<!-- Generator: Adobe Illustrator 21.1.0, SVG Export Plug-In . SVG Version: 6.00 Build 0)  -->
<svg version="1.1"
	 id="svg5204" inkscape:version="0.48.4 r9939" sodipodi:docname="MasterCard.eps" xmlns:cc="http://creativecommons.org/ns#" xmlns:dc="http://purl.org/dc/elements/1.1/" xmlns:inkscape="http://www.inkscape.org/namespaces/inkscape" xmlns:rdf="http://www.w3.org/1999/02/22-rdf-syntax-ns#" xmlns:sodipodi="http://sodipodi.sourceforge.net/DTD/sodipodi-0.dtd" xmlns:svg="http://www.w3.org/2000/svg"
	 xmlns="http://www.w3.org/2000/svg" xmlns:xlink="http://www.w3.org/1999/xlink" x="0px" y="0px" viewBox="0 0 250 300"
	 style="enable-background:new 0 0 250 300;" xml:space="preserve">
<style type="text/css">
	.st0{fill:#FACE00;}
	.st1{fill:#007550;}
	.st2{fill:#EC1C24;}
</style>
<g>
	
		<path id="path3887" sodipodi:cx="178.50851" sodipodi:cy="88.18235" sodipodi:rx="25.297045" sodipodi:ry="60.741486" sodipodi:type="arc" class="st0" d="
		M235.2,150.1c0,60.8-49.2,110.2-110.2,110.2c-60.8,0-110.2-49.2-110.2-110.2c0,0,0,0,0-0.2C14.8,89.1,64,39.7,125,39.7
		C185.8,39.7,235,89.1,235.2,150.1C235.2,149.9,235.2,149.9,235.2,150.1z"/>
	
		<path id="path3885" sodipodi:cx="178.50851" sodipodi:cy="88.18235" sodipodi:rx="25.297045" sodipodi:ry="60.741486" sodipodi:type="arc" class="st1" d="
		M222.2,150.1c0,53.6-43.5,97.3-97.2,97.3s-97.3-43.5-97.3-97.2l0,0c0-53.6,43.5-97.3,97.2-97.3C178.6,52.8,222.2,96.3,222.2,150.1
		C222.2,149.9,222.2,150.1,222.2,150.1z"/>
	<g id="g3935" transform="translate(-5.4025936,-3.8345521)">
		<path id="path3105" inkscape:connector-curvature="0" sodipodi:nodetypes="ccccccc" class="st0" d="M51,186h34.3v-11.4H64.8v-48.5
			H51L51,186L51,186z"/>
		<path id="path3111" inkscape:connector-curvature="0" sodipodi:nodetypes="ccccccccccc" class="st0" d="M111.9,126.1V186h12.3
			v-43.3l22,43.3h14.7v-59.9h-12.3v39.7l-20.4-39.7H111.9z"/>
		<path id="path3113" inkscape:connector-curvature="0" sodipodi:nodetypes="ccccccccccccc" class="st0" d="M167.9,126.1V186h13.4
			v-20.4l5-5.1l14.2,25.5h15.8L196,152.2l29.9-38.5L219.7,96l-38.5,56v-25.9L167.9,126.1L167.9,126.1z"/>
		<path id="path3109" inkscape:connector-curvature="0" class="st0" d="M91.5,126.1h13.9V186H91.5V126.1z"/>
	</g>
	
		<path id="path3115" sodipodi:cx="137.53209" sodipodi:cy="102.93262" sodipodi:rx="21.11038" sodipodi:ry="16.573923" sodipodi:type="arc" class="st2" d="
		M101.9,105.3c0,5-4.1,8.8-8.8,8.8c-5,0-8.8-4.1-8.8-8.8c0-5,4.1-8.8,8.8-8.8C98,96.4,101.9,100.3,101.9,105.3z"/>
</g>
</svg>
