<?xml version="1.0" encoding="utf-8"?>
<!-- Generator: Adobe Illustrator 21.1.0, SVG Export Plug-In . SVG Version: 6.00 Build 0)  -->
<svg version="1.1"
	 id="svg5204" inkscape:version="0.48.4 r9939" sodipodi:docname="MasterCard.eps" xmlns:cc="http://creativecommons.org/ns#" xmlns:dc="http://purl.org/dc/elements/1.1/" xmlns:inkscape="http://www.inkscape.org/namespaces/inkscape" xmlns:rdf="http://www.w3.org/1999/02/22-rdf-syntax-ns#" xmlns:sodipodi="http://sodipodi.sourceforge.net/DTD/sodipodi-0.dtd" xmlns:svg="http://www.w3.org/2000/svg"
	 xmlns="http://www.w3.org/2000/svg" xmlns:xlink="http://www.w3.org/1999/xlink" x="0px" y="0px" viewBox="0 0 322 300"
	 style="enable-background:new 0 0 322 300;" xml:space="preserve">
<style type="text/css">
	.st0{fill:#004A8A;}
	.st1{fill:#F9D84E;}
	.st2{fill:#404040;}
</style>
<g>
	<path class="st0" d="M271.6,150.1v58.2c0,6.4-5.2,11.5-11.5,11.5H61.9c-6.4,0-11.5-5.2-11.5-11.5v-58.2"/>
	<path class="st1" d="M50.4,150.1V91.9c0-6.4,5.2-11.5,11.5-11.5H260c6.4,0,11.5,5.2,11.5,11.5v58.2"/>
</g>
<g>
	<g id="g4484" transform="matrix(0.57172858,0,0,0.57172858,-545.24424,69.959485)">
		<g id="g4475">
			<path id="path3262_1_" inkscape:connector-curvature="0" sodipodi:nodetypes="ccccccccc" class="st0" d="M1058.5,137.2l8.3-42.3
				h-15.3l3-15.3h51.9l-3,15.3h-15.4l-8.3,42.3H1058.5z"/>
			<path id="path3202" inkscape:connector-curvature="0" sodipodi:nodetypes="ccccccccccccc" class="st0" d="M1355.3,137.2
				l31.4-57.5h22.2l10,57.5h-21.8l-0.8-7.7H1380l-3.5,7.7H1355.3z M1393.6,101.3l-6.3,13.6h7.8L1393.6,101.3z"/>
			<path id="path4465" inkscape:connector-curvature="0" sodipodi:nodetypes="ccccccccccccc" class="st0" d="M1087.6,137.2
				l31.4-57.5h22.2l10,57.5h-21.8l-0.8-7.7h-16.1l-3.5,7.7H1087.6z M1125.9,101.3l-6.3,13.6h7.8L1125.9,101.3z"/>
			<path id="path4467" inkscape:connector-curvature="0" sodipodi:nodetypes="ccccccccc" class="st0" d="M1326.2,137.2l8.3-42.3
				h-15.3l3-15.3h51.9l-3,15.3h-15.4l-8.3,42.3H1326.2z"/>
			<path id="path4469" inkscape:connector-curvature="0" sodipodi:nodetypes="ccccccccccccc" class="st0" d="M1269.4,79.7h50.3
				l-3.1,15.3c0,0-17.9,0-29.1,0l-1.2,5.8h24.3l-3,15.4h-24.2l-1.2,5.8h29.1l-3,15.4H1258L1269.4,79.7z"/>
			<path id="path4471" inkscape:connector-curvature="0" sodipodi:nodetypes="ccczcsccccsc" class="st0" d="M1224,138.4
				c-12.8-3.7-13.5-13.2-10.3-23.7h17.7c0,0-2.2,7.6,0.2,8.6c2.4,1.2,3.4-2.3,3.4-2.3s2.4-10.1,4.5-20.9c2.2-10.8,4-20.7,4-20.7
				h21.2c0,0-1.9,10.8-4.1,21.8c-3.5,13-3.5,28.1-15.4,34.5C1239.7,138.6,1230.7,139.7,1224,138.4L1224,138.4z"/>
			<path id="path4473" inkscape:connector-curvature="0" sodipodi:nodetypes="ssssscsssccccccccszccz" class="st0" d="M1165.3,79.7
				l17.1,0.2c18,0.2,19,0.1,22.5,1.5c2,0.7,4.5,2,5.4,2.8c3.8,3,5.3,10.5,3.1,16.7c-1.2,3.6-4.7,7.8-7.8,9.4l-2.3,1.2l2,1.5
				c2.8,2,3.6,5,3,11.5c-0.2,3-0.5,7.2-0.6,9.1l-0.1,3.7h-10.8h-11.1l1.3-6.5c3.2-14.9-1.6-12.6-9.5-12.6l-3.8,19.2
				c0,0-12.4,0-19.7,0L1165.3,79.7z M1195.4,98c1.2-6.4-13.2-4.5-13.2-4.5l-1.8,9.1C1180.5,102.6,1194.2,104.3,1195.4,98z"/>
		</g>
	</g>
	<g id="g4517" transform="matrix(0.49316495,0,0,0.49316495,-446.13926,22.612205)">
		<g id="g4494">
			<g id="g4232" transform="translate(881.90072,85.61522)">
				<g id="g4234">
					<path id="path4236" inkscape:connector-curvature="0" sodipodi:nodetypes="cssccccsssccccccccsscc" class="st1" d="M526.8,242
						c-11.8-2-18.6-10-18.6-22c-0.1-23.1,16.7-39.2,39.5-37.9c13,0.7,20.7,7.9,20.7,19.1v3.1h-10.5h-10.6l-0.5-1.9
						c-0.6-2.5-2.4-3.4-6.1-3.1c-3.4,0.3-5.5,1.7-7.5,4.7c-3.4,5-4.6,14.7-2.5,18.8c2,3.7,10.2,7.8,15.8-0.8c-1.7,0-5.2,0-7.8,0
						l2.5-13.1h26.9l-6.4,32c0,0-10.1-0.1-15.3,0.1v-1.6v-1.8l-2.5,1.7C539.3,242.4,534.4,243.2,526.8,242L526.8,242z"/>
				</g>
			</g>
			<g id="g4244" transform="translate(881.90072,85.61522)">
				<g id="g4246">
					<path id="path4248" inkscape:connector-curvature="0" sodipodi:nodetypes="ccccccccccc" class="st1" d="M456.8,183.5h20.4
						l7.8,23.6l4.8-23.6h20.8l-11.3,57.3h-20.8l-7.9-22.9l-4.6,22.9h-20.4L456.8,183.5z"/>
				</g>
			</g>
			<g id="g4258" transform="translate(881.90072,85.61522)">
				<path id="path4260" inkscape:connector-curvature="0" sodipodi:nodetypes="ccccc" class="st1" d="M431.4,183.5h21.2l-11.3,57.3
					h-21.2L431.4,183.5z"/>
			</g>
			<path id="path4264" inkscape:connector-curvature="0" sodipodi:nodetypes="zccccczcczc" class="st1" d="M1256.9,269.1h31.6
				c21,0,20.8,26.9,8.9,35.7c-9.1,6-27.2,4.7-27.2,4.7l-3.4,17.1h-21.2L1256.9,269.1z M1286.6,289.2c1.3-6.1-6.4-4.3-11.5-4.5
				l-1.8,9C1279.9,293.9,1285.2,295.3,1286.6,289.2z"/>
			<g id="g4280" transform="translate(881.90072,85.61522)">
				<g id="g4282">
					<path id="path4284" inkscape:connector-curvature="0" sodipodi:nodetypes="ccccczcszcs" class="st1" d="M318.7,183.5h31.6
						c21,0,20.8,26.9,8.9,35.7c-9.1,6-27.2,4.7-27.2,4.7l-3.4,17.1h-21.2L318.7,183.5z M348.4,203.4c1.3-6.1-6.4-4.3-11.5-4.5
						l-1.8,9C341.7,208.2,347.1,209.6,348.4,203.4z"/>
				</g>
			</g>
			<g id="g4292" transform="translate(881.90072,85.61522)">
				<g id="g4294">
					<path id="path4296" inkscape:connector-curvature="0" sodipodi:nodetypes="ssssssscssssc" class="st1" d="M265,241.8
						c-11.6-2.7-17.4-10-17.4-22c0-18.9,11.2-33.4,28.4-36.9c11.6-2.4,22.2-0.2,28.2,5.8c5.6,5.6,7.3,13.3,5.2,23.8
						c-2.9,14.3-12.5,25.2-25.4,28.7C278.8,242.5,269.8,242.9,265,241.8L265,241.8z M281.6,224c4.1-3,7.5-12.5,6.6-18.8
						c-0.8-6.3-5.8-8.5-11.4-5.3c-3.8,2.3-7,8.5-7.3,15.3c-0.2,6.1,0.6,8.6,3.4,9.8C275.3,226.3,279.2,225.8,281.6,224z"/>
				</g>
			</g>
			<g id="g4304" transform="translate(881.90072,85.61522)">
				<g id="g4306">
					<path id="path4308" inkscape:connector-curvature="0" sodipodi:nodetypes="zcccccccccccz" class="st1" d="M197.1,183.5h20.8
						L214,203h11.2l3.8-19.5h21l-11.3,57.3h-21l4-20.1h-11.2l-4,20.1h-20.8L197.1,183.5z"/>
				</g>
			</g>
			<g id="g4316" transform="translate(881.90072,85.61522)">
				<g id="g4318">
					<path id="path4320" inkscape:connector-curvature="0" sodipodi:nodetypes="ssccsssssssssccssssssss" class="st1" d="M146.8,242
						c-11-1.8-17.1-7.6-17.2-15.8c0-1.8,0-4.1,0-4.1c8.1,0,13.7,0,22.4,0v1.6c0,2,2.3,3.6,5.2,3.6c4.7,0,7-4.1,3.4-6
						c-1.1-0.5-4.7-1.7-8.3-2.5c-11.2-2.9-15.1-5.3-17.1-10.3c-3-7.7,2.7-18.3,12.1-22.9c5.6-2.8,11.6-3.8,19.6-3.4
						c10.6,0.5,16.2,2.8,19.5,7.7c1.3,2.2,1.7,3.4,1.7,7v4.3h-21.2c0,0,0-0.8,0-1.2c0-3.1-5.8-4.6-8.3-2c-1.6,1.6-1.7,3.6-0.1,4.5
						c0.6,0.3,4.6,1.3,8.8,2.3c11.9,2.5,16.7,5.5,18.3,11.4c1.5,5.3-1.3,13.3-6.3,18.3C172.8,240.7,159,244.1,146.8,242L146.8,242z"
						/>
				</g>
			</g>
		</g>
	</g>
</g>
<path class="st2" d="M182.2,173.4L182.2,173.4L182.2,173.4z"/>
<path class="st2" d="M191,173.4L191,173.4C191,173.4,191,173.4,191,173.4z"/>
</svg>
