<?xml version="1.0" encoding="utf-8"?>
<!-- Generator: Adobe Illustrator 21.1.0, SVG Export Plug-In . SVG Version: 6.00 Build 0)  -->
<svg version="1.1" id="Capa_1" xmlns="http://www.w3.org/2000/svg" xmlns:xlink="http://www.w3.org/1999/xlink" x="0px" y="0px"
	 viewBox="0 0 180.6 300" style="enable-background:new 0 0 180.6 300;" xml:space="preserve">
<style type="text/css">
	.st0{fill:none;}
	.st1{fill:#F15623;}
	.st2{fill:#FF9E16;}
	.st3{fill:url(#SVGID_1_);}
	.st4{fill:#9B282D;}
</style>
<title>naranja</title>
<path class="st0" d="M64.8,225.2c-1.3,0-2.2,0.4-3.1,1.8c-0.4,0.9-0.9,1.8-0.9,3.1c0,1.3,0.4,2.7,1.3,3.6c0.9,0.9,1.8,1.3,2.7,1.3
	c1.3,0,2.7-0.4,3.1-1.8c0.4-0.9,0.9-1.8,0.9-3.1c0-1.3-0.4-2.2-1.3-3.6C67.1,225.6,66.2,225.2,64.8,225.2z M94.3,225.2
	c-1.3,0-2.2,0.4-3.1,1.8c-0.4,0.9-0.9,1.8-0.9,3.1c0,1.3,0.4,2.7,1.3,3.6c0.9,0.9,1.8,1.3,2.7,1.3c1.3,0,2.7-0.4,3.1-1.8
	c0.4-0.9,0.9-1.8,0.9-3.1c0-1.3-0.4-2.2-1.3-3.6C96.5,225.6,95.6,225.2,94.3,225.2z M138.5,225.2c-1.3,0-2.2,0.4-3.1,1.8
	c-0.4,0.9-0.9,1.8-0.9,3.1c0,1.3,0.4,2.7,1.3,3.6c0.9,0.9,1.8,1.3,2.7,1.3c1.3,0,2.7-0.4,3.1-1.8c0.4-0.9,0.9-1.8,0.9-3.1
	c0-1.3-0.4-2.2-1.3-3.6C140.7,225.6,139.8,225.2,138.5,225.2z M54.1,237.2h-3.6l-12.1-16.1v16.1h-4v-22.8H38l12.1,16.1v-16.1h4
	V237.2z M72.9,237.2h-4v-0.9c-1.3,0.9-2.7,1.3-4,1.3c-2.2,0-4.5-0.9-5.8-2.7c-1.3-1.3-2.2-3.6-2.2-5.4c0-4.5,3.6-8,8-8
	c1.3,0,3.1,0.4,4,1.3V222h4V237.2z M84.9,225.6h-1.3c-0.9,0-1.8,0.4-2.2,0.9c-0.4,0.9-0.9,2.2-0.4,3.6v7.1h-4V222h4v0.9
	c0.9-0.9,1.8-1.3,3.1-1.3h1.3L84.9,225.6z M102.3,237.2h-4v-0.9c-1.3,0.9-2.7,1.3-4,1.3c-2.2,0-4.5-0.9-5.8-2.7
	c-1.3-1.3-2.2-3.1-2.2-5.4c0-4.5,3.6-8,8-8c0,0,0,0,0.4,0c1.3,0,3.1,0.4,4,1.3V222h4L102.3,237.2z M119.7,237.2h-3.6v-7.6
	c0-1.3,0-2.2-0.9-3.6c-0.4-0.4-1.3-0.9-2.2-0.9c-0.9,0-1.8,0.4-2.7,0.9c-0.4,0.9-0.9,2.2-0.9,3.6v7.6h-4V222h4v0.9
	c0.9-0.9,2.2-1.3,3.6-1.3c1.8,0,3.6,0.9,4.9,2.2c1.3,1.3,1.8,3.6,1.8,5.4L119.7,237.2z M127.8,238.1c-0.4,6.7-7.6,7.1-7.6,7.1v-4
	c1.8,0,3.6-1.3,4-3.6l0,0V222h4v16.1H127.8z M127.8,218.5c-0.4,0.4-0.9,0.9-1.8,0.9c-0.4,0-1.3-0.4-1.8-0.9c-0.9-0.9-0.9-2.7,0-3.6
	l0,0c0.4-0.4,1.3-0.9,1.8-0.4c0.4,0,1.3,0.4,1.8,0.9C128.7,216.2,128.7,217.6,127.8,218.5L127.8,218.5L127.8,218.5z M146.5,237.2h-4
	v-0.9c-1.3,0.9-2.7,1.3-4,1.3c-2.2,0-4.5-0.9-5.8-2.7c-1.3-1.3-1.8-3.1-1.8-5.4c0-4.5,3.6-8,8-8c1.3,0,3.1,0.4,4,1.3V222h4
	L146.5,237.2z M155,73.3c0.9-0.4,1.8-0.9,2.7-0.9c2.2,0,3.6,1.8,3.6,3.6c0,0.9-0.4,1.8-1.3,2.7c-1.3,1.3-3.6,1.3-4.9,0
	c-0.9-0.9-0.9-1.8-0.9-2.7C153.7,75.1,154.1,74.2,155,73.3z M24.6,155.5c21.4,0,38.4-17.4,38.4-38.4V81.4c0-7.1,5.8-12.9,12.9-12.5
	c4.5,0,8.9,2.7,11.2,6.7l37.1,67.4V81.8c-0.4-7.1,4.9-12.9,12.1-13.4c7.1-0.4,12.9,4.9,13.4,12.1c0,0.4,0,0.9,0,1.3V193
	c0,0.4,0,0.9,0,1.3c0,0.4,0,0.9,0,1.3l-0.4,1.3l-0.4,1.3l-0.4,0.9l-0.9,0.9l-0.9,0.9l-0.9,0.9l-0.9,0.9l-1.3,0.9l-0.4,0.4h-0.4
	c-0.4,0.4-1.3,0.4-2.2,0.9h-0.9c-0.9,0-1.8,0.4-2.7,0.4c-0.9,0-2.2,0-3.1-0.4l-0.9-0.4c-0.9-0.4-1.3-0.4-2.2-0.9l-0.9-0.4
	c-0.9-0.4-1.8-1.3-2.2-1.8l-0.4-0.4c-0.4-0.9-1.3-1.3-1.8-2.2l-0.4-0.4l-38.4-69.2c-5.8,30.4-32.1,52.2-63,52.2v-25.9H24.6z
	 M157.7,78.7c1.8,0,2.7-1.3,2.7-2.7c0-0.9-0.4-1.8-0.9-2.2c-0.4-0.4-1.3-0.9-1.8-0.4c-0.9,0-1.3,0.4-2.2,0.9
	c-0.4,0.4-0.9,1.3-0.9,1.8c0,0.9,0.4,1.3,0.9,2.2C156.4,78.7,156.8,78.7,157.7,78.7z M156.4,74.2c0.4-0.4,0.9-0.4,1.3-0.4
	c0.4,0,1.3,0.4,1.8,0.9l-0.4,0.4c-0.4-0.4-0.4-0.4-0.9-0.4s-0.4,0-0.9,0.4c-0.4,0.4-0.4,0.4-0.4,0.9c0,0.4,0,0.9,0.4,0.9
	c0.4,0.4,0.4,0.4,0.9,0.4h0.4l0.4-0.4l0.4,0.4c-0.4,0.4-0.9,0.9-1.8,0.9c-1.3,0-2.2-0.9-2.2-1.8C155.5,75.6,155.5,74.7,156.4,74.2
	L156.4,74.2z"/>
<path class="st1" d="M50.5,230.5l-12.1-16.1h-3.6v23.2h4v-16.1L51,237.7h3.6v-23.2h-4V230.5z"/>
<path class="st1" d="M69.3,222.9c-1.3-0.9-2.7-1.3-4-1.3c-4.5,0-8,3.6-8,8l0,0c0,1.8,0.9,4,2.2,5.4c1.3,1.8,3.6,2.7,5.8,2.7
	c1.3,0,3.1-0.4,4-1.3v0.9h4V222h-4V222.9z M68.4,232.8c-0.9,0.9-1.8,1.8-3.1,1.3c-0.9,0-2.2-0.4-2.7-1.3c-0.9-0.9-1.3-2.2-1.3-3.6
	c0-0.9,0.4-2.2,0.9-3.1c0.9-0.9,1.8-1.8,3.1-1.8c0.9,0,2.2,0.4,3.1,1.3c0.9,0.9,1.3,2.2,1.3,3.6C69.3,231,68.8,231.9,68.4,232.8z
	 M80.5,223.4v-0.9h-4v15.2h4v-7.1c0-1.3,0-2.2,0.9-3.6c0.4-0.9,1.3-0.9,2.2-0.9h1.3v-3.6h-1.3C82.7,222,81.3,222.5,80.5,223.4z
	 M98.3,222.9c-1.3-0.9-2.7-1.3-4-1.3c-4.5,0-8,3.6-8,8c0,0,0,0,0,0.4c0,1.8,0.9,4,2.2,5.4c1.3,1.8,3.6,2.7,5.8,2.7
	c1.3,0,3.1-0.4,4-1.3v0.9h4v-15.2h-4V222.9z M97.4,232.8c-0.9,0.9-1.8,1.8-3.1,1.3c-0.9,0-2.2-0.4-3.1-1.3c-0.9-0.9-1.3-2.2-1.3-3.6
	c0-0.9,0.4-2.2,0.9-3.1c0.9-0.9,1.8-1.8,3.1-1.8c0.9,0,2.2,0.4,3.1,1.3c0.9,0.9,1.3,2.2,1.3,3.6C98.8,231,98.3,231.9,97.4,232.8
	L97.4,232.8z M113.5,221.6c-1.3,0-2.7,0.4-3.6,1.3V222h-4v15.2h4v-7.6c0-1.3,0-2.7,0.9-3.6c0.4-0.9,1.8-1.3,2.7-0.9
	c0.9,0,1.3,0.4,2.2,0.9c0.4,0.9,0.9,2.2,0.9,3.6v8h4v-8c0-1.8-0.4-4-1.8-5.4C117.1,222.5,115.3,221.6,113.5,221.6z M126,214.4
	c-0.4,0-1.3,0-1.8,0.4c-0.9,0.9-0.9,2.7,0,3.6l0,0c0.4,0.4,0.9,0.9,1.8,0.9c0.4,0,1.3-0.4,1.8-0.9c0.9-0.9,0.9-2.7,0-3.6l0,0
	C127.3,214.9,126.4,214.4,126,214.4z M142.5,222.9c-1.3-0.9-2.7-1.3-4-1.3c-4.5,0-8,3.6-8,8c0,1.8,0.4,4,1.8,5.4
	c1.3,1.8,3.6,2.7,5.8,2.7c1.3,0,3.1-0.4,4-1.3v0.9h4V222h-4L142.5,222.9z M142.1,232.8c-0.9,0.9-1.8,1.8-3.1,1.3
	c-0.9,0-2.2-0.4-3.1-1.3c-0.9-0.9-1.3-2.2-1.3-3.6c0-0.9,0.4-2.2,0.9-3.1c0.9-0.9,1.8-1.8,3.1-1.8c0.9,0,2.2,0.4,3.1,1.3
	c0.9,0.9,1.3,2.2,1.3,3.6C143,231,142.5,231.9,142.1,232.8z M123.8,238.1c0,1.8-1.8,3.6-3.6,3.6l0,0v3.6c0,0,7.6,0,7.6-7.1V222h-4
	L123.8,238.1L123.8,238.1z"/>
<path class="st2" d="M87.6,128.7L64.8,87.2c-0.9-1.8-1.3-4-1.3-6.3v35.7c0,21.4-17.4,38.4-38.4,38.4v25.5
	C55.4,181,81.8,159.1,87.6,128.7z"/>
<linearGradient id="SVGID_1_" gradientUnits="userSpaceOnUse" x1="24.5366" y1="254.9764" x2="88.611" y2="254.9764" gradientTransform="matrix(1 0 0 1 -3.000000e-02 -124.2501)">
	<stop  offset="0" style="stop-color:#F99D27;stop-opacity:0"/>
	<stop  offset="2.000000e-02" style="stop-color:#F89627;stop-opacity:6.000000e-02"/>
	<stop  offset="0.12" style="stop-color:#F37A27;stop-opacity:0.28"/>
	<stop  offset="0.23" style="stop-color:#EF6227;stop-opacity:0.47"/>
	<stop  offset="0.33" style="stop-color:#EB4D26;stop-opacity:0.63"/>
	<stop  offset="0.45" style="stop-color:#E83C26;stop-opacity:0.77"/>
	<stop  offset="0.56" style="stop-color:#E62F26;stop-opacity:0.87"/>
	<stop  offset="0.69" style="stop-color:#E42626;stop-opacity:0.94"/>
	<stop  offset="0.82" style="stop-color:#E32126;stop-opacity:0.99"/>
	<stop  offset="1" style="stop-color:#E31F26"/>
</linearGradient>
<path class="st3" d="M87.6,128.7L64.8,87.2c-0.9-1.8-1.3-4-1.3-6.3v35.7c0,21.4-17.4,38.4-38.4,38.4v25.5
	C55.4,181,81.8,159.1,87.6,128.7z"/>
<path class="st1" d="M157.7,79.6c1.8,0,3.6-1.8,3.6-3.6c0-0.9-0.4-1.8-0.9-2.7c-0.9-0.9-1.8-1.3-2.7-1.3c-0.9,0-1.8,0.4-2.2,0.9
	c-0.9,0.4-1.3,1.8-1.3,2.7c0,0.9,0.4,1.8,0.9,2.7C155.5,79.6,156.8,79.6,157.7,79.6z M155.5,74.2c0.4-0.9,1.3-1.3,2.2-1.3
	c0.9,0,1.3,0.4,1.8,0.9c0.9,0.9,0.9,3.1,0,4c-0.9,0.9-3.1,0.9-4,0c-0.4-0.4-0.9-1.3-0.9-2.2C154.6,75.1,155,74.7,155.5,74.2z
	 M157.7,78.3c0.4,0,1.3-0.4,1.8-0.9l-0.4-0.4l-0.4,0.4h-0.4c-0.4,0-0.4,0-0.9-0.4c-0.4-0.4-0.4-0.4-0.4-0.9c0-0.4,0-0.9,0.4-0.9
	c0.4-0.4,0.4-0.4,0.9-0.4s0.4,0,0.9,0.4l0.4-0.4c-0.4-0.4-0.9-0.9-1.8-0.9c-1.3,0-2.2,0.9-2.2,2.2l0,0
	C155.5,77.4,156.4,78.3,157.7,78.3L157.7,78.3L157.7,78.3z"/>
<path class="st4" d="M145.6,201.5l-0.9,0.9L145.6,201.5z M143,203.3l0.4-0.4L143,203.3L143,203.3z M147.4,199.7l-0.9,0.9
	L147.4,199.7z M140.7,204.2l-0.9,0.4L140.7,204.2z M127.8,201L127.8,201L127.8,201z M130.9,203.3l-0.9-0.4L130.9,203.3z
	 M148.8,197.5c0,0.4-0.4,0.9-0.4,0.9L148.8,197.5z M134,204.6l-0.9-0.4L134,204.6z M149.2,195.2c0,0.4-0.4,0.9-0.4,1.3L149.2,195.2z
	"/>
<path class="st4" d="M149.7,192.6c0,0.4,0,0.9,0,1.3C149.7,193.5,149.7,193,149.7,192.6z M64.4,87.2l22.8,41.5l38.4,69.2l0.4,0.4
	c-1.3-1.8-1.8-4-1.8-6.3v-49.6L87.2,75.1c-3.6-6.3-11.2-8.5-17.4-4.9c-4,2.2-6.7,6.7-6.7,11.2C63,83.6,63.5,85.4,64.4,87.2z"/>
<path class="st1" d="M126,198.4c0.4,0.9,0.9,1.8,1.8,2.2l0.4,0.4c0.9,0.9,1.3,1.3,2.2,1.8l0.9,0.4c0.9,0.4,1.3,0.4,2.2,0.9l0.9,0.4
	c0.9,0.4,1.8,0.4,3.1,0.4c0.9,0,1.8,0,2.7-0.4h0.9c0.9,0,1.3-0.4,2.2-0.9l0.9-0.4l1.3-0.9l0.9-0.9l0.9-0.9l0.9-0.9l0.4-0.9
	c0-0.4,0.4-0.9,0.4-0.9l0.4-1.3l0.4-1.3c0,0,0-0.9,0-1.3c0-0.4,0-0.9,0-1.3V81.4c0.4-7.1-4.9-12.9-12.1-13.4
	c-7.1-0.4-12.9,4.9-13.4,12.1c0,0.4,0,0.9,0,1.3v110.7C123.8,194.4,124.7,196.6,126,198.4z"/>
</svg>