<svg id="Capa_1" data-name="Capa 1" xmlns="http://www.w3.org/2000/svg" viewBox="0 0 400 300"><defs><style>.cls-1{fill:#404040;}.cls-2{fill:#b51c73;}.cls-3{fill:#fff;}</style></defs><title>todopago</title><path class="cls-1" d="M210.47,123.85v-.12c0-11.84,8.9-22.21,22-22.21s21.84,10.25,21.84,22.08v.13c0,11.84-8.9,22.2-22,22.2S210.47,135.69,210.47,123.85Zm38.76,0v-.12c0-9.76-7.11-17.73-16.92-17.73s-16.81,7.85-16.81,17.6v.13c0,9.75,7.12,17.72,16.93,17.72S249.23,133.6,249.23,123.85Z"/><path class="cls-1" d="M298.31,123.85v-.12c0-11.84,8.9-22.21,22-22.21s21.83,10.25,21.83,22.08v.13c0,11.84-8.89,22.2-22,22.2S298.31,135.69,298.31,123.85Zm38.77,0v-.12C337.08,114,330,106,320.15,106s-16.81,7.85-16.81,17.6v.13c0,9.75,7.12,17.72,16.93,17.72S337.08,133.6,337.08,123.85Z"/><path class="cls-1" d="M295.62,176v-.12c0-12.2,9.62-22.2,22.87-22.2s22.76,9.88,22.76,22.08v.12c0,12.2-9.63,22.21-22.88,22.21S295.62,188.16,295.62,176Zm35.75,0v-.12c0-7.36-5.4-13.49-13-13.49s-12.88,6-12.88,13.37v.12c0,7.36,5.4,13.5,13,13.5S331.37,183.31,331.37,176Z"/><rect class="cls-2" x="57.9" y="99" width="102" height="102" rx="6.15" ry="6.15"/><path class="cls-3" d="M125.26,121.19H75.16a5.83,5.83,0,1,0,0,11.65h16a.38.38,0,0,1,.38.39c0,.22-.13.33-.38.4l-3.83,1v38.14a6.32,6.32,0,1,0,12.64,0v-38a2.12,2.12,0,0,1,2-2H124.2c6.32,0,10.26,2.79,10.26,8.45v.17c0,4.92-3.7,8.7-10,8.7h-9.73c-4.71,0-5.1,2.23-5.1,4.21v18.44a6.32,6.32,0,1,0,12.64,0v-9.43L118,162.21c-.25-.07-.39-.19-.39-.41a.4.4,0,0,1,.39-.41H124c12.88,0,23.22-6.89,23.22-20.19v-.16C147.26,129.31,139,121.19,125.26,121.19Z"/><path class="cls-1" d="M273.28,102.26H260.77a2.44,2.44,0,0,0-2.39,2.45v38a2.44,2.44,0,0,0,2.39,2.45h12.51c13.5,0,22.82-9.38,22.82-21.46v-.13C296.1,111.52,286.78,102.26,273.28,102.26Zm17.79,21.59c0,9.5-6.93,16.87-17.79,16.87h-8.87a1.24,1.24,0,0,1-1.19-1.15V107.78a1.21,1.21,0,0,1,1.11-1h8.95c10.86,0,17.79,7.48,17.79,17Z"/><path class="cls-1" d="M210.41,102.26H180.6a2.3,2.3,0,0,0-2.27,2.27,2.26,2.26,0,0,0,2.27,2.21h11.29a1.21,1.21,0,0,1,1.16,1.12v35.19a2.45,2.45,0,0,0,4.9,0V107.86a1.22,1.22,0,0,1,1.16-1.12h11.3a2.25,2.25,0,0,0,2.26-2.21A2.3,2.3,0,0,0,210.41,102.26Z"/><path class="cls-1" d="M198.32,154.37H185.51a4.68,4.68,0,0,0-4.73,4.72V193a4.73,4.73,0,0,0,9.45,0v-8.53h7.17c9.63,0,17.36-5.15,17.36-15.09v-.12C214.76,160.44,208.57,154.37,198.32,154.37Zm6.87,15.15c0,3.68-2.76,6.5-7.48,6.5h-6.34a1.22,1.22,0,0,1-1.14-1.16V164a1.21,1.21,0,0,1,1.15-1.15h6.14c4.73,0,7.67,2.27,7.67,6.5Z"/><path class="cls-1" d="M288.31,172.58h-14a4.11,4.11,0,0,0-4.11,4.11,4.06,4.06,0,0,0,4.11,4.05h8.43a1.22,1.22,0,0,1,1.18,1.19v4.94a15,15,0,0,1-8.89,2.58c-7.61,0-13-5.76-13-13.62v-.12c0-7.3,5.46-13.37,12.33-13.37a15.12,15.12,0,0,1,9.39,2.94,4.53,4.53,0,0,0,2.88,1,4.67,4.67,0,0,0,4.66-4.67,4.72,4.72,0,0,0-2-3.8c-3.87-2.7-8.16-4.17-14.66-4.17a22,22,0,0,0-22.51,22.2V176c0,12.7,9.2,22.09,22.57,22.09a28.49,28.49,0,0,0,15-4.3,6.38,6.38,0,0,0,3.32-6V177.3A4.69,4.69,0,0,0,288.31,172.58Z"/><path class="cls-1" d="M226.51,178.23v0A0,0,0,0,0,226.51,178.23Z"/><path class="cls-1" d="M252.85,191.23l-15-33.8a5.76,5.76,0,0,0-5.46-3.74h-.55a5.83,5.83,0,0,0-5.52,3.74l-15,33.8a5.1,5.1,0,0,0-.55,2,4.35,4.35,0,0,0,4.36,4.42,4.65,4.65,0,0,0,4.35-2.95l3-7.05h18.9l2.88,6.75a4.81,4.81,0,0,0,4.54,3.25,4.42,4.42,0,0,0,4-6.44ZM232,165.16l5.51,13.11a1.09,1.09,0,0,1,0,.26.81.81,0,0,1-.69.8h-9.72a.81.81,0,0,1-.69-.8.93.93,0,0,1,.05-.29Z"/><path class="cls-1" d="M237.49,178.23v0S237.49,178.22,237.49,178.23Z"/></svg>