<svg id="Capa_1" data-name="Capa 1" xmlns="http://www.w3.org/2000/svg" viewBox="0 0 400 300"><defs><style>.cls-1{fill:#fff;}.cls-2{fill:#e2a615;}.cls-3{fill:#142667;}</style></defs><title>visadebito</title><rect class="cls-1" x="21" y="36.29" width="358" height="227.41"/><rect class="cls-2" x="26.96" y="226.75" width="346.06" height="31.03"/><rect class="cls-3" x="26.96" y="42.26" width="346.06" height="31.03"/><path class="cls-3" d="M163.15,101.3l-34,81.08H107L90.27,117.67c-1-4-1.9-5.44-5-7.12-5.05-2.74-13.38-5.3-20.71-6.9l.5-2.35h35.7a9.78,9.78,0,0,1,9.67,8.26l8.84,46.92,21.82-55.18ZM250,155.91c.09-21.4-29.58-22.59-29.39-32.15.07-2.9,2.84-6,8.9-6.79a39.69,39.69,0,0,1,20.68,3.64l3.68-17.21a56.68,56.68,0,0,0-19.62-3.58c-20.74,0-35.32,11-35.43,26.8-.14,11.67,10.42,18.18,18.35,22.07,8.17,4,10.91,6.52,10.88,10.07-.06,5.44-6.53,7.84-12.54,7.93-10.56.17-16.67-2.84-21.55-5.11l-3.8,17.76c4.9,2.26,13.95,4.21,23.32,4.31,22,0,36.45-10.89,36.52-27.74m54.75,26.47h19.4L307.22,101.3H289.33a9.55,9.55,0,0,0-8.93,6l-31.47,75.13h22l4.37-12.11h26.92Zm-23.41-28.73,11.05-30.45,6.34,30.45ZM193.11,101.3l-17.34,81.08h-21l17.35-81.08Z"/><path class="cls-3" d="M226.45,193.15a37.86,37.86,0,0,1,6.32-.51c4.27,0,7.3,1,9.31,2.87s3.28,4.54,3.28,8.26a12.3,12.3,0,0,1-3.31,8.94c-2.18,2.15-5.73,3.32-10.2,3.32a50.18,50.18,0,0,1-5.4-.27Zm3,20.35a23.09,23.09,0,0,0,3,.14c6.39,0,9.8-3.55,9.8-9.77,0-5.42-3-8.88-9.32-8.88a16.87,16.87,0,0,0-3.48.31Z"/><path class="cls-3" d="M251.75,208.1c.07,4.07,2.63,5.74,5.67,5.74A10.85,10.85,0,0,0,262,213l.55,2.15a13.49,13.49,0,0,1-5.53,1.05c-5.09,0-8.13-3.37-8.13-8.36s2.94-8.88,7.75-8.88c5.43,0,6.83,4.72,6.83,7.75a8.07,8.07,0,0,1-.1,1.4Zm8.81-2.15c0-1.87-.79-4.84-4.17-4.84-3.07,0-4.37,2.76-4.6,4.84Zm.68-13.79L257.08,197H255l3-4.88Z"/><path class="cls-3" d="M268,191.58h3V202h.06a6.15,6.15,0,0,1,5.64-3c4.13,0,7,3.42,7,8.4,0,5.91-3.76,8.84-7.44,8.84a6,6,0,0,1-5.57-3.07h-.06l-.18,2.7H267.9c.07-1.12.13-2.8.13-4.27Zm3,17.62a3.92,3.92,0,0,0,.13,1.09,4.62,4.62,0,0,0,4.51,3.52c3.17,0,5-2.57,5-6.35,0-3.32-1.7-6.15-4.94-6.15a4.81,4.81,0,0,0-4.54,3.69,4.47,4.47,0,0,0-.17,1.26Z"/><path class="cls-3" d="M291.67,194.65a1.8,1.8,0,0,1-1.92,1.85,1.77,1.77,0,0,1-1.8-1.85,1.86,1.86,0,1,1,3.72,0Zm-3.35,21.17V199.3h3v16.52Z"/><path class="cls-3" d="M300.78,195.33v4h4.31v2.29h-4.31v8.91c0,2.05.58,3.2,2.26,3.2a5.55,5.55,0,0,0,1.74-.2l.13,2.29a8,8,0,0,1-2.66.4,4.28,4.28,0,0,1-3.24-1.25c-.82-.93-1.16-2.39-1.16-4.35v-9h-2.56V199.3h2.56v-3.08Z"/><path class="cls-3" d="M324.06,207.42c0,6.11-4.26,8.77-8.22,8.77-4.44,0-7.92-3.27-7.92-8.49,0-5.5,3.66-8.75,8.2-8.75C320.86,199,324.06,202.4,324.06,207.42ZM311,207.6c0,3.61,2.05,6.35,5,6.35s5-2.71,5-6.43c0-2.79-1.4-6.31-4.95-6.31S311,204.49,311,207.6Z"/></svg>