<svg id="Capa_1" data-name="Capa 1" xmlns="http://www.w3.org/2000/svg" xmlns:xlink="http://www.w3.org/1999/xlink" viewBox="0 0 400 300"><defs><style>.cls-1{fill:url(#linear-gradient);}</style><linearGradient id="linear-gradient" x1="78.3" y1="196.92" x2="332.22" y2="99.53" gradientUnits="userSpaceOnUse"><stop offset="0" stop-color="#1d2256"/><stop offset="1" stop-color="#223085"/></linearGradient></defs><title>visa</title><path class="cls-1" d="M163.08,102.2,122.9,198.05H96.7L76.93,121.56c-1.2-4.71-2.25-6.44-5.9-8.42-6-3.23-15.8-6.27-24.45-8.15l.58-2.79H89.35c5.38,0,10.21,3.59,11.43,9.78l10.45,55.46L137,102.2Zm102.7,64.56c.1-25.3-35-26.7-34.75-38,.08-3.43,3.36-7.09,10.52-8A46.65,46.65,0,0,1,266,125l4.35-20.33a66.77,66.77,0,0,0-23.2-4.25c-24.5,0-41.74,13-41.89,31.68-.16,13.8,12.31,21.5,21.7,26.09,9.67,4.69,12.9,7.71,12.87,11.91-.07,6.43-7.7,9.27-14.84,9.38-12.46.19-19.7-3.37-25.46-6l-4.5,21c5.8,2.66,16.49,5,27.57,5.09,26.06,0,43.09-12.87,43.18-32.79m64.71,31.29h22.93l-20-95.85H312.24a11.31,11.31,0,0,0-10.56,7l-37.2,88.82h26l5.17-14.32H327.5Zm-27.66-34,13.05-36,7.51,36ZM198.51,102.2,178,198.05h-24.8l20.51-95.85Z"/></svg>