<svg id="Capa_1" data-name="Capa 1" xmlns="http://www.w3.org/2000/svg" viewBox="0 0 400 300"><defs><style>.cls-1{fill:#1d2e68;}.cls-1,.cls-2{fill-rule:evenodd;}.cls-2{fill:#ddb736;}</style></defs><title>bancodelsol</title><g id="_Grupo_" data-name="&lt;Grupo&gt;"><path id="_Trazado_compuesto_" data-name="&lt;Trazado compuesto&gt;" class="cls-1" d="M51.22,107.29c26.4.15,53.37-.28,79.41.22v85c-26.11.5-53.15.07-79.62.22V107.94C51,107.63,51,107.33,51.22,107.29Zm2.37,3.22v79.62h74.46V109.87H53.8C53.55,109.9,53.57,110.21,53.59,110.51Z"/><path id="_Trazado_compuesto_2" data-name="&lt;Trazado compuesto&gt;" class="cls-2" d="M53.8,109.87h74.25v80.26H53.59V110.51C53.57,110.21,53.55,109.9,53.8,109.87Zm3,4.29v72.32h67.82c.5-22.31.08-49.34.22-73H57C56.77,113.55,56.79,113.86,56.8,114.16Z"/><path id="_Trazado_compuesto_3" data-name="&lt;Trazado compuesto&gt;" class="cls-1" d="M57,113.52h67.82c-.14,23.62.28,50.65-.22,73H56.8V114.16C56.79,113.86,56.77,113.55,57,113.52Zm29.83,17.81c1.09,2.52,6.37,2.68,7.51,0,.77-1.8.55-10.66,0-11.8-1.28-2.68-6.34-2.65-7.72.64C87.35,123.63,85.58,128.39,86.85,131.33Zm-18.67-.22c.39,1.77,2.43,3,3.65,4.3,1.43,1.55,2.87,3.64,4.29,3.86a4.55,4.55,0,0,0,4.94-5.58c-.24-1.17-2.22-3-3.65-4.51-2.06-2.13-3.14-4.18-5.8-3.65A4.4,4.4,0,0,0,68.18,131.11Zm35.41-1.28c-1.48,1.62-3.31,2.74-3.43,4.5-.2,2.75,2.16,5.49,5.15,4.94,1.51-.28,2.85-2.58,4.29-4.08s3.43-2.76,3.65-4.72a4.42,4.42,0,0,0-5.37-4.94C106.08,126.07,105.31,127.94,103.59,129.83Zm-30,23.6c2.79-1.26,2.27-7.08-.21-8.15-1.62-.7-8-.57-9.66-.22-3.61.8-3.94,6.5-.64,8.59C66.64,152.93,70.73,154.7,73.54,153.43Zm45.07,0c2.72-1.22,2.5-7-.21-8.15-1.66-.69-7.82-.56-9.45-.22-3.81.82-4.08,6.61-.85,8.59C111.63,152.88,115.62,154.78,118.61,153.43Zm-47,10.3c-1.52,1.66-3,3.28-3.22,4.3a4.53,4.53,0,0,0,4.72,5.58c1.3-.15,3.33-2.35,4.51-3.65s3.37-3.35,3.65-4.72c.61-3-2.26-6.51-5.37-5.37A19.06,19.06,0,0,0,71.61,163.73Zm28.55,1.51c.15,1,1,1.54,1.71,2.36,1.6,1.88,4.5,6,6.66,6.22a4.64,4.64,0,0,0,4.72-5.36c-.23-1.43-2.16-2.94-3.65-4.51-2.15-2.27-3-4.55-6-3.86A4.44,4.44,0,0,0,100.16,165.24Zm-5.58,2.57c-1.08-2.93-6.6-2.89-7.73-.21-.76,1.79-.62,10.06,0,11.59,1.09,2.68,6.22,2.94,7.73-.22C93.87,175.42,95.52,170.4,94.58,167.81Z"/><path id="_Trazado_" data-name="&lt;Trazado&gt;" class="cls-2" d="M86.64,120.17c1.38-3.29,6.44-3.32,7.72-.64.55,1.14.77,10,0,11.8-1.14,2.68-6.42,2.52-7.51,0C85.58,128.39,87.35,123.63,86.64,120.17Z"/><path id="_Trazado_2" data-name="&lt;Trazado&gt;" class="cls-2" d="M71.61,125.53c2.66-.53,3.74,1.52,5.8,3.65,1.43,1.49,3.41,3.34,3.65,4.51a4.55,4.55,0,0,1-4.94,5.58c-1.42-.22-2.86-2.31-4.29-3.86-1.22-1.32-3.26-2.53-3.65-4.3A4.4,4.4,0,0,1,71.61,125.53Z"/><path id="_Trazado_3" data-name="&lt;Trazado&gt;" class="cls-2" d="M107.88,125.53a4.42,4.42,0,0,1,5.37,4.94c-.22,2-2.19,3.2-3.65,4.72s-2.78,3.8-4.29,4.08c-3,.55-5.35-2.19-5.15-4.94.12-1.76,2-2.88,3.43-4.5C105.31,127.94,106.08,126.07,107.88,125.53Z"/><path id="_Trazado_4" data-name="&lt;Trazado&gt;" class="cls-2" d="M63,153.65c-3.3-2.09-3-7.79.64-8.59,1.61-.35,8-.48,9.66.22,2.48,1.07,3,6.89.21,8.15S66.64,152.93,63,153.65Z"/><path id="_Trazado_5" data-name="&lt;Trazado&gt;" class="cls-2" d="M108.1,153.65c-3.23-2-3-7.77.85-8.59,1.63-.34,7.79-.47,9.45.22,2.71,1.12,2.93,6.93.21,8.15C115.62,154.78,111.63,152.88,108.1,153.65Z"/><path id="_Trazado_6" data-name="&lt;Trazado&gt;" class="cls-2" d="M75.9,159.87c3.11-1.14,6,2.42,5.37,5.37-.28,1.37-2.38,3.32-3.65,4.72s-3.21,3.5-4.51,3.65A4.53,4.53,0,0,1,68.39,168c.18-1,1.7-2.64,3.22-4.3A19.06,19.06,0,0,1,75.9,159.87Z"/><path id="_Trazado_7" data-name="&lt;Trazado&gt;" class="cls-2" d="M103.59,160.09c3-.69,3.86,1.59,6,3.86,1.49,1.57,3.42,3.08,3.65,4.51a4.64,4.64,0,0,1-4.72,5.36c-2.16-.19-5.06-4.34-6.66-6.22-.69-.82-1.56-1.31-1.71-2.36A4.44,4.44,0,0,1,103.59,160.09Z"/><path id="_Trazado_8" data-name="&lt;Trazado&gt;" class="cls-2" d="M94.58,179c-1.51,3.16-6.64,2.9-7.73.22-.62-1.53-.76-9.8,0-11.59,1.13-2.68,6.65-2.72,7.73.21C95.52,170.4,93.87,175.42,94.58,179Z"/><path id="_Trazado_9" data-name="&lt;Trazado&gt;" class="cls-1" d="M303.61,110.3c-.64,1.54-.28,4.4-.86,6.65-.28,1.07.12,2.18-1.72,1.72-1-.85-.09-2.67-.43-3.87s-2.39-2.55-3.43-3c-4.38-1.9-10.28-.6-13.09,2.15-6.61,6.45-3.9,21.59,3.43,25.53a15,15,0,0,0,8.37,1.29c2.6-.24,4.94-1.55,7.51-2.36.59,1-.7,1.81-.64,3-7.25,4.66-18.7,3.13-23.82-1.29-3.95-3.42-6.06-9.17-5.8-15,.44-10,7-16.87,18.24-17.17C296.19,107.8,299.84,109,303.61,110.3Z"/><path id="_Trazado_compuesto_4" data-name="&lt;Trazado compuesto&gt;" class="cls-1" d="M331.08,108.15c10.27-.39,17,4.9,17.81,14.59.68,7.74-1.86,13.94-5.58,17.39-4.95,4.59-15.5,5.87-22.11,1.93a15.86,15.86,0,0,1-5.36-5.8c-3-5.75-2-16.41.64-20.81C319.07,111.21,323.6,108.44,331.08,108.15Zm-2.15,3c-10.49,1.74-10,24.32-2.36,29a10.28,10.28,0,0,0,10.52-.22c3.92-2.75,5.13-10.74,4.5-17.17-.72-7.44-4.56-12.86-12.23-11.58C329.22,111.18,329.07,111.13,328.93,111.16Z"/><path id="_Trazado_compuesto_5" data-name="&lt;Trazado compuesto&gt;" class="cls-1" d="M163,123.82c2.77.87,5.43.93,7.08,2.57,3.57,3.57,2.26,10.14-.64,13.31a12.76,12.76,0,0,1-7.3,3.65c-4.61.51-10.19-.39-15.24,0-.25-1.9,1.65-1.64,2.15-2.79a278.17,278.17,0,0,0-.22-29c-.74-.68-2.18-.68-3.65-.64.14-.72-.27-2,.22-2.36,7.2,1.55,16.86-1.84,22.53,1.07,4.57,2.35,4,9.61-.21,12.45A12.13,12.13,0,0,1,163,123.82Zm-.86-1.93c3-2.35,2.47-8.69-.43-10.09-1.46-.71-3-.32-5.37-.43a.59.59,0,0,0-.42.64V123C158.49,122.78,160.43,123.25,162.18,121.89Zm2.15,6.86c-1.28-2.6-4.19-3.26-8.16-3-.5,4.51-.07,9.94-.21,14.81C163.33,143.14,167,134.14,164.33,128.75Z"/><path id="_Trazado_compuesto_6" data-name="&lt;Trazado compuesto&gt;" class="cls-1" d="M201.24,108.58c4.49,10.75,8.29,22.18,13.3,32.41a9,9,0,0,0,2.58.21v2.15h-14.6v-1.93c.9-.47,2.76,0,3.44-.65-.16-3.27-1.76-5.1-2.36-7.94H192a18.52,18.52,0,0,0-2.36,7.73c.56.94,2.62.38,3.65.86v1.93H182.57V141.2a6.38,6.38,0,0,0,2.36-.21c1.86-2.07,2.64-4.89,3.65-7.52,3-7.81,6-16.25,9-24.25-.06-.34.2-.37.21-.64ZM193.08,130c2.3-.16,7.24.25,9.23-.21-1.66-4.14-3.05-8.54-4.94-12.45C196.17,121.69,193.86,126,193.08,130Z"/><path id="_Trazado_10" data-name="&lt;Trazado&gt;" class="cls-1" d="M226.56,108.58a44.57,44.57,0,0,0,9.66,0c6.48,8.47,12.58,17.32,19.74,25.11-.13-7.59.39-15.84-.64-22.53-1-.37-2.68,0-3.65-.43v-2.15c3.19.5,8.32.06,11.16.21v1.94c-.92.36-2.48.09-3.43.43-1.66,9.85-.34,22.57-.65,32.83-1.57.07-2.45-.55-4.07-.43-7.28-8.74-14.1-18-21.25-26.82.07,8.16-.21,16.66.64,24a8,8,0,0,0,3.65.43v2.15H226.56V141.2a8.31,8.31,0,0,0,3.43-.43c1.51-8.58.76-19.9.43-29.19-.76-.8-2.69-.45-3.86-.85Z"/><path id="_Trazado_11" data-name="&lt;Trazado&gt;" class="cls-1" d="M275.71,157.51c.19,1.18-.31,2.47-.43,3.86-.17,1.86.68,4.48-1.72,4.08-.86-.71-.28-2.86-.64-4.08-3.59-5.26-15.48-2.73-12.67,5.16,1.78,5,12.46,2.62,15.89,7.08,2.25,2.93,2.14,8,.64,11.37-3.17,7.07-14.92,9.23-22.75,4.51.33-2,.49-4.54.65-6.87,0-.64-.4-1.71.42-1.93,2.49-1,1.31,3,1.72,4.29,1.19,3.71,8.75,5.64,12.66,2.79,2.26-1.65,2.86-6.14,1.29-8.37-2.31-3.28-9.27-2.1-13.31-4.93-4.59-3.24-3.82-11.91-.42-15.46C261.15,154.72,269.3,155,275.71,157.51Z"/><path id="_Trazado_compuesto_7" data-name="&lt;Trazado compuesto&gt;" class="cls-1" d="M297.6,156c13-1.39,20.15,5.18,20.17,16.74a25.26,25.26,0,0,1-2.36,10.73c-3.9,7.4-14.63,10.73-23.39,7.3-6-2.34-9-7.81-9.45-15.24a25.91,25.91,0,0,1,2.58-12.23C287.52,159.37,291.48,156.66,297.6,156ZM293.3,161c-5.65,5.43-4,22.34,1.29,26.39,3,2.32,8.82,2.17,11.59,0,3.28-2.57,4.66-9.38,4.29-15.23-.49-7.88-3.69-14.49-12-13.31C295.75,159.18,294.54,159.75,293.3,161Z"/><path id="_Trazado_compuesto_8" data-name="&lt;Trazado compuesto&gt;" class="cls-1" d="M146.51,191c-.48-1.59,1.66-1.78,2.15-3,.62-1.54.21-4.53.21-7.09,0-6.7.3-15.9-.43-21.46-.58-1.42-4.57.09-3.64-2.36.34-.91.53-.58,1.5-.64,4.54-.31,10.78.24,14.59-.22a29.16,29.16,0,0,1,11,1.08c5.67,2,9.06,7.75,8.58,15.66-.64,10.67-8.15,18.18-20,18.25C156.25,191.23,151.93,190.79,146.51,191ZM168,186.48c6.7-4.71,7.95-23.13-1.28-26.61-3-1.14-6.31-.86-10.95-.43-.33,9.09-.36,19.46,0,28.55C160.58,188.55,164.92,188.63,168,186.48Z"/><path id="_Trazado_12" data-name="&lt;Trazado&gt;" class="cls-1" d="M208.53,156.65c-.34,2.45-.19,5.38-.86,7.51H206.6c-1.42-.14-.1-3-.86-3.86-2.69-1.56-6.58-.61-10.51-.86-.61,3.55-.4,7.91-.43,12,2.27,1,5.86.16,8.58.22.68-.9.21-2.94.86-3.87h1.07c1.37,1,.43,3.68.43,5.58s.78,4.23-.21,5.58h-1.07c-.89-.69-.33-2.82-.86-3.86-2-1.07-5.65-.5-8.59-.64-.49,4-.07,8.93-.21,13.3a45.2,45.2,0,0,0,11.59-.21c1-1.17.56-3.87,1.5-5.15h1.5c0,2.12-.19,5.8-.43,8.37-5.48.6-13,.11-19.74.21-1.29,0-2.81.38-3.86-.21-.3-1.95,1.88-1.42,2.36-2.58a206,206,0,0,0,0-28.76c-.61-.89-2.17-.83-3.65-.86v-2.14C192.28,156.7,201.27,156,208.53,156.65Z"/><path id="_Trazado_13" data-name="&lt;Trazado&gt;" class="cls-1" d="M227.85,156.44v1.71c-.52,1-2.73.28-3.44,1.08-.8,8.78-.38,19.18-.21,28.33,3.23.91,8.26.37,11.37-.22.88-1.41.67-3.91,1.51-5.36h1.28c.95.81.17,2.64,0,4.08a33.35,33.35,0,0,0-.21,4.5c-6.64,1.34-16.31,0-23.39.43-.39-2.18,1.92-1.65,2.36-3,.29-9.11.39-19.45,0-28.55-.86-.79-2.48-.81-4.08-.86.13-.65-.27-1.84.22-2.14Z"/><path id="_Trazado_14" data-name="&lt;Trazado&gt;" class="cls-1" d="M335.8,156.44v1.71c-.52,1-2.73.28-3.44,1.08-.76,8.72-.45,19.27-.21,28.33,3.23.91,8.25.36,11.37-.22.88-1.41.67-3.91,1.51-5.36h1.71c0,3-.79,5.36-.64,8.58-6.68,1.34-16.46,0-23.61.43-.24-2.1,2.11-1.61,2.58-3,.3-9.12.38-19.45,0-28.55-.83-.81-2.55-.74-4.08-.86.13-.65-.27-1.84.21-2.14Z"/></g></svg>