<svg id="Capa_1" data-name="Capa 1" xmlns="http://www.w3.org/2000/svg" viewBox="0 0 400 300"><defs><style>.cls-1,.cls-3{fill:#466ba2;}.cls-2{fill:#ead972;}.cls-3{fill-rule:evenodd;}</style></defs><title>bancorepublica</title><g id="_Grupo_" data-name="&lt;Grupo&gt;"><g id="_Grupo_2" data-name="&lt;Grupo&gt;"><g id="_Grupo_3" data-name="&lt;Grupo&gt;"><path id="_Trazado_compuesto_" data-name="&lt;Trazado compuesto&gt;" class="cls-1" d="M137.12,138.41a8.33,8.33,0,0,1-3.12,6.75,9.41,9.41,0,0,1-3.24,1.71,13.14,13.14,0,0,1-3.83.56H112.25V112.17H126a15.39,15.39,0,0,1,3.68.44,9.39,9.39,0,0,1,3.15,1.39,7.05,7.05,0,0,1,2.17,2.46,7.55,7.55,0,0,1,.8,3.61,7,7,0,0,1-.77,3.32,8.56,8.56,0,0,1-2,2.51,8.87,8.87,0,0,1-2.88,1.63,12.39,12.39,0,0,1-3.29.73v.49a6.81,6.81,0,0,1,.78-.05h.88a8.62,8.62,0,0,1,3.8.79,7.8,7.8,0,0,1,2.71,2.09,8.63,8.63,0,0,1,1.63,3.07A12.8,12.8,0,0,1,137.12,138.41Zm-10-17.11a2.93,2.93,0,0,0-1.39-2.88,7,7,0,0,0-3.34-.73H120v8.87a2.29,2.29,0,0,0,.92.1,6.87,6.87,0,0,1,.93,0,5.11,5.11,0,0,0,3.87-1.44A5.32,5.32,0,0,0,127.12,121.3Zm1.42,16a6.82,6.82,0,0,0-.47-2.69,3.79,3.79,0,0,0-1.31-1.67,5.41,5.41,0,0,0-2.07-.88,12.18,12.18,0,0,0-2.74-.27c-.32,0-.65,0-1,0l-1,.07v9.85q.67.1,1.41.15c.49,0,1,0,1.41,0a10.39,10.39,0,0,0,2.1-.22,4.84,4.84,0,0,0,1.83-.78,4.17,4.17,0,0,0,1.29-1.44A4.52,4.52,0,0,0,128.54,137.29Z"/><path id="_Trazado_compuesto_2" data-name="&lt;Trazado compuesto&gt;" class="cls-1" d="M163.8,147.43l-3.27-9.07H147.17l-3.32,9.07h-5.56L150.73,113l8.92-.78,12.73,35.26Zm-10-27.75L149,133.1h9.61Z"/><path id="_Trazado_compuesto_3" data-name="&lt;Trazado compuesto&gt;" class="cls-1" d="M196.51,147.43,182.17,126h-.38v21.41h-6.34V113l7.21-.78,14.24,21.41h.39V112.17h6.35v35.26Z"/><path id="_Trazado_compuesto_4" data-name="&lt;Trazado compuesto&gt;" class="cls-1" d="M232.18,147.89a41.23,41.23,0,0,1-6,.42,21,21,0,0,1-7.65-1.32,16.31,16.31,0,0,1-5.83-3.75,16.55,16.55,0,0,1-3.7-5.83,22.75,22.75,0,0,1,0-15.16,16.15,16.15,0,0,1,3.7-5.86,16.72,16.72,0,0,1,5.83-3.75,20.61,20.61,0,0,1,7.65-1.34,39.72,39.72,0,0,1,5.71.39,44.72,44.72,0,0,1,5.61,1.21v6a38.45,38.45,0,0,0-4.56-1.5,19.66,19.66,0,0,0-4.76-.55,11.73,11.73,0,0,0-5,1,9.84,9.84,0,0,0-3.53,2.73,11.33,11.33,0,0,0-2.1,4.07,17.5,17.5,0,0,0-.68,5,17.18,17.18,0,0,0,.78,5.3A11.5,11.5,0,0,0,219.9,139a10.59,10.59,0,0,0,3.85,2.76,13.28,13.28,0,0,0,5.34,1,14.85,14.85,0,0,0,4.61-.69,31.2,31.2,0,0,0,4.31-1.75v6.1A31.54,31.54,0,0,1,232.18,147.89Z"/><path id="_Trazado_compuesto_5" data-name="&lt;Trazado compuesto&gt;" class="cls-1" d="M275.36,129.83a22.45,22.45,0,0,1-1.21,7.56,16,16,0,0,1-3.54,5.83A16.16,16.16,0,0,1,265,147a19.91,19.91,0,0,1-7.56,1.34,20.35,20.35,0,0,1-7.56-1.32,15.5,15.5,0,0,1-5.63-3.75,16.63,16.63,0,0,1-3.54-5.83,24.1,24.1,0,0,1,0-15.14,16.53,16.53,0,0,1,3.54-5.85,15.7,15.7,0,0,1,5.63-3.78,22.08,22.08,0,0,1,15.15,0,15.53,15.53,0,0,1,5.63,3.78,16.47,16.47,0,0,1,3.51,5.85A22.41,22.41,0,0,1,275.36,129.83Zm-9.11,0a22.94,22.94,0,0,0-.44-4.32,14.54,14.54,0,0,0-1.49-4.21,9.61,9.61,0,0,0-2.73-3.22,7.46,7.46,0,0,0-8.33,0,9.5,9.5,0,0,0-2.73,3.22,14.56,14.56,0,0,0-1.5,4.21,21.38,21.38,0,0,0,0,8.63,14.22,14.22,0,0,0,1.5,4.19,9.62,9.62,0,0,0,2.73,3.2,7.46,7.46,0,0,0,8.33,0,9.74,9.74,0,0,0,2.73-3.2,14.21,14.21,0,0,0,1.49-4.19A22.92,22.92,0,0,0,266.25,129.83Z"/></g><g id="_Grupo_4" data-name="&lt;Grupo&gt;"><path id="_Trazado_compuesto_6" data-name="&lt;Trazado compuesto&gt;" class="cls-1" d="M131.71,187.83a72.2,72.2,0,0,1-4.32-7c-1.31-2.42-2.53-4.85-3.63-7.29h-3.51v14.24h-8V152.57h15.31a9.69,9.69,0,0,1,3.66.7,9.58,9.58,0,0,1,3,1.93,9.15,9.15,0,0,1,2,2.93,9,9,0,0,1,.75,3.66,9.56,9.56,0,0,1-1.75,5.65,12.22,12.22,0,0,1-4.59,3.91c.66,1.26,1.43,2.63,2.35,4.11s1.86,3,2.85,4.44,2,2.91,3,4.29,2,2.6,3,3.64Zm-3.32-25a4.7,4.7,0,0,0-.46-2.17,3.87,3.87,0,0,0-1.25-1.46,5.13,5.13,0,0,0-1.8-.83,8.39,8.39,0,0,0-2.15-.27h-2.48v10.58h3.17a5.28,5.28,0,0,0,2.27-.46,4.31,4.31,0,0,0,1.56-1.27,5,5,0,0,0,.87-1.88A9.1,9.1,0,0,0,128.39,162.81Z"/><path id="_Trazado_compuesto_7" data-name="&lt;Trazado compuesto&gt;" class="cls-1" d="M144.44,187.83V152.57h22.62v5.51H153v9.07h11.51v4.93H153v10.24h15.16v5.51Z"/><path id="_Trazado_compuesto_8" data-name="&lt;Trazado compuesto&gt;" class="cls-1" d="M197.25,162.37a13.38,13.38,0,0,1-1.32,6.53,8.28,8.28,0,0,1-3.59,3.47,14.79,14.79,0,0,1-5.31,1.39c-2,.17-4.19.26-6.46.26v13.81h-8V152.57h14.34a11.21,11.21,0,0,1,7.61,2.41C196.32,156.59,197.25,159.06,197.25,162.37Zm-8.64.73a4.71,4.71,0,0,0-.46-2.14,4.48,4.48,0,0,0-1.27-1.56,5.56,5.56,0,0,0-1.83-1,6.62,6.62,0,0,0-2.14-.34,4.9,4.9,0,0,0-1.17.12c-.33.09-.72.17-1.17.27V169.1a24.59,24.59,0,0,0,3.19-.2,6.54,6.54,0,0,0,2.56-.82,4.59,4.59,0,0,0,1.69-1.8A7.09,7.09,0,0,0,188.61,163.1Z"/><path id="_Trazado_compuesto_9" data-name="&lt;Trazado compuesto&gt;" class="cls-1" d="M229.38,175q0,13.72-13.71,13.71a19.15,19.15,0,0,1-5.94-.87,12.73,12.73,0,0,1-4.59-2.59,11.1,11.1,0,0,1-2.92-4.29,16.11,16.11,0,0,1-1-6V153.35l8.58-.78v20.48c0,1.11.05,2.25.15,3.44a11.58,11.58,0,0,0,.72,3.27,5.86,5.86,0,0,0,1.81,2.46,5.32,5.32,0,0,0,3.41,1,5.16,5.16,0,0,0,5.07-3.06,9.57,9.57,0,0,0,.83-3,27.48,27.48,0,0,0,.2-3.24V152.57h7.41Z"/><path id="_Trazado_compuesto_10" data-name="&lt;Trazado compuesto&gt;" class="cls-1" d="M260.49,178.81a8.33,8.33,0,0,1-3.12,6.75,9.49,9.49,0,0,1-3.24,1.71,13.14,13.14,0,0,1-3.83.56H235.63V152.57h13.7A15.5,15.5,0,0,1,253,153a9.44,9.44,0,0,1,3.14,1.4,6.79,6.79,0,0,1,2.17,2.46,7.53,7.53,0,0,1,.81,3.6,6.93,6.93,0,0,1-.78,3.32,8.45,8.45,0,0,1-2,2.52,9.2,9.2,0,0,1-2.87,1.63,13.3,13.3,0,0,1-3.3.73v.49a5.27,5.27,0,0,1,.78-.05h.88a8.67,8.67,0,0,1,3.81.78,8,8,0,0,1,2.7,2.1,8.39,8.39,0,0,1,1.63,3.07A12.7,12.7,0,0,1,260.49,178.81Zm-10-17.13a3,3,0,0,0-1.39-2.87,7.07,7.07,0,0,0-3.34-.73h-2.39V167a2.46,2.46,0,0,0,.92.09c.3,0,.61,0,.93,0a5.18,5.18,0,0,0,3.88-1.44A5.38,5.38,0,0,0,250.5,161.68Zm1.41,16a7,7,0,0,0-.46-2.69,3.94,3.94,0,0,0-1.32-1.67,5.73,5.73,0,0,0-2.07-.88,13.43,13.43,0,0,0-2.73-.27c-.33,0-.65,0-1,0s-.65,0-1,.07v9.85c.45.06.92.12,1.41.15s1,0,1.41,0a9.72,9.72,0,0,0,2.1-.22,5.17,5.17,0,0,0,1.83-.78,4.25,4.25,0,0,0,1.29-1.44A4.45,4.45,0,0,0,251.91,177.68Z"/><path id="_Trazado_compuesto_11" data-name="&lt;Trazado compuesto&gt;" class="cls-1" d="M264.83,187.83V153.35l8.58-.78v29.75h15.17v5.51Z"/><path id="_Trazado_compuesto_12" data-name="&lt;Trazado compuesto&gt;" class="cls-1" d="M291.8,187.83V153.35l8.82-.78v35.26Z"/><path id="_Trazado_compuesto_13" data-name="&lt;Trazado compuesto&gt;" class="cls-1" d="M329.18,188.29a41.5,41.5,0,0,1-6,.41,21.32,21.32,0,0,1-7.65-1.31A16.13,16.13,0,0,1,306,177.8a20.89,20.89,0,0,1-1.3-7.58,21.2,21.2,0,0,1,1.3-7.58,16.11,16.11,0,0,1,3.7-5.85A16.74,16.74,0,0,1,315.5,153a20.89,20.89,0,0,1,7.65-1.34,39.72,39.72,0,0,1,5.71.39,44.07,44.07,0,0,1,5.61,1.22v5.95a37.75,37.75,0,0,0-4.56-1.49,19.51,19.51,0,0,0-4.75-.56,11.67,11.67,0,0,0-5.05,1,10,10,0,0,0-3.54,2.73,11.53,11.53,0,0,0-2.1,4.08,17.8,17.8,0,0,0-.68,5,17.13,17.13,0,0,0,.79,5.3,11.61,11.61,0,0,0,2.31,4.17,10.67,10.67,0,0,0,3.85,2.76,13.46,13.46,0,0,0,5.34,1,15.1,15.1,0,0,0,4.61-.69,33.27,33.27,0,0,0,4.32-1.76v6.1A32,32,0,0,1,329.18,188.29Z"/><path id="_Trazado_compuesto_14" data-name="&lt;Trazado compuesto&gt;" class="cls-1" d="M361,187.83l-3.27-9.07H344.37l-3.32,9.07h-5.56l12.44-34.48,8.92-.78,12.73,35.26Zm-10-27.75-4.78,13.41h9.6Z"/></g></g><g id="_Grupo_5" data-name="&lt;Grupo&gt;"><path class="cls-2" d="M30.42,112.28v75.44h75.43V112.28Zm73.13,73.13H32.73V114.59h70.82Z"/></g><g id="_Grupo_6" data-name="&lt;Grupo&gt;"><path id="_Trazado_" data-name="&lt;Trazado&gt;" class="cls-3" d="M56.86,168.7c1.34,0,1.85-.12,2,.77A11.14,11.14,0,0,0,68,178c6.26.9,8.69-.32,12-2.36a7.36,7.36,0,0,0,3.84-5.12c.25-.89,0-1.68.75-1.68,0,0,11.1,0,11.1,0,1,0,1.24.5.92,1.24-4.24,6.61-10.47,10-13.35,10.73-.06-.06-9.78,2.63-16.29,1.47-9.78-1.66-15.92-4.79-20.9-12.37,0,0-1-1.56,1.12-1.24Z"/><path id="_Trazado_2" data-name="&lt;Trazado&gt;" class="cls-3" d="M40.4,119.09h2.22v30.49a6.39,6.39,0,0,0-3,5.31c0,1.84-1.68,14.74,10,27H43.24s-13.66-25.16-2.84-33.13C40.19,148.56,40.4,119.09,40.4,119.09Z"/><g id="_Grupo_7" data-name="&lt;Grupo&gt;"><path class="cls-3" d="M96.66,145.38c0-1-.58-1-.58-1s-1-.57-.89-.57a1.51,1.51,0,0,0-1-1.55s-6.59-5.22-6.59-5.29a2.2,2.2,0,0,0-2.1-.89h-37c-1.74,0-2.17.76-2.17,2v11.49a1.71,1.71,0,0,0,2,1.87h7.54c2,.13,1.66-2.06,1.66-3.08.06-.76.4-.64.59-.64,0,0,25.69-.06,25.69,0,1.8.07,1.53,1.47,1.59,2.43s.51,1.35,1.85,1.42c0,0,7.48.06,7.48,0,1.91,0,1.85-.7,1.91-1.61C96.66,150,96.6,145.45,96.66,145.38ZM83.37,144.1H58c-.53,0-.46-.37-.46-.37V140.3c0-.42.56-.29.56-.29H83.37a2,2,0,1,1,0,4.09Z"/></g><g id="_Grupo_8" data-name="&lt;Grupo&gt;"><path class="cls-3" d="M100.11,155c-.19-1.6-1.21-1.86-2.61-1.92,0,0-52.26-.09-52.26-.05A2,2,0,0,0,43,155c-.55,3.81.89,9.12,1.58,11a1.65,1.65,0,0,0,1.78,1.26H95.89c1.4-.06,1.91.24,2.63-1.29A31.32,31.32,0,0,0,100.11,155Zm-14.56,6.52a2,2,0,0,1-2,2h-24a2,2,0,0,1-2-2v-2.69a2,2,0,0,1,2-2h24a2,2,0,0,1,2,2Z"/></g><g id="_Grupo_9" data-name="&lt;Grupo&gt;"><path class="cls-3" d="M82.35,132.9s-9-7.25-9.11-7.25a3.81,3.81,0,0,0-2.49-.86h-5.4c.85-.57-.65-1.49-.65-1.49s-4.26-3.34-4.33-3.41a2.73,2.73,0,0,0-2.06-.78H48.06a1.58,1.58,0,0,0-1.84,1.63v11.8a2.08,2.08,0,0,0,2.27,2.14H82.2C84.13,134.83,83,133.26,82.35,132.9Zm-24.6-9.76c.39,0,1.16,0,1.17.88s-.78.86-1.17.86ZM69.83,130c0,.57-1,1-1.6,1H57.86c-.25,0-.32-.26-.32-.26V129c0-.26.32-.28.32-.28H68.23c.57,0,1.6.46,1.6,1Z"/></g></g></g></svg>