<svg id="Capa_1" data-name="Capa 1" xmlns="http://www.w3.org/2000/svg" xmlns:xlink="http://www.w3.org/1999/xlink" viewBox="0 0 400 300"><defs><style>.cls-1{fill:#234587;}.cls-2{fill:url(#linear-gradient);}</style><linearGradient id="linear-gradient" x1="186.5" y1="177.1" x2="186.5" y2="116.53" gradientUnits="userSpaceOnUse"><stop offset="0" stop-color="#63b7bb"/><stop offset="1" stop-color="#bddcd1"/></linearGradient></defs><title>bst</title><path class="cls-1" d="M235,130.07h-7.52v-1.86h17.1v1.86H237v20.14H235Z"/><path class="cls-1" d="M256.71,146.17c0,1.05.15,3.29.15,4H255a25.09,25.09,0,0,0-.13-2.52h-.09a5.37,5.37,0,0,1-4.91,2.89c-4.47,0-5.47-3-5.47-6.18v-8.55h1.87v8.45c0,2.33.65,4.6,3.6,4.6,2.77,0,5-1.92,5-5.87v-7.18h1.87Z"/><path class="cls-1" d="M269.51,126.72h1.87v11.65h.06a6.62,6.62,0,0,1,5.75-2.89,7.55,7.55,0,1,1,0,15.1,6.62,6.62,0,0,1-5.75-2.89h-.06v2.52h-1.87Zm7.68,22.18a5.87,5.87,0,0,0,0-11.74,5.87,5.87,0,1,0,0,11.74Z"/><path class="cls-1" d="M300.06,144.18a43.64,43.64,0,0,0,.28,6H298.6a13.33,13.33,0,0,1-.19-2.33h-.06a5.23,5.23,0,0,1-5,2.7c-2.46,0-5.07-1.21-5.07-4.26,0-4.38,5.13-4.81,8-4.81h2.17v-.87c0-2.49-1.74-3.48-4-3.48a6.45,6.45,0,0,0-4.38,1.61l-1.09-1.27a8.37,8.37,0,0,1,5.47-2c3.48,0,5.72,1.55,5.72,5.19ZM296.33,143c-3.11,0-6.21.78-6.21,3.23,0,1.77,1.71,2.67,3.26,2.67,4,0,5-2.55,5-4.94v-1Z"/><path class="cls-1" d="M305,139.89c0-1.06-.15-3.29-.15-4h1.86a25.09,25.09,0,0,0,.13,2.52H307a5.37,5.37,0,0,1,4.91-2.89c4.47,0,5.47,3,5.47,6.18v8.55h-1.87v-8.45c0-2.33-.65-4.6-3.6-4.6-2.77,0-5,1.92-5,5.87v7.18H305Z"/><path class="cls-1" d="M334.34,148.1a6.68,6.68,0,0,1-5.28,2.48,7.55,7.55,0,1,1,0-15.1A7,7,0,0,1,334.4,138l-1.49,1.12a5.23,5.23,0,0,0-3.85-1.92,5.87,5.87,0,0,0,0,11.74,5,5,0,0,0,3.85-2Z"/><path class="cls-1" d="M344,135.48a7.55,7.55,0,1,1-7.55,7.55A7.27,7.27,0,0,1,344,135.48Zm0,13.42a5.87,5.87,0,1,0-5.68-5.87A5.56,5.56,0,0,0,344,148.9Z"/><path class="cls-1" d="M242.26,173.69a7.06,7.06,0,0,1-6.22,3.07c-4.38,0-7.27-3.14-7.27-7.58s3-7.52,7.18-7.52a6.53,6.53,0,0,1,6.74,6.71v1.31H230.63a5.36,5.36,0,0,0,5.44,5.4,5.77,5.77,0,0,0,4.82-2.54ZM240.83,168a4.83,4.83,0,0,0-5-4.66,5.32,5.32,0,0,0-5.22,4.66Z"/><path class="cls-1" d="M246.86,166.07c0-1-.16-3.29-.16-4h1.87c0,1.06.06,2.24.12,2.52h.09a5.38,5.38,0,0,1,4.91-2.89c4.48,0,5.47,3.05,5.47,6.18v8.55H257.3v-8.45c0-2.33-.66-4.6-3.61-4.6-2.76,0-5,1.92-5,5.87v7.18h-1.86Z"/><path class="cls-1" d="M271.81,162h1.87v2.52h.06a6.62,6.62,0,0,1,5.75-2.89,7.55,7.55,0,1,1,0,15.1,6.62,6.62,0,0,1-5.75-2.89h-.06v9.6h-1.87Zm7.68,13.05a5.87,5.87,0,0,0,0-11.74,5.87,5.87,0,1,0,0,11.74Z"/><path class="cls-1" d="M298,161.66a7.55,7.55,0,1,1-7.55,7.55A7.28,7.28,0,0,1,298,161.66Zm0,13.42a5.87,5.87,0,1,0-5.69-5.87A5.56,5.56,0,0,0,298,175.08Z"/><path class="cls-1" d="M309.69,172.72a4.64,4.64,0,0,0,4.17,2.36c1.61,0,3.29-1,3.29-2.64,0-3.94-8.51-1.18-8.51-6.65,0-2.79,2.55-4.13,4.91-4.13s4.13.87,5.06,2.7l-1.67,1a3.51,3.51,0,0,0-3.39-2c-1.34,0-3.05.81-3.05,2.3,0,3.88,8.52.87,8.52,6.68,0,3-2.46,4.44-5.19,4.44a6.31,6.31,0,0,1-5.78-2.92Z"/><path class="cls-1" d="M324.15,155a1.4,1.4,0,1,1-1.4,1.4A1.39,1.39,0,0,1,324.15,155Zm-.94,7.08h1.87v14.36h-1.87Z"/><path class="cls-1" d="M337.38,163.71h-4.1v9.35a1.84,1.84,0,0,0,2,2,5.47,5.47,0,0,0,2.11-.49l.16,1.68a8.47,8.47,0,0,1-2.42.49c-2.68,0-3.7-1.64-3.7-3.7v-9.35h-3.11V162h3.11V157.9h1.86V162h4.1Z"/><path class="cls-1" d="M342,155a1.4,1.4,0,1,1-1.4,1.4A1.39,1.39,0,0,1,342,155ZM341,162h1.86v14.36H341Z"/><path class="cls-1" d="M347.38,162h2.11l4.79,12.34L358.94,162h1.89l-5.65,14.36h-1.93Z"/><path class="cls-1" d="M370.53,161.66a7.55,7.55,0,1,1-7.55,7.55A7.28,7.28,0,0,1,370.53,161.66Zm0,13.42a5.87,5.87,0,1,0-5.69-5.87A5.57,5.57,0,0,0,370.53,175.08Z"/><path class="cls-2" d="M157.08,177.1h14c0-14.23,7-18.8,19.46-25.64,11.3-6.23,25.36-14,25.36-34.93h-14c0,11.27-6,15.06-17.34,21.34C173,144.25,157.08,153,157.08,177.1Z"/><path class="cls-1" d="M113.07,163.37c0-17.23-21.82-13-21.82-19.36,0-3.47,3.06-3.16,6.06-3.16H110.1v-11.3H96.19c-8,0-18.38,2.94-18.38,14.25,0,15.3,21.81,12.32,21.81,18.76,0,2.89-2.79,3.29-6.63,3.29H79.24v11.3l15,0C104.31,177.14,113.07,174.59,113.07,163.37Z"/><path class="cls-1" d="M48.59,129.49a23.74,23.74,0,0,0-12.75,3.72V116.55H21.92v60.61H34.18v-5c2.78,2.57,9.21,5.33,14.41,5.33a23.84,23.84,0,0,0,23.84-23.83A24.12,24.12,0,0,0,48.59,129.49Zm-1.28,36.26A12.32,12.32,0,0,1,35,153.43a12.6,12.6,0,0,1,12.32-12.64,12.6,12.6,0,0,1,12.32,12.64A12.32,12.32,0,0,1,47.31,165.75Z"/><path class="cls-1" d="M148.06,140.8v-11H136.33V116.57h-14V160.4c0,10.87,6.43,16.77,18.32,16.77h7.45V165.71h-6.65c-3.63,0-5.08-2.74-5.08-6.52V140.8Z"/></svg>