<svg id="Capa_1" data-name="Capa 1" xmlns="http://www.w3.org/2000/svg" viewBox="0 0 400 300"><defs><style>.cls-1{fill:#fff;}.cls-2{fill:#c8002d;}.cls-3{fill:#013171;}</style></defs><title>columbia</title><rect id="_Trazado_" data-name="&lt;Trazado&gt;" class="cls-1" x="41" y="104.35" width="318" height="91.3"/><path id="_Trazado_2" data-name="&lt;Trazado&gt;" class="cls-2" d="M352.09,111.27H130.33l-.09.11a62.46,62.46,0,0,0-.8,77.66H352.09Z"/><path id="_Trazado_3" data-name="&lt;Trazado&gt;" class="cls-3" d="M121.32,111.75c.1-.16.19-.32.28-.48H48V189h72.84a69.46,69.46,0,0,1,.45-77.29"/><g id="_Grupo_" data-name="&lt;Grupo&gt;"><path id="_Trazado_compuesto_" data-name="&lt;Trazado compuesto&gt;" class="cls-1" d="M74.91,174a23.63,23.63,0,0,1-18.12-14.67H79v-3.24H59a28.87,28.87,0,0,0,6.88-18.75,29.46,29.46,0,0,0-.34-4.53l28.15,0a29.39,29.39,0,0,1,5,16.43,31.47,31.47,0,0,1-.76,6.82h-16v3.24h18.78a23,23,0,0,1-9.9,11.46c0,.06,0,.14,0,0a5.75,5.75,0,0,0-1-3.37,3.34,3.34,0,0,0-2.55-1.21,3.28,3.28,0,0,0-3.08,2.19,8.59,8.59,0,0,1-8,5.69,9.39,9.39,0,0,1-1.19-.1m1.19-2.41a6,6,0,0,0,5.68-4,5.79,5.79,0,0,1,5.44-3.85,5.86,5.86,0,0,1,4.45,2.09,4.9,4.9,0,0,1,.61.92,20.47,20.47,0,0,0,4.37-4.9H60.81a21.19,21.19,0,0,0,14.47,9.7h0l.07,0s0,0,0,0a4.46,4.46,0,0,0,.82.06m-7.76-34.25a31,31,0,0,1-4.54,16.27h32a29.87,29.87,0,0,0,.33-4.34,26.86,26.86,0,0,0-3.89-13.94l-24,0c0,.69.07,1.36.07,2"/><path id="_Trazado_4" data-name="&lt;Trazado&gt;" class="cls-1" d="M77,130.73c-.94,0-4.13-.68-5-2.06,1.42.8,4.53-.15,5.39-.57.55-.28,2.44-2.28,4.53-1.75v5c-1.6-1.46-4.28-.63-4.91-.63"/><path id="_Trazado_5" data-name="&lt;Trazado&gt;" class="cls-1" d="M78.06,149.79a5.22,5.22,0,0,0,1.46-3,1.05,1.05,0,0,0-.27-.76c-.63-.62-2.14-.13-3.62,1.08V142c1.52,1.28,3.1,1.8,3.73,1.18a1.08,1.08,0,0,0,.28-.77,5.06,5.06,0,0,0-1.36-2.84h5.18a5.29,5.29,0,0,0-1.46,3,1,1,0,0,0,.27.76c.62.62,2.14.12,3.61-1.09v5.18c-1.51-1.3-3.09-1.83-3.74-1.18a1,1,0,0,0-.27.76,5.31,5.31,0,0,0,1.36,2.84Z"/></g><path id="_Trazado_compuesto_2" data-name="&lt;Trazado compuesto&gt;" class="cls-1" d="M211.57,125.4v2.91h.55A3.42,3.42,0,0,0,214,128a1.12,1.12,0,0,0,.48-1,1.39,1.39,0,0,0-.56-1.16,3.15,3.15,0,0,0-1.86-.42Zm0-4.29v2.37h.48a1.84,1.84,0,0,0,1.21-.33,1.09,1.09,0,0,0,.4-.89,1,1,0,0,0-.38-.83,1.74,1.74,0,0,0-1.14-.32Zm-2.15,9.29V119h1.8a9.45,9.45,0,0,1,2.28.2,3.07,3.07,0,0,1,1.64,1,2.63,2.63,0,0,1,.6,1.72,2.42,2.42,0,0,1-.27,1.18,3.08,3.08,0,0,1-.88,1,3.53,3.53,0,0,1,1.5,1.22,3.11,3.11,0,0,1,.48,1.74,3.16,3.16,0,0,1-.5,1.75,3.22,3.22,0,0,1-1.28,1.18,5,5,0,0,1-2.17.39Z"/><path id="_Trazado_compuesto_3" data-name="&lt;Trazado compuesto&gt;" class="cls-1" d="M222.63,122.06,221.09,126h3.08Zm-1.09-3h2.18l4.38,11.37h-2.25l-.89-2.33h-4.65l-.92,2.33h-2.25Z"/><polygon id="_Trazado_6" data-name="&lt;Trazado&gt;" class="cls-1" points="229.68 119.03 231.72 119.03 236 126.12 236 119.03 238.15 119.03 238.15 130.4 236.09 130.4 231.82 123.33 231.82 130.4 229.68 130.4 229.68 119.03"/><path id="_Trazado_7" data-name="&lt;Trazado&gt;" class="cls-1" d="M250.66,121l-1.5,1.44a4.66,4.66,0,0,0-3.47-1.63,3.79,3.79,0,0,0-3.84,3.85,4,4,0,0,0,.49,2,3.48,3.48,0,0,0,1.39,1.38,4.32,4.32,0,0,0,3.72.15,6.22,6.22,0,0,0,1.71-1.27l1.45,1.53a7.94,7.94,0,0,1-2.37,1.71,6.37,6.37,0,0,1-2.55.48,5.94,5.94,0,0,1-3.05-11.13,6.26,6.26,0,0,1,3.08-.8,6.51,6.51,0,0,1,4.94,2.28"/><path id="_Trazado_compuesto_4" data-name="&lt;Trazado compuesto&gt;" class="cls-1" d="M257.75,120.84a3.54,3.54,0,0,0-2.64,1.1,3.81,3.81,0,0,0-1.08,2.8,3.73,3.73,0,0,0,3.76,3.84,3.47,3.47,0,0,0,2.61-1.11,3.79,3.79,0,0,0,1.08-2.75,3.84,3.84,0,0,0-1.09-2.75,3.54,3.54,0,0,0-2.64-1.13m0-2.09a5.63,5.63,0,0,1,4.14,1.75,6.06,6.06,0,0,1,0,8.46,5.92,5.92,0,0,1-8.39-.05,6,6,0,0,1,4.23-10.16"/><path id="_Trazado_8" data-name="&lt;Trazado&gt;" class="cls-1" d="M160.74,140.89l-3.89,3.7a12,12,0,0,0-8.91-4.19,9.77,9.77,0,0,0-9.91,9.91,10.39,10.39,0,0,0,1.27,5.19,9.15,9.15,0,0,0,3.58,3.56,11.1,11.1,0,0,0,9.57.39,15.72,15.72,0,0,0,4.4-3.29l3.78,4a20.93,20.93,0,0,1-6.12,4.39,16.82,16.82,0,0,1-6.58,1.22,15.13,15.13,0,0,1-11.15-4.32,15,15,0,0,1-4.34-11.07,15.18,15.18,0,0,1,2-7.78,14.73,14.73,0,0,1,5.65-5.47A16,16,0,0,1,148,135a16.76,16.76,0,0,1,12.73,5.86"/><path id="_Trazado_compuesto_5" data-name="&lt;Trazado compuesto&gt;" class="cls-1" d="M179.37,140.4a9.09,9.09,0,0,0-6.8,2.83,9.86,9.86,0,0,0-2.76,7.2,9.44,9.44,0,0,0,3.46,7.71,9.55,9.55,0,0,0,6.2,2.21,9.05,9.05,0,0,0,6.73-2.87,10.43,10.43,0,0,0,0-14.17,9.14,9.14,0,0,0-6.82-2.91m.08-5.37a14.44,14.44,0,0,1,10.65,4.48,15,15,0,0,1,4.46,11,14.76,14.76,0,0,1-4.4,10.83,15.23,15.23,0,0,1-21.6-.12,15.4,15.4,0,0,1,3.25-24.09,14.87,14.87,0,0,1,7.64-2.05"/><polygon id="_Trazado_9" data-name="&lt;Trazado&gt;" class="cls-1" points="199.78 135.73 205.3 135.73 205.3 159.64 213.5 159.64 213.5 165.01 199.78 165.01 199.78 135.73"/><path id="_Trazado_10" data-name="&lt;Trazado&gt;" class="cls-1" d="M217.56,135.73h5.53v18.93a10,10,0,0,0,.43,3.47,3.45,3.45,0,0,0,1.46,1.62,4.61,4.61,0,0,0,2.43.6,4.86,4.86,0,0,0,2.59-.68,3.46,3.46,0,0,0,1.5-1.71,12.26,12.26,0,0,0,.42-4V135.73h5.52v17.45a25.44,25.44,0,0,1-.49,6.12,9.38,9.38,0,0,1-5.16,5.65,11,11,0,0,1-4.27.77,10.34,10.34,0,0,1-5.56-1.46,8.51,8.51,0,0,1-3.38-3.66q-1-2.21-1-7.42Z"/><polyline id="_Trazado_11" data-name="&lt;Trazado&gt;" class="cls-1" points="274.02 159.33 274.99 165.01 269.62 165.01 266.47 146.52 260.32 165.01 255.34 165.01 249.22 146.52 245.93 165.01 240.53 165.01 245.74 135.73 251.08 135.73 257.84 156.16 264.64 135.73 270.01 135.73 274.02 159.33"/><path id="_Trazado_compuesto_6" data-name="&lt;Trazado compuesto&gt;" class="cls-1" d="M285.35,152.14v7.5h1.43c2.35,0,3.94-.3,4.78-.87a3,3,0,0,0,1.22-2.55,3.53,3.53,0,0,0-1.44-3c-1-.74-2.57-1.1-4.8-1.1Zm0-11v6.09h1.25a4.88,4.88,0,0,0,3.12-.84,2.87,2.87,0,0,0,1-2.31,2.65,2.65,0,0,0-1-2.14,4.52,4.52,0,0,0-2.92-.8ZM279.83,165V135.73h4.62a24.61,24.61,0,0,1,5.9.51,8,8,0,0,1,4.2,2.58,6.84,6.84,0,0,1,1.56,4.45,6.43,6.43,0,0,1-.71,3,7.57,7.57,0,0,1-2.29,2.54A9.15,9.15,0,0,1,297,152a8.09,8.09,0,0,1,1.22,4.47,8.22,8.22,0,0,1-1.28,4.5,8.09,8.09,0,0,1-3.29,3,12.73,12.73,0,0,1-5.57,1Z"/><rect id="_Trazado_12" data-name="&lt;Trazado&gt;" class="cls-1" x="302.56" y="135.73" width="5.52" height="29.29"/><path id="_Trazado_compuesto_7" data-name="&lt;Trazado compuesto&gt;" class="cls-1" d="M326.56,143.53l-4,10.1h7.94Zm-2.84-7.8h5.62L340.63,165h-5.79l-2.28-6h-12l-2.36,6h-5.8Z"/><path id="_Trazado_13" data-name="&lt;Trazado&gt;" class="cls-1" d="M116,150.46A62.28,62.28,0,0,1,130,111.11H121.3a69.48,69.48,0,0,0-.36,78.18h8.63A62.22,62.22,0,0,1,116,150.46"/></svg>