<svg id="Capa_1" data-name="Capa 1" xmlns="http://www.w3.org/2000/svg" viewBox="0 0 400 300"><defs><style>.cls-1{fill:#b11f17;}.cls-2{fill:#cacacf;}.cls-3{fill:#ede143;}.cls-4{fill:#fff;}</style></defs><title>efectivosi</title><path id="_Trazado_" data-name="&lt;Trazado&gt;" class="cls-1" d="M372.58,194.65a3.78,3.78,0,0,1-3.77,3.81H31.19a3.78,3.78,0,0,1-3.77-3.81V105.32a3.79,3.79,0,0,1,3.77-3.78H368.81a3.78,3.78,0,0,1,3.77,3.78Z"/><path id="_Trazado_2" data-name="&lt;Trazado&gt;" class="cls-2" d="M342.47,132c-1.09,0-1.71-.66-2.63-1.82-.15-.18-.32-.35-.46-.51s-.15-.59-.22-.86a4.1,4.1,0,0,1-.22-1.35c.64-.64,1.26-1.26,1.87-1.89A59.82,59.82,0,0,1,349,118.4l1,.27c1.15.26,2,.46,2.55,1.54a10.8,10.8,0,0,0,.12,1.54,2.5,2.5,0,0,1-.35,2.28,41.47,41.47,0,0,0-9,7.82,3.06,3.06,0,0,1-.81.12"/><path id="_Trazado_3" data-name="&lt;Trazado&gt;" class="cls-3" d="M341.41,131.88c-1.11,0-1.73-.65-2.65-1.78a4.69,4.69,0,0,0-.47-.53,3.41,3.41,0,0,0-.19-.84,4.45,4.45,0,0,1-.25-1.36c.66-.64,1.28-1.26,1.91-1.86a52.22,52.22,0,0,1,8.12-7.15l1,.23c1.12.27,2,.48,2.52,1.54a11,11,0,0,0,.14,1.57,2.53,2.53,0,0,1-.35,2.27,42,42,0,0,0-9,7.82,3.22,3.22,0,0,1-.8.09"/><path id="_Trazado_4" data-name="&lt;Trazado&gt;" class="cls-2" d="M329.23,169c-.37,0-.62-.37-1-1a5.37,5.37,0,0,0-.63-.82c-.59-2.39.29-4.48,1.22-6.71a19.3,19.3,0,0,0,1.42-4.25c1.13-3.32,2-6.81,2.86-10.14s1.7-6.75,2.8-10a3.29,3.29,0,0,1,1.86-.39h.67a5.39,5.39,0,0,0,.69,0,6,6,0,0,0,1.89-.25.71.71,0,0,1,.2,0,3.42,3.42,0,0,1,1.91,1,7.54,7.54,0,0,0,1,.68,4.9,4.9,0,0,1-.15,3.21l0,0,0,.07c-3.11,8.31-4.85,17.29-6.13,25v.1a1.47,1.47,0,0,1-1.18,1.41c-.56.13-1.15.22-1.73.33a19.27,19.27,0,0,0-5.43,1.65.48.48,0,0,1-.2,0"/><path id="_Trazado_5" data-name="&lt;Trazado&gt;" class="cls-3" d="M328.27,168.89c-.39,0-.66-.37-1-.93a6.11,6.11,0,0,0-.6-.83c-.6-2.37.28-4.48,1.21-6.7a20.31,20.31,0,0,0,1.43-4.28c1.14-3.29,2-6.78,2.84-10.12s1.69-6.74,2.79-9.94a3.27,3.27,0,0,1,1.9-.41h1.34a6.06,6.06,0,0,0,1.89-.24h.2a3.41,3.41,0,0,1,1.92,1,5.75,5.75,0,0,0,.93.69,4.68,4.68,0,0,1-.14,3.19l0,0,0,.06c-3.11,8.33-4.87,17.3-6.18,25v.09a1.43,1.43,0,0,1-1.14,1.38c-.57.18-1.19.25-1.75.38a19,19,0,0,0-5.41,1.64h-.18"/><path id="_Trazado_6" data-name="&lt;Trazado&gt;" class="cls-2" d="M290.71,181.56a1.86,1.86,0,0,1-.34-.05l-.86-.55c-2.27-1.5-5.13-3.36-4.65-6.45,4.18-3.93,9.19-6.81,14.05-9.6,5.88-3.28,11.93-6.81,16.69-12.2l.72-.77-1-.3a3.28,3.28,0,0,0-1.17-.16,7.73,7.73,0,0,0-2.43.5,6.22,6.22,0,0,1-2.19.53,3,3,0,0,1-.52,0l-.21-.05-.22.11a16.23,16.23,0,0,1-7.81,1.84h-.15l-.15.07a6.79,6.79,0,0,1-3.06.83,3.58,3.58,0,0,1-1.66-.36c-3.59-2.62-5-5.61-4.22-8.79a38,38,0,0,1,21-17.05,17.3,17.3,0,0,0,3.11-1.48,9.46,9.46,0,0,1,2.78-1.2c.16,0,.18,0,.22.13l.09.14.12.13c.21.16.48.33.77.56,1.45,1,4.15,3,4.23,4.43.13,3.27-.23,3.91-.4,4.23-.06.13-.1.25-.14.36a13.35,13.35,0,0,0-2.66-.28c-5.05,0-9.49,3.33-12.85,6.25l-1.3,1.13,1.74.06h.39a38.09,38.09,0,0,0,4.36-.37,33,33,0,0,1,4.37-.39,12.8,12.8,0,0,1,1.43.07,11.81,11.81,0,0,1,3.16,2.21c1.53,1.31,2,3.81,1.5,7.52-1.4,4.11-4.05,7.82-8.36,11.66-6.85,5.85-12.52,9.87-17.87,12.56l-.09,0,0,0-.88.72a.83.83,0,0,0-.32,0,1,1,0,0,0-.37.06l-.13.06-.09.08-.64.63-.46.47.13.15a3.48,3.48,0,0,0-1.84,1.21l-.08.09a3.56,3.56,0,0,0-1.14.85c-.29.33-.43.41-.58.41"/><path id="_Trazado_7" data-name="&lt;Trazado&gt;" class="cls-3" d="M289.7,181.61a.81.81,0,0,1-.32-.07l-.85-.52c-2.29-1.5-5.15-3.35-4.67-6.45,4.2-3.94,9.21-6.83,14.07-9.56,5.87-3.36,11.93-6.84,16.69-12.24l.7-.79-1-.28a4,4,0,0,0-1.19-.19,7.24,7.24,0,0,0-2.42.54,6.42,6.42,0,0,1-2.2.51c-.18,0-.34,0-.51,0l-.22-.05-.19.13a16.41,16.41,0,0,1-7.83,1.82h-.15l-.16.07a7,7,0,0,1-3.05.79,3.8,3.8,0,0,1-1.65-.33c-3.6-2.6-5-5.57-4.24-8.8a38.24,38.24,0,0,1,21.05-17,17.69,17.69,0,0,0,3.13-1.47,8.46,8.46,0,0,1,2.76-1.2c.15,0,.18,0,.24.12l.05.15.13.09c.21.2.5.37.78.59,1.46,1,4.17,3,4.23,4.43.15,3.26-.21,3.91-.4,4.26-.06.12-.09.21-.15.32a13.17,13.17,0,0,0-2.64-.29c-5.05,0-9.52,3.33-12.86,6.27l-1.29,1.13,1.73.05h.39a34.7,34.7,0,0,0,4.38-.38,37.88,37.88,0,0,1,4.38-.38,10.88,10.88,0,0,1,1.41.1,11.43,11.43,0,0,1,3.15,2.17c1.52,1.34,2,3.82,1.5,7.54-1.4,4.08-4.05,7.81-8.36,11.64-6.84,5.85-12.52,9.89-17.88,12.58l-.07,0,0,0-.89.74a.76.76,0,0,0-.32-.07.77.77,0,0,0-.36.09l-.13,0-.09.11-.64.65-.47.47.12.13a3.52,3.52,0,0,0-1.84,1.18l-.07.11a3.92,3.92,0,0,0-1.14.84c-.28.32-.42.41-.6.41"/><path id="_Trazado_8" data-name="&lt;Trazado&gt;" class="cls-4" d="M158.45,167.38h-9c-11.17,0-17.51-7.7-15.94-16.87,2.77-16,16.83-17.09,23.36-17.16h6.79s-1.89,7.9-9,7.9H154c-5.53,0-11.8,2.7-12.53,9-.85,7,3.77,9.27,7.53,9.54,8.84.64,9.41,7.56,9.41,7.56"/><path id="_Trazado_9" data-name="&lt;Trazado&gt;" class="cls-4" d="M226.74,167.6A5.74,5.74,0,0,1,221,163l-7.15-28.86a11.87,11.87,0,0,1,4.2-1c3.15.07,4.84,2.71,5.38,5.23s4.53,18.56,4.53,18.56l10.69-19.29c1.09-1.78,2.66-4.78,6.39-4.61a8.7,8.7,0,0,1,3.77,1.4l-15.52,28.49,0,0c-1.11,1.93-2.7,4.73-6.5,4.73"/><path id="_Trazado_compuesto_" data-name="&lt;Trazado compuesto&gt;" class="cls-4" d="M264.71,140.56c-5.18,0-10.09,4.4-10.84,9.79a8.6,8.6,0,0,0,1.89,7,7.9,7.9,0,0,0,6.05,2.65c5.2,0,10.07-4.38,10.86-9.79a8.72,8.72,0,0,0-1.9-7,7.89,7.89,0,0,0-6.06-2.64m-3.9,27.08a14.25,14.25,0,0,1-10.94-4.82,15.49,15.49,0,0,1-3.38-12.59c1.38-9.54,10-17.3,19.23-17.3a14.1,14.1,0,0,1,10.92,4.84,15.43,15.43,0,0,1,3.4,12.58c-1.38,9.52-10,17.29-19.23,17.29"/><path id="_Trazado_10" data-name="&lt;Trazado&gt;" class="cls-4" d="M173.32,167.64l3.78-26.89H166s.62-4.14.64-4.31c.55-2.1,2.38-3.24,4.77-3.24h26.29l-.88,4.52c-.3,2.25-2.38,3-4.72,3H185.6L182.81,161c-.39,3.31-2.27,6.67-5.77,6.67Z"/><path id="_Trazado_11" data-name="&lt;Trazado&gt;" class="cls-4" d="M52.27,167.64a4.26,4.26,0,0,1-4.79-5.2l3.91-24a6.07,6.07,0,0,1,5.71-5.16H76s-.53,7.43-6.83,7.43H58.47l-1,6.61H69.74s-.22,6.6-6.51,6.6l-6.77,0-1,6.05h9.43c5.83,0,5.77,7.62,5.77,7.62Z"/><path id="_Trazado_12" data-name="&lt;Trazado&gt;" class="cls-4" d="M109.88,167.64a4.75,4.75,0,0,1-3.89-1.46,4.86,4.86,0,0,1-.88-3.74l3.91-24a6.22,6.22,0,0,1,5.71-5.16h18.83s-.52,7.43-6.81,7.43H116.12l-1,6.61h12.25s-.21,6.6-6.49,6.6l-6.77,0-1,6.05h9.44c5.84,0,5.76,7.62,5.76,7.62Z"/><path id="_Trazado_13" data-name="&lt;Trazado&gt;" class="cls-4" d="M76,167.64l4.51-29.71c.57-3.3,2.49-4.69,5.71-4.69h19.65s-.58,7.54-6.93,7.54H88.63l-1,6.49H99.88s-.33,6.63-7,6.63H86.63l-1.32,8.74c-.44,2.89-1.85,5-5.77,5Z"/><path id="_Trazado_14" data-name="&lt;Trazado&gt;" class="cls-4" d="M210.16,133.18h-2.33c-5,0-6.06,3.93-6.52,6.44l0,.19L197,167.62h2.32c5.15,0,6.11-4.13,6.55-6.66Z"/></svg>