<svg id="Capa_1" data-name="Capa 1" xmlns="http://www.w3.org/2000/svg" viewBox="0 0 400 300"><defs><style>.cls-1{fill:#003383;}</style></defs><title>frances</title><g id="_Grupo_" data-name="&lt;Grupo&gt;"><polygon id="_Trazado_" data-name="&lt;Trazado&gt;" class="cls-1" points="179.46 172.62 183.98 172.62 183.98 154.12 199.54 154.12 199.54 150.11 183.98 150.11 183.98 134.85 204.96 134.85 204.96 130.8 179.46 130.8 179.46 172.62"/><g id="_Grupo_2" data-name="&lt;Grupo&gt;"><path id="_Trazado_compuesto_" data-name="&lt;Trazado compuesto&gt;" class="cls-1" d="M147.79,130.83h-8L127,172.63h6.52l2.74-9h15.2l2.76,9h11.33l-12.68-37.56c-1.16-3.43-1.81-4.24-5.09-4.24m-9.69,26.64,5.72-19.07,5.79,19.07Z"/><path id="_Trazado_compuesto_2" data-name="&lt;Trazado compuesto&gt;" class="cls-1" d="M89.52,147.21l2-3c4.32-6.4,1.35-13.36-7.19-13.36H66.15v41.83H83.73c15.46,0,20.08-18,5.79-25.44M79,167.06H76V136.27h5.37A4.76,4.76,0,0,1,85.13,144l-3.48,5.22c3.64.87,6.08,3.65,6.08,8.84,0,6.3-3.77,9-8.76,9"/><path id="_Trazado_compuesto_3" data-name="&lt;Trazado compuesto&gt;" class="cls-1" d="M54.13,147.21l2-3c4.33-6.4,1.36-13.36-7.2-13.36H30.77v41.83H48.35c15.44,0,20.11-18,5.78-25.44M43.58,167.06H40.63V136.27H46A4.84,4.84,0,0,1,50.82,141a4.76,4.76,0,0,1-1.07,3l-3.5,5.22c3.65.87,6.09,3.65,6.09,8.84,0,6.3-3.77,9-8.76,9"/><path id="_Trazado_2" data-name="&lt;Trazado&gt;" class="cls-1" d="M125.29,130.82l-9.44,31.76-7.94-26.31c-1.49-4.71-2.24-5.45-5.1-5.45H95.43l13.68,41.81h10l12.74-41.81Z"/><path id="_Trazado_compuesto_4" data-name="&lt;Trazado compuesto&gt;" class="cls-1" d="M339.4,145.33a11.11,11.11,0,0,0-4.38-3.48,15.61,15.61,0,0,0-5.87-1.06,13.86,13.86,0,0,0-5.64,1.13,13.31,13.31,0,0,0-6.14,5.64A18.88,18.88,0,0,0,315.1,157a21.07,21.07,0,0,0,.95,6.53,13.11,13.11,0,0,0,5,6.9,15.31,15.31,0,0,0,8.83,2.48h0a20.46,20.46,0,0,0,6.94-1.12,13.11,13.11,0,0,0,5.24-3.29c-2-2.95-3.18-1.77-5.53-.69a16.19,16.19,0,0,1-6.37,1.26,13.16,13.16,0,0,1-4.69-.77,8.17,8.17,0,0,1-2.59-1.54,9,9,0,0,1-2.53-3.87,16.81,16.81,0,0,1-.86-5.17h22.66v-.9c0-.26,0-.75,0-1.23a20.52,20.52,0,0,0-.93-6.54,12.55,12.55,0,0,0-1.86-3.67M319.62,154a15.63,15.63,0,0,1,1-3.83,9.32,9.32,0,0,1,3.41-4.32,9,9,0,0,1,5.13-1.43,10.59,10.59,0,0,1,3.55.54,6.82,6.82,0,0,1,2.08,1.19A7.65,7.65,0,0,1,337,149.4a16.74,16.74,0,0,1,.87,4.62Z"/><path id="_Trazado_3" data-name="&lt;Trazado&gt;" class="cls-1" d="M215.25,142.69a16.73,16.73,0,0,0-3.07,2.44,13.15,13.15,0,0,0-.09-1.82,3.71,3.71,0,0,0-.18-1,2.4,2.4,0,0,0-.33-.6,1.91,1.91,0,0,0-.38-.31,1.39,1.39,0,0,0-.67-.24c-.2,0-.41,0-.62,0h-2.08v31.51h4.35V150a17.19,17.19,0,0,1,3.91-3.52l.09-.06a9.31,9.31,0,0,1,4.29-1.53c2-.2,3.37-.46,3.57-3.6a10,10,0,0,0-2.73-.4,11.39,11.39,0,0,0-6.06,1.79"/><path id="_Trazado_4" data-name="&lt;Trazado&gt;" class="cls-1" d="M358.88,154.29c-6.18-1-7.23-2.4-7.23-5,0-3.19,2.19-4.74,6.7-4.74a11,11,0,0,1,6.1,1.5c1.14.52,2.08.63,3.28-.8.16-.19.32-.41.49-.65a5.63,5.63,0,0,0-.49-.49,13.21,13.21,0,0,0-9.43-3.27c-6.68,0-10.82,3.33-10.82,8.68,0,6.32,5.35,8,10,8.74,6.34,1,7.46,2.49,7.46,5.21,0,3.86-2.44,5.73-7.46,5.73a12.64,12.64,0,0,1-5.43-1.11h0c-2.06-1-3.22-2-4.87-.2a9.38,9.38,0,0,0-.74.94,10.36,10.36,0,0,0,.74.73,13.67,13.67,0,0,0,2.58,1.75,14.27,14.27,0,0,0,2.29.87,19.79,19.79,0,0,0,5.55.72c7.49,0,11.62-3.44,11.62-9.67,0-6.41-5-8.07-10.35-8.9"/><path id="_Trazado_compuesto_5" data-name="&lt;Trazado compuesto&gt;" class="cls-1" d="M248,143.42a8.34,8.34,0,0,0-3.68-2,17.4,17.4,0,0,0-4.8-.58,21.64,21.64,0,0,0-11.55,3c1.62,3.43,3.33,2.59,5.55,1.64a14.53,14.53,0,0,1,5.72-1,16.29,16.29,0,0,1,3,.43,6.36,6.36,0,0,1,1.58.65,4.51,4.51,0,0,1,1.63,1.73,6.17,6.17,0,0,1,.59,2.92v4.48a31.82,31.82,0,0,0-7.14-.73,21.64,21.64,0,0,0-5,.54,14.7,14.7,0,0,0-3.14,1.16,9,9,0,0,0-3.35,3.11,8.92,8.92,0,0,0-1.22,4.72,10.54,10.54,0,0,0,.75,4,8.51,8.51,0,0,0,3.76,4,12.24,12.24,0,0,0,5.88,1.36h0a14.56,14.56,0,0,0,6.32-1.28,14,14,0,0,0,3.17-2.13,9.45,9.45,0,0,0,.11,1,2.4,2.4,0,0,0,.28.93,2.06,2.06,0,0,0,.41.57,2.47,2.47,0,0,0,.92.45,4.2,4.2,0,0,0,1.09.11h1.52V150a10.57,10.57,0,0,0-.78-4.23,6.61,6.61,0,0,0-1.6-2.3m-2,21.31a13.52,13.52,0,0,1-3.62,3.1,10.92,10.92,0,0,1-5.49,1.27,9.55,9.55,0,0,1-2.62-.33,5.69,5.69,0,0,1-1.56-.71,4.61,4.61,0,0,1-1.61-1.82,6.82,6.82,0,0,1-.62-3.06,5.05,5.05,0,0,1,.62-2.6,5.65,5.65,0,0,1,1.19-1.41,7.35,7.35,0,0,1,2.84-1.33,15.83,15.83,0,0,1,3.9-.43,32.19,32.19,0,0,1,7,.79Z"/><path id="_Trazado_5" data-name="&lt;Trazado&gt;" class="cls-1" d="M280.79,143.16a6.36,6.36,0,0,0-2.94-1.88,11.5,11.5,0,0,0-3.55-.49,19.25,19.25,0,0,0-7.6,1.58,24,24,0,0,0-4.85,2.8v-.34a15.4,15.4,0,0,0-.07-1.66,4.51,4.51,0,0,0-.22-.93,1.72,1.72,0,0,0-.34-.56,1.35,1.35,0,0,0-.37-.3,2,2,0,0,0-.65-.22l-.63,0h-2.06v31.42h4.34V149.35a29.44,29.44,0,0,1,5.21-3.22,14.68,14.68,0,0,1,6.12-1.48,10,10,0,0,1,2.2.21,5.46,5.46,0,0,1,1.25.52,3.57,3.57,0,0,1,1.29,1.53,6.88,6.88,0,0,1,.51,2.93v22.7h4.36v-23a11.57,11.57,0,0,0-.68-4.19,7.68,7.68,0,0,0-1.32-2.17"/><path id="_Trazado_6" data-name="&lt;Trazado&gt;" class="cls-1" d="M307.74,167.88a11.62,11.62,0,0,1-5.21,1.12,11.5,11.5,0,0,1-4.44-.8,8.92,8.92,0,0,1-2.55-1.62,9.9,9.9,0,0,1-2.58-4,17.41,17.41,0,0,1-.92-5.86,16.4,16.4,0,0,1,.79-5.24,10,10,0,0,1,3.64-5.15,10.19,10.19,0,0,1,6.06-1.81,12.12,12.12,0,0,1,4.76.84c2.21,1,3.76,2.08,5.38-1.34a14.9,14.9,0,0,0-10.09-3.25,16.6,16.6,0,0,0-6,1.06,13.51,13.51,0,0,0-6.53,5.5,17.76,17.76,0,0,0-2.39,9.39,21.1,21.1,0,0,0,1,6.59,13.54,13.54,0,0,0,5.06,7,15.12,15.12,0,0,0,8.69,2.5h0a17.18,17.18,0,0,0,6.65-1.27l.65-.28a14.67,14.67,0,0,0,3.52-2.45c-1.85-3.3-3.33-2-5.47-.92"/><path id="_Trazado_7" data-name="&lt;Trazado&gt;" class="cls-1" d="M326.74,135.88a5.9,5.9,0,0,0,.55.79l0,.05c.24.26.52.53.84.84l9.53-8.9c-2.26-1.81-3.6-1.81-4.92-1a7.86,7.86,0,0,0-.81.59,5.51,5.51,0,0,0-.46.43c-.4.41-2.66,3-3.84,4.32l-.4.46,0,.06c-.13.17-.25.32-.37.49a1.92,1.92,0,0,0-.29.68,1.52,1.52,0,0,0,0,.52,1.93,1.93,0,0,0,.21.68"/></g></g></svg>