<svg id="Capa_1" data-name="Capa 1" xmlns="http://www.w3.org/2000/svg" viewBox="0 0 400 300"><defs><style>.cls-1{fill:#fff;}.cls-2{fill:#e66728;}.cls-3{fill:#921e30;}</style></defs><title>galicia</title><g id="_Grupo_" data-name="&lt;Grupo&gt;"><rect id="_Trazado_" data-name="&lt;Trazado&gt;" class="cls-1" x="48.75" y="109" width="302.5" height="82"/><g id="_Grupo_2" data-name="&lt;Grupo&gt;"><g id="_Grupo_3" data-name="&lt;Grupo&gt;"><rect id="_Trazado_2" data-name="&lt;Trazado&gt;" class="cls-1" x="51.89" y="112.14" width="296.21" height="75.71"/><path id="_Trazado_3" data-name="&lt;Trazado&gt;" class="cls-2" d="M348.2,112.15h-233A43.69,43.69,0,0,1,105.94,188H348.2Z"/><path id="_Trazado_4" data-name="&lt;Trazado&gt;" class="cls-3" d="M89.84,112.15H51.89V188h38a37.91,37.91,0,1,0,0-75.81"/><g id="_Grupo_4" data-name="&lt;Grupo&gt;"><g id="_Grupo_5" data-name="&lt;Grupo&gt;"><path id="_Trazado_5" data-name="&lt;Trazado&gt;" class="cls-1" d="M251.74,132.32a3.91,3.91,0,0,1-1.12,2.84,3.79,3.79,0,0,1-2.82,1.16,3.69,3.69,0,0,1-2.78-1.16,4.24,4.24,0,0,1,0-5.68,3.69,3.69,0,0,1,2.78-1.16,3.79,3.79,0,0,1,2.82,1.16,3.91,3.91,0,0,1,1.12,2.84"/><path id="_Trazado_compuesto_" data-name="&lt;Trazado compuesto&gt;" class="cls-1" d="M215.05,172.62,214.5,169h-.12c-.29.3-.69.68-1.21,1.15a13.32,13.32,0,0,1-1.85,1.41,12.05,12.05,0,0,1-2.49,1.24,9,9,0,0,1-3.15.53,8.12,8.12,0,0,1-3.08-.63,8.69,8.69,0,0,1-2.77-1.78,9.07,9.07,0,0,1-2-2.91,9.38,9.38,0,0,1-.78-3.87,7.7,7.7,0,0,1,1.8-5.36,11.37,11.37,0,0,1,4.4-3,21.73,21.73,0,0,1,5.64-1.33c2-.19,3.87-.31,5.55-.31v-.54a7.19,7.19,0,0,0-1.14-4.44c-.76-1-2.12-1.48-4-1.48a12.67,12.67,0,0,0-2.93.34c-1,.22-1.83.46-2.62.71a26,26,0,0,0-2.64,1l-1.67-4.44a28.89,28.89,0,0,1,3.7-1.53,29.34,29.34,0,0,1,3.67-1.12,17.38,17.38,0,0,1,4.09-.49q5.12,0,7.86,2.8t2.74,7.86v19.78Zm-.61-13.87a31.07,31.07,0,0,0-3.3.2,16.61,16.61,0,0,0-3.45.7,6.9,6.9,0,0,0-2.71,1.54,3.53,3.53,0,0,0-1.08,2.68,3.44,3.44,0,0,0,1.23,2.84,4.29,4.29,0,0,0,2.71,1,6.34,6.34,0,0,0,2.5-.5,11.92,11.92,0,0,0,2.11-1.12,9.15,9.15,0,0,0,2-1.59Z"/><rect id="_Trazado_6" data-name="&lt;Trazado&gt;" class="cls-1" x="244.14" y="142.92" width="7.4" height="29.7"/><path id="_Trazado_7" data-name="&lt;Trazado&gt;" class="cls-1" d="M294.68,132.32a3.91,3.91,0,0,1-1.12,2.84,3.79,3.79,0,0,1-2.82,1.16,3.67,3.67,0,0,1-2.78-1.16,4.22,4.22,0,0,1,0-5.68,3.67,3.67,0,0,1,2.78-1.16,3.79,3.79,0,0,1,2.82,1.16,3.91,3.91,0,0,1,1.12,2.84"/><rect id="_Trazado_8" data-name="&lt;Trazado&gt;" class="cls-1" x="287.07" y="142.92" width="7.4" height="29.7"/><path id="_Trazado_compuesto_2" data-name="&lt;Trazado compuesto&gt;" class="cls-1" d="M317.37,172.62l-.55-3.58h-.12c-.29.3-.7.68-1.21,1.15a12.75,12.75,0,0,1-1.85,1.41,11.89,11.89,0,0,1-2.5,1.24,8.94,8.94,0,0,1-3.13.53,8,8,0,0,1-3.08-.63,8.63,8.63,0,0,1-2.78-1.78,9.07,9.07,0,0,1-2-2.91,9.22,9.22,0,0,1-.77-3.87,7.69,7.69,0,0,1,1.78-5.36,11.63,11.63,0,0,1,4.41-3,21.64,21.64,0,0,1,5.64-1.33c2-.19,3.86-.31,5.54-.31v-.54a7.12,7.12,0,0,0-1.14-4.44c-.75-1-2.1-1.48-4-1.48a12.55,12.55,0,0,0-2.93.34c-1,.22-1.84.46-2.62.71a26,26,0,0,0-2.64,1l-1.67-4.44a41.17,41.17,0,0,1,7.36-2.65,17.59,17.59,0,0,1,4.1-.49c3.41,0,6,.93,7.86,2.8s2.74,4.49,2.74,7.86v19.78Zm-.62-13.87a31.2,31.2,0,0,0-3.29.2,16.48,16.48,0,0,0-3.45.7,6.9,6.9,0,0,0-2.71,1.54,3.53,3.53,0,0,0-1.08,2.68,3.44,3.44,0,0,0,1.23,2.84,4.27,4.27,0,0,0,2.71,1,6.34,6.34,0,0,0,2.5-.5,12.5,12.5,0,0,0,2.13-1.12,9.48,9.48,0,0,0,2-1.59Z"/><rect id="_Trazado_9" data-name="&lt;Trazado&gt;" class="cls-1" x="228.85" y="127.27" width="7.39" height="45.34"/><path id="_Trazado_10" data-name="&lt;Trazado&gt;" class="cls-1" d="M191.69,150.06H176.85v6.24h7.4v9.78c-.42.1-.89.18-1.43.26s-1,.14-1.63.18-1.34.07-2.12.07a12.74,12.74,0,0,1-5.34-1.12,12.53,12.53,0,0,1-4.18-3.05,13.62,13.62,0,0,1-2.75-4.65,17.55,17.55,0,0,1-1-6,16.38,16.38,0,0,1,1.14-6.25,13.51,13.51,0,0,1,3.17-4.79,14.38,14.38,0,0,1,4.77-3,16.21,16.21,0,0,1,5.89-1.08c1.11,0,2.13.06,3.05.15s1.74.22,2.44.35,1.52.31,2.22.42l2-5.78a27.29,27.29,0,0,0-3.15-.87c-1-.2-2.16-.41-3.54-.61a31.23,31.23,0,0,0-4.65-.3,22.75,22.75,0,0,0-8.29,1.5,20.32,20.32,0,0,0-6.87,4.34,20.57,20.57,0,0,0-4.69,6.84,22.74,22.74,0,0,0-1.72,9,24.84,24.84,0,0,0,1.54,9,20.29,20.29,0,0,0,4.26,6.83,18.17,18.17,0,0,0,6.36,4.35,20.46,20.46,0,0,0,7.86,1.52,28.46,28.46,0,0,0,5.13-.47c1.68-.31,3.18-.65,4.49-1,1.56-.44,3-.94,4.44-1.48Z"/><path id="_Trazado_11" data-name="&lt;Trazado&gt;" class="cls-1" d="M281.52,169.75a21.28,21.28,0,0,1-3.44,1.84,27.15,27.15,0,0,1-3.7,1.23,16.64,16.64,0,0,1-4.38.56,11.5,11.5,0,0,1-4.89-1,12.16,12.16,0,0,1-4-2.92,14.21,14.21,0,0,1-2.75-4.54,16.49,16.49,0,0,1-1-5.9,19,19,0,0,1,1.1-6.42,17.25,17.25,0,0,1,3.12-5.34,15.18,15.18,0,0,1,4.8-3.66,14.17,14.17,0,0,1,6.21-1.36,15.29,15.29,0,0,1,3,.29c.95.18,1.8.38,2.59.58s1.7.51,2.52.81l-1.9,5-1.24-.31c-.36-.08-.81-.17-1.32-.25a15.82,15.82,0,0,0-1.89-.12,10,10,0,0,0-4,.77,8.7,8.7,0,0,0-2.95,2.16,10.25,10.25,0,0,0-1.94,3.25,11.49,11.49,0,0,0-.71,4.11,9.2,9.2,0,0,0,2.15,6.35,7.3,7.3,0,0,0,5.68,2.4,20.24,20.24,0,0,0,2.82-.19,18.12,18.12,0,0,0,2.13-.43,9.28,9.28,0,0,0,2-.67Z"/></g><path id="_Trazado_12" data-name="&lt;Trazado&gt;" class="cls-1" d="M101.12,131.85h0a9,9,0,0,1-2,.82,30.42,30.42,0,0,1-8.41,1.12,31,31,0,0,1,1.12-8.35,8.61,8.61,0,0,1,.81-2,0,0,0,0,1,0,0h0a2.88,2.88,0,0,0-5.75,0h0l0,0a8.61,8.61,0,0,1,.79,2,30.72,30.72,0,0,1,1.13,8.35,31,31,0,0,1-8.43-1.13,9.14,9.14,0,0,1-2-.81h0a2.89,2.89,0,0,0,0,5.77l0,0v0a8.14,8.14,0,0,1,2-.83,31.23,31.23,0,0,1,8.38-1.12,25,25,0,0,1-1.51,8.27,4.18,4.18,0,0,1-2.2,2.44h0l4.7,33.91,4.68-33.91h0a4.17,4.17,0,0,1-2.2-2.44,1.39,1.39,0,0,1-.06-.13h0a25.43,25.43,0,0,1-1.44-8.14,31.28,31.28,0,0,1,8.37,1.12,8.11,8.11,0,0,1,2,.83h0a2.89,2.89,0,1,0,0-5.77Z"/></g></g></g></g></svg>