<svg id="Capa_1" data-name="Capa 1" xmlns="http://www.w3.org/2000/svg" viewBox="0 0 400 300"><defs><style>.cls-1{fill:#b11f17;}.cls-2{fill:#fff;}.cls-3{fill:#1f1813;}</style></defs><title>hsbc</title><g id="_Grupo_" data-name="&lt;Grupo&gt;"><polygon id="_Trazado_" data-name="&lt;Trazado&gt;" class="cls-1" points="273.87 124.4 325.06 124.4 325.06 125 325.98 124.4 352.03 150.46 325.98 175.6 325.06 174.89 325.06 175.6 273.87 175.6 247.81 150.46 273.87 124.4"/><polygon id="_Trazado_2" data-name="&lt;Trazado&gt;" class="cls-2" points="273.87 124.4 299.92 150.46 273.87 175.6 273.87 124.4"/><polygon id="_Trazado_3" data-name="&lt;Trazado&gt;" class="cls-2" points="325.98 124.4 299.92 150.46 325.98 175.6 325.98 124.4"/><path id="_Trazado_compuesto_" data-name="&lt;Trazado compuesto&gt;" class="cls-3" d="M223.92,124.73,225,141.16h-1.08c-1.41-4.92-3.41-8.43-6-10.59a14.19,14.19,0,0,0-9.41-3.25,14.79,14.79,0,0,0-8.27,2.44c-2.48,1.62-4.32,4.21-5.78,7.78a36.4,36.4,0,0,0-2.11,13.3,29,29,0,0,0,2,11.35,15.52,15.52,0,0,0,6,7.41,16.43,16.43,0,0,0,9.19,2.54,15.18,15.18,0,0,0,7.89-2c2.33-1.36,4.81-4,7.57-8l1,.7c-2.33,4.32-5,7.46-8.06,9.46a19.71,19.71,0,0,1-11,3c-7.68,0-13.51-2.92-17.68-8.92a26.18,26.18,0,0,1-4.7-15.57,28.71,28.71,0,0,1,3.08-13.29,23.18,23.18,0,0,1,8.49-9.41A21.92,21.92,0,0,1,208,124.73a20.85,20.85,0,0,1,9.9,2.59,5.4,5.4,0,0,0,2,.76,2.23,2.23,0,0,0,1.62-.65,5.56,5.56,0,0,0,1.24-2.7Zm-63.68,49.46v-2.65a11.7,11.7,0,0,0,6.92-2.81,9.15,9.15,0,0,0,3.24-7.13,10.93,10.93,0,0,0-1.46-5.46,10,10,0,0,0-4.75-4.11,16.9,16.9,0,0,0-3.95-1.14v-3a12.69,12.69,0,0,0,3.68-.91,8.15,8.15,0,0,0,3.83-3.41,10.24,10.24,0,0,0,1.3-5.08,9.42,9.42,0,0,0-3.29-7.24,11,11,0,0,0-5.52-2.6v-2.7a34.8,34.8,0,0,1,5.46.75,14.3,14.3,0,0,1,7.79,4.55,11.6,11.6,0,0,1,2.64,7.51,10.91,10.91,0,0,1-2.1,6.54,12.71,12.71,0,0,1-6.22,4.27A14.39,14.39,0,0,1,175,153a10.78,10.78,0,0,1,3.3,8,12.82,12.82,0,0,1-8.17,11.73C167.92,173.6,164.57,174.08,160.24,174.19Zm0-48.27v2.7a19.29,19.29,0,0,0-4.11-.38A23.49,23.49,0,0,0,150,129v18.59c.87.17,1.79.27,2.87.38s2.27.11,3.57.11a25.74,25.74,0,0,0,3.78-.22v3a26.38,26.38,0,0,0-4.21-.32c-1.41,0-2.6,0-3.57.05a13.5,13.5,0,0,0-2.44.27v19.79a32.64,32.64,0,0,0,7.79,1c.86,0,1.62-.05,2.43-.11v2.65H136.83v-1.3h1.73a4.62,4.62,0,0,0,4.17-1.94c.54-.81.75-2.6.75-5.3V134.4c0-3-.32-4.86-1-5.67a4.93,4.93,0,0,0-3.95-1.57h-1.73v-1.3h19.9c1.24,0,2.43,0,3.51.06Zm-31.35-1.19v16.76h-1.24a21.41,21.41,0,0,0-2.22-7.68,11,11,0,0,0-4.49-4.54,11.7,11.7,0,0,0-6-1.68,8.09,8.09,0,0,0-5.84,2.27,7.11,7.11,0,0,0-2.32,5.14,6.38,6.38,0,0,0,1.46,4.05q2.1,2.69,10,7.14a65.54,65.54,0,0,1,8.81,5.57,13.1,13.1,0,0,1,3.62,4.54,12.48,12.48,0,0,1,1.3,5.57,12.86,12.86,0,0,1-4,9.46,14.41,14.41,0,0,1-10.49,3.94,20.9,20.9,0,0,1-3.73-.32,40.2,40.2,0,0,1-4.38-1.25,19,19,0,0,0-4.22-1.13,1.79,1.79,0,0,0-1.35.54,4.31,4.31,0,0,0-.7,2.16h-1.24V158.73h1.24a25,25,0,0,0,2.38,7.78,11.35,11.35,0,0,0,4.59,4.27,13.41,13.41,0,0,0,6.71,1.73,9,9,0,0,0,6.7-2.37,7.33,7.33,0,0,0,2.49-5.52A8.23,8.23,0,0,0,125,161a11.59,11.59,0,0,0-2.92-3.41c-.87-.7-3.3-2.21-7.25-4.54a77.13,77.13,0,0,1-8.43-5.51,15.79,15.79,0,0,1-3.78-4.59,11.71,11.71,0,0,1-1.25-5.46,12.07,12.07,0,0,1,3.79-9,13,13,0,0,1,9.67-3.78,19.11,19.11,0,0,1,7.79,1.89,8,8,0,0,0,2.65.92,2,2,0,0,0,1.46-.59,4.43,4.43,0,0,0,.92-2.22ZM61.05,148.24h21.4V134.4a18.21,18.21,0,0,0-.43-4.86,3,3,0,0,0-1.4-1.51,6,6,0,0,0-3.14-.87H75.86v-1.3H95.59v1.3H93.91a6.28,6.28,0,0,0-3.08.81,3.08,3.08,0,0,0-1.46,1.73,18.13,18.13,0,0,0-.37,4.7v31.25a15.34,15.34,0,0,0,.43,4.81,3.2,3.2,0,0,0,1.4,1.57,6.33,6.33,0,0,0,3.08.86h1.68v1.3H75.86v-1.3h1.62a4.65,4.65,0,0,0,4.11-1.78c.59-.76.86-2.6.86-5.46V150.89H61.05v14.76a17.5,17.5,0,0,0,.43,4.81A3.35,3.35,0,0,0,62.94,172a6.3,6.3,0,0,0,3.08.86H67.7v1.3H48v-1.3h1.62a4.88,4.88,0,0,0,4.16-1.78c.49-.76.81-2.6.81-5.46V134.4a15.76,15.76,0,0,0-.48-4.86A3,3,0,0,0,52.72,128a6,6,0,0,0-3.13-.87H48v-1.3H67.7v1.3H66a6.25,6.25,0,0,0-3.08.81,3.08,3.08,0,0,0-1.46,1.73,17.34,17.34,0,0,0-.43,4.7Z"/></g></svg>