<svg id="Capa_1" data-name="Capa 1" xmlns="http://www.w3.org/2000/svg" viewBox="0 0 400 300"><defs><style>.cls-1{fill:#b82732;fill-rule:evenodd;}.cls-2{fill:#363435;}</style></defs><title>icbc</title><path id="_Trazado_compuesto_" data-name="&lt;Trazado compuesto&gt;" class="cls-1" d="M294.69,188.57v7h22.67v-21H303.42v-7h13.94v-21H294.69v7h15.68v7h-14v21h14v7ZM254.37,171.1a38.45,38.45,0,1,1,38.45,38.45,38.47,38.47,0,0,1-38.45-38.45Zm-7,0a45.5,45.5,0,1,1,45.49,45.5,45.47,45.47,0,0,1-45.49-45.5Zm43.83-17.52v-7H268.45v21h13.92v7H268.45v21h22.71v-7H275.44v-7h14v-21h-14v-7Z"/><path id="_Trazado_compuesto_2" data-name="&lt;Trazado compuesto&gt;" class="cls-2" d="M138.46,174.84v-.11h16.95a10.34,10.34,0,0,1,5.56,1.41,5.38,5.38,0,0,1,2.52,4.79,5.24,5.24,0,0,1-1.35,3.86c-1.66,1.66-4.53,1.65-6.63,1.65H138.4v-.1l.06-11.5Zm0-9.09V155.54H154c2.73,0,7.31,0,7.31,5.38a4.21,4.21,0,0,1-2.56,4.15,11.4,11.4,0,0,1-4.72.79H138.46v-.11ZM156,195.47c5.89,0,10.32-1.42,13.19-4.23a12.61,12.61,0,0,0,3.57-9.2c0-5.7-2.4-9.67-7.13-11.77l-.21-.09.2-.1c2.13-1.13,5-3.39,5-10.16a12.66,12.66,0,0,0-4-9.42c-2.82-2.59-6.93-4-11.86-4H129.14v48.93Z"/><rect id="_Trazado_" data-name="&lt;Trazado&gt;" class="cls-2" x="61.68" y="146.54" width="9.76" height="48.93"/><path id="_Trazado_2" data-name="&lt;Trazado&gt;" class="cls-2" d="M79.37,170.59a26.29,26.29,0,0,0,2.45,11.94,21.36,21.36,0,0,0,6.12,7.29c4.36,3.47,10.51,5.24,18.26,5.24h13.36v-9.25H106.93c-7,0-12.1-1.72-15.12-5.15-2.14-2.44-3.23-5.73-3.26-9.76,0-4.34,1.17-7.77,3.62-10.23,3-3.07,8-4.64,14.76-4.64h12.63v-9.15H106.67a41.35,41.35,0,0,0-11.14,1.32,20.71,20.71,0,0,0-7.9,4A23.49,23.49,0,0,0,79.37,170.59Z"/><path id="_Trazado_3" data-name="&lt;Trazado&gt;" class="cls-2" d="M178.68,170.59A28.92,28.92,0,0,0,181.14,183a21.2,21.2,0,0,0,6.12,7.73c4.11,3.27,9.91,4.78,18.26,4.78H219.6v-9.23H206.26c-7,0-12.09-1.82-15.12-5.38a15.06,15.06,0,0,1-3.28-10c0-4.45,1.23-8,3.75-10.55,3.07-3.09,8-4.66,14.65-4.66H219.6v-9.15H206a40.93,40.93,0,0,0-11.13,1.32,20.52,20.52,0,0,0-7.89,4A24.06,24.06,0,0,0,178.68,170.59Z"/></svg>