<svg id="Capa_1" data-name="Capa 1" xmlns="http://www.w3.org/2000/svg" viewBox="0 0 400 300"><defs><style>.cls-1{fill:#0d2074;}.cls-1,.cls-2{fill-rule:evenodd;}.cls-2{fill:#ede143;}</style></defs><title>itau</title><g id="_Grupo_" data-name="&lt;Grupo&gt;"><path id="_Trazado_" data-name="&lt;Trazado&gt;" class="cls-1" d="M157.91,84.33l84.37,0a24.08,24.08,0,0,1,24.11,23.94v83.46a24.13,24.13,0,0,1-24.21,23.89l-84.41,0a24.16,24.16,0,0,1-24.16-23.94l.1-83.46a24.07,24.07,0,0,1,24.2-23.89Z"/><path id="_Trazado_compuesto_" data-name="&lt;Trazado compuesto&gt;" class="cls-2" d="M247.69,144.24h-9.62l-4,7.45h6.75l6.84-7.45Zm6.4,12.11h-9.38v20c0,6.13-4.16,7.9-7.24,7.9-2.92,0-6.15-1.08-6.1-6.43V156.35H222L222,179.17c0,8.83,5.11,12.75,12.15,12.75,4.91.05,8.73-2.06,10.86-5.79h.1V191h9V156.35Z"/><path id="_Trazado_2" data-name="&lt;Trazado&gt;" class="cls-2" d="M214.66,165.53c0-8.59-9.13-10.11-14.19-10.11-7.29,0-14.88,1.52-16,12.12h9.08c.29-2,1.14-4.81,5.8-4.81,2.43,0,6.2.2,6.2,4,0,2-1.83,2.56-3.32,2.75l-8.43,1.23c-6,.83-10.47,4.32-10.47,11.09,0,7.16,5.55,10.1,10.86,10.1a14.63,14.63,0,0,0,11.56-5,15.15,15.15,0,0,0,.89,4.07l8.09-.05c0-3.82-.05-6.62-.05-6.67V165.53Z"/><path id="_Trazado_3" data-name="&lt;Trazado&gt;" class="cls-2" d="M174.68,144.24H165.3V156.3h-4.86v6.53h4.82v21c0,4.46,1.43,7.5,9.57,7.5h1.24c1.49,0,3-.09,4.41-.14v-6.92c-.64.05-1.34.15-1.93.15-3.82,0-3.92-.79-3.92-2.85l.05-18.79h5.85V156.3h-5.85V144.24Z"/><polygon id="_Trazado_4" data-name="&lt;Trazado&gt;" class="cls-2" points="156.13 144.19 146.01 144.19 145.96 190.94 156.08 190.94 156.13 144.19 156.13 144.19"/><path id="_Trazado_5" data-name="&lt;Trazado&gt;" class="cls-1" d="M205.53,178.58v-4.47c-.94.74-2.53,1.33-6.4,1.87-3.52.59-6.4,1.47-6.4,5.25a4.1,4.1,0,0,0,4.37,4.17c4.16,0,8.43-2.6,8.43-6.82Z"/></g></svg>