<svg id="Capa_1" data-name="Capa 1" xmlns="http://www.w3.org/2000/svg" xmlns:xlink="http://www.w3.org/1999/xlink" viewBox="0 0 400 300"><defs><style>.cls-1{fill:#0081c6;}.cls-2{fill:#fff;}.cls-3,.cls-4,.cls-5,.cls-6{stroke:#0081c6;stroke-width:0.24px;}.cls-3{fill:url(#linear-gradient);}.cls-4{fill:url(#linear-gradient-2);}.cls-5{fill:url(#linear-gradient-3);}.cls-6{fill:url(#linear-gradient-4);}</style><linearGradient id="linear-gradient" x1="139.61" y1="152.06" x2="139.61" y2="162.45" gradientUnits="userSpaceOnUse"><stop offset="0.09" stop-color="#fff"/><stop offset="0.19" stop-color="#f7fafd"/><stop offset="0.36" stop-color="#e0ecf7"/><stop offset="0.38" stop-color="#dceaf6"/><stop offset="1" stop-color="#0081c6"/></linearGradient><linearGradient id="linear-gradient-2" x1="139.61" y1="587.74" x2="139.61" y2="598.13" gradientTransform="matrix(1, 0, 0, -1, 0, 760.58)" xlink:href="#linear-gradient"/><linearGradient id="linear-gradient-3" x1="139.62" y1="139.75" x2="139.62" y2="162.45" gradientUnits="userSpaceOnUse"><stop offset="0.09" stop-color="#fff"/><stop offset="0.23" stop-color="#f7fafd"/><stop offset="0.45" stop-color="#e0ecf7"/><stop offset="0.48" stop-color="#dceaf6"/><stop offset="1" stop-color="#0081c6"/></linearGradient><linearGradient id="linear-gradient-4" x1="139.61" y1="127.47" x2="139.61" y2="162.31" xlink:href="#linear-gradient-3"/></defs><title>macro</title><g id="_Grupo_" data-name="&lt;Grupo&gt;"><g id="_Grupo_2" data-name="&lt;Grupo&gt;"><rect id="_Trazado_" data-name="&lt;Trazado&gt;" class="cls-1" x="69.92" y="77.92" width="260.17" height="144.16"/><g id="_Grupo_3" data-name="&lt;Grupo&gt;"><g id="_Grupo_4" data-name="&lt;Grupo&gt;"><g id="_Grupo_5" data-name="&lt;Grupo&gt;"><path id="_Trazado_compuesto_" data-name="&lt;Trazado compuesto&gt;" class="cls-2" d="M215.64,146.54l1.72,25.89h-5l-.93-21.81h-.48L205,172.43h-5.95l-5.74-21.81h-.47l-1.28,21.81h-4.31L189,146.54h8.32l4.85,19.81h.47l5-19.81Z"/><path id="_Trazado_compuesto_2" data-name="&lt;Trazado compuesto&gt;" class="cls-2" d="M229.38,172.84c-4.7-.08-8.95-.89-8.95-6.29,0-6.14,7.18-5.88,12.65-5.88,0-3,0-4.4-4.81-4.4a33.77,33.77,0,0,0-6.55.7v-3.66a38.29,38.29,0,0,1,6.85-.7c4.62,0,9.76.48,9.76,6.47v13.28A64.46,64.46,0,0,1,229.38,172.84Zm3.7-8.8c-.67,0-2.48,0-3,0-2.19,0-4.11.14-4.11,2.74s1.92,2.73,4.11,2.73a20,20,0,0,0,3-.22Z"/><path id="_Trazado_compuesto_3" data-name="&lt;Trazado compuesto&gt;" class="cls-2" d="M252,172.84c-6.44,0-11.06-3.48-11.06-10.47,0-6.32,5-9.76,10.83-9.76a26,26,0,0,1,5.63.55v3.48a29.46,29.46,0,0,0-3.59-.26c-4.92,0-7.36,1.55-7.36,6.25s2.44,6.36,7.36,6.36a24,24,0,0,0,3.73-.29v3.51A22,22,0,0,1,252,172.84Z"/><path id="_Trazado_compuesto_4" data-name="&lt;Trazado compuesto&gt;" class="cls-2" d="M266.49,158.41v14h-5.25V153h4.66s0,1.78,0,1.78a12.56,12.56,0,0,1,7.58-1.92v4.29C271.56,157.16,268.38,157.08,266.49,158.41Z"/><path id="_Trazado_compuesto_5" data-name="&lt;Trazado compuesto&gt;" class="cls-2" d="M284.33,172.84c-6.59,0-10.36-4.11-10.36-10.14s3.81-10.13,10.36-10.13,10.28,4,10.28,10.13S290.32,172.84,284.33,172.84Zm0-16.61c-3.7,0-4.88,2.25-4.88,6.55s1.18,6.51,4.88,6.51,4.84-2.26,4.84-6.51S288,156.23,284.29,156.23Z"/></g></g></g></g><path id="_Trazado_2" data-name="&lt;Trazado&gt;" class="cls-3" d="M150,162.45a10.39,10.39,0,1,0-20.77,0Z"/><path id="_Trazado_3" data-name="&lt;Trazado&gt;" class="cls-4" d="M150,162.45a10.39,10.39,0,1,1-20.77,0Z"/><path id="_Trazado_4" data-name="&lt;Trazado&gt;" class="cls-5" d="M162.32,162.45a22.71,22.71,0,0,0-45.41,0h10.43a12.27,12.27,0,0,1,24.54,0Z"/><path id="_Trazado_5" data-name="&lt;Trazado&gt;" class="cls-6" d="M174.6,162.45a35,35,0,0,0-70,0H115a24.59,24.59,0,1,1,49.18,0Z"/></g></svg>