<svg id="Capa_1" data-name="Capa 1" xmlns="http://www.w3.org/2000/svg" viewBox="0 0 400 300"><defs><style>.cls-1{fill:#359444;}.cls-2{fill:#002c55;}</style></defs><title>patagonia</title><path id="_Trazado_compuesto_" data-name="&lt;Trazado compuesto&gt;" class="cls-1" d="M23,132.94h9.84c3.31,0,8.9,1.33,8.9,8.11,0,5.64-3.71,7.22-5.29,7.81v.1c2.52.4,6.92,2.18,6.92,8.76,0,8.35-6.62,9.34-10.93,9.34H23Zm4.94,14.14h3.12c2.27,0,5.74-.59,5.74-5.14,0-4.85-3.47-5-6-5H27.94Zm0,16h3.81c4.45,0,6.68-2.62,6.68-5.84,0-5.69-5.15-6.23-7.17-6.23H27.94Z"/><path id="_Trazado_compuesto_2" data-name="&lt;Trazado compuesto&gt;" class="cls-1" d="M76.72,133H82.9l13.45,26.7h.1V133h4.45v34.12H95.06l-13.8-27.35h-.09v27.35H76.72Z"/><path id="_Trazado_" data-name="&lt;Trazado&gt;" class="cls-1" d="M126.1,161.82a13.24,13.24,0,0,1-6.62,1.84c-7.07,0-9.14-6.29-9.14-14.84,0-4.65.89-12.46,7.31-12.46,2.65,0,4,1.18,4.71,2.58l3.8-3.53c-1.87-1.89-4.71-3-8.36-3-9.94,0-12.9,8.16-12.9,17.21,0,13.36,6.08,18,13.6,18a22.79,22.79,0,0,0,8.91-2Z"/><path id="_Trazado_compuesto_3" data-name="&lt;Trazado compuesto&gt;" class="cls-1" d="M128,150c0-9.25,2.81-17.61,13.29-17.61s13.35,8.36,13.35,17.61-2.86,17.6-13.35,17.6S128,159.2,128,150Zm13.29,13.65c6.83,0,7.91-8.06,7.91-13.65s-1.08-13.65-7.91-13.65-7.86,8.06-7.86,13.65S134.44,163.66,141.26,163.66Z"/><path id="_Trazado_compuesto_4" data-name="&lt;Trazado compuesto&gt;" class="cls-2" d="M159.36,132.93h8.21c5,0,12,.11,12,9.07,0,8.37-7.37,9.17-10.83,9.17h-4.4v15.9h-4.94Zm4.94,14.3h3.51c3.61,0,6.28-1,6.28-5.12,0-5.15-3.71-5.22-6.28-5.22H164.3Z"/><path id="_Trazado_compuesto_5" data-name="&lt;Trazado compuesto&gt;" class="cls-2" d="M211,136.89h-8.51v-4h22v4H216v30.18H211Z"/><path id="_Trazado_compuesto_6" data-name="&lt;Trazado compuesto&gt;" class="cls-2" d="M280,150c0-9.26,2.82-17.62,13.3-17.62s13.35,8.36,13.35,17.62-2.87,17.6-13.35,17.6S280,159.2,280,150Zm13.3,13.65c6.82,0,7.91-8.07,7.91-13.65s-1.09-13.67-7.91-13.67-7.86,8.08-7.86,13.67S286.49,163.66,293.31,163.66Z"/><path id="_Trazado_compuesto_7" data-name="&lt;Trazado compuesto&gt;" class="cls-2" d="M310.66,132.93h6.18l13.45,26.72h.1V132.93h4.45v34.14H329l-13.79-27.36h-.1v27.36h-4.45Z"/><path id="_Trazado_compuesto_8" data-name="&lt;Trazado compuesto&gt;" class="cls-2" d="M340.09,132.93h5v34.14h-5Z"/><path id="_Trazado_2" data-name="&lt;Trazado&gt;" class="cls-2" d="M264,151.17h7.26v11.15c-.35.5-2.77,1.34-5.78,1.34-7.86,0-8.8-8.21-8.8-14.69,0-6.19,1.49-12.63,7.91-12.63,2.77,0,4.43,1.18,5.26,2.79l3.75-3.5c-2.1-2.18-5.36-3.24-9-3.24-9.69,0-13.4,7.17-13.4,16.58,0,13.21,5.59,18.64,14.39,18.64a16.74,16.74,0,0,0,10.18-3.21V147.23H264Z"/><polygon id="_Trazado_3" data-name="&lt;Trazado&gt;" class="cls-2" points="205.6 167.07 193.93 132.93 187.85 132.93 176.23 167.07 181.47 167.07 190.87 137.48 190.97 137.48 195.31 151.17 190.98 151.17 189.73 155.11 196.56 155.11 200.36 167.07 205.6 167.07"/><polygon id="_Trazado_4" data-name="&lt;Trazado&gt;" class="cls-1" points="74.11 167.07 62.44 132.93 56.35 132.93 44.73 167.07 49.97 167.07 59.37 137.48 59.47 137.48 63.82 151.17 59.48 151.17 58.23 155.11 65.07 155.11 68.86 167.07 74.11 167.07"/><polygon id="_Trazado_5" data-name="&lt;Trazado&gt;" class="cls-2" points="377 167.07 365.34 132.93 359.26 132.93 347.65 167.07 352.89 167.07 362.28 137.48 362.37 137.48 366.72 151.17 362.39 151.17 361.14 155.11 367.97 155.11 371.76 167.07 377 167.07"/><polygon id="_Trazado_6" data-name="&lt;Trazado&gt;" class="cls-2" points="250.8 167.07 239.14 132.93 233.05 132.93 221.43 167.07 226.67 167.07 236.07 137.48 236.17 137.48 240.51 151.17 236.18 151.17 234.93 155.11 241.77 155.11 245.56 167.07 250.8 167.07"/></svg>