<svg id="Capa_1" data-name="Capa 1" xmlns="http://www.w3.org/2000/svg" viewBox="0 0 400 300"><defs><style>.cls-1{fill:#bc2a2a;}.cls-2,.cls-3{fill:#fff;}.cls-2{fill-rule:evenodd;}</style></defs><title>santanderrio</title><g id="_Grupo_" data-name="&lt;Grupo&gt;"><rect id="_Trazado_" data-name="&lt;Trazado&gt;" class="cls-1" x="15" y="107.24" width="370" height="85.53"/><path id="_Trazado_compuesto_" data-name="&lt;Trazado compuesto&gt;" class="cls-2" d="M323.56,164.46l-9-14.2h-.08l-1,0-1.07,0c-.35,0-.68,0-1,0l-.65,0v11.07a1.49,1.49,0,0,0,.48,1,2.39,2.39,0,0,0,1.37.61l1.68.27v1.36H302.54V163.1l1.68-.27a2.42,2.42,0,0,0,1.37-.61,1.5,1.5,0,0,0,.49-1V136.76a1.47,1.47,0,0,0-.49-1,2.5,2.5,0,0,0-1.37-.62l-1.68-.27v-1.37h12.75a15.82,15.82,0,0,1,4.87.67,9.58,9.58,0,0,1,3.36,1.79,7.13,7.13,0,0,1,2.62,5.51,7,7,0,0,1-.47,2.5,8.57,8.57,0,0,1-1.35,2.3,9.21,9.21,0,0,1-2.16,1.94,12.64,12.64,0,0,1-2.89,1.37l6.16,9.42a13.6,13.6,0,0,0,2.37,2.88,4.67,4.67,0,0,0,2.5,1.15l.79.1v1.36Zm-2.43-22.62q0-3.63-1.95-5.18a8.33,8.33,0,0,0-5.31-1.55l-1.15,0c-.35,0-.68,0-1,.08s-.65,0-1,0v13.14l1.3.12c.63,0,1.45.06,2.45.06a6.57,6.57,0,0,0,2.37-.46,6.79,6.79,0,0,0,2.13-1.34,6.61,6.61,0,0,0,1.53-2.09,6.79,6.79,0,0,0,.57-2.84"/><path id="_Trazado_compuesto_2" data-name="&lt;Trazado compuesto&gt;" class="cls-2" d="M332,164.46v-1.05l1.46-.28a2.07,2.07,0,0,0,1.13-.59,1.54,1.54,0,0,0,.46-1.13V149.63c0-1-.45-1.55-1.37-1.55a3,3,0,0,0-1,.18l-.57.21v-1.31l6.46-2.79h.93v17a1.58,1.58,0,0,0,.46,1.13,2.1,2.1,0,0,0,1.13.59l1.46.28v1.05Zm4.29-22.31h-1.81l3.54-8.28h4.47Z"/><path id="_Trazado_compuesto_3" data-name="&lt;Trazado compuesto&gt;" class="cls-2" d="M364.77,155a9.79,9.79,0,0,1-.71,3.61,9.92,9.92,0,0,1-2,3.2,10.28,10.28,0,0,1-7.66,3.24,11.28,11.28,0,0,1-4-.73,10.07,10.07,0,0,1-3.35-2.13,10.54,10.54,0,0,1-3.24-7.82,9.7,9.7,0,0,1,.71-3.57,10,10,0,0,1,2-3.24,10.77,10.77,0,0,1,3.26-2.33,10.3,10.3,0,0,1,4.4-.91,11,11,0,0,1,4,.74,9.75,9.75,0,0,1,3.37,2.13,10.35,10.35,0,0,1,2.34,3.35,10.67,10.67,0,0,1,.89,4.46m-4.88.83a19.07,19.07,0,0,0-.3-3.29,11.66,11.66,0,0,0-1-3.12,6.94,6.94,0,0,0-1.89-2.35,4.47,4.47,0,0,0-2.89-.93,4.31,4.31,0,0,0-2.52.68,5.32,5.32,0,0,0-1.58,1.78,7.51,7.51,0,0,0-.82,2.39,16,16,0,0,0-.22,2.55,19.32,19.32,0,0,0,.31,3.3,11.67,11.67,0,0,0,1,3.12,7,7,0,0,0,1.87,2.35,4.57,4.57,0,0,0,2.91.93,4.18,4.18,0,0,0,2.49-.7,5.2,5.2,0,0,0,1.6-1.76,7.92,7.92,0,0,0,.82-2.4,15.94,15.94,0,0,0,.21-2.55"/><path id="_Trazado_2" data-name="&lt;Trazado&gt;" class="cls-3" d="M61.31,123.64c0,5.62,9.56,11.86,9.56,18.28a3.77,3.77,0,0,1-.27,1.28c8.94,1.86,15.26,6.23,15.26,11.38,0,6.9-11.28,12.56-25.27,12.6-.08,0-.17,0-.26,0-13.86,0-25.08-5.47-25.08-12.35,0-5.12,6.85-9.29,15.12-11.49,0,2.83,9.43,11.82,9.65,15.44a4.67,4.67,0,0,1,0,.66,1.91,1.91,0,0,1,0,.53c2-1.06,2-4.38,2-4.38,0-7.88-9.16-11.37-9.16-19.11,0-3,1.42-5.23,2.69-5.85v2.17c0,5.62,9.92,11.9,9.92,17v1.69c2.3-.89,2.3-5.08,2.3-5.08,0-7.09-9.2-11-9.2-19.13,0-3,1.41-5.23,2.7-5.85Z"/><path id="_Trazado_3" data-name="&lt;Trazado&gt;" class="cls-3" d="M106,165a25.08,25.08,0,0,1-8.33-1.37v-8.36h1.2c.62,4.43,4,7.79,7.83,7.79s6.55-2.12,6.55-5.49c0-3.58-3.58-5.22-6-6.41l-3.45-1.74c-3.28-1.63-5.94-4.29-5.94-8,0-4.65,3.46-8.63,10-8.63a24.51,24.51,0,0,1,8.24,1.5v7.49H115c-.71-4-2.92-7.13-7.43-7.13-3.38,0-5.37,2.3-5.37,4.63,0,3.07,2.13,4.44,4.61,5.68l3.45,1.72c3.14,1.61,7,4.25,7,8.77,0,5.76-4,9.55-11.27,9.55"/><path id="_Trazado_compuesto_4" data-name="&lt;Trazado compuesto&gt;" class="cls-3" d="M126.49,164.83a4.66,4.66,0,0,1-4.95-5c0-2.12,1.55-3.77,4.95-5l6-2.18v-1.86c0-2.78-1.29-4.51-3.24-4.51a4,4,0,0,0-3.31,1.73,2.62,2.62,0,0,0-.31,1.42,4.14,4.14,0,0,0,.49,1.63l-2.92,1.33a5.28,5.28,0,0,1-.8-2.49c0-.17,0-.34,0-.47.22-1.6,1.6-2.66,3.46-3.77a8.65,8.65,0,0,1,4.46-1.41c5.58,0,6.55,4.42,6.55,5.87v9.17c0,1.46.14,2.39,1.33,2.39a2.61,2.61,0,0,0,1.06-.17l1.07-.35v1.32l-6.2,2.29A4.42,4.42,0,0,1,132.6,162c-1.46,1.25-4,2.87-6.11,2.87m1.82-8.93a3.49,3.49,0,0,0-2.57,3.27,2.87,2.87,0,0,0,3,3,6.73,6.73,0,0,0,3.77-1.52v-6.54Z"/><path id="_Trazado_4" data-name="&lt;Trazado&gt;" class="cls-3" d="M141.72,164.39v-1.06l1.46-.26a1.76,1.76,0,0,0,1.5-1.72V149.53c0-1-.49-1.55-1.37-1.55a3,3,0,0,0-1,.17l-.57.23v-1.33l6.37-2.74H149v3.27a8.83,8.83,0,0,1,6.28-3.27c4.52,0,6.69,3.22,6.69,7v10a1.76,1.76,0,0,0,1.55,1.72l1.5.26v1.06H154.51v-1.06l1.45-.26a1.85,1.85,0,0,0,1.6-1.72v-10c0-1.32-.36-4.29-3.89-4.29a7.15,7.15,0,0,0-4.56,2.08v12.22a1.85,1.85,0,0,0,1.59,1.72l1.46.26v1.06Z"/><path id="_Trazado_5" data-name="&lt;Trazado&gt;" class="cls-3" d="M180.3,147h-6.19v11c0,2.43,1.28,3.76,3.14,3.76a6.74,6.74,0,0,0,3.05-.83l.49,1.05-4,2.53a11.15,11.15,0,0,1-1.19.12c-3.85,0-5.92-2.26-5.92-7V147h-3.24v-1.1s4.87-1.86,6.77-6.41h.89v5.61h7Z"/><path id="_Trazado_compuesto_5" data-name="&lt;Trazado compuesto&gt;" class="cls-3" d="M187.76,164.83a4.66,4.66,0,0,1-4.95-5c0-2.12,1.55-3.77,4.95-5l6-2.18v-1.86c0-2.78-1.29-4.51-3.24-4.51a4,4,0,0,0-3.32,1.73,2.8,2.8,0,0,0-.3,1.42,4.2,4.2,0,0,0,.48,1.63l-2.92,1.33a5.39,5.39,0,0,1-.79-2.49c0-.17,0-.34,0-.47.22-1.6,1.59-2.66,3.45-3.77a8.65,8.65,0,0,1,4.46-1.41c5.58,0,6.55,4.42,6.55,5.87v9.17c0,1.46.13,2.39,1.33,2.39a2.63,2.63,0,0,0,1.06-.17l1.06-.35v1.32l-6.2,2.29a4.37,4.37,0,0,1-1.54-2.87c-1.46,1.25-4,2.87-6.11,2.87m1.82-8.93a3.49,3.49,0,0,0-2.57,3.27,2.87,2.87,0,0,0,3,3,6.76,6.76,0,0,0,3.77-1.52v-6.54Z"/><path id="_Trazado_6" data-name="&lt;Trazado&gt;" class="cls-3" d="M203,164.39v-1.06l1.46-.26a1.75,1.75,0,0,0,1.5-1.72V149.53c0-1-.48-1.55-1.36-1.55a3,3,0,0,0-1,.17l-.58.23v-1.33l6.38-2.74h.92v3.27a8.87,8.87,0,0,1,6.29-3.27c4.51,0,6.69,3.22,6.69,7v10a1.75,1.75,0,0,0,1.54,1.72l1.5.26v1.06H215.77v-1.06l1.46-.26a1.85,1.85,0,0,0,1.6-1.72v-10c0-1.32-.36-4.29-3.9-4.29a7.15,7.15,0,0,0-4.56,2.08v12.22a1.85,1.85,0,0,0,1.6,1.72l1.46.26v1.06Z"/><path id="_Trazado_compuesto_6" data-name="&lt;Trazado compuesto&gt;" class="cls-3" d="M237.54,164.83c-4.15,0-9.16-3.09-9.16-9.81a10.57,10.57,0,0,1,10.67-10.71,11.55,11.55,0,0,1,4.55.83V135c0-1.07-.57-1.38-1.27-1.38a3.83,3.83,0,0,0-1.24.23l-.89.3v-1.33l6.9-2.92H248v29.17c0,1.68.27,2.65,1.47,2.65a2.61,2.61,0,0,0,1.05-.17l1.07-.35v1.32l-6.2,2.29a4.7,4.7,0,0,1-1.67-2.91,8.53,8.53,0,0,1-6.21,2.91m2-18.66c-3.19,0-6.47,2-6.47,8,0,5,2.49,8,6.38,8A4.75,4.75,0,0,0,243.6,160V148.51a4.19,4.19,0,0,0-4.06-2.34"/><path id="_Trazado_compuesto_7" data-name="&lt;Trazado compuesto&gt;" class="cls-3" d="M258.08,153v.22c-.05,5.89,3.31,8.85,7.53,8.85a9.13,9.13,0,0,0,5.61-2v1.78a11.46,11.46,0,0,1-7.79,3c-6.9,0-10-5.16-10-10.08a10.18,10.18,0,0,1,10-10.44,7.93,7.93,0,0,1,8.28,8.09V153Zm9.07-1.81v-.1c0-3.32-1.85-4.9-4.07-4.9-2.48,0-4.34,1.63-4.87,5Z"/><path id="_Trazado_7" data-name="&lt;Trazado&gt;" class="cls-3" d="M274.41,164.39v-1.06l1.46-.26a1.81,1.81,0,0,0,1.5-1.72V149.53c0-1-.49-1.55-1.37-1.55a3,3,0,0,0-1,.17l-.57.23v-1.33l6.28-2.74h.93v4.29c1.59-3.1,3.5-4.38,5.66-4.38,1.78,0,2.22.43,2.22.43v4.7h-.88a2.17,2.17,0,0,0-2.4-1.87,4.57,4.57,0,0,0-4.43,3v10.9a2,2,0,0,0,1.73,1.72l2.13.26v1.06Z"/></g></svg>