<svg id="Capa_1" data-name="Capa 1" xmlns="http://www.w3.org/2000/svg" viewBox="0 0 400 300"><defs><style>.cls-1{fill:#b52c1e;}.cls-2{fill:#454343;}.cls-3{fill:#721b3a;}</style></defs><title>supervielle</title><g id="_Grupo_" data-name="&lt;Grupo&gt;"><path id="_Trazado_" data-name="&lt;Trazado&gt;" class="cls-1" d="M270.81,91.11a95.68,95.68,0,0,1-2.94,74.36c-.17.41.35.77.91.41,17.57-11.51,32.89-33.57,37.93-51.6a145.26,145.26,0,0,1-34.38-24.15.91.91,0,0,0-1.52,1"/><path id="_Trazado_2" data-name="&lt;Trazado&gt;" class="cls-2" d="M62.83,190.05c-5-1.71-6.46-2.54-6.46-4.67,0-1.95,2.11-3.41,4.9-3.41a18.31,18.31,0,0,1,8.43,2.36.33.33,0,0,0,.16,0,.32.32,0,0,0,.18,0,.42.42,0,0,0,.21-.29l.81-5.2a.4.4,0,0,0-.22-.4,23.38,23.38,0,0,0-9.39-1.92c-6.5,0-11.05,3.93-11.05,9.55,0,5.16,3.47,7.32,10.3,9.71,4.53,1.54,6,2.46,6,4.86s-2.27,4-5.83,4a24.23,24.23,0,0,1-10.18-2.78.33.33,0,0,0-.18,0,.31.31,0,0,0-.17,0,.36.36,0,0,0-.2.28l-.83,5.09a.39.39,0,0,0,.23.4A29.47,29.47,0,0,0,60.63,210c7.22,0,12.06-4,12.06-10,0-5.43-3.46-7.67-9.86-9.9"/><path id="_Trazado_3" data-name="&lt;Trazado&gt;" class="cls-2" d="M105.31,177H99.6a.37.37,0,0,0-.38.37v19.35c0,5.18-2.43,7.92-7,7.92s-7-2.86-7-8V177.33a.37.37,0,0,0-.38-.37H79.18a.37.37,0,0,0-.37.37V196.8c0,8.39,5,13.39,13.31,13.39,8.5,0,13.57-5.11,13.57-13.64V177.33a.37.37,0,0,0-.38-.37"/><path id="_Trazado_compuesto_" data-name="&lt;Trazado compuesto&gt;" class="cls-2" d="M124.39,191.92h-3.64v-9.44h3.77c2.76,0,6,.83,6,4.71,0,3.18-2,4.73-6.16,4.73m.7-15H114.72a.35.35,0,0,0-.36.37v31.85a.36.36,0,0,0,.36.38h5.66a.38.38,0,0,0,.37-.38V197.36h3.64c7.91,0,12.43-3.74,12.43-10.29,0-6.24-4.49-10.11-11.73-10.11"/><path id="_Trazado_4" data-name="&lt;Trazado&gt;" class="cls-2" d="M163.71,203.85H149.52v-8.37h11.74a.38.38,0,0,0,.28-.12.36.36,0,0,0,.09-.31l-.81-5a.39.39,0,0,0-.38-.32H149.52v-7.1h13.75a.37.37,0,0,0,.38-.38v-5a.37.37,0,0,0-.38-.37H143.48a.37.37,0,0,0-.37.37v31.85a.38.38,0,0,0,.37.38h20.23a.37.37,0,0,0,.37-.38v-5a.37.37,0,0,0-.37-.37"/><path id="_Trazado_compuesto_2" data-name="&lt;Trazado compuesto&gt;" class="cls-2" d="M187.2,187.19c0,3.16-2.15,4.9-6,4.9H177.4v-9.48h3.77c2.76,0,6,.8,6,4.58m0,9.17a9.37,9.37,0,0,0,6.43-9.22c0-6.38-4.62-10.18-12.36-10.18h-9.87a.36.36,0,0,0-.36.37v31.85a.37.37,0,0,0,.36.38H177a.37.37,0,0,0,.37-.38V197.25h2.9l8.78,12.53a.39.39,0,0,0,.31.15h.07l5.85-1.32a.41.41,0,0,0,.27-.23.38.38,0,0,0-.05-.36Z"/><path id="_Trazado_5" data-name="&lt;Trazado&gt;" class="cls-2" d="M227.85,177h-5.7a.36.36,0,0,0-.36.25l-8.94,23.85-8.78-23.86a.37.37,0,0,0-.35-.26h-6.21a.36.36,0,0,0-.25.18.38.38,0,0,0,0,.31l12.42,31.83a.36.36,0,0,0,.34.23h5.25a.32.32,0,0,0,.33-.23l12.63-31.78a.35.35,0,0,0,0-.36.37.37,0,0,0-.31-.16"/><path id="_Trazado_6" data-name="&lt;Trazado&gt;" class="cls-2" d="M240.2,177h-5.71a.38.38,0,0,0-.39.37v31.85a.39.39,0,0,0,.39.38h5.71a.38.38,0,0,0,.38-.38V177.33a.37.37,0,0,0-.38-.37"/><path id="_Trazado_7" data-name="&lt;Trazado&gt;" class="cls-2" d="M271.55,203.85h-14.2v-8.37H269.1a.45.45,0,0,0,.29-.12.38.38,0,0,0,.07-.31l-.81-5a.37.37,0,0,0-.36-.32H257.35v-7.1H271.1a.37.37,0,0,0,.38-.38v-5a.37.37,0,0,0-.38-.37H251.32a.37.37,0,0,0-.37.37v31.85a.38.38,0,0,0,.37.38h20.23a.38.38,0,0,0,.37-.38v-5a.38.38,0,0,0-.37-.37"/><path id="_Trazado_8" data-name="&lt;Trazado&gt;" class="cls-2" d="M323.27,203.9h-11.7V177.33a.36.36,0,0,0-.36-.37h-5.66a.37.37,0,0,0-.37.37v31.85a.38.38,0,0,0,.37.38h18.54a.37.37,0,0,0,.28-.13.4.4,0,0,0,.08-.31l-.82-4.9a.37.37,0,0,0-.36-.32"/><path id="_Trazado_9" data-name="&lt;Trazado&gt;" class="cls-2" d="M350.3,203.85H336.09v-8.37h11.76a.42.42,0,0,0,.28-.12.44.44,0,0,0,.09-.31l-.83-5a.36.36,0,0,0-.37-.32H336.09v-7.1h13.77a.37.37,0,0,0,.37-.38v-5a.37.37,0,0,0-.37-.37H330.07a.36.36,0,0,0-.37.37v31.85a.37.37,0,0,0,.37.38H350.3a.38.38,0,0,0,.37-.38v-5a.38.38,0,0,0-.37-.37"/><path id="_Trazado_10" data-name="&lt;Trazado&gt;" class="cls-3" d="M350,128.27a147.31,147.31,0,0,1-38-11.45c-5.34,14-15.66,29-26.46,39.36-.59.5-.12,1.38.84.7A171.87,171.87,0,0,1,350,130.06a.92.92,0,0,0,0-1.79"/><path id="_Trazado_11" data-name="&lt;Trazado&gt;" class="cls-2" d="M298.42,203.9H286.74V177.33a.36.36,0,0,0-.37-.37h-5.66a.37.37,0,0,0-.37.37v31.85a.38.38,0,0,0,.37.38h18.54a.34.34,0,0,0,.28-.13.45.45,0,0,0,.09-.31l-.83-4.9a.38.38,0,0,0-.37-.32"/></g></svg>