<svg id="Capa_1" data-name="Capa 1" xmlns="http://www.w3.org/2000/svg" xmlns:xlink="http://www.w3.org/1999/xlink" viewBox="0 0 400 300"><defs><style>.cls-1{fill:#0081c6;}.cls-2,.cls-3,.cls-4,.cls-5{stroke:#0081c6;stroke-width:0.18px;}.cls-2{fill:url(#linear-gradient);}.cls-3{fill:url(#linear-gradient-2);}.cls-4{fill:url(#linear-gradient-3);}.cls-5{fill:url(#linear-gradient-4);}.cls-6{fill:#fefefe;}.cls-7{fill:#fff;}</style><linearGradient id="linear-gradient" x1="75.9" y1="138.68" x2="75.9" y2="147.94" gradientUnits="userSpaceOnUse"><stop offset="0" stop-color="#fff"/><stop offset="0.14" stop-color="#f3f7fb"/><stop offset="0.31" stop-color="#e7f0f8"/><stop offset="0.36" stop-color="#d1e6f3"/><stop offset="0.65" stop-color="#62b0db"/><stop offset="0.85" stop-color="#1b8ecc"/><stop offset="0.94" stop-color="#0081c6"/></linearGradient><linearGradient id="linear-gradient-2" x1="75.9" y1="157.21" x2="75.9" y2="147.94" xlink:href="#linear-gradient"/><linearGradient id="linear-gradient-3" x1="75.9" y1="127.69" x2="75.9" y2="147.94" gradientUnits="userSpaceOnUse"><stop offset="0" stop-color="#fff"/><stop offset="0.19" stop-color="#f7fafd"/><stop offset="0.4" stop-color="#e7f0f8"/><stop offset="0.45" stop-color="#cfe4f3"/><stop offset="0.65" stop-color="#77bae0"/><stop offset="0.82" stop-color="#379bd2"/><stop offset="0.94" stop-color="#0f88c9"/><stop offset="1" stop-color="#0081c6"/></linearGradient><linearGradient id="linear-gradient-4" x1="75.9" y1="116.74" x2="75.9" y2="147.94" xlink:href="#linear-gradient-3"/></defs><title>tucuman</title><g id="_Grupo_" data-name="&lt;Grupo&gt;"><g id="_Grupo_2" data-name="&lt;Grupo&gt;"><rect id="_Trazado_" data-name="&lt;Trazado&gt;" class="cls-1" x="25" y="97.68" width="350" height="104.63" rx="8.41" ry="8.41"/></g></g><g id="_Grupo_3" data-name="&lt;Grupo&gt;"><g id="_Grupo_4" data-name="&lt;Grupo&gt;"><g id="_Grupo_5" data-name="&lt;Grupo&gt;"><path id="_Trazado_2" data-name="&lt;Trazado&gt;" class="cls-2" d="M85.16,147.94a9.27,9.27,0,0,0-18.53,0Z"/><path id="_Trazado_3" data-name="&lt;Trazado&gt;" class="cls-3" d="M85.16,147.94a9.27,9.27,0,1,1-18.53,0Z"/><path id="_Trazado_4" data-name="&lt;Trazado&gt;" class="cls-4" d="M96.15,147.94a20.26,20.26,0,0,0-40.51,0H65a10.95,10.95,0,0,1,21.89,0Z"/><path id="_Trazado_5" data-name="&lt;Trazado&gt;" class="cls-5" d="M107.1,147.94a31.21,31.21,0,0,0-62.41,0H54a21.94,21.94,0,0,1,43.87,0Z"/></g><g id="_Grupo_6" data-name="&lt;Grupo&gt;"><g id="_Grupo_7" data-name="&lt;Grupo&gt;"><path id="_Trazado_compuesto_" data-name="&lt;Trazado compuesto&gt;" class="cls-6" d="M232.82,136.87h-7.27v20.29h-5.1V136.87h-7.23v-3.82h19.6Z"/><path id="_Trazado_compuesto_2" data-name="&lt;Trazado compuesto&gt;" class="cls-6" d="M243.94,157.16v-1.62a13.76,13.76,0,0,1-6.54,1.9c-2.69,0-5.72-1.21-5.72-5.79V139.08h4.89v11.26c0,1.17.21,3.17,2.48,3.17a9.56,9.56,0,0,0,4.44-1.1V139.08h4.9v18.08Z"/><path id="_Trazado_compuesto_3" data-name="&lt;Trazado compuesto&gt;" class="cls-6" d="M261.2,157.54c-6,0-10.3-3.24-10.3-9.75,0-5.89,4.61-9.09,10.09-9.09a24.26,24.26,0,0,1,5.24.52v3.23a29.5,29.5,0,0,0-3.34-.24c-4.58,0-6.86,1.45-6.86,5.83s2.28,5.92,6.86,5.92a21.14,21.14,0,0,0,3.48-.28V157A20.46,20.46,0,0,1,261.2,157.54Z"/><path id="_Trazado_compuesto_4" data-name="&lt;Trazado compuesto&gt;" class="cls-6" d="M280.83,157.16v-1.62a13.72,13.72,0,0,1-6.54,1.9c-2.69,0-5.72-1.21-5.72-5.79V139.08h4.89v11.26c0,1.17.21,3.17,2.48,3.17a9.58,9.58,0,0,0,4.45-1.1V139.08h4.89v18.08Z"/><path id="_Trazado_compuesto_5" data-name="&lt;Trazado compuesto&gt;" class="cls-6" d="M310.87,157.16V145.38a2.34,2.34,0,0,0-2.58-2.65,9,9,0,0,0-3.55.69v13.74h-4.89V145.38a2.33,2.33,0,0,0-2.58-2.65,8.14,8.14,0,0,0-3.28.69v13.74H289.1V139.08h4.41v1.62c1.65-.86,3.65-1.9,5.69-1.9a5.57,5.57,0,0,1,4.3,1.86,16.48,16.48,0,0,1,6.34-1.89c2.69,0,5.93,1.27,5.93,5.68v12.71Z"/><path id="_Trazado_compuesto_6" data-name="&lt;Trazado compuesto&gt;" class="cls-6" d="M326.37,157.54c-4.37-.07-8.33-.83-8.33-5.85,0-5.72,6.68-5.48,11.78-5.48,0-2.83,0-4.1-4.48-4.1a31.42,31.42,0,0,0-6.1.65v-3.41a36.1,36.1,0,0,1,6.38-.65c4.3,0,9.06.45,9.06,6v12.36A57.88,57.88,0,0,1,326.37,157.54Zm3.45-8.2c-.62,0-2.31,0-2.83,0-2,0-3.82.14-3.82,2.55s1.79,2.55,3.82,2.55a18.56,18.56,0,0,0,2.83-.21Zm-3.31-14h-3.1l3.24-5H332Z"/><path id="_Trazado_compuesto_7" data-name="&lt;Trazado compuesto&gt;" class="cls-6" d="M350.42,157.16V145.38a2.29,2.29,0,0,0-2.59-2.65,13.87,13.87,0,0,0-4.51,1v13.4h-4.89V139.08h4.41v1.62a17.58,17.58,0,0,1,6.92-1.9,5.24,5.24,0,0,1,5.55,5.65v12.71Z"/></g><g id="_Grupo_8" data-name="&lt;Grupo&gt;"><path id="_Trazado_compuesto_8" data-name="&lt;Trazado compuesto&gt;" class="cls-7" d="M125.32,157.16h-7.77V133.62h7.6c5.92,0,7.67,2.36,7.67,5.59,0,3.73-2.12,4.91-4.74,5.61v.37c2.72.54,5.44,1.58,5.44,5.79C133.52,154.68,131.37,157.16,125.32,157.16Zm-1.18-21.48h-3.9v8.4H124c2.62,0,6-.74,6-4.57S126.19,135.68,124.14,135.68Zm.17,10.45h-4.07v9h4.27c3.23,0,6.16-.6,6.16-4.44S127.4,146.13,124.31,146.13Z"/><path id="_Trazado_compuesto_9" data-name="&lt;Trazado compuesto&gt;" class="cls-7" d="M143.45,157.53c-4.54,0-7.4-1-7.4-5.64,0-5.25,5-5.35,8.88-5.35.87,0,1.91.1,3.26.1,0-4.54,0-5.58-5.49-5.58a36,36,0,0,0-5.44.6v-1.95a29.58,29.58,0,0,1,5.81-.57c4.91,0,7.71.67,7.71,5.68v12.34A60.76,60.76,0,0,1,143.45,157.53Zm4.77-9.08c-1.65,0-2.83-.1-3.36-.1-3.5,0-6.09.54-6.09,3.67,0,3.46,3.16,3.77,5.78,3.77,1,0,1.65-.07,3.67-.24Z"/><path id="_Trazado_compuesto_10" data-name="&lt;Trazado compuesto&gt;" class="cls-7" d="M167.56,157.16V145.8c0-1.89,0-4.47-3.47-4.47-1.88,0-4.67,1.14-6.12,1.81v14h-2.55V139.51h2.32v1.88c3.93-1.81,5.08-2.25,7.53-2.25s4.91,1.41,4.91,5.21v12.81Z"/><path id="_Trazado_compuesto_11" data-name="&lt;Trazado compuesto&gt;" class="cls-7" d="M183.16,157.53c-5.55,0-9.32-3.16-9.32-9.55,0-5.68,4-8.84,9.12-8.84a19.22,19.22,0,0,1,4.2.37v2a18.24,18.24,0,0,0-3.06-.34c-4.14,0-7.46,1.92-7.46,6.93s2.92,7.53,7.49,7.47a17.55,17.55,0,0,0,3.2-.31v1.92A19.46,19.46,0,0,1,183.16,157.53Z"/><path id="_Trazado_compuesto_12" data-name="&lt;Trazado compuesto&gt;" class="cls-7" d="M197.55,157.6c-5.45,0-8.54-3.83-8.54-9.38s3.13-9.15,8.54-9.15,8.51,3.47,8.51,9.15C206.06,153.73,202.5,157.6,197.55,157.6Zm0-16.68c-3.76,0-5.72,2.86-5.72,7.3s1.89,7.53,5.72,7.53,5.68-3.09,5.68-7.53S201.32,140.92,197.55,140.92Z"/></g></g></g><g id="_Grupo_9" data-name="&lt;Grupo&gt;"><path id="_Trazado_compuesto_13" data-name="&lt;Trazado compuesto&gt;" class="cls-7" d="M121.83,183.17c-2.62,0-4.89-1.25-4.89-4.95,0-3.13,2-5,5.13-5a13.43,13.43,0,0,1,2.43.2v1a12.63,12.63,0,0,0-2.29-.19,3.61,3.61,0,0,0-3.91,3.92c0,2.46,1.48,3.94,3.63,3.94a6.2,6.2,0,0,0,1.36-.12v-3.69h1.33v4.59A13.71,13.71,0,0,1,121.83,183.17Z"/><path id="_Trazado_compuesto_14" data-name="&lt;Trazado compuesto&gt;" class="cls-7" d="M132.68,183l-2.53-3.85h-1.73V183h-1.31v-9.62h3.16c2.12,0,3.32,1,3.32,2.87a2.67,2.67,0,0,1-2,2.63l0,.11,2.74,4ZM130,174.41h-1.55v3.76h1.36c1.35,0,2.47-.36,2.47-1.89S131.21,174.41,130,174.41Z"/><path id="_Trazado_compuesto_15" data-name="&lt;Trazado compuesto&gt;" class="cls-7" d="M139.18,183.17c-2.81,0-3.58-1.52-3.58-3.21v-6.55h1.32v6.42a2.33,2.33,0,1,0,4.65,0v-6.42h1.24V180C142.81,181.9,141.76,183.17,139.18,183.17Z"/><path id="_Trazado_compuesto_16" data-name="&lt;Trazado compuesto&gt;" class="cls-7" d="M147.92,179.41h-1.64V183H145v-9.62h3c2.89,0,3.55,1.4,3.55,2.92S150.68,179.41,147.92,179.41Zm-.09-5h-1.57v4h1.54c1.21,0,2.3-.32,2.3-2.07S149,174.41,147.83,174.41Z"/><path id="_Trazado_compuesto_17" data-name="&lt;Trazado compuesto&gt;" class="cls-7" d="M157.22,183.24c-2.82,0-4.45-1.92-4.45-5s1.63-5,4.44-5,4.47,1.89,4.47,5S160,183.24,157.22,183.24Zm0-9c-1.62,0-3.08,1.07-3.08,4s1.46,4,3.07,4,3.11-1.05,3.11-4S158.85,174.23,157.22,174.23Z"/><path id="_Trazado_compuesto_18" data-name="&lt;Trazado compuesto&gt;" class="cls-7" d="M182.73,168.57,184,183H181.1l-.7-12.25h-.27L176.84,183h-3.45l-3.16-12.25H170L169.05,183h-2.5l1.29-14.46h4.64l2.71,11h.27l2.81-11Z"/><path id="_Trazado_compuesto_19" data-name="&lt;Trazado compuesto&gt;" class="cls-7" d="M190.43,183.25c-2.62,0-5-.49-5-3.51,0-3.43,4-3.28,7.07-3.28,0-1.7,0-2.46-2.68-2.46a18.94,18.94,0,0,0-3.66.39v-2A20.84,20.84,0,0,1,190,172c2.58,0,5.45.27,5.45,3.62V183A33.88,33.88,0,0,1,190.43,183.25Zm2.07-4.91c-.37,0-1.39,0-1.69,0-1.23,0-2.3.08-2.3,1.52s1.07,1.54,2.3,1.54a11.57,11.57,0,0,0,1.69-.13Z"/><path id="_Trazado_compuesto_20" data-name="&lt;Trazado compuesto&gt;" class="cls-7" d="M203.05,183.25c-3.59,0-6.17-1.94-6.17-5.84,0-3.53,2.77-5.46,6.05-5.46a14.49,14.49,0,0,1,3.14.32v1.93a17.1,17.1,0,0,0-2-.14c-2.75,0-4.12.87-4.12,3.49s1.37,3.56,4.12,3.56a13,13,0,0,0,2.08-.17v2A12.19,12.19,0,0,1,203.05,183.25Z"/><path id="_Trazado_compuesto_21" data-name="&lt;Trazado compuesto&gt;" class="cls-7" d="M211.19,175.2V183h-2.93V172.18h2.6s0,1,0,1a7,7,0,0,1,4.24-1.08v2.39C214,174.49,212.25,174.45,211.19,175.2Z"/><path id="_Trazado_compuesto_22" data-name="&lt;Trazado compuesto&gt;" class="cls-7" d="M221.92,183.25c-3.68,0-5.79-2.29-5.79-5.66s2.13-5.65,5.79-5.65,5.74,2.2,5.74,5.65A5.45,5.45,0,0,1,221.92,183.25Zm0-9.27c-2.06,0-2.72,1.26-2.72,3.66s.66,3.63,2.72,3.63,2.71-1.26,2.71-3.63S223.94,174,221.89,174Z"/></g></g></svg>