<svg id="Capa_1" data-name="Capa 1" xmlns="http://www.w3.org/2000/svg" viewBox="0 0 400 400"><defs><style>.cls-1,.cls-2,.cls-3{fill:#6ba0d4;stroke-miterlimit:10;stroke-width:0.28px;}.cls-1{stroke:#6b9fd3;}.cls-2{stroke:#6c9ed3;}.cls-3{stroke:#6c9ed2;}</style></defs><title>afip</title><g id="_Grupo_" data-name="&lt;Grupo&gt;"><g id="_Grupo_2" data-name="&lt;Grupo&gt;"><path id="_Trazado_compuesto_" data-name="&lt;Trazado compuesto&gt;" class="cls-1" d="M107.59,180.67,97.23,156.91A6.57,6.57,0,0,0,91.56,153H72.33a6.7,6.7,0,0,0-6.18,4.24l-37.82,83a5.15,5.15,0,0,0,.2,4.81,4.5,4.5,0,0,0,3.95,2H76.87a6.07,6.07,0,0,0,5.77-3.45l5.26-11.87,29.87,0h.35a7.8,7.8,0,0,0,6.23-3.38c1.68-2.39,2-5.5.77-8.82Zm13.27,42.72a3.21,3.21,0,0,1-.57,1.94,2.87,2.87,0,0,1-2.29,1.26H90.17l16.21-36.47,7.77,17.22c3.89,8.61,6.28,13.9,6.31,14A6.27,6.27,0,0,1,120.86,223.39ZM78.07,241.48c-.18.43-1,.45-1.2.45H33L70.64,159.4a1.59,1.59,0,0,1,1.69-1.05H91.56a1.28,1.28,0,0,1,1.15.71l10.34,23.71.21.48a2,2,0,0,1,.2.77,2.24,2.24,0,0,1-.24.88l-.06.13c-1,2.22-17.79,40-23.31,52.47Z"/><path id="_Trazado_compuesto_2" data-name="&lt;Trazado compuesto&gt;" class="cls-2" d="M266.68,153H230.13a6.66,6.66,0,0,0-4.79,2.19,8,8,0,0,0-1.9,5.43v62.9c0,3.75,2.57,7.76,6.42,7.76h36.35a7.29,7.29,0,0,0,6.91-7.61l0-62.78A8.18,8.18,0,0,0,271,155,6.06,6.06,0,0,0,266.68,153Zm0,5.25a1,1,0,0,1,.78.34,3.39,3.39,0,0,1,.67,2.3l0,62.77a2.28,2.28,0,0,1-1.93,2.53H229.86c-.5,0-1.44-1.1-1.44-2.67V160.8a3.14,3.14,0,0,1,.54-2.14,1.6,1.6,0,0,1,1.2-.4Z"/><path id="_Trazado_compuesto_3" data-name="&lt;Trazado compuesto&gt;" class="cls-3" d="M371,156.63A7.55,7.55,0,0,0,364.8,153h-77c-5.6,0-8.16,4.28-8.16,8.27v62.22a8.36,8.36,0,0,0,2.16,5.8,6.44,6.44,0,0,0,4.75,2H321.9a7.65,7.65,0,0,0,7.46-7.6v-13.9l13.9,0c2.47,0,8.5-.66,11.27-6.77l16.71-37.85A9.23,9.23,0,0,0,371,156.63Zm-3.86,4.21a5.35,5.35,0,0,1-.49,2.14L350,200.81c-1.48,3.3-4.87,3.79-6.75,3.79l-13.89,0,0-46.47h35.29a2.75,2.75,0,0,1,2.11,1.12A3.22,3.22,0,0,1,367.18,160.84Zm-42.8,62.79a2.72,2.72,0,0,1-2.48,2.49H286.61a1.57,1.57,0,0,1-1.24-.46,3.25,3.25,0,0,1-.72-2.2V161.24c0-1.15.41-3.07,3.18-3.07h5.85l28.32,0h.13l.36,0h1.91Z"/><path id="_Trazado_compuesto_4" data-name="&lt;Trazado compuesto&gt;" class="cls-2" d="M211.27,153H140.34c-4.77,0-7.84,3-7.84,7.68v63.54c0,4,2.82,7.18,6.42,7.18h36.36a7.29,7.29,0,0,0,6.91-7.61V209.61h6.15c2.18,0,4,.1,5.46-.52a4.91,4.91,0,0,0,2.31-2.45l6.81-15.45c.11-.29.34-.76.63-1.36s.77-1.59,1.22-2.61l1.17-2.61,1.31-2.93c.46-1,.91-2.07,1.42-3.12.21-.47.43-1,.64-1.46s.55-1.26.84-1.84l6.29-14.09a5.89,5.89,0,0,0-.37-5.49A5.71,5.71,0,0,0,211.27,153Zm.28,5.94a.91.91,0,0,1-.05.33l-7,15.45c-1.73,4.11-1.88,4.11-5.81,4.11H182.21l0-20.62h28.65a.58.58,0,0,1,.57.3A.74.74,0,0,1,211.55,158.91Zm-22.65,45.7h-6.7v-20.8H199a.82.82,0,0,1,.68.4,1,1,0,0,1,.16.58,1.68,1.68,0,0,1-.12.63l-.11.27c-1.38,3.44-4.84,11.94-7.1,16.57C191.35,204.61,191.35,204.61,188.9,204.61Zm-51.4-44c0-1.93.72-2.59,2.84-2.59l11.58,0,23.56.09h1.74v65.58a2.25,2.25,0,0,1-1.93,2.49H138.92c-.81,0-1.42-.88-1.42-2.06Z"/></g></g></svg>