<?xml version="1.0" encoding="utf-8"?>
<!-- Generator: Adobe Illustrator 21.1.0, SVG Export Plug-In . SVG Version: 6.00 Build 0)  -->
<svg version="1.1" id="Layer_1" xmlns="http://www.w3.org/2000/svg" xmlns:xlink="http://www.w3.org/1999/xlink" x="0px" y="0px"
	 viewBox="0 0 512.8 512.8" style="enable-background:new 0 0 512.8 512.8;" xml:space="preserve">
<style type="text/css">
	.st0{fill:#F0F3F4;}
	.st1{fill:#00A1DF;}
	.st2{fill:#414042;}
	.st3{fill:#FF9D5A;}
</style>
<path class="st0" d="M440.9,430.3L389,378.4c-2.7-2.7-2.7-7.1,0-9.8l2.4-2.4c2.7-2.7,7.1-2.7,9.8,0l51.9,51.9c2.7,2.7,2.7,7.1,0,9.8
	l-2.4,2.4C447.9,433,443.5,433,440.9,430.3z"/>
<circle class="st0" cx="329.1" cy="306.1" r="66.2"/>
<path class="st0" d="M447.1,302.9H69.8c-5.4,0-9.8-4.4-9.8-9.8v-87.8c0-5.4,4.4-9.8,9.8-9.8h377.4c5.4,0,9.8,4.4,9.8,9.8v87.8
	C456.9,298.5,452.5,302.9,447.1,302.9z"/>
<g>
	<g>
		<path class="st1" d="M430.8,315.1c18.9,0,34.2-15.3,34.2-34.2v-67.7c0-18.9-15.3-34.2-34.2-34.2H82c-18.9,0-34.2,15.3-34.2,34.2
			v67.7c0,18.9,15.3,34.2,34.2,34.2h173.2c4.3,36.9,35.9,65.6,73.9,65.6c17.5,0,33.7-6.1,46.4-16.3l7.5,7.5l-4,4
			c-3.3,3.3-3.3,8.5,0,11.7l47.2,47.2c4.2,4.2,9.8,6.5,15.7,6.5s11.5-2.3,15.7-6.5c8.6-8.6,8.6-22.7,0-31.5l-47.2-47.2
			c-3.3-3.3-8.5-3.3-11.7,0l-4,4l-7.5-7.5c8.5-10.6,14.1-23.5,15.7-37.6L430.8,315.1L430.8,315.1z M404.6,373.9l41.3,41.3
			c2.2,2.2,2.2,5.7,0,7.9c-1.1,1.1-2.4,1.6-4,1.6c-1.5,0-2.9-0.6-4-1.6l-41.3-41.3L404.6,373.9z M329.1,364.1
			c-31.9,0-57.8-25.9-57.8-57.8s25.9-57.8,57.8-57.8s57.8,25.9,57.8,57.8S360.9,364.1,329.1,364.1z M329.1,231.9
			c-38.4,0-70.1,29.2-74,66.6H82c-9.7,0-17.6-7.9-17.6-17.6v-67.7c0-9.7,7.9-17.6,17.6-17.6h348.8c9.7,0,17.6,7.9,17.6,17.6v67.7
			c0,9.7-7.9,17.6-17.6,17.6H403C399.1,261.1,367.4,231.9,329.1,231.9z"/>
	</g>
</g>
<g>
	<g>
		<path class="st2" d="M194.9,239.1H97.1c-4.6,0-8.3,3.7-8.3,8.3c0,4.6,3.7,8.3,8.3,8.3h97.9c4.6,0,8.3-3.7,8.3-8.3
			C203.2,242.8,199.5,239.1,194.9,239.1z"/>
	</g>
</g>
<g>
	<g>
		<path class="st2" d="M232.6,239.1h-5.9c-4.6,0-8.3,3.7-8.3,8.3c0,4.6,3.7,8.3,8.3,8.3h5.9c4.6,0,8.3-3.7,8.3-8.3
			C240.9,242.8,237.1,239.1,232.6,239.1z"/>
	</g>
</g>
<g>
	<g>
		<path class="st3" d="M208.6,92.7l-3.4,1.4l-1.4-3.4c-0.7-1.9-2.9-2.8-4.8-2c-1.9,0.7-2.8,2.9-2,4.8l1.4,3.4l-3.4,1.4
			c-1.9,0.7-2.8,2.9-2,4.8s2.9,2.8,4.8,2l3.4-1.4l1.4,3.4c0.7,1.9,2.9,2.8,4.8,2c1.9-0.7,2.8-2.9,2-4.8l-1.4-3.4l3.4-1.4
			c1.9-0.7,2.8-2.9,2-4.8C212.6,92.8,210.5,92,208.6,92.7z"/>
	</g>
</g>
<g>
	<g>
		<path class="st3" d="M244.4,143.1l-2.3,0.9l-0.9-2.3c-0.5-1.2-2-1.9-3.2-1.3s-1.9,2-1.3,3.2l0.9,2.3l-2.3,0.9
			c-1.2,0.5-1.9,2-1.3,3.2c0.5,1.2,2,1.9,3.2,1.3l2.3-0.9l0.9,2.3c0.5,1.2,2,1.9,3.2,1.3c1.2-0.5,1.9-2,1.3-3.2l-0.9-2.3l2.3-0.9
			c1.2-0.5,1.9-2,1.3-3.2C247.1,143.2,245.7,142.5,244.4,143.1z"/>
	</g>
</g>
<g>
	<g>
		<path class="st3" d="M115.2,133.5l-2.3,0.9l-0.9-2.3c-0.5-1.2-2-1.9-3.2-1.3c-1.2,0.5-1.9,2-1.3,3.2l0.9,2.3l-2.3,0.9
			c-1.2,0.5-1.9,2-1.3,3.2c0.5,1.2,2,1.9,3.2,1.3l2.3-0.9l0.9,2.3c0.5,1.2,2,1.9,3.2,1.3c1.2-0.5,1.9-2,1.3-3.2l-0.9-2.3l2.3-0.9
			c1.2-0.5,1.9-2,1.3-3.2C117.8,133.6,116.4,133,115.2,133.5z"/>
	</g>
</g>
<g>
	<g>
		<path class="st3" d="M165.5,127.1c-2,0.8-2.9,3.1-2.1,5.1c0.8,2,3.1,2.9,5.1,2.1c2-0.8,2.9-3.1,2.1-5.1
			C169.7,127.2,167.5,126.3,165.5,127.1z"/>
	</g>
</g>
<g>
	<g>
		<path class="st3" d="M135,84.9c-2,0.8-2.9,3.1-2.1,5.1c0.8,2,3.1,2.9,5.1,2.1c2-0.8,2.9-3.1,2.1-5.1
			C139.3,85.1,137.1,84.1,135,84.9z"/>
	</g>
</g>
</svg>
