<?xml version="1.0" encoding="utf-8"?>
<!-- Generator: Adobe Illustrator 21.1.0, SVG Export Plug-In . SVG Version: 6.00 Build 0)  -->
<svg version="1.1" id="Layer_1" xmlns="http://www.w3.org/2000/svg" xmlns:xlink="http://www.w3.org/1999/xlink" x="0px" y="0px"
	 viewBox="0 0 512 512" style="enable-background:new 0 0 512 512;" xml:space="preserve">
<style type="text/css">
	.st0{fill:#EFF3F4;}
	.st1{fill:#F79B5F;}
	.st2{fill:#18A0DA;}
	.st3{fill:#414042;}
	.st4{fill:#FF9D5A;}
</style>
<g>
	<polygon class="st0" points="367,101.2 116.1,101.2 116.1,400.4 109.9,402.8 116.1,418.3 116.1,425.3 118.8,425.3 122.9,435.4 
		148.3,425.3 155.7,425.3 184.3,448.6 203.4,425.3 219.6,425.3 247.4,448.1 266.1,425.3 367,425.3 	"/>
	<circle class="st0" cx="380.8" cy="404.6" r="56"/>
	<g>
		<g>
			<g>
				<path class="st1" d="M380.8,341.4c-34.7,0-63,28.3-63,63s28.3,63,63,63s63-28.3,63-63S415.6,341.4,380.8,341.4z M380.8,453.4
					c-27,0-49-22-49-49s22-49,49-49s49,22,49,49S407.9,453.4,380.8,453.4z"/>
			</g>
		</g>
		<g>
			<g>
				<path class="st1" d="M413.3,378c-3-2.5-7.4-2.1-9.9,0.9L373.3,415l-15.6-15.6c-2.7-2.7-7.2-2.7-9.9,0c-2.7,2.7-2.7,7.2,0,9.9
					l21,21c1.3,1.3,3.1,2.1,4.9,2.1c0.1,0,0.2,0,0.3,0c2-0.1,3.8-1,5.1-2.5l35-42C416.7,384.9,416.3,380.5,413.3,378z"/>
			</g>
		</g>
		<g>
			<g>
				<path class="st2" d="M366.8,90H114.9c-3.9,0-7,3.1-7,7v349.9c0,2.5,1.4,4.8,3.6,6.1c2.2,1.2,4.9,1.2,7-0.1l31-18.6l24.2,18.2
					c2.3,1.7,5.4,1.9,7.8,0.4l31-18.6l24.2,18.2c1.2,0.9,2.7,1.4,4.2,1.4c1.2,0,2.5-0.3,3.6-1l35-21c3.3-2,4.4-6.3,2.4-9.6
					c-2-3.3-6.3-4.4-9.6-2.4l-31,18.6l-24.2-18.2c-2.3-1.7-5.4-1.9-7.8-0.4l-31,18.6l-24.2-18.2c-2.3-1.7-5.4-1.9-7.8-0.4
					l-24.4,14.6V104h237.9v216.9c0,3.9,3.1,7,7,7s7-3.1,7-7V97C373.8,93.1,370.7,90,366.8,90z"/>
			</g>
		</g>
		<g>
			<g>
				<g>
					<path class="st2" d="M317.9,201.4h-35c-3.9,0-7,3.1-7,7s3.1,7,7,7h35c3.9,0,7-3.1,7-7S321.7,201.4,317.9,201.4z"/>
				</g>
			</g>
			<g>
				<g>
					<path class="st2" d="M317.9,169h-35c-3.9,0-7,3.1-7,7s3.1,7,7,7h35c3.9,0,7-3.1,7-7S321.7,169,317.9,169z"/>
				</g>
			</g>
			<g>
				<g>
					<path class="st2" d="M317.9,236.4h-35c-3.9,0-7,3.1-7,7s3.1,7,7,7h35c3.9,0,7-3.1,7-7S321.7,236.4,317.9,236.4z"/>
				</g>
			</g>
			<g>
				<g>
					<path class="st2" d="M317.9,271.4h-35c-3.9,0-7,3.1-7,7s3.1,7,7,7h35c3.9,0,7-3.1,7-7S321.7,271.4,317.9,271.4z"/>
				</g>
			</g>
			<g>
				<g>
					<path class="st2" d="M317.9,306.4h-35c-3.9,0-7,3.1-7,7s3.1,7,7,7h35c3.9,0,7-3.1,7-7S321.7,306.4,317.9,306.4z"/>
				</g>
			</g>
			<g>
				<g>
					<path class="st2" d="M317.9,341.4h-35c-3.9,0-7,3.1-7,7s3.1,7,7,7h35c3.9,0,7-3.1,7-7C324.9,344.5,321.7,341.4,317.9,341.4z"/>
				</g>
			</g>
			<g>
				<g>
					<path class="st2" d="M247.9,306.4h-98c-3.9,0-7,3.1-7,7s3.1,7,7,7h98c3.9,0,7-3.1,7-7S251.7,306.4,247.9,306.4z"/>
				</g>
			</g>
			<g>
				<g>
					<path class="st2" d="M247.9,271.4h-98c-3.9,0-7,3.1-7,7s3.1,7,7,7h98c3.9,0,7-3.1,7-7S251.7,271.4,247.9,271.4z"/>
				</g>
			</g>
			<g>
				<g>
					<path class="st2" d="M247.9,341.4h-98c-3.9,0-7,3.1-7,7s3.1,7,7,7h98c3.9,0,7-3.1,7-7C254.9,344.5,251.7,341.4,247.9,341.4z"/>
				</g>
			</g>
			<g id="XMLID_878_">
				<path id="XMLID_881_" class="st3" d="M224.3,215.4c0,9.5-6.7,16.1-17,18.3c-1.8,0.4-3.1,2-3.1,3.8v6c0,2.2-1.8,3.9-3.9,3.9h-0.4
					c-2.2,0-3.9-1.8-3.9-3.9v-5.8c0-1.9-1.4-3.5-3.2-3.9c-6.6-1.1-12.8-3.9-17.7-7.7c-1.5-1.2-2-3.2-1.2-4.9l1.2-2.5
					c1.1-2.1,3.8-2.9,5.8-1.5c6,4.4,12.9,6.7,18.8,6.7c7.7,0,12.4-2.9,12.4-8c0-14.7-35.6-6.5-35.6-30c0-9.2,6.4-15.6,16.5-17.6
					c1.8-0.4,3.1-2,3.1-3.8v-5.1c0-2.2,1.7-3.9,3.9-3.9h0.4c2.2,0,4,1.7,4,3.9v4.9c0,1.9,1.4,3.5,3.2,3.9c4.6,0.8,9,2.3,12.8,4.3
					c1.8,1,2.6,3.2,1.7,5.1l-1.3,2.8c-0.9,2-3.3,2.8-5.3,1.8c-5.9-2.9-11.6-4.2-15.8-4.2c-6.5,0-10.7,2.5-10.7,6.9
					C188.8,199.3,224.4,191.6,224.3,215.4z"/>
			</g>
		</g>
	</g>
	<g>
		<g>
			<g>
				<path class="st4" d="M147.7,57l-2.7-2.9l2.9-2.7c1.6-1.5,1.7-4,0.2-5.6s-4-1.7-5.6-0.2l-2.9,2.7l-2.7-2.9
					c-1.5-1.6-4-1.7-5.6-0.2c-1.6,1.5-1.7,4-0.2,5.6l2.7,2.9l-2.9,2.7c-1.6,1.5-1.7,4-0.2,5.6s4,1.7,5.6,0.2l2.9-2.7l2.7,2.9
					c1.5,1.6,4,1.7,5.6,0.2C149,61.1,149.1,58.6,147.7,57z"/>
			</g>
		</g>
		<g>
			<g>
				<path class="st4" d="M209.7,50.6l-1.8-1.9l1.9-1.8c1.1-1,1.1-2.6,0.2-3.7s-2.6-1.1-3.7-0.2l-1.9,1.8l-1.8-1.9
					c-1-1.1-2.6-1.1-3.7-0.2c-1.1,1-1.1,2.6-0.2,3.7l1.8,1.9l-1.9,1.8c-1.1,1-1.1,2.6-0.2,3.7s2.6,1.1,3.7,0.2l1.9-1.8l1.8,1.9
					c1,1.1,2.6,1.1,3.7,0.2C210.6,53.3,210.7,51.7,209.7,50.6z"/>
			</g>
		</g>
		<g>
			<g>
				<path class="st4" d="M266.2,46.4c-1.6-1.7-4.2-1.8-5.9-0.3s-1.8,4.2-0.3,5.9c1.6,1.7,4.2,1.8,5.9,0.3
					C267.6,50.7,267.7,48.1,266.2,46.4z"/>
			</g>
		</g>
	</g>
</g>
</svg>
