<?xml version="1.0" encoding="utf-8"?>
<!-- Generator: Adobe Illustrator 21.1.0, SVG Export Plug-In . SVG Version: 6.00 Build 0)  -->
<svg version="1.1" id="Capa_1" xmlns="http://www.w3.org/2000/svg" xmlns:xlink="http://www.w3.org/1999/xlink" x="0px" y="0px"
	 viewBox="0 0 512.7 512.7" style="enable-background:new 0 0 512.7 512.7;" xml:space="preserve">
<style type="text/css">
	.st0{fill:#F0F3F4;}
	.st1{fill:#00A1DF;}
	.st2{fill:#FF9D5A;}
	.st3{fill:#414042;}
</style>
<g>
	<path class="st0" d="M430.6,396.5H180.3c-7.6,0-13.9-6.2-13.9-13.9V201.4c0-7.6,6.2-13.9,13.9-13.9h250.4c7.6,0,13.9,6.2,13.9,13.9
		v181.2C444.4,390.2,438.2,396.5,430.6,396.5z"/>
	<path class="st0" d="M452.9,327.4H285.2c-3.6,0-6.5-3-6.5-6.5v-58.6c0-3.6,3-6.5,6.5-6.5h167.7c3.6,0,6.5,3,6.5,6.5v58.6
		C459.5,324.5,456.5,327.4,452.9,327.4z"/>
	<path class="st0" d="M430.1,218.8l-173.4,101c-4.8,2.8-11,1.2-13.9-3.7l-58.7-100.8c-2.8-4.8-1.2-11,3.7-13.9l173.3-101
		c4.8-2.8,11-1.2,13.9,3.7L433.8,205C436.5,209.8,434.9,216,430.1,218.8z"/>
	<g>
		<g>
			<g>
				<path class="st1" d="M453.2,252.8v-43.4c0-14.7-11.4-26.7-25.8-27.8l-40.3-70.3c-3.7-6.5-9.7-11.2-17-13.1
					c-7.2-1.9-14.7-0.9-21.1,2.8l-138,80.4h-24.3c-15.4,0-28.1,12.6-28.1,28.1v168.3c0,15.4,12.6,28.1,28.1,28.1h238.4
					c15.4,0,28.1-12.6,28.1-28.1v-43.4c8.2-2.9,14-10.6,14-19.7v-42.1C467.2,263.4,461.4,255.7,453.2,252.8z M411.1,181.4H350
					l45.8-26.7L411.1,181.4z M388.9,142.5l-66.7,38.8h-27.7l87.5-50.9L388.9,142.5z M356.1,113.2c3.2-1.8,6.9-2.4,10.4-1.4
					c3.5,1,6.6,3.3,8.4,6.5l0,0l-108.4,63.1h-27.7L356.1,113.2z M439.2,377.7c0,7.8-6.3,14-14,14H186.8c-7.8,0-14-6.3-14-14V209.5
					c0-7.8,6.3-14,14-14h238.4c7.8,0,14,6.3,14,14v42.1h-42.1c-23.2,0-42.1,18.9-42.1,42.1s18.9,42.1,42.1,42.1h42.1V377.7
					L439.2,377.7z M453.2,314.6c0,3.9-3.2,7-7,7h-49.1c-15.4,0-28.1-12.6-28.1-28.1c0-15.4,12.6-28.1,28.1-28.1h49.1
					c3.9,0,7,3.2,7,7L453.2,314.6L453.2,314.6z"/>
				<path class="st1" d="M397.1,279.6c-7.8,0-14,6.3-14,14s6.3,14,14,14s14-6.3,14-14C411.2,285.8,404.9,279.6,397.1,279.6z"/>
			</g>
		</g>
	</g>
	<path class="st2" d="M50.4,212.8h19.7c2.7,0,4.9-2.2,4.9-4.9c0-2.7-2.2-4.9-4.9-4.9H50.4c-2.7,0-4.9,2.2-4.9,4.9
		C45.4,210.6,47.7,212.8,50.4,212.8z"/>
	<path class="st2" d="M125.2,202.9H89.8c-2.7,0-4.9,2.2-4.9,4.9c0,2.7,2.2,4.9,4.9,4.9h35.4c2.7,0,4.9-2.2,4.9-4.9
		C130.1,205.2,127.9,202.9,125.2,202.9z"/>
	<path class="st2" d="M125.2,237.3H70.1c-2.7,0-4.9,2.2-4.9,4.9c0,2.7,2.2,4.9,4.9,4.9h55.1c2.7,0,4.9-2.2,4.9-4.9
		C130.1,239.5,127.9,237.3,125.2,237.3z"/>
	<path class="st2" d="M50.4,315.8h35.4c2.7,0,4.9-2.2,4.9-4.9c0-2.7-2.2-4.9-4.9-4.9H50.4c-2.7,0-4.9,2.2-4.9,4.9
		C45.4,313.6,47.7,315.8,50.4,315.8z"/>
	<path class="st2" d="M50.4,281.5h35.4c2.7,0,4.9-2.2,4.9-4.9s-2.2-4.9-4.9-4.9H50.4c-2.7,0-4.9,2.2-4.9,4.9S47.7,281.5,50.4,281.5z
		"/>
	<path class="st2" d="M125.2,271.6h-19.7c-2.7,0-4.9,2.2-4.9,4.9s2.2,4.9,4.9,4.9h19.7c2.7,0,4.9-2.2,4.9-4.9
		S127.9,271.6,125.2,271.6z"/>
	<path class="st2" d="M125.2,374.6H50.4c-2.7,0-4.9,2.2-4.9,4.9c0,2.7,2.2,4.9,4.9,4.9h74.8c2.7,0,4.9-2.2,4.9-4.9
		C130.1,376.9,127.9,374.6,125.2,374.6z"/>
	<path class="st2" d="M125.2,340.3H70.1c-2.7,0-4.9,2.2-4.9,4.9c0,2.7,2.2,4.9,4.9,4.9h55.1c2.7,0,4.9-2.2,4.9-4.9
		C130.1,342.5,127.9,340.3,125.2,340.3z"/>
	<g>
		<g>
			<path class="st3" d="M295.1,266.4c-16.7,0-30.2,13.5-30.2,30.2c0,16.7,13.5,30.2,30.2,30.2c16.7,0,30.2-13.5,30.2-30.2
				C325.3,280,311.8,266.4,295.1,266.4z M295.1,322c-13.9,0-25.3-11.4-25.3-25.3c0-13.9,11.4-25.3,25.3-25.3
				c13.9,0,25.3,11.4,25.3,25.3C320.4,310.6,309,322,295.1,322z"/>
			<path class="st3" d="M309.7,294.2h-12.1v-12.1c0-1.4-1.1-2.5-2.5-2.5c-1.4,0-2.5,1.1-2.5,2.5v12.1h-12.1c-1.4,0-2.5,1.1-2.5,2.5
				s1.1,2.5,2.5,2.5h12.1v12c0,1.4,1.1,2.5,2.5,2.5c1.4,0,2.5-1.1,2.5-2.5v-12.1h12.1c1.4,0,2.5-1.1,2.5-2.5
				C312.2,295.3,311.1,294.2,309.7,294.2z"/>
		</g>
	</g>
	<g>
		<g>
			<path class="st2" d="M206.9,127h-3.5v-3.5c0-1.9-1.6-3.5-3.5-3.5c-1.9,0-3.5,1.6-3.5,3.5v3.5H193c-1.9,0-3.5,1.6-3.5,3.5
				s1.6,3.5,3.5,3.5h3.5v3.5c0,1.9,1.6,3.5,3.5,3.5c1.9,0,3.5-1.6,3.5-3.5v-3.5h3.5c1.9,0,3.5-1.6,3.5-3.5S208.8,127,206.9,127z"/>
		</g>
	</g>
	<g>
		<g>
			<path class="st2" d="M250.6,57.2h-2.4v-2.4c0-1.3-1.1-2.4-2.4-2.4s-2.4,1.1-2.4,2.4v2.4h-2.4c-1.3,0-2.4,1.1-2.4,2.4
				s1.1,2.4,2.4,2.4h2.4v2.4c0,1.3,1.1,2.4,2.4,2.4s2.4-1.1,2.4-2.4v-2.4h2.4c1.3,0,2.4-1.1,2.4-2.4S251.9,57.2,250.6,57.2z"/>
		</g>
	</g>
	<g>
		<g>
			<path class="st2" d="M331.4,71.2h-2.4v-2.4c0-1.3-1.1-2.4-2.4-2.4s-2.4,1.1-2.4,2.4v2.4H322c-1.3,0-2.4,1.1-2.4,2.4
				c0,1.3,1.1,2.4,2.4,2.4h2.4v2.4c0,1.3,1.1,2.4,2.4,2.4s2.4-1.1,2.4-2.4v-2.4h2.4c1.3,0,2.4-1.1,2.4-2.4
				C333.8,72.1,332.7,71.2,331.4,71.2z"/>
		</g>
	</g>
	<g>
		<g>
			<path class="st2" d="M269.2,99c-2,0-3.7,1.6-3.7,3.7c0,2,1.6,3.7,3.7,3.7c2,0,3.7-1.6,3.7-3.7C272.9,100.7,271.2,99,269.2,99z"/>
		</g>
	</g>
	<g>
		<g>
			<path class="st2" d="M189.4,78.4c-2,0-3.7,1.6-3.7,3.7s1.6,3.7,3.7,3.7s3.7-1.6,3.7-3.7S191.4,78.4,189.4,78.4z"/>
		</g>
	</g>
</g>
</svg>
