<?xml version="1.0" encoding="utf-8"?>
<!-- Generator: Adobe Illustrator 22.0.0, SVG Export Plug-In . SVG Version: 6.00 Build 0)  -->
<svg version="1.1" id="Layer_1" xmlns="http://www.w3.org/2000/svg" xmlns:xlink="http://www.w3.org/1999/xlink" x="0px" y="0px"
	 viewBox="0 0 758 758" style="enable-background:new 0 0 758 758;" xml:space="preserve">
<style type="text/css">
	.st0{fill:#F0F3F4;}
	.st1{fill:#FF9D5A;}
	.st2{fill:#00A1DF;}
	.st3{fill:#414042;}
</style>
<path class="st0" d="M485.9,476.3H267.7c-8.8,0-16-7.2-16-16V205.7c0-8.8,7.2-16,16-16h218.2c8.8,0,16,7.2,16,16v254.6
	C501.9,469.1,494.7,476.3,485.9,476.3z"/>
<path class="st0" d="M519.8,540.3H301.6c-8.8,0-16-7.2-16-16V269.7c0-8.8,7.2-16,16-16h218.2c8.8,0,16,7.2,16,16v254.6
	C535.9,533.1,528.6,540.3,519.8,540.3z"/>
<path class="st0" d="M558.6,654.5H241.1c-10.5,0-19.1-8.6-19.1-19.1V363c0-10.5,8.6-19.1,19.1-19.1h317.5c10.5,0,19.1,8.6,19.1,19.1
	v272.4C577.7,645.9,569.1,654.5,558.6,654.5z"/>
<g>
	<g>
		<path class="st1" d="M170.5,255.6h-5.3v-5.3c0-2.9-2.4-5.3-5.3-5.3s-5.3,2.4-5.3,5.3v5.3h-5.3c-2.9,0-5.3,2.4-5.3,5.3
			c0,2.9,2.4,5.3,5.3,5.3h5.3v5.3c0,2.9,2.4,5.3,5.3,5.3s5.3-2.4,5.3-5.3v-5.3h5.3c2.9,0,5.3-2.4,5.3-5.3
			C175.8,258,173.5,255.6,170.5,255.6z"/>
	</g>
</g>
<g>
	<g>
		<path class="st1" d="M447.6,118.1H444v-3.6c0-2-1.6-3.6-3.6-3.6s-3.6,1.6-3.6,3.6v3.6h-3.6c-2,0-3.6,1.6-3.6,3.6s1.6,3.6,3.6,3.6
			h3.6v3.6c0,2,1.6,3.6,3.6,3.6s3.6-1.6,3.6-3.6v-3.6h3.6c2,0,3.6-1.6,3.6-3.6S449.6,118.1,447.6,118.1z"/>
	</g>
</g>
<g>
	<g>
		<path class="st2" d="M549.9,333v-56c0-22.1-17.9-40-40-40v-24c0-17.6-14.4-32-32-32h-200c-17.6,0-32,14.4-32,32v120.8
			c-18.2,3.7-32,19.9-32,39.2v16v1.3V421v216c0,13.2,10.8,24,24,24h328c13.2,0,24-10.8,24-24v-80v-72v-64v-30.7V389v-16
			C589.9,350.9,571.9,333,549.9,333z M509.9,253c16,0.7,24,11.2,24,24v104h-24V253z M261.9,213c0-8.8,7.2-16,16-16h200
			c8.8,0,16,7.2,16,16v168h-40.4c-4-38.2-36.4-68-75.6-68s-71.6,29.8-75.6,68h-40.4V213z M437.3,381H318.4c3.9-29.3,29.1-52,59.5-52
			S433.4,351.7,437.3,381z M229.9,373c0-10.4,6.7-19.2,16-22.5V381h-16V373z M573.9,549h-40c-13.2,0-24-10.8-24-24v-8
			c0-13.2,10.8-24,24-24h40V549z M573.9,477h-40c-22.1,0-40,17.9-40,40v8c0,22.1,17.9,40,40,40h40v72c0,4.4-3.6,8-8,8h-328
			c-4.4,0-8-3.6-8-8V429h344V477z M573.9,413h-344v-16h24h248h72V413z M573.9,381h-24v-32c13.2,0,24,10.8,24,24V381z"/>
	</g>
</g>
<g>
	<g>
		<path class="st1" d="M611.6,181.9h-12.3v-12.3c0-3.4-2.7-6.1-6.1-6.1s-6.1,2.7-6.1,6.1v12.3h-12.3c-3.4,0-6.1,2.7-6.1,6.1
			s2.7,6.1,6.1,6.1h12.3v12.2c0,3.4,2.7,6.1,6.1,6.1c3.4,0,6.1-2.7,6.1-6.1v-12.2h12.3c3.4,0,6.1-2.7,6.1-6.1
			C617.7,184.6,614.9,181.9,611.6,181.9z"/>
	</g>
</g>
<g>
	<g>
		<path class="st1" d="M316.6,110.5h-12.3V98.2c0-3.4-2.7-6.1-6.1-6.1c-3.4,0-6.1,2.7-6.1,6.1v12.3h-12.3c-3.4,0-6.1,2.7-6.1,6.1
			s2.7,6.1,6.1,6.1h12.3V135c0,3.4,2.7,6.1,6.1,6.1c3.4,0,6.1-2.7,6.1-6.1v-12.3h12.3c3.4,0,6.1-2.7,6.1-6.1
			C322.7,113.2,319.9,110.5,316.6,110.5z"/>
	</g>
</g>
<g>
	<g>
		<circle class="st2" cx="547.9" cy="521" r="12"/>
	</g>
</g>
<g>
	<g>
		<path class="st2" d="M471.9,229h-8.8c-5.2,0-9.5-3.6-9.5-8s-3.6-8-8-8H314.1c-4.4,0-8,3.6-8,8s-4.3,8-9.5,8h-8.8c-4.4,0-8,3.6-8,8
			v88c0,4.4,3.6,8,8,8c4.4,0,8-3.6,8-8v-80h0.8c11.1,0,20.6-6.7,24.1-16H439c3.5,9.3,13,16,24.1,16h0.8v80c0,4.4,3.6,8,8,8
			s8-3.6,8-8v-88C479.9,232.6,476.3,229,471.9,229z"/>
	</g>
</g>
<g>
	<path class="st3" d="M450.8,499.2c-12.3,0-23.5,7.3-28.5,18.6c-1.2,2.7,0,5.9,2.7,7.1s5.9,0,7.1-2.7c3.3-7.4,10.6-12.2,18.7-12.2
		c8.2,0,15.6,4.9,18.8,12.5c0.9,2,2.9,3.3,4.9,3.3c0.7,0,1.4-0.1,2.1-0.4c2.7-1.2,4-4.3,2.9-7C474.6,506.7,463.4,499.2,450.8,499.2z
		"/>
	<path class="st3" d="M344.7,499.2c-12.3,0-23.5,7.3-28.5,18.6c-1.2,2.7,0,5.9,2.7,7.1c2.7,1.2,5.9,0,7.1-2.7
		c3.3-7.4,10.6-12.2,18.7-12.2c8.2,0,15.6,4.9,18.8,12.5c0.9,2,2.9,3.3,4.9,3.3c0.7,0,1.4-0.1,2.1-0.4c2.7-1.2,4-4.3,2.9-7
		C368.6,506.7,357.3,499.2,344.7,499.2z"/>
	<path class="st3" d="M412.9,549c-3,0-5.4,2.4-5.4,5.4c0,5.3-4.3,9.7-9.7,9.7c-5.4,0-9.7-4.3-9.7-9.7c0-3-2.4-5.4-5.4-5.4
		s-5.4,2.4-5.4,5.4c0,11.2,9.2,20.4,20.4,20.4c11.2,0,20.4-9.2,20.4-20.4C418.3,551.4,415.8,549,412.9,549z"/>
</g>
<g>
	<g>
		<path class="st1" d="M587.5,283c-3.1,0-5.6,2.5-5.6,5.6s2.5,5.6,5.6,5.6s5.6-2.5,5.6-5.6C593.2,285.6,590.7,283,587.5,283z"/>
	</g>
</g>
<g>
	<g>
		<path class="st1" d="M533.9,105.4c-3.1,0-5.6,2.5-5.6,5.6s2.5,5.6,5.6,5.6c3.1,0,5.6-2.5,5.6-5.6S537,105.4,533.9,105.4z"/>
	</g>
</g>
<g>
	<g>
		<path class="st1" d="M181.5,152c-3.1,0-5.6,2.5-5.6,5.6c0,3.1,2.5,5.6,5.6,5.6s5.6-2.5,5.6-5.6C187.1,154.5,184.6,152,181.5,152z"
			/>
	</g>
</g>
</svg>
