<?xml version="1.0" encoding="utf-8"?>
<!-- Generator: Adobe Illustrator 22.0.0, SVG Export Plug-In . SVG Version: 6.00 Build 0)  -->
<svg version="1.1" id="Capa_1" xmlns="http://www.w3.org/2000/svg" xmlns:xlink="http://www.w3.org/1999/xlink" x="0px" y="0px"
	 viewBox="0 0 372 230" style="enable-background:new 0 0 372 230;" xml:space="preserve">
<style type="text/css">
	.st0{enable-background:new    ;}
	.st1{fill:#6B6C6E;}
	.st2{fill:none;stroke:#6B6C6E;stroke-width:2;}
	.st3{fill:#666666;}
	.st4{fill:#FFFFFF;stroke:#979797;stroke-width:2;}
	.st5{fill:none;stroke:#999999;stroke-width:2;stroke-linecap:round;stroke-linejoin:round;}
	.st6{fill:none;}
	.st7{fill:#E6E6E6;}
</style>
<g class="st0">
	<path class="st1" d="M190.1,66.2l3.3-10h2.4L191.2,69h-2.2l-4.6-12.8h2.4L190.1,66.2z"/>
	<path class="st1" d="M196.3,64.1c0-0.9,0.2-1.8,0.6-2.5c0.4-0.7,0.9-1.3,1.6-1.7c0.7-0.4,1.4-0.6,2.3-0.6c1.3,0,2.3,0.4,3.1,1.2
		s1.2,1.9,1.3,3.3l0,0.5c0,0.9-0.2,1.8-0.5,2.5s-0.9,1.3-1.5,1.7s-1.4,0.6-2.3,0.6c-1.3,0-2.4-0.4-3.2-1.3s-1.2-2.1-1.2-3.6V64.1z
		 M198.4,64.3c0,1,0.2,1.7,0.6,2.3c0.4,0.6,1,0.8,1.7,0.8s1.3-0.3,1.7-0.8s0.6-1.4,0.6-2.5c0-1-0.2-1.7-0.6-2.3s-1-0.8-1.7-0.8
		c-0.7,0-1.3,0.3-1.7,0.8C198.6,62.4,198.4,63.2,198.4,64.3z"/>
	<path class="st1" d="M212.2,66.4c0-0.4-0.2-0.7-0.5-0.9s-0.8-0.4-1.6-0.5s-1.3-0.3-1.8-0.6c-1.1-0.5-1.6-1.3-1.6-2.2
		c0-0.8,0.3-1.5,1-2.1s1.6-0.8,2.6-0.8c1.1,0,2.1,0.3,2.8,0.8s1,1.3,1,2.2h-2.1c0-0.4-0.2-0.8-0.5-1c-0.3-0.3-0.7-0.4-1.2-0.4
		c-0.5,0-0.9,0.1-1.1,0.3s-0.4,0.5-0.4,0.9c0,0.3,0.1,0.6,0.4,0.8s0.8,0.4,1.7,0.5c0.8,0.2,1.5,0.4,2,0.7c0.5,0.3,0.8,0.6,1.1,0.9
		s0.3,0.8,0.3,1.3c0,0.9-0.4,1.5-1.1,2.1s-1.6,0.8-2.8,0.8c-0.8,0-1.5-0.1-2.1-0.4s-1.1-0.7-1.4-1.2s-0.5-1-0.5-1.6h2.1
		c0,0.5,0.2,0.9,0.6,1.2c0.4,0.3,0.8,0.4,1.4,0.4c0.6,0,1-0.1,1.3-0.3S212.2,66.7,212.2,66.4z"/>
</g>
<path class="st2" d="M205.3,32.8c-1.6-0.8-3.6-2.2-3.6-3.5c0-0.7,0.2-1.1,0.5-1.2c3-1.7,4-7.2,4.2-7.2c1,0,1.7-2.6,1.7-4.2
	c0-1.4-0.4-1.3-1.1-1.7v-0.2c0-4.5-3.5-7.9-8-7.9c-4.4,0-8.2,3.6-8.2,8v0.2c-0.7,0.4-1,0.7-1,2c0,1.7,0.6,4.1,1.6,4.1
	c0.2,0,1.5,5.3,4.4,7c0.2,0.1,0.5,0.4,0.5,1c0,1.4-1.9,2.7-3.5,3.5c-2,1-11.8,1.8-11.8,11.2h36C217,34.7,207.8,34.1,205.3,32.8z"/>
<g>
	<path class="st3" d="M323.3,199c0-3.9,2.9-7.2,7.1-7.2s7.1,3.3,7.1,7.1v0.1c0,3.8-2.9,7.2-7.1,7.2
		C326.1,206.2,323.3,202.8,323.3,199z M335.8,199c0-3.2-2.3-5.8-5.4-5.8s-5.4,2.5-5.4,5.7v0.1c0,3.1,2.3,5.7,5.4,5.7
		S335.8,202.2,335.8,199L335.8,199z M351.7,199c0-3.9,2.9-7.2,7.1-7.2s7.1,3.3,7.1,7.1v0.1c0,3.8-2.9,7.2-7.1,7.2
		C354.5,206.2,351.7,202.8,351.7,199z M364.2,199c0-3.2-2.3-5.8-5.4-5.8c-3.2,0-5.4,2.5-5.4,5.7v0.1c0,3.1,2.3,5.7,5.4,5.7
		C361.9,204.7,364.2,202.2,364.2,199L364.2,199z M350.8,215.9c0-4,3.1-7.2,7.4-7.2s7.3,3.2,7.3,7.1v0.1c0,3.9-3.1,7.2-7.4,7.2
		S350.8,219.8,350.8,215.9L350.8,215.9z M362.3,215.9c0-2.4-1.7-4.4-4.2-4.4s-4.1,1.9-4.1,4.3v0.1c0,2.4,1.7,4.3,4.2,4.3
		S362.3,218.2,362.3,215.9z M306.9,221.9c0,1.1-0.9,2-2,2h-29c-1.1,0-2-0.9-2-2v-29c0-1.1,0.9-2,2-2h29c1.1,0,2,0.9,2,2V221.9
		L306.9,221.9z M295.8,198.2h-16.2c-1,0-1.9,0.8-1.9,1.9l0,0c0,1,0.8,1.9,1.9,1.9h5.1c0.1,0,0.1,0.1,0.1,0.1c0,0.1,0,0.1-0.1,0.1
		s-0.7,0.2-1.3,0.3v12.3c0,1.2,0.9,2,2,2c1.2,0,2-0.9,2-2v-12.3c0-0.4,0.3-0.6,0.6-0.6h7.2c2,0,3.3,0.9,3.3,2.7v0.1
		c0,1.6-1.2,2.8-3.2,2.8h-3.1c-1.5,0-1.6,0.7-1.6,1.4v6c0,1.2,0.9,2,2,2c1.2,0,2-0.9,2-2v-3c-0.5-0.2-1.3-0.4-1.4-0.4
		s-0.1-0.1-0.1-0.1c0-0.1,0.1-0.1,0.1-0.1h1.9c4.1,0,7.5-2.2,7.5-6.5v-0.1C302.9,200.8,300.2,198.2,295.8,198.2L295.8,198.2z
		 M343.5,192h-4c-0.4,0-0.8,0.4-0.8,0.8v12.3c0,0.4,0.4,0.8,0.8,0.8h4c4.3,0,7.4-3,7.4-6.9v-0.1C350.9,195,347.9,192,343.5,192z
		 M349.3,199c0,3.1-2.3,5.4-5.8,5.4h-2.9c-0.2,0-0.4-0.2-0.4-0.3l0,0v-10.3c0-0.2,0.2-0.3,0.4-0.3h2.9
		C347,193.5,349.3,195.9,349.3,199L349.3,199z M323.3,192h-9.6c-0.4,0-0.7,0.3-0.7,0.7l0,0c0,0.4,0.3,0.7,0.7,0.7h3.7
		c0.2,0,0.4,0.2,0.4,0.4v11.4c0,0.4,0.4,0.8,0.8,0.8s0.8-0.4,0.8-0.8v-11.4c0-0.2,0.2-0.4,0.4-0.4h3.7c0.4,0,0.7-0.3,0.7-0.7l0,0
		C324,192.4,323.6,192,323.3,192L323.3,192z M319.3,208.9h-4.1c-0.8,0-1.5,0.7-1.5,1.5v10.9c0,0.8,0.7,1.5,1.6,1.5
		c0.8,0,1.5-0.7,1.5-1.5v-2.8h2.3c3.1,0,5.6-1.7,5.6-4.9v-0.1C324.7,210.8,322.6,208.9,319.3,208.9L319.3,208.9z M321.6,213.8
		c0,1.2-0.9,2.1-2.4,2.1h-2c-0.2,0-0.4-0.2-0.4-0.3l0,0V212c0-0.2,0.2-0.4,0.4-0.4h2C320.6,211.6,321.6,212.3,321.6,213.8z
		 M348.4,214.8h-4.5c-0.7,0-1.3,0.6-1.3,1.3s0.6,1.3,1.3,1.3h2.7c0.2,0,0.4,0.2,0.4,0.4v1.6c-0.8,0.6-1.8,0.8-2.9,0.8
		c-2.5,0-4.2-1.9-4.2-4.4v-0.1c0-2.4,1.8-4.3,4-4.3c1.3,0,2.2,0.4,3,0.9c0.2,0.2,0.5,0.3,0.9,0.3c0.8,0,1.5-0.7,1.5-1.5
		c0-0.6-0.3-1-0.6-1.2c-1.3-0.9-2.6-1.4-4.7-1.4c-4.2,0-7.3,3.2-7.3,7.2v0.1c0,4.1,3,7.1,7.3,7.1c2.1,0,3.7-0.7,4.9-1.4
		c0.7-0.4,1-1,1-1.9v-3.4C349.9,215.4,349.2,214.8,348.4,214.8L348.4,214.8z M336.9,220.8l-4.8-10.9c-0.3-0.7-0.9-1.2-1.8-1.2h-0.2
		c-0.8,0-1.5,0.5-1.8,1.2l-4.8,10.9c-0.1,0.2-0.2,0.4-0.2,0.6c0,0.8,0.6,1.4,1.4,1.4c0.6,0,1.2-0.4,1.4-0.9l1-2.3h6.1l0.9,2.2
		c0.3,0.6,0.7,1,1.5,1s1.5-0.6,1.5-1.5C337.1,221.2,337,221,336.9,220.8L336.9,220.8z M330.2,212.3l1.8,4.2v0.1
		c0,0.1-0.1,0.3-0.2,0.3h-3.1c-0.1,0-0.2-0.1-0.2-0.3v-0.1L330.2,212.3L330.2,212.3z"/>
</g>
<g class="st0">
	<path class="st3" d="M9.8,204.6L9,210.5c0,0.4-0.2,0.5-0.6,0.5H6.7c-0.3,0-0.5-0.1-0.5-0.5l2.1-15c0.1-0.9,0.5-1.4,1.5-1.4h5.4
		c3,0,4.7,1.9,4.7,4.7c0,2.2-1.2,5.8-6.3,5.8H9.8z M11,196.8l-0.7,5.3h3.5c2.1,0,3.2-1.3,3.2-3.1c0-1-0.5-2.3-2.5-2.3H11z"/>
	<path class="st3" d="M20,207.4c0-3,2.2-4.3,5.8-4.3h2.7l0.1-0.9c0.1-1.2-0.5-1.8-2.1-1.8c-1.2,0-2.9,0.3-3.7,0.5
		c-0.3,0.1-0.4,0-0.5-0.3l-0.3-1.4c-0.1-0.3,0.1-0.4,0.3-0.5c1.4-0.5,3-0.7,4.5-0.7c3,0,4.5,1,4.5,3.3c0,0.2,0,0.8-0.1,1
		c0,0-0.8,6-1,7.4c0,0.4-0.2,0.6-0.6,0.7c-1.5,0.5-3.5,0.7-4.5,0.7C21.4,211.2,20,210,20,207.4z M27.8,208.7l0.5-3.6h-2.6
		c-1.9,0-2.9,0.7-2.9,2.2c0,1.3,1,1.7,2.5,1.7C26.1,209,27.2,208.9,27.8,208.7z"/>
	<path class="st3" d="M43.7,210.9c-0.4,2.9-1.2,5.3-5.5,5.3c-1.4,0-3.3-0.4-4.3-0.7c-0.4-0.2-0.5-0.3-0.3-0.6l0.5-1.5
		c0.1-0.3,0.2-0.3,0.6-0.2c0.9,0.3,2.3,0.6,3.3,0.6c2.1,0,2.7-0.7,3-3.1c-0.9,0.3-2.1,0.4-3,0.4c-3.2,0-4.5-2.1-4.5-5.1
		c0-4.8,2.4-7.9,6.9-7.9c1.5,0,3.3,0.2,4.6,0.8c0.3,0.1,0.3,0.3,0.3,0.6L43.7,210.9z M36.3,205.8c0,2,0.9,2.9,2.5,2.9
		c0.5,0,1.5-0.1,2.5-0.4l1.1-7.6c-0.7-0.2-1.6-0.3-2.2-0.3C38.2,200.5,36.3,201.9,36.3,205.8z"/>
	<path class="st3" d="M58.5,203.2c0,4.8-2.4,8-6.6,8c-3.2,0-4.9-1.7-4.9-4.9c0-5.3,2.9-8.2,6.6-8.2C56.8,198.1,58.5,200,58.5,203.2z
		 M49.8,206.1c0,1.8,0.7,2.8,2.4,2.8c2.6,0,3.5-2.9,3.5-5.6c0-1.6-0.6-2.8-2.4-2.8C50.9,200.4,49.8,203.1,49.8,206.1z"/>
	<path class="st3" d="M75.3,199.4h-0.1l-1.7,3.3l-2.9,5.3c-0.4,0.8-0.7,1.1-1.5,1.1h-1c-0.8,0-1-0.2-1.2-1.1l-1.3-5.1l-0.8-3.2h-0.1
		l-1.5,10.8c0,0.4-0.2,0.5-0.6,0.5h-1.7c-0.3,0-0.5-0.1-0.5-0.5l2.1-14.9c0.1-1,0.5-1.5,1.6-1.5h0.8c0.8,0,1.1,0.2,1.3,1.1l1.8,7
		l0.9,3.8H69l2-3.8l3.7-7c0.5-0.9,0.9-1.1,1.7-1.1h1c1,0,1.3,0.4,1.2,1.4l-2.1,14.9c0,0.4-0.2,0.5-0.6,0.5h-1.6
		c-0.4,0-0.5-0.1-0.5-0.5L75.3,199.4z"/>
	<path class="st3" d="M82.3,211h-1.8c-0.3,0-0.5-0.1-0.4-0.4l1.7-11.8c0-0.3,0.2-0.4,0.5-0.4h1.8c0.4,0,0.5,0,0.4,0.4l-1.7,11.8
		C82.8,210.9,82.7,211,82.3,211z M85.4,194.8c0,1.1-1,2-2,2c-0.8,0-1.4-0.6-1.4-1.4c0-1.1,0.9-2,1.9-2
		C84.8,193.4,85.4,194,85.4,194.8z"/>
	<path class="st3" d="M92.9,207.3c0-0.8-0.8-1.2-2.2-1.8c-2.1-0.8-3.3-1.9-3.3-3.6c0-2.4,1.7-3.8,4.7-3.8c1.3,0,2.6,0.2,3.7,0.7
		c0.2,0.1,0.3,0.3,0.1,0.6l-0.5,1.4c-0.1,0.3-0.3,0.3-0.5,0.2c-1.2-0.4-2-0.6-3-0.6c-1.3,0-1.8,0.7-1.8,1.4c0,0.7,0.6,1.1,2.1,1.7
		c1.8,0.7,3.5,1.7,3.5,3.8c0,2.8-2.4,3.9-5,3.9c-1.5,0-3.4-0.3-4.6-1.1c-0.2-0.1-0.2-0.3-0.1-0.6l0.6-1.3c0.2-0.3,0.3-0.4,0.6-0.2
		c1.2,0.6,2.5,0.8,3.6,0.8C92.1,208.9,92.9,208.3,92.9,207.3z"/>
	<path class="st3" d="M111,194.9c0.2,0.1,0.2,0.2,0,0.7l-0.6,1.3c-0.1,0.3-0.3,0.4-0.6,0.3c-1.1-0.5-2.3-0.6-3.3-0.6
		c-4,0-5.3,3.7-5.3,7.7c0,2.5,0.7,4.3,3.8,4.3c1.4,0,2.8-0.5,3.8-0.9c0.5-0.2,0.5,0,0.6,0.2l0.6,1.4c0.2,0.4,0,0.6-0.2,0.7
		c-1.8,0.9-3.8,1.2-5.5,1.2c-4.2,0-6.1-2.4-6.1-6.8c0-6.6,3.3-10.5,8.2-10.5C107.8,193.9,109.6,194.2,111,194.9z"/>
	<path class="st3" d="M119.9,208.7l1.4-9.9c0-0.3,0.1-0.4,0.5-0.4h1.8c0.3,0,0.4,0.1,0.4,0.4l-1.4,10.3c-0.1,1.1-0.7,1.8-1.8,2
		c-0.8,0.1-2.3,0.2-3.1,0.2c-4.3,0-5.4-1.7-4.8-6.1l0.9-6.3c0-0.3,0.1-0.4,0.5-0.4h1.8c0.3,0,0.4,0.1,0.4,0.4l-0.9,6.4
		c-0.4,2.7-0.1,3.7,2.5,3.7C118.3,208.8,119,208.8,119.9,208.7z"/>
	<path class="st3" d="M125.6,206.4c0-5.7,2.8-8.3,6.4-8.3c3.1,0,4.4,1.7,4.4,3.4c0,2.9-2,4.2-6.1,4.2c-0.6,0-1.2,0-1.9-0.1
		c0,0.3,0,0.5,0,0.8c0,1.9,0.8,2.5,2.6,2.5c1,0,1.9-0.3,2.7-0.6c0.3-0.1,0.4-0.1,0.5,0.1l0.6,1.4c0.1,0.2,0,0.4-0.2,0.6
		c-1.3,0.7-2.9,1-4.2,1C127.1,211.2,125.6,209.7,125.6,206.4z M128.7,203.6c0.5,0,1,0.1,1.4,0.1c3,0,3.7-0.6,3.7-1.9
		c0-0.7-0.5-1.4-1.9-1.4C130.2,200.4,129,201.4,128.7,203.6z"/>
	<path class="st3" d="M141.8,200.6l-1.4,9.9c0,0.4-0.2,0.4-0.5,0.4h-1.8c-0.3,0-0.5-0.1-0.4-0.4l1.4-10.3c0.2-1.2,0.7-1.8,1.8-2
		c0.6-0.1,2.2-0.2,3-0.2c4.1,0,5.8,1.7,5.2,6.1l-0.9,6.3c0,0.4-0.1,0.4-0.5,0.4h-1.8c-0.3,0-0.5-0.1-0.4-0.4l0.9-6.4
		c0.3-2.5-0.1-3.7-2.9-3.7C143.2,200.5,142.6,200.5,141.8,200.6z"/>
	<path class="st3" d="M158.5,210.9c-1.1,0.3-2.4,0.4-3,0.4c-2.5,0-3.4-1.1-3-3.4l1-7.3h-1.7c-0.4,0-0.3-0.2-0.3-0.4l0.1-1
		c0-0.3,0.1-0.4,0.4-0.5l1.8-0.4l0.6-2.2c0.1-0.4,0.2-0.5,0.6-0.6l1.4-0.5c0.2,0,0.4,0,0.4,0.4l-0.4,3h2.7c0.3,0,0.4,0.2,0.3,0.4
		l-0.2,1.3c0,0.3-0.1,0.4-0.4,0.4h-2.7l-1,7c-0.1,1,0.2,1.3,1.2,1.3c0.4,0,1.3-0.1,1.7-0.2c0.3,0,0.4,0.1,0.4,0.3l0.2,1.5
		C158.8,210.6,158.8,210.8,158.5,210.9z"/>
	<path class="st3" d="M160.4,207.4c0-3,2.2-4.3,5.8-4.3h2.7l0.1-0.9c0.1-1.2-0.5-1.8-2.1-1.8c-1.2,0-2.9,0.3-3.7,0.5
		c-0.3,0.1-0.4,0-0.5-0.3l-0.3-1.4c-0.1-0.3,0.1-0.4,0.3-0.5c1.4-0.5,3-0.7,4.5-0.7c3,0,4.5,1,4.5,3.3c0,0.2,0,0.8-0.1,1
		c0,0-0.8,6-1,7.4c0,0.4-0.2,0.6-0.6,0.7c-1.5,0.5-3.5,0.7-4.5,0.7C161.7,211.2,160.4,210,160.4,207.4z M168.2,208.7l0.5-3.6h-2.6
		c-1.9,0-2.9,0.7-2.9,2.2c0,1.3,1,1.7,2.5,1.7C166.4,209,167.5,208.9,168.2,208.7z"/>
	<path class="st3" d="M180.2,207.3c0-0.8-0.8-1.2-2.2-1.8c-2.1-0.8-3.3-1.9-3.3-3.6c0-2.4,1.7-3.8,4.7-3.8c1.3,0,2.6,0.2,3.7,0.7
		c0.2,0.1,0.3,0.3,0.1,0.6l-0.5,1.4c-0.1,0.3-0.3,0.3-0.5,0.2c-1.2-0.4-2-0.6-3-0.6c-1.3,0-1.8,0.7-1.8,1.4c0,0.7,0.6,1.1,2.1,1.7
		c1.8,0.7,3.5,1.7,3.5,3.8c0,2.8-2.4,3.9-5,3.9c-1.5,0-3.4-0.3-4.6-1.1c-0.2-0.1-0.2-0.3-0.1-0.6l0.6-1.3c0.2-0.3,0.3-0.4,0.6-0.2
		c1.2,0.6,2.5,0.8,3.6,0.8C179.5,208.9,180.2,208.3,180.2,207.3z"/>
</g>
<circle class="st4" cx="200.5" cy="129.5" r="26.5"/>
<g transform="translate(184 110)">
	<circle class="st5" cx="10.5" cy="25.5" r="1.5"/>
	<path class="st5" d="M25.5,7.5l-9.8,9.8c-3.4-1.8-7.7-0.4-9.4,3c-1.4,2.7-0.9,6,1.3,8.2c2.7,2.7,7.2,2.7,9.9,0
		c2.2-2.2,2.7-5.5,1.3-8.2L22,17h1.5v-1.5L24,15h1.5v-1.5L26,13h1.5v-1.5l1-1v-3H25.5z"/>
</g>
<path class="st6" d="M189,117h24v24h-24V117z"/>
<path class="st7" d="M240,145.6l1.5-2.6l58.9,34l-1.5,2.6L240,145.6z M198,76h3v18h-3V76z M155.2,145.6l-1.5-2.6l-58.9,34l1.5,2.6
	L155.2,145.6z"/>
</svg>
