<svg id="Capa_2" data-name="Capa 2" xmlns="http://www.w3.org/2000/svg" xmlns:xlink="http://www.w3.org/1999/xlink" viewBox="0 0 480 300.33333"><defs><style>.cls-1{fill:#fff;}.cls-2{opacity:0.2;fill:url(#Degradado_sin_nombre_47);}.cls-3{fill:#1d1d1b;}.cls-4{fill:#e20d17;}.cls-5{fill:#ea610a;}.cls-6{fill:#f59e00;}.cls-7{fill:#c51d23;}.cls-8{fill:#080808;}.cls-9{font-size:32.99752px;font-family:MyriadPro-Regular, Myriad Pro;}</style><linearGradient id="Degradado_sin_nombre_47" x1="50.85787" y1="-39.14213" x2="429.14214" y2="339.14214" gradientUnits="userSpaceOnUse"><stop offset="0" stop-color="#1d1d1b"/><stop offset="1" stop-color="#d1091e"/></linearGradient></defs><title>2</title><rect id="rect3014" class="cls-1" y="0.33333" width="480" height="300" rx="20" ry="20"/><rect id="rect3014-2" data-name="rect3014" class="cls-2" width="480" height="300" rx="20" ry="20"/><path class="cls-3" d="M372.88821,263.78743a2.80433,2.80433,0,0,0-.94539-.62092,3.167,3.167,0,0,0-1.198-.22147,4.536,4.536,0,0,0-.71572.05933,3.14167,3.14167,0,0,0-.72725.20962,2.74286,2.74286,0,0,0-.67744.41524,2.49053,2.49053,0,0,0-.55879.66833,2.72647,2.72647,0,0,0-1.03729-.99261,3.05545,3.05545,0,0,0-1.49652-.3599,3.49771,3.49771,0,0,0-.58561.0514,2.70036,2.70036,0,0,0-.60087.178,2.3801,2.3801,0,0,0-1.064.89379v-.92542h-1.59221V270.72h1.60749v-4.19989a2.25744,2.25744,0,0,1,.15312-.85817,1.85154,1.85154,0,0,1,.40954-.62885,1.706,1.706,0,0,1,.60087-.38361,2.058,2.058,0,0,1,.73492-.13051,1.5814,1.5814,0,0,1,1.25924.51412,2.17352,2.17352,0,0,1,.44775,1.47117V270.72h1.60755v-4.19989a2.2576,2.2576,0,0,1,.15312-.85817,1.85179,1.85179,0,0,1,.40954-.62885,1.70609,1.70609,0,0,1,.60088-.38361,2.058,2.058,0,0,1,.73492-.13051,1.58142,1.58142,0,0,1,1.25924.51412,2.17352,2.17352,0,0,1,.44775,1.47117V270.72h1.60755v-4.76149a3.29492,3.29492,0,0,0-.21815-1.21807A2.77482,2.77482,0,0,0,372.88821,263.78743Z" transform="translate(0 0.16667)"/><path class="cls-3" d="M381.36573,264.0603a2.96612,2.96612,0,0,0-.98076-.81069,2.99918,2.99918,0,0,0-1.4-.30457,3.6952,3.6952,0,0,0-2.68924,1.12319,3.83254,3.83254,0,0,0-.80677,1.26155,4.52916,4.52916,0,0,0,0,3.20329,3.82979,3.82979,0,0,0,.80677,1.26155,3.69451,3.69451,0,0,0,2.68924,1.12319,3.03243,3.03243,0,0,0,1.4-.30057,2.92162,2.92162,0,0,0,.98076-.80677V270.72h1.65315v-7.57724h-1.65315Zm-.06326,3.83606a2.30423,2.30423,0,0,1-.46671.76721,2.16472,2.16472,0,0,1-.71974.51019,2.45958,2.45958,0,0,1-1.89433-.00786,2.13724,2.13724,0,0,1-.71581-.522,2.31259,2.31259,0,0,1-.45079-.77121,2.87895,2.87895,0,0,1,0-1.88247,2.31427,2.31427,0,0,1,.45079-.77114,2.13906,2.13906,0,0,1,.71581-.522,2.45839,2.45839,0,0,1,1.89433-.00792,2.16852,2.16852,0,0,1,.71974.51019,2.30691,2.30691,0,0,1,.46671.76721,2.88645,2.88645,0,0,1,0,1.92988Z" transform="translate(0 0.16667)"/><path class="cls-3" d="M390.6175,266.91954a4.086,4.086,0,0,0-1.93794-.72367l-.78293-.11866q-.26109-.03955-.49048-.091a1.60659,1.60659,0,0,1-.39539-.13843.75616.75616,0,0,1-.26488-.22147.54422.54422,0,0,1-.09895-.3322.75378.75378,0,0,1,.37568-.65255,1.9007,1.9007,0,0,1,1.05593-.2491,3.86627,3.86627,0,0,1,.7.06326,5.77506,5.77506,0,0,1,.65255.15821,4.76191,4.76191,0,0,1,.56159.20962,4.546,4.546,0,0,1,.42709.21747l.71181-1.28925a4.86078,4.86078,0,0,0-1.38421-.58923,6.55794,6.55794,0,0,0-1.68465-.20962,4.619,4.619,0,0,0-1.3051.17006,2.989,2.989,0,0,0-.98469.48249,2.10184,2.10184,0,0,0-.62485.76322,2.29824,2.29824,0,0,0-.21747,1.01245,1.86788,1.86788,0,0,0,.65242,1.483,3.64174,3.64174,0,0,0,1.9181.73958l.79092.10281a2.48724,2.48724,0,0,1,.99667.30443.6229.6229,0,0,1,.31642.53389.75569.75569,0,0,1-.43508.67626,2.651,2.651,0,0,1-1.28925.24917,4.95309,4.95309,0,0,1-.83447-.06326,4.179,4.179,0,0,1-.67226-.17006,3.25615,3.25615,0,0,1-.54575-.24517,3.9839,3.9839,0,0,1-.44693-.29658l-.76721,1.24171a4.06149,4.06149,0,0,0,.86217.49834,5.935,5.935,0,0,0,.88587.29658,5.60071,5.60071,0,0,0,.82261.14236q.38734.03556.68025.03569a5.38049,5.38049,0,0,0,1.45918-.18192,3.27894,3.27894,0,0,0,1.08363-.51032,2.2594,2.2594,0,0,0,.67226-.78293,2.15956,2.15956,0,0,0,.23332-1.00053A1.81038,1.81038,0,0,0,390.6175,266.91954Z" transform="translate(0 0.16667)"/><path class="cls-3" d="M406.09533,264.04845a3.24072,3.24072,0,0,0-1.131-.81469,3.58529,3.58529,0,0,0-1.45133-.28872,3.93737,3.93737,0,0,0-1.53043.28872,3.4466,3.4466,0,0,0-1.19044.81469,3.70872,3.70872,0,0,0-.7752,1.26155,4.56946,4.56946,0,0,0-.27673,1.62139,4.50148,4.50148,0,0,0,.28473,1.63737,3.63763,3.63763,0,0,0,.79877,1.25742,3.54268,3.54268,0,0,0,1.226.80677,4.17926,4.17926,0,0,0,1.56612.28486,5.60235,5.60235,0,0,0,1.64123-.23732,4.1256,4.1256,0,0,0,1.475-.83047l-.82248-1.17845a3.69882,3.69882,0,0,1-1.04808.58916,3.30887,3.30887,0,0,1-1.1429.20962,2.69159,2.69159,0,0,1-.77507-.1108,2.02838,2.02838,0,0,1-.67239-.344,2.07236,2.07236,0,0,1-.51418-.59715,2.46066,2.46066,0,0,1-.29258-.878h5.59982q.016-.14223.02384-.30044t.00786-.31642a4.71946,4.71946,0,0,0-.265-1.61753A3.80789,3.80789,0,0,0,406.09533,264.04845Zm-4.62312,2.23439a2.82615,2.82615,0,0,1,.2216-.75536,2.025,2.025,0,0,1,.40724-.59315,1.70849,1.70849,0,0,1,.59316-.38367,2.15238,2.15238,0,0,1,.78706-.13444,1.76029,1.76029,0,0,1,1.28925.49041,2.36635,2.36635,0,0,1,.63271,1.37622Z" transform="translate(0 0.16667)"/><path class="cls-3" d="M428.05765,264.0603a2.96454,2.96454,0,0,0-.98069-.81069,2.9989,2.9989,0,0,0-1.39992-.30457,3.69521,3.69521,0,0,0-2.68931,1.12319,3.83147,3.83147,0,0,0-.80677,1.26155,4.5282,4.5282,0,0,0,0,3.20329,3.82872,3.82872,0,0,0,.80677,1.26155,3.69451,3.69451,0,0,0,2.68931,1.12319,3.03215,3.03215,0,0,0,1.39992-.30057,2.92009,2.92009,0,0,0,.98069-.80677V270.72h1.65322v-7.57724h-1.65322Zm-.06312,3.83606a2.30438,2.30438,0,0,1-.46677.76721,2.16431,2.16431,0,0,1-.7198.51019,2.45942,2.45942,0,0,1-1.89426-.00786,2.13857,2.13857,0,0,1-.71581-.522,2.31371,2.31371,0,0,1-.45079-.77121,2.87895,2.87895,0,0,1,0-1.88247,2.31539,2.31539,0,0,1,.45079-.77114,2.14039,2.14039,0,0,1,.71581-.522,2.45823,2.45823,0,0,1,1.89426-.00792,2.16811,2.16811,0,0,1,.7198.51019,2.30706,2.30706,0,0,1,.46677.76721,2.88864,2.88864,0,0,1,0,1.92988Z" transform="translate(0 0.16667)"/><path class="cls-3" d="M397.70579,269.20933a2.226,2.226,0,0,1-.78706.15022,1.36278,1.36278,0,0,1-.47064-.07911.97473.97473,0,0,1-.37954-.249,1.20791,1.20791,0,0,1-.25716-.43894,1.95785,1.95785,0,0,1-.095-.64856V264.6456h2.65495v-1.5028h-2.65495v-2.29371H394.0555v2.29371h-1.51072v1.5028h1.51072v3.32987a3.03643,3.03643,0,0,0,.71581,2.22653,2.71,2.71,0,0,0,2.00506.71581,3.56969,3.56969,0,0,0,1.29325-.22147,5.45994,5.45994,0,0,0,.70642-.33212l-.56522-1.38415A4.22585,4.22585,0,0,1,397.70579,269.20933Z" transform="translate(0 0.16667)"/><path class="cls-3" d="M412.63029,262.945a3.02916,3.02916,0,0,0-1.25769.2531,2.673,2.673,0,0,0-.94114.93887v-.99421h-1.50087V270.72h1.51671v-4.16827a2.57079,2.57079,0,0,1,.13451-.86217,1.86092,1.86092,0,0,1,.37169-.64063,1.53988,1.53988,0,0,1,.56945-.39546,1.92142,1.92142,0,0,1,.72766-.13451,3.25182,3.25182,0,0,1,.64856.07118,2.71915,2.71915,0,0,1,.33215.08925l.48878-1.5816a3.02248,3.02248,0,0,0-.40556-.1014A4.14147,4.14147,0,0,0,412.63029,262.945Z" transform="translate(0 0.16667)"/><path class="cls-3" d="M435.61,262.945a3.02916,3.02916,0,0,0-1.25769.2531,2.673,2.673,0,0,0-.94114.93887v-.99421h-1.50087V270.72H433.427v-4.16827a2.57079,2.57079,0,0,1,.13451-.86217,1.86092,1.86092,0,0,1,.37169-.64063,1.53988,1.53988,0,0,1,.56945-.39546,1.92142,1.92142,0,0,1,.72766-.13451,3.25182,3.25182,0,0,1,.64856.07118,2.71914,2.71914,0,0,1,.33215.08925l.48878-1.5816a3.02249,3.02249,0,0,0-.40556-.1014A4.14147,4.14147,0,0,0,435.61,262.945Z" transform="translate(0 0.16667)"/><path class="cls-3" d="M443.33105,260.063v3.99734a2.96588,2.96588,0,0,0-.98069-.81069,2.99984,2.99984,0,0,0-1.40005-.30457,3.6952,3.6952,0,0,0-2.68917,1.12319,3.83147,3.83147,0,0,0-.80677,1.26155,4.5282,4.5282,0,0,0,0,3.20329,3.82872,3.82872,0,0,0,.80677,1.26155,3.6945,3.6945,0,0,0,2.68917,1.12319,3.0331,3.0331,0,0,0,1.40005-.30057,2.92138,2.92138,0,0,0,.98069-.80677V270.72h1.65308V260.063Zm-.06326,7.8334a2.30221,2.30221,0,0,1-.46677.76721,2.16377,2.16377,0,0,1-.71967.51019,2.45941,2.45941,0,0,1-1.89426-.00786,2.13778,2.13778,0,0,1-.71594-.522,2.31342,2.31342,0,0,1-.45066-.77121,2.87895,2.87895,0,0,1,0-1.88247,2.31509,2.31509,0,0,1,.45066-.77114,2.1396,2.1396,0,0,1,.71594-.522,2.45823,2.45823,0,0,1,1.89426-.00792,2.16757,2.16757,0,0,1,.71967.51019,2.30488,2.30488,0,0,1,.46677.76721,2.88645,2.88645,0,0,1,0,1.92988Z" transform="translate(0 0.16667)"/><path class="cls-3" d="M416.58647,265.1795a2.2267,2.2267,0,0,1,.75137-.49834,2.46317,2.46317,0,0,1,.94127-.17792h0a2.94753,2.94753,0,0,1,1.03546.17792,2.48324,2.48324,0,0,1,.80219.47808l.79582-1.32356a4.05181,4.05181,0,0,0-1.00822-.58606,4.48937,4.48937,0,0,0-3.25077,0,3.92008,3.92008,0,0,0-1.28912.83839,3.8719,3.8719,0,0,0-.85018,1.26155,4.20754,4.20754,0,0,0,0,3.1638,3.86992,3.86992,0,0,0,.85018,1.26142,3.91708,3.91708,0,0,0,1.28912.83846,4.48936,4.48936,0,0,0,3.25077,0,4.04834,4.04834,0,0,0,1.00822-.58606l-.79585-1.32363a2.48658,2.48658,0,0,1-.80215.47807,2.949,2.949,0,0,1-1.03546.17792h0a2.46191,2.46191,0,0,1-.94127-.17792,2.22376,2.22376,0,0,1-.75137-.49834,2.322,2.322,0,0,1-.49834-.76708,2.75631,2.75631,0,0,1,0-1.9695A2.324,2.324,0,0,1,416.58647,265.1795Z" transform="translate(0 0.16667)"/><path class="cls-3" d="M448.4667,269.60992a.78742.78742,0,0,1,.30967.06108.80676.80676,0,0,1,.25206.166.77964.77964,0,0,1,.1695.24516.75658.75658,0,0,1,0,.59961.78683.78683,0,0,1-.1695.24689.79858.79858,0,0,1-.25206.16689.78691.78691,0,0,1-.30967.06108.80839.80839,0,0,1-.31486-.06108.79307.79307,0,0,1-.25377-.16689.774.774,0,0,1-.16863-.24689.76648.76648,0,0,1,0-.59961.76689.76689,0,0,1,.16863-.24516.80967.80967,0,0,1,.56863-.22711Zm0,1.33167a.54062.54062,0,0,0,.21677-.04387.55428.55428,0,0,0,.17636-.11957.56024.56024,0,0,0,.11784-.17722.57426.57426,0,0,0,0-.43615.54815.54815,0,0,0-.11784-.17722.5621.5621,0,0,0-.17636-.11871.54062.54062,0,0,0-.21677-.04387.55528.55528,0,0,0-.22109.04387.56986.56986,0,0,0-.17807.11871.54032.54032,0,0,0-.11871.17722.56127.56127,0,0,0,.11871.61337.56186.56186,0,0,0,.17807.11957A.55528.55528,0,0,0,448.4667,270.94159Zm.04473-.90155a.32048.32048,0,0,1,.21419.0628.21.21,0,0,1,.07315.16774.18879.18879,0,0,1-.05249.13679.26892.26892,0,0,1-.15226.07139l.21335.246h-.23056l-.191-.23915h-.02236v.23915h-.1927V270.04Zm-.148.16689v.12561h.14452a.14031.14031,0,0,0,.06883-.01377.05076.05076,0,0,0,.02407-.04817.05323.05323,0,0,0-.02407-.04817.12763.12763,0,0,0-.06883-.01548Z" transform="translate(0 0.16667)"/><path class="cls-4" d="M392.44124,227.72343a28.49767,28.49767,0,0,1,10.84362-22.39069,28.55677,28.55677,0,1,0,0,44.78139A28.49767,28.49767,0,0,1,392.44124,227.72343Z" transform="translate(0 0.16667)"/><path class="cls-5" d="M392.44124,227.72343a28.49767,28.49767,0,0,0,10.84362,22.39069,28.53874,28.53874,0,0,0,0-44.78139A28.49767,28.49767,0,0,0,392.44124,227.72343Z" transform="translate(0 0.16667)"/><path class="cls-6" d="M447.61847,243.16969v-.83588h-.338v-.2298h.92581v.2298h-.338v.83588Zm1.79,0v-.73931l-.23979.63774H448.904l-.23976-.63607v.73764h-.24977V242.104h.358l.26474.68271.26309-.68271h.358v1.06568Z" transform="translate(0 0.16667)"/><path class="cls-6" d="M420.998,199.16667a28.426,28.426,0,0,0-17.71315,6.16607,28.53874,28.53874,0,0,1,0,44.78139A28.55393,28.55393,0,1,0,420.998,199.16667Z" transform="translate(0 0.16667)"/><path class="cls-7" d="M109.456,41.83167c.38165-8.7278,4.25748-15.33308,12.01626-19.52915A20.37945,20.37945,0,0,1,133.2236,19.9054a21.08757,21.08757,0,0,1,15.671,8.80557A21.8943,21.8943,0,0,1,153.035,45.03188a21.74823,21.74823,0,0,1-9.54267,15.49234,21.37222,21.37222,0,0,1-11.95853,3.77343,20.36515,20.36515,0,0,1-7.885-1.43774,21.8878,21.8878,0,0,1-11.746-10.66209,22.14747,22.14747,0,0,1-2.0181-5.96764A35.12929,35.12929,0,0,1,109.456,41.83167Zm40.87582.26116c.01906-10.30985-8.75393-19.31546-18.87441-19.26009-10.39223.05686-18.60592,9.08233-18.84084,18.49883-.27924,11.19247,9.02206,19.89064,18.93232,19.83116C141.66549,61.102,150.37694,51.98839,150.33178,42.09282Z" transform="translate(0 0.16667)"/><path class="cls-8" d="M57.55563,41.95582c.00009-3.5086.01217-7.01728-.01116-10.52573-.00415-.62417.116-.86587.82519-.85687,3.46.044,6.92105-.003,10.38126.031a8.74687,8.74687,0,0,1,4.85815,1.3101,5.47448,5.47448,0,0,1,2.61778,5.15755,5.5399,5.5399,0,0,1-1.21761,3.79856c-.74679.80164-.73387.78449.16473,1.44079a5.23029,5.23029,0,0,1,2.10969,3.76424,6.23268,6.23268,0,0,1-2.2163,6.10776,4.99234,4.99234,0,0,1-2.8023,1.18742c-4.72878.28347-9.4645.07-14.19686.13511-.57225.00788-.51178-.37508-.51195-.73573q-.00167-3.64077-.0007-7.28154Q57.55552,43.72213,57.55563,41.95582Zm9.097,7.20974c1.224,0,2.4483.01481,3.67194-.00676a3.88965,3.88965,0,0,0,1.61939-.24974c1.15146-.53415,1.69735-2.48369.71793-4.03745-.78326-1.24258-2.07116-1.37709-3.34224-1.40806-2.15876-.0526-4.32.00636-6.47955-.02769-.66447-.01047-.8239.27795-.81564.8618.01935,1.36775.03066,2.73659-.00488,4.10369-.01625.6251.251.78347.81714.77222C64.10824,49.14832,65.38061,49.16566,66.65262,49.16556Zm-.36882-14.24071c-1.40381,0-2.55685.01062-3.70951-.00568-.41111-.00582-.59189.08491-.56986.56054.04553.98266.04579,1.97022.0039,2.95317-.029.68009.25407.873.89458.86395,1.96913-.02788,3.93891-.01562,5.9084-.00828a5.1867,5.1867,0,0,0,1.70865-.212c.63686-.21944,1.39444-.36429,1.61944-1.15283a2.331,2.331,0,0,0-1.65991-2.78095A20.43954,20.43954,0,0,0,66.28381,34.92486Z" transform="translate(0 0.16667)"/><path class="cls-8" d="M48.927,53.505a25.74933,25.74933,0,0,1-5.82765-.481A9.49377,9.49377,0,0,1,36.177,47.15594a14.38435,14.38435,0,0,1-.64187-7.94187,10.04967,10.04967,0,0,1,4.056-6.637,9.49491,9.49491,0,0,1,3.16214-1.30024c3.583-.96717,7.25157-.62507,10.8936-.69517.51667-.00995.65838.21061.64572.69263-.02588.98444-.035,1.97124.00541,2.95476.02277.55436-.20456.71892-.71346.71512-1.68185-.01255-3.365-.04289-5.0455.00674a13.2734,13.2734,0,0,0-5.07189.85841,6.05644,6.05644,0,0,0-3.77842,4.68244,7.99035,7.99035,0,0,0,.7042,5.22334,6.22954,6.22954,0,0,0,4.89334,3.35033,52.065,52.065,0,0,0,7.842.24227c.97349.01833.97428-.00043.975,1.00825.0006.81695-.023,1.63476.00784,2.45054.02105.55657-.16742.76553-.7467.75015C51.99578,53.48034,50.62553,53.505,48.927,53.505Z" transform="translate(0 0.16667)"/><path class="cls-8" d="M93.47769,53.50467a26.01522,26.01522,0,0,1-5.87988-.48731,9.44875,9.44875,0,0,1-6.82442-5.70529,14.21315,14.21315,0,0,1-.6917-8.26935,10.72253,10.72253,0,0,1,3.4214-6.09064,8.66235,8.66235,0,0,1,3.67625-1.68132,31.00358,31.00358,0,0,1,8.44437-.68154c.84111.0097,1.68276.01334,2.52354-.00631.42816-.01.615.15359.61118.58636-.00944,1.05745-.01345,2.11531.00716,3.17249.011.56659-.3338.59575-.75647.60109-2.0902.02642-4.18163-.07376-6.27077.06772a10.66283,10.66283,0,0,0-4.4836,1.15119,6.109,6.109,0,0,0-3.17905,4.99557,7.82217,7.82217,0,0,0,.81143,4.53656A6.37752,6.37752,0,0,0,89.783,49.05707a49.08024,49.08024,0,0,0,7.70015.25095c1.14424.02069,1.14473.00206,1.145,1.11547.00017.79316-.02148,1.5871.00731,2.37921.01892.52036-.147.72679-.699.71311C96.5672,53.48191,95.19663,53.50467,93.47769,53.50467Z" transform="translate(0 0.16667)"/><path class="cls-8" d="M31.87679,42.10547c.001,3.55475-.01344,7.10961.01514,10.66413.0048.5974-.21567.75129-.7509.73882-.93621-.0218-1.874-.02687-2.80977.00273-.51721.01636-.72591-.14111-.72486-.69123q.02038-10.77229.00072-21.54464c-.00094-.53159.16347-.71539.70447-.692.93494.0404,1.87464.04364,2.80907-.00305.61824-.03089.76894.20977.76557.789C31.86541,34.94787,31.87577,38.5267,31.87679,42.10547Z" transform="translate(0 0.16667)"/><path class="cls-7" d="M125.17823,53.528c-1.41808,0-2.83647-.01683-4.25409.00864-.53554.00962-.72672-.19535-.7245-.7175q.018-4.25417.0002-8.50845c-.0025-.58591.15529-.85506.82461-.83823,1.87359.04714,3.74986-.01328,5.62346.03333.69212.01722.88826-.22357.83606-.87161a12.79355,12.79355,0,0,1-.003-1.80135c.039-.63877-.16525-.89519-.85433-.87909-1.87374.04377-3.74943-.00248-5.62375.02617-.59214.00905-.81185-.18533-.80694-.7858q.03182-3.89346.00215-7.78732c-.00378-.586.13636-.85441.80811-.84523,2.73951.03742,5.47984.01452,8.21986.01752,1.01535.00111,1.01535.00572,1.01907.98034.00726,1.89646.00726,1.89661-1.86826,1.89642-1.53826-.00016-3.07686.01726-4.61459-.01124-.51234-.0095-.67906.17211-.66133.66632.02757.76812.024,1.53854,0,2.30694-.01648.5269.19115.72406.72227.71819,1.85049-.02046,3.7019.018,5.5518-.02091.70452-.01483.897.2288.88655.91777-.03826,2.52313-.032,5.04738-.00236,7.57074.00685.58407-.19934.74945-.74838.74324-1.87452-.0212-3.75.01726-5.62387-.02309-.62655-.01349-.80259.2208-.78656.79421.02552.91262.03163,1.82744-.0028,2.73949-.02107.55835.16194.76634.73943.75725,1.82624-.02873,3.65321-.01339,5.47989-.00934.88565.002.93218.05554.92988.94348-.00107.40859-.03044.82008.00768,1.22511.05461.58017-.20176.76481-.75.75757-1.44186-.01905-2.88414-.00644-4.32626-.00644Z" transform="translate(0 0.16667)"/><path class="cls-7" d="M133.26129,46.28077a1.017,1.017,0,0,1-.12478-.62194q.00021-3.87751,0-7.755a1.51564,1.51564,0,0,1,.11594-.70059c2.20239.12177,4.40671.02667,6.61012.05.14643.00155.29375-.01521.3172-.20935a12.936,12.936,0,0,0,.07925-3.29147c-.01168-.439-.42987-.30114-.68357-.303-1.87369-.01384-3.748-.0311-5.62106.00487-.61467.01181-.89309-.13583-.82777-.796a15.634,15.634,0,0,0,.01906-1.58431c-.00114-.35885.15262-.50188.52562-.50055q4.4682.016,8.93647,0c.4012-.00143.56148.146.55939.5448q-.02279,4.32289-.02961,8.64541c-2.1855.01219-4.37125.03666-6.55687.02852-.49752-.00185-.69527.16281-.68042.66344.02349.79216.03336,1.58677-.00253,2.378-.03018.66564.247.88216.89476.87616,2.1137-.01955,4.22782.00507,6.34178.0127q.00291,4.78752.00611,9.57442a19.83857,19.83857,0,0,1-2.72122.05127c-2.4141-.00175-4.82817-.0291-7.24226-.04627-.01347-.62381-.00676-1.2489-.04613-1.87107-.03864-.611.18026-.85143.82358-.83952,1.87427.03472,3.74993-.00735,5.62432.02378.58273.00967.76769-.19548.72946-.75422a27.59515,27.59515,0,0,0-.11056-3.44839.25562.25562,0,0,0-.27981-.16975Q136.58955,46.261,133.26129,46.28077Z" transform="translate(0 0.16667)"/><text class="cls-9" transform="translate(66.5 185.57516)"><tspan xml:space="preserve">0000  0000  0000  0000</tspan></text></svg>