<?xml version="1.0" encoding="utf-8"?>
<!-- Generator: Adobe Illustrator 21.1.0, SVG Export Plug-In . SVG Version: 6.00 Build 0)  -->
<svg version="1.1" id="Capa_1" xmlns="http://www.w3.org/2000/svg" xmlns:xlink="http://www.w3.org/1999/xlink" x="0px" y="0px"
	 viewBox="0 0 21.6 15.4" style="enable-background:new 0 0 21.6 15.4;" xml:space="preserve">
<style type="text/css">
	.st0{fill:#00A1DF;}
</style>
<g>
	<path class="st0" d="M4.9,4.2h3.8c0.5,0,1-0.4,1-0.9l0.2-1.1c0-0.2-0.1-0.3-0.3-0.3H6c-0.6,0-1.1,0.5-1.2,1L4.7,4
		C4.7,4.1,4.7,4.2,4.9,4.2 M3.5,13.9h3.8c0.5,0,1-0.4,1.1-0.9l0.2-1c0-0.2-0.1-0.4-0.3-0.4H4.6c-0.6,0-1.1,0.5-1.2,1l-0.2,1
		C3.3,13.8,3.4,13.9,3.5,13.9 M2.1,9H8c0.5,0,1-0.4,1-0.9l0.1-1c0-0.2-0.1-0.3-0.3-0.3H3.2c-0.6,0-1.1,0.5-1.2,1l-0.1,1
		C1.9,8.9,2,9,2.1,9"/>
	<path class="st0" d="M16.2,4.2c1.2,0,1.4,0.8,1.4,1.3c0,1.1-0.7,2-2,2h-2.1L14,4.2H16.2z M15.5,9.6c4.2,0,4.8-3,4.8-4.3
		c0-2-1.2-3.4-3.5-3.4h-4c-0.8,0-1.1,0.4-1.1,1.1l-1.5,10.7c0,0.3,0.1,0.4,0.3,0.4h1.8c0.3,0,0.4,0,0.4-0.4l0.6-4H15.5z"/>
</g>
</svg>
