<?xml version="1.0" encoding="utf-8"?>
<!-- Generator: Adobe Illustrator 19.0.0, SVG Export Plug-In . SVG Version: 6.00 Build 0)  -->
<svg version="1.1" id="Capa_1" xmlns="http://www.w3.org/2000/svg" xmlns:xlink="http://www.w3.org/1999/xlink" x="0px" y="0px"
	 viewBox="-414.8 284.4 29.5 28.3" style="enable-background:new -414.8 284.4 29.5 28.3;" xml:space="preserve">
<style type="text/css">
	.st0{fill:#FFFFFF;stroke:#04A3DD;stroke-width:0.8;stroke-miterlimit:10;}
	.st1{fill:#00A3DD;}
</style>
<circle class="st0" cx="-400.1" cy="298.6" r="13.3"/>
<g>
	<path class="st1" d="M-392.1,304.7v-0.9c0-0.9-0.4-1.8-1.2-2.4c-1.8-1.3-3.4-2.2-4-2.5v-1c0.1-0.3,0.3-0.6,0.3-0.9
		c0.4-0.1,0.7-0.9,0.9-1.5c0.3-0.7,0.1-1.3,0-1.6c0.3-1.5,0.1-2.7-0.3-3.2c-0.3-0.3-0.6-0.4-0.7-0.6s-0.4-0.6-1-0.9
		c-0.6-0.3-1.2-0.4-1.8-0.4c-0.1,0-0.3,0-0.3,0c-0.3,0-0.6,0-0.9,0.1l0,0c-0.3,0.1-0.6,0.3-0.9,0.4c-0.3,0.1-0.6,0.4-0.9,0.7
		c-0.6,0.6-0.9,1.2-1,1.8c-0.1,0.6-0.1,1,0,1.6l-0.1,0.1c-0.3,0.3-0.3,0.9,0,1.6c0.1,0.6,0.3,1,0.7,1.3c0.1,0.4,0.3,1,0.4,1.3v0.9
		c-0.6,0.3-2.4,1.2-4,2.5c-0.7,0.6-1.2,1.5-1.2,2.4v0.9c0,0.6,0.6,1.2,1.2,1.2h14C-392.5,306-392.1,305.4-392.1,304.7z
		 M-407.6,304.7v-0.9c0-0.7,0.3-1.3,0.9-1.8c1.8-1.5,3.7-2.4,4.1-2.5c0.1-0.1,0.3-0.3,0.3-0.4v-1.2c0-0.1,0-0.1,0-0.1
		c-0.3-0.4-0.4-0.9-0.4-1.5c0-0.1-0.1-0.3-0.3-0.3c0,0-0.1-0.3-0.3-0.9c-0.1-0.4-0.1-0.7-0.1-0.7c0.1,0,0.3,0,0.3-0.1
		c0.1-0.1,0.1-0.3,0-0.4c-0.1-0.4-0.1-1,0-1.6c0.1-0.4,0.4-1,0.9-1.5c0.3-0.3,0.4-0.4,0.7-0.6l0,0c0.3-0.1,0.4-0.3,0.7-0.4l0,0
		c0.1,0,0.4-0.1,0.6-0.1c0.6,0,1.2,0,1.6,0.3c0.6,0.3,0.7,0.7,0.7,0.7c0,0.1,0.1,0.1,0.3,0.3c0,0,0.3,0,0.4,0.3
		c0.1,0.3,0.4,1,0.1,2.8c0,0.1,0,0.4,0.3,0.4c0,0,0,0.3-0.1,0.9c-0.1,0.4-0.3,0.7-0.3,0.7c-0.1,0-0.1,0-0.3,0
		c-0.1,0-0.3,0.1-0.3,0.3c-0.1,0.4-0.1,0.7-0.3,1.2v0.1v1.3c0,0.3,0.1,0.4,0.3,0.4c0.3,0.1,2.2,1.2,4,2.5c0.6,0.4,0.9,1,0.9,1.8v0.9
		c0,0.1-0.1,0.3-0.3,0.3h-14C-407.4,305.1-407.6,305-407.6,304.7z"/>
</g>
</svg>
