<?xml version="1.0" encoding="utf-8"?>
<!-- Generator: Adobe Illustrator 19.0.0, SVG Export Plug-In . SVG Version: 6.00 Build 0)  -->
<svg version="1.1" id="Capa_1" xmlns="http://www.w3.org/2000/svg" xmlns:xlink="http://www.w3.org/1999/xlink" x="0px" y="0px"
	 viewBox="-335 278.4 44 38.9" style="enable-background:new -335 278.4 44 38.9;" xml:space="preserve">
<style type="text/css">
	.st0{fill:#00A3DD;}
	.st1{fill:#FFFFFF;}
</style>
<circle class="st0" cx="-313" cy="297.8" r="18.8"/>
<g>
	<path class="st1" d="M-301.6,306.5v-1.2c0-1.3-0.6-2.6-1.7-3.4c-2.3-1.8-4.8-3.1-5.6-3.6v-1.5c0.2-0.3,0.3-0.8,0.4-1.2
		c0.7-0.2,1-1.1,1.2-2c0.3-1.1,0.2-1.8-0.1-2.2c0.3-2.1,0.2-3.6-0.6-4.6c-0.3-0.4-0.8-0.7-1.1-0.8c-0.2-0.3-0.7-0.8-1.3-1.2
		c-0.8-0.4-1.6-0.7-2.5-0.7c-0.1,0-0.3,0-0.4,0c-0.4,0-0.8,0.1-1.2,0.2l0,0c-0.4,0.1-0.9,0.3-1.3,0.7c-0.4,0.3-0.9,0.7-1.3,1.1
		c-0.8,0.8-1.2,1.6-1.5,2.6c-0.2,0.8-0.2,1.6,0,2.2c-0.1,0.1-0.1,0.1-0.2,0.2c-0.3,0.4-0.3,1.1,0,2.2c0.2,0.8,0.4,1.5,0.9,1.8
		c0.1,0.7,0.3,1.3,0.7,1.9v1.2c-0.9,0.4-3.2,1.7-5.6,3.6c-1,0.8-1.7,2-1.7,3.4v1.2c0,0.9,0.8,1.7,1.7,1.7h19.5
		C-302.4,308.2-301.6,307.4-301.6,306.5z M-323.2,306.5v-1.2c0-0.9,0.4-1.8,1.1-2.3c2.6-2,5.1-3.2,5.6-3.5c0.2-0.1,0.4-0.4,0.4-0.7
		v-1.6c0-0.1,0-0.2-0.1-0.3c-0.3-0.6-0.6-1.2-0.7-1.9c0-0.2-0.2-0.4-0.4-0.4c-0.1-0.1-0.2-0.3-0.4-1.1c-0.2-0.7-0.2-1-0.1-1.1
		c0.2,0,0.3-0.1,0.6-0.2c0.1-0.1,0.1-0.3,0.1-0.6c-0.2-0.7-0.3-1.5-0.1-2.2c0.1-0.7,0.6-1.3,1.1-2c0.3-0.3,0.7-0.7,1.1-0.9l0,0
		c0.3-0.2,0.7-0.4,1-0.6l0,0c0.3-0.1,0.6-0.1,0.9-0.1c0.9-0.1,1.7,0.1,2.3,0.4c0.8,0.4,1,0.9,1,0.9c0.1,0.2,0.2,0.3,0.4,0.3
		c0,0,0.3,0,0.6,0.4c0.3,0.4,0.7,1.5,0.2,3.9c-0.1,0.2,0.1,0.6,0.3,0.7c0,0.1,0.1,0.3-0.1,1.1c-0.2,0.7-0.3,1-0.4,1.1
		c-0.1,0-0.2,0-0.3,0c-0.2,0.1-0.3,0.2-0.3,0.4c-0.1,0.6-0.2,1.1-0.4,1.6c0,0.1-0.1,0.2-0.1,0.2v1.8c0,0.3,0.2,0.6,0.4,0.7
		c0.4,0.2,3.1,1.6,5.6,3.5c0.7,0.6,1.1,1.5,1.1,2.3v1.2c0,0.2-0.2,0.4-0.4,0.4h-19.5C-323.1,307-323.2,306.8-323.2,306.5z"/>
</g>
</svg>
